<?xml version="1.0" encoding="UTF-8" standalone="no"?>
<!-- Created with Inkscape (http://www.inkscape.org/) -->

<svg
   xmlns:dc="http://purl.org/dc/elements/1.1/"
   xmlns:cc="http://creativecommons.org/ns#"
   xmlns:rdf="http://www.w3.org/1999/02/22-rdf-syntax-ns#"
   xmlns:svg="http://www.w3.org/2000/svg"
   xmlns="http://www.w3.org/2000/svg"
   xmlns:sodipodi="http://sodipodi.sourceforge.net/DTD/sodipodi-0.dtd"
   xmlns:inkscape="http://www.inkscape.org/namespaces/inkscape"
   width="49.90266mm"
   height="50.55439mm"
   viewBox="0 0 49.90266 50.55439"
   version="1.1"
   id="svg2452"
   inkscape:version="0.92.3 (2405546, 2018-03-11)"
   sodipodi:docname="layergroups.svg">
  <defs
     id="defs2446" />
  <sodipodi:namedview
     id="base"
     pagecolor="#ffffff"
     bordercolor="#666666"
     borderopacity="1.0"
     inkscape:pageopacity="0.0"
     inkscape:pageshadow="2"
     inkscape:zoom="0.35"
     inkscape:cx="480.07531"
     inkscape:cy="235.2659"
     inkscape:document-units="mm"
     inkscape:current-layer="layer1"
     showgrid="false"
     inkscape:window-width="1859"
     inkscape:window-height="1025"
     inkscape:window-x="61"
     inkscape:window-y="27"
     inkscape:window-maximized="1" />
  <metadata
     id="metadata2449">
    <rdf:RDF>
      <cc:Work
         rdf:about="">
        <dc:format>image/svg+xml</dc:format>
        <dc:type
           rdf:resource="http://purl.org/dc/dcmitype/StillImage" />
        <dc:title></dc:title>
      </cc:Work>
    </rdf:RDF>
  </metadata>
  <g
     inkscape:label="Layer 1"
     inkscape:groupmode="layer"
     id="layer1"
     transform="translate(89.207282,-121.28828)">
    <path
       style="fill:#643513;fill-opacity:1;stroke:none;stroke-width:0.26458332px;stroke-linecap:butt;stroke-linejoin:miter;stroke-opacity:1"
       d="m -89.207279,160.24682 25.902901,-12.42114 23.972057,10.2466 -25.397878,13.77039 z"
       id="path2415"
       inkscape:connector-curvature="0" />
    <path
       style="fill:#8d5122;fill-opacity:1;stroke:none;stroke-width:0.26458332px;stroke-linecap:butt;stroke-linejoin:miter;stroke-opacity:1"
       d="m -89.207282,160.24682 0.0277,-21.09631 25.902902,-12.42114 -0.0277,21.09631 z"
       id="path2411"
       inkscape:connector-curvature="0" />
    <path
       style="fill:#77411b;fill-opacity:1;stroke:none;stroke-width:0.26458332px;stroke-linecap:butt;stroke-linejoin:miter;stroke-opacity:1"
       d="m -63.27668,126.72937 23.944359,10.17623 v 21.16668 l -23.972055,-10.2466 z"
       id="path2413"
       inkscape:connector-curvature="0" />
    <path
       inkscape:connector-curvature="0"
       style="fill:#fb0000;fill-opacity:1;stroke-width:0.05427429"
       d="m -66.681975,146.03787 c -0.969795,-0.45847 -2.97071,-1.40161 -4.446481,-2.09588 -1.475771,-0.69428 -3.821671,-1.79851 -5.213109,-2.45386 -2.878381,-1.35567 -3.517717,-1.65629 -4.344258,-2.04269 -0.323267,-0.15113 -0.714251,-0.33985 -0.868857,-0.41939 -0.272556,-0.14022 -0.277214,-0.14644 -0.153322,-0.20474 0.309801,-0.14577 2.348519,-1.07757 4.394085,-2.00831 l 2.221959,-1.01099 0.282383,0.12847 c 0.155304,0.0707 0.62736,0.2915 1.049009,0.49076 0.421649,0.19926 1.905083,0.89746 3.296528,1.55155 1.391437,0.65409 3.139364,1.4758 3.88428,1.82602 0.74491,0.35022 1.455883,0.6863 1.579934,0.74683 l 0.22555,0.11006 0.489973,-0.26766 c 0.498962,-0.27257 5.077994,-2.75236 6.239731,-3.37915 0.351375,-0.18958 1.213835,-0.65707 1.916586,-1.03888 0.702747,-0.3818 1.481294,-0.80386 1.730103,-0.93789 l 0.452377,-0.24371 1.157549,0.44584 c 0.636654,0.24521 2.129274,0.81844 3.316915,1.27384 1.187637,0.45541 2.159338,0.844 2.159338,0.86353 0,0.0195 -0.350716,0.22557 -0.779407,0.45785 -1.293937,0.70112 -3.519178,1.90563 -4.76591,2.57975 -0.64652,0.34959 -1.566484,0.84866 -2.044351,1.10903 -0.477867,0.26037 -1.084471,0.58883 -1.348004,0.72991 -0.506929,0.27136 -1.144191,0.61556 -2.357398,1.27328 -0.407586,0.22097 -1.281552,0.69406 -1.942132,1.05132 -0.660582,0.35725 -1.888667,1.0222 -2.729063,1.47765 -0.840402,0.45546 -1.553375,0.82651 -1.584379,0.82456 -0.03102,-0.002 -0.849839,-0.37864 -1.819629,-0.83711 z"
       id="path1859" />
    <path
       inkscape:connector-curvature="0"
       style="fill:#000000;fill-opacity:1;stroke-width:0.05427429"
       d="m -65.60869,155.17838 c -0.688126,-0.33152 -8.206062,-3.87638 -8.739629,-4.12091 -0.154607,-0.0709 -0.925069,-0.43373 -1.712148,-0.80639 -0.78708,-0.37266 -1.615046,-0.76221 -1.839924,-0.86566 -0.504781,-0.23222 -1.615294,-0.75638 -1.891029,-0.89257 -0.112441,-0.0555 -0.612671,-0.29118 -1.111619,-0.52365 -0.498949,-0.23247 -0.906972,-0.43681 -0.906709,-0.45409 2.49e-4,-0.0173 0.442993,-0.23062 0.98385,-0.4741 0.540849,-0.24348 1.860369,-0.84434 2.93225,-1.33524 1.071888,-0.49091 2.060844,-0.93694 2.197685,-0.99119 l 0.248802,-0.0986 1.43105,0.67809 c 0.78708,0.37294 1.557549,0.7365 1.712148,0.80789 0.154607,0.0714 0.568586,0.26529 0.919962,0.4309 0.351377,0.1656 0.845856,0.39812 1.098843,0.51671 0.252988,0.11859 1.425938,0.67036 2.606558,1.22615 1.180612,0.5558 2.320587,1.09171 2.533277,1.19091 l 0.386706,0.18037 1.069898,-0.5833 c 1.339537,-0.73032 2.18904,-1.19167 2.909821,-1.58025 0.309205,-0.1667 0.907187,-0.49088 1.328835,-0.72039 0.421648,-0.22951 1.019622,-0.55316 1.328836,-0.71923 0.3092,-0.16607 1.459153,-0.78947 2.555441,-1.38533 l 1.993254,-1.08338 1.609929,0.61077 c 3.136564,1.18993 4.650901,1.78461 4.650901,1.82639 0,0.0233 -0.166735,0.12867 -0.37053,0.23423 -0.203796,0.10556 -0.75003,0.39774 -1.21384,0.64929 -0.463812,0.25155 -1.050282,0.56803 -1.303282,0.70328 -0.252986,0.13525 -0.816454,0.44005 -1.252162,0.67733 -0.435705,0.23729 -1.66615,0.90438 -2.734331,1.48242 -2.808028,1.51955 -4.249436,2.30161 -5.488908,2.97809 -0.601448,0.32825 -1.099492,0.59683 -1.106763,0.59683 -0.0072,0 -0.44664,0.23617 -0.976373,0.52484 -1.948773,1.06192 -3.084113,1.66515 -3.121979,1.65877 -0.02136,-0.004 -0.349337,-0.15613 -0.72882,-0.33895 z"
       id="path1861" />
    <path
       inkscape:connector-curvature="0"
       style="fill:#28b5f5;fill-opacity:1;stroke-width:0.05427429"
       d="m -65.864236,137.42917 c -0.52003,-0.24777 -1.69298,-0.80208 -2.606557,-1.23183 -0.913571,-0.42975 -2.247512,-1.05845 -2.964313,-1.39712 -0.716807,-0.33867 -1.567768,-0.73847 -1.891035,-0.88844 -0.323261,-0.14996 -1.289221,-0.60321 -2.146574,-1.00722 -0.857351,-0.40401 -1.823312,-0.85886 -2.146573,-1.01077 -0.323267,-0.15192 -1.082231,-0.50945 -1.686596,-0.79452 -0.604364,-0.28507 -1.416133,-0.66796 -1.803923,-0.85087 -0.387792,-0.18291 -0.686778,-0.35273 -0.664417,-0.37738 0.02238,-0.0246 0.454649,-0.24232 0.960625,-0.48371 0.505977,-0.24139 1.126952,-0.53902 1.37994,-0.66139 0.805314,-0.38954 4.92942,-2.37265 7.257473,-3.48981 1.236838,-0.59352 3.589004,-1.72459 5.227045,-2.51348 1.638038,-0.78889 3.021011,-1.43435 3.073263,-1.43435 0.05224,0 0.643965,0.23488 1.314897,0.52196 0.670933,0.28708 1.668362,0.71366 2.216507,0.94795 0.548148,0.23428 1.399109,0.59884 1.89103,0.81012 0.49193,0.21127 1.883365,0.80681 3.092096,1.32341 4.739635,2.02569 6.420638,2.74467 7.199984,3.07951 0.446263,0.19173 0.819992,0.3486 0.830525,0.3486 0.0105,0 0.01916,0.0219 0.01916,0.0486 0,0.0267 -0.258731,0.18699 -0.574966,0.3561 -0.316238,0.16911 -0.977458,0.5263 -1.469385,0.79374 -0.491916,0.26745 -1.365888,0.73967 -1.942142,1.04938 -0.576252,0.30971 -1.438709,0.77663 -1.916581,1.03761 -0.477869,0.26098 -1.949807,1.05861 -3.270972,1.77251 -1.321168,0.71391 -2.735607,1.47919 -3.143203,1.70062 -0.94471,0.51324 -1.905664,1.03176 -2.427676,1.30995 -0.22488,0.11984 -0.934908,0.50614 -1.577849,0.85844 -0.642936,0.35231 -1.194917,0.63882 -1.226612,0.63669 -0.03171,-0.002 -0.483118,-0.20657 -1.003147,-0.45433 z"
       id="path1840" />
    <path
       style="fill:#a67e4f;fill-opacity:1;stroke:none;stroke-width:0.26458332px;stroke-linecap:butt;stroke-linejoin:miter;stroke-opacity:1"
       d="m -64.702498,150.74636 25.397876,-13.77039 -0.0277,21.09631 -25.397877,13.77039 z"
       id="path2409"
       inkscape:connector-curvature="0" />
    <path
       style="fill:#926e43;fill-opacity:1;stroke:none;stroke-width:0.26458332px;stroke-linecap:butt;stroke-linejoin:miter;stroke-opacity:1"
       d="m -89.179582,139.15051 -0.0277,21.09631 24.477079,11.59585 0.0277,-21.09631 z"
       id="path2407"
       inkscape:connector-curvature="0" />
  </g>
</svg>
