<?xml version="1.0" encoding="UTF-8" standalone="no"?>
<!-- Created with Inkscape (http://www.inkscape.org/) -->

<svg
   xmlns:dc="http://purl.org/dc/elements/1.1/"
   xmlns:cc="http://creativecommons.org/ns#"
   xmlns:rdf="http://www.w3.org/1999/02/22-rdf-syntax-ns#"
   xmlns:svg="http://www.w3.org/2000/svg"
   xmlns="http://www.w3.org/2000/svg"
   xmlns:sodipodi="http://sodipodi.sourceforge.net/DTD/sodipodi-0.dtd"
   xmlns:inkscape="http://www.inkscape.org/namespaces/inkscape"
   version="1.1"
   id="svg2"
   width="2700.626"
   height="1203.8416"
   viewBox="0 0 2700.626 1203.8416"
   sodipodi:docname="carrtel.svg"
   inkscape:version="0.92.3 (2405546, 2018-03-11)">
  <metadata
     id="metadata8">
    <rdf:RDF>
      <cc:Work
         rdf:about="">
        <dc:format>image/svg+xml</dc:format>
        <dc:type
           rdf:resource="http://purl.org/dc/dcmitype/StillImage" />
        <dc:title />
      </cc:Work>
    </rdf:RDF>
  </metadata>
  <defs
     id="defs6" />
  <sodipodi:namedview
     pagecolor="#ffffff"
     bordercolor="#666666"
     borderopacity="1"
     objecttolerance="10"
     gridtolerance="10"
     guidetolerance="10"
     inkscape:pageopacity="0"
     inkscape:pageshadow="2"
     inkscape:window-width="1859"
     inkscape:window-height="1025"
     id="namedview4"
     showgrid="false"
     inkscape:zoom="0.37928803"
     inkscape:cx="249.26996"
     inkscape:cy="972.58604"
     inkscape:window-x="61"
     inkscape:window-y="27"
     inkscape:window-maximized="1"
     inkscape:current-layer="svg2" />
  <path
     style="fill:#000000"
     d="m 1675.9086,1192.9715 v -10.8701 l -4.25,-1.191 c -7.3424,-2.0577 -13.1641,-7.1333 -16.9099,-14.7429 l -3.3401,-6.7852 v -46.0204 -46.0204 l 2.8062,-5.7144 c 5.2999,-10.7928 15.0074,-16.7856 27.1904,-16.7856 17.0382,0 27.8568,9.504 30.5456,26.8339 0.7384,4.7591 0.983,20.6758 0.7214,46.9337 -0.4511,45.2825 -0.4991,45.5848 -8.6252,54.324 -3.2133,3.4557 -6.4819,5.7278 -10.6384,7.3949 l -6,2.4065 -0.2838,10.5535 -0.2839,10.5535 h -5.4661 -5.4662 z m 10.6713,-21.2774 c 2.7931,-0.7034 5.8679,-2.4584 7.9437,-4.5343 6.434,-6.434 6.3873,-6.0396 6.363,-53.6904 -0.02,-39.553 -0.1729,-43.4602 -1.843,-47.1365 -6.6001,-14.5284 -25.7756,-15.4644 -33.8938,-1.6544 l -2.7412,4.663 -0.3006,41.7053 c -0.1939,26.9051 0.072,43.0871 0.7479,45.599 2.0452,7.5955 7.7101,13.6671 14.1755,15.1936 4.7438,1.12 4.5091,1.1236 9.5485,-0.1453 z M 2104.9086,932.49832 V 670.8415 l 205.75,-0.002 c 193.8873,-0.001 205.9506,-0.10237 209.2301,-1.75 4.5773,-2.29929 8.0199,-7.55698 8.0199,-12.248 0,-4.69102 -3.4426,-9.94871 -8.0199,-12.24845 -3.2795,-1.64763 -15.3428,-1.74853 -209.2301,-1.75 l -205.75,-0.002 V 541.90416 440.96683 l 6.729,-3.31266 c 6.3278,-3.11519 7.3574,-3.31266 17.271,-3.31266 9.8709,0 10.962,0.20673 17.1382,3.24726 4.5356,2.2329 10.1518,6.55299 17.9789,13.82993 22.4632,20.88409 35.641,26.87449 58.8829,26.76728 22.7648,-0.10502 35.8018,-6.19375 58.4211,-27.28465 5.4565,-5.08788 11.5906,-10.30463 13.6311,-11.59277 6.2742,-3.96074 14.2735,-5.75324 23.511,-5.2684 11.6363,0.61075 18.0121,3.95516 31.443,16.49342 13.1129,12.2414 16.8392,15.16878 24.9938,19.63491 10.3098,5.64654 20.46,8.04773 34,8.04323 23.3779,-0.008 36.5041,-6.20474 60.9155,-28.7586 6.1073,-5.64258 12.7254,-10.75216 16,-12.35296 5.0495,-2.46846 6.6384,-2.73036 16.5845,-2.73357 15.6525,-0.005 19.0142,1.71956 37.9816,19.48543 19.5563,18.3175 33.3439,24.36706 55.5184,24.3597 12.7966,-0.004 20.5814,-1.61085 30.7296,-6.34184 8.8547,-4.12797 13.2633,-7.38032 27.6381,-20.38921 12.1865,-11.0285 20.2181,-16.3958 22.9602,-15.34357 1.3936,0.53478 1.5209,0.97915 7.5078,26.20441 23.7361,100.01106 20.8138,205.98787 -8.4159,305.20153 -6.8692,23.316 -13.639,42.0176 -23.8183,65.7985 l -8.1329,18.99998 -180.0284,0.5 c -171.361,0.4759 -180.161,0.5869 -182.7821,2.3043 -8.6239,5.6509 -8.6239,17.7404 0,23.3914 2.6197,1.7165 11.1568,1.8286 175.4603,2.3043 l 172.7067,0.5 -8.0138,14 c -56.2516,98.2701 -141.9942,180.23198 -243.3113,232.58268 -78.6179,40.6221 -164.7108,62.9701 -252.75,65.6089 l -20.75,0.6219 z m 104.1282,192.77688 c 3.0915,-1.5987 6.8279,-8.1291 6.8279,-11.9337 0,-3.8046 -3.7364,-10.335 -6.8279,-11.9337 -11.9837,-6.197 -24.2761,5.8904 -18.4582,18.1506 3.1317,6.5996 11.6496,9.2377 18.4582,5.7168 z m 62.0091,0 c 6.2406,-3.2272 8.3853,-13.6495 4.1415,-20.1263 -5.1669,-7.8857 -18.4805,-6.7195 -22.6088,1.9804 -2.093,4.4106 -2.0965,6.6104 -0.019,11.8034 2.8582,7.1433 11.3219,10.0472 18.486,6.3425 z m -131.1771,-105.0645 c 8.4353,-4.9829 7.9154,-19.2747 -0.8663,-23.81598 -9.6948,-5.0133 -19.9219,2.483 -18.8339,13.80508 0.4018,4.182 1.0873,5.5766 4.0966,8.3344 2.9984,2.7478 4.3994,3.312 8.2244,3.312 2.5357,0 5.8564,-0.736 7.3792,-1.6355 z m 62,0 c 8.4353,-4.9829 7.9154,-19.2747 -0.8663,-23.81598 -9.6948,-5.0133 -19.9219,2.483 -18.8339,13.80508 0.4018,4.182 1.0873,5.5766 4.0966,8.3344 2.9984,2.7478 4.3994,3.312 8.2244,3.312 2.5357,0 5.8564,-0.736 7.3792,-1.6355 z m 287.1337,0.087 c 6.4768,-3.3493 8.8521,-12.5667 4.8903,-18.977 -4.2615,-6.89528 3.9917,-6.47448 -126.9842,-6.47448 -106.4745,0 -118.5335,0.1593 -121.5831,1.6065 -9.2589,4.39358 -9.9117,18.07238 -1.1184,23.43398 3.128,1.9072 5.942,1.9521 122.5012,1.9558 105.7554,0 119.6396,-0.1721 122.2942,-1.5448 z m -76.041,-74.00218 c 10.3398,-9.9061 1.4779,-27.0928 -12.0865,-23.4403 -5.6959,1.5338 -9.9664,7.3594 -9.9664,13.5959 0,4.0316 3.6167,9.9529 7.1924,11.7753 4.7668,2.4296 11.1787,1.5965 14.8605,-1.9309 z m 49.4573,2.1109 c 5.1386,-2.147 7.6896,-6.8634 7.2114,-13.3323 -0.4676,-6.3241 -3.9951,-10.6859 -9.9356,-12.2855 -5.0511,-1.3601 -11.9321,1.5057 -14.215,5.9203 -3.4284,6.6298 -1.2307,15.5448 4.7275,19.1778 3.8086,2.3222 7.5197,2.4801 12.2117,0.5197 z m -236.9043,-69.4688 c 3.0544,-1.3871 4.655,-2.9988 6.25,-6.2937 2.6432,-5.4602 2.6481,-6.1251 0.084,-11.4219 -1.4957,-3.0897 -3.226,-4.82 -6.3157,-6.3157 -4.0794,-1.9748 -5.9094,-2.06 -44.1899,-2.0585 -44.5301,0 -44.5614,0.01 -49.1644,6.8963 -4.4263,6.6258 -1.7675,15.5736 5.75,19.3505 3.142,1.5786 7.3667,1.7465 43.4801,1.7281 36.8715,-0.019 40.3211,-0.1663 44.1059,-1.8851 z m -46.0817,-103.51528 c 5.9903,-3.925 7.9453,-13.7312 3.8536,-19.33008 -2.9893,-4.09039 -8.684,-6.59879 -13.1002,-5.77032 -7.0715,1.32662 -12.6344,9.982 -10.8879,16.9406 0.7658,3.0515 5.2803,8.4866 8.0287,9.666 2.8466,1.2215 9.1372,0.4389 12.1058,-1.5062 z m 143.8046,1.0598 c 1.7955,-0.7502 4.4811,-2.8097 5.9679,-4.5767 5.5931,-6.6471 2.5709,-17.12748 -5.9679,-20.69521 -4.7599,-1.98881 -80.8977,-1.98881 -85.6576,0 -11.4887,4.80029 -11.624,20.26241 -0.2208,25.22941 4.5026,1.9612 81.1955,1.9992 85.8784,0.043 z m 60.3881,-0.3059 c 6.6634,-3.162 9.186,-11.5177 5.6969,-18.8703 -2.1605,-4.55316 -5.9765,-6.83987 -11.4138,-6.83987 -7.9956,0 -13.0035,5.23299 -12.9963,13.58047 0.01,10.378 9.4748,16.5136 18.7132,12.1297 z m 231.9017,0.047 c 7.164,-3.3996 9.7594,-10.4732 6.5252,-17.7845 -1.6303,-3.68562 -2.9489,-5.05591 -6.3507,-6.59982 -4.1521,-1.88447 -7.2468,-1.94919 -94.2274,-1.97043 -88.7879,-0.0217 -89.9885,0.004 -94.1899,2.03815 -10.2461,4.9601 -10.3959,19.2339 -0.2543,24.23 3.0752,1.5149 11.5338,1.6664 94.2274,1.6871 81.7797,0.02 91.1903,-0.1393 94.2697,-1.6005 z m -23.9193,-107.91535 c 1.3683,-0.89652 3.3967,-3.68471 4.5075,-6.19597 1.7681,-3.99711 1.8692,-5.07667 0.8114,-8.66566 -1.5053,-5.10742 -4.3062,-8.20964 -8.7304,-9.66977 -6.4228,-2.11971 -12.62,0.85293 -16.1656,7.7543 -2.992,5.82363 0.2879,14.19886 6.8977,17.61359 3.943,2.03699 8.7811,1.71781 12.6794,-0.83649 z m 59.5828,1.17666 c 12.4065,-5.25111 10.2818,-23.7532 -3.0142,-26.24754 -7.1437,-1.34491 -15.2679,5.89682 -15.2679,13.60479 0,4.69102 3.4426,9.94871 8.0199,12.24845 4.1926,2.10639 6.0402,2.17654 10.2622,0.38957 z M 2225.7521,561.18318 c 1.289,-0.8307 3.2324,-3.51961 4.3187,-5.97536 3.0479,-6.8904 0.9788,-13.48036 -5.4665,-17.41031 -11.6496,-7.10319 -25.0936,7.66807 -17.4258,19.14611 4.3743,6.54781 12.2151,8.33753 18.5736,4.23956 z m 62,0 c 1.289,-0.8307 3.2324,-3.51961 4.3187,-5.97536 3.0479,-6.8904 0.9788,-13.48036 -5.4665,-17.41031 -11.6124,-7.08048 -25.0691,7.70477 -17.4258,19.14611 4.3743,6.54781 12.2151,8.33753 18.5736,4.23956 z m 298.4386,1.2872 c 5.3944,-2.29852 7.9972,-5.95117 8.4919,-11.91739 0.3865,-4.66097 0.1094,-5.69659 -2.2862,-8.5436 -5.5644,-6.61298 4.046,-6.16803 -133.1881,-6.16633 -139.2799,0.002 -129.073,-0.52344 -134.0298,6.89632 -4.9775,7.45086 -0.6569,18.14423 8.2301,20.36936 1.1,0.27541 57.702,0.55296 125.7821,0.61676 102.8195,0.0964 124.3271,-0.1162 127,-1.25512 z M 342.89604,1181.5402 c -9.5642,-2.155 -16.148,-7.439 -20.1839,-16.1987 -2.2809,-4.9507 -2.3064,-5.442 -2.5928,-49.8593 -0.2458,-38.1361 -0.057,-45.6572 1.2587,-50.1835 3.5636,-12.2584 13.6424,-19.673 27.6058,-20.3084 12.8993,-0.587 21.9891,3.2434 28.2023,11.8845 3.4464,4.7931 5.8955,13.7262 5.5267,20.1592 l -0.3043,5.3075 -5.1122,0.2975 -5.1122,0.2975 -0.488,-6.7975 c -0.9299,-12.9549 -7.4366,-20.2828 -18.7354,-21.1001 -9.9897,-0.7226 -17.7972,4.3925 -20.9141,13.7018 -1.507,4.5013 -1.5764,83.9823 -0.078,89.3781 2.7751,9.9931 13.2337,16.01 23.7371,13.6561 9.6497,-2.1625 15.1443,-9.443 15.987,-21.1834 l 0.4845,-6.75 3.1157,0.014 c 1.7136,0.01 4.1877,0.3005 5.4981,0.6512 2.3168,0.6201 2.3676,0.8559 1.8409,8.5406 -1.2071,17.6111 -11.0841,27.667 -28.7234,29.2437 -3.025,0.2704 -7.9807,-0.067 -11.0126,-0.7505 z m 93.933,0.3249 c -9.8608,-1.742 -18.8957,-9.1988 -22.5147,-18.5823 -1.774,-4.5998 -1.9058,-8.0863 -1.9058,-50.4413 0,-44.1535 0.062,-45.6347 2.1057,-50.0508 2.9538,-6.3838 7.8525,-11.6229 13.8043,-14.7634 4.5876,-2.4207 6.1265,-2.6858 15.59,-2.6858 9.4507,0 11.006,0.2671 15.5635,2.6723 6.38139,3.3679 11.60949,9.1093 14.04519,15.4241 1.7566,4.5544 1.8913,8.1794 1.8913,50.9036 v 46 l -2.3916,4.8583 c -6.2579,12.712 -20.76019,19.3907 -36.18789,16.6653 z m 17.0795,-12.037 c 4.4609,-2.2607 6.3933,-4.4273 8.92309,-10.0046 1.9371,-4.2706 2.0338,-6.4155 2.0494,-45.482 0.01,-25.5944 -0.3778,-42.4193 -1.0326,-44.7773 -2.2255,-8.014 -11.13709,-14.6567 -19.72199,-14.7007 -7.9975,-0.041 -14.5442,4.0065 -18.5652,11.478 -2.1082,3.9173 -2.1527,4.8888 -2.1527,47 v 43 l 2.3712,4.816 c 5.0539,10.2648 17.4458,14.0846 28.1288,8.6706 z m 75.34379,12.0191 c -6.394,-1.3375 -11.7036,-4.4716 -16.168,-9.5434 -5.1669,-5.8699 -7.535,-12.8561 -7.6141,-22.4623 l -0.062,-7.5 5.1155,-0.2976 5.1154,-0.2976 0.4751,7.4024 c 0.5918,9.2225 3.5875,15.8062 8.9642,19.7011 7.8832,5.7106 17.4703,4.7694 24.3572,-2.3913 4.6253,-4.8091 6.4726,-9.9508 6.4726,-18.0151 0,-10.7545 -3.6656,-15.5943 -23.4315,-30.9364 -16.3068,-12.6572 -20.1171,-16.5779 -23.9711,-24.6655 -2.827,-5.9326 -3.0964,-7.373 -3.0868,-16.5005 0.01,-8.9119 0.3155,-10.6236 2.811,-15.7243 5.1369,-10.4994 14.2274,-15.7752 27.1818,-15.7752 12.1402,0 21.9056,6.0047 27.1294,16.6818 2.3926,4.8903 2.7528,6.8435 2.8061,15.2144 l 0.061,9.6038 -2.8708,0.3281 c -1.579,0.1804 -3.9415,0.059 -5.25,-0.2691 -2.1934,-0.5505 -2.3792,-1.0935 -2.3792,-6.9523 0,-14.7982 -7.8806,-24.5901 -19.7996,-24.6016 -2.9149,0 -6.5606,0.6469 -8.1016,1.4438 -7.3921,3.8226 -11.9416,13.7872 -10.7785,23.6077 1.1481,9.694 4.7895,14.0318 24.9438,29.7147 8.1975,6.3789 16.4754,13.5149 18.3952,15.8578 5.1335,6.2647 7.3407,12.94 7.3407,22.2001 0,16.7644 -7.388,28.9462 -20,32.9769 -5.1866,1.6577 -12.9462,2.1849 -17.6562,1.1996 z m 169.80301,-0.031 c -8.5108,-1.7714 -15.88,-7.6116 -20.1396,-15.961 -2.2242,-4.3598 -4.297,-15.235 -3.8323,-20.1061 0.3204,-3.3584 0.4016,-3.4124 5.5751,-3.7103 l 5.25,-0.3022 v 4.3343 c 0,9.1931 4.0015,18.8637 9.517,23.0005 4.0618,3.0464 10.7443,4.3076 15.413,2.9088 9.2519,-2.7719 15.3399,-11.7543 15.2945,-22.5659 -0.049,-11.7565 -3.2612,-16.2502 -22.0907,-30.9068 -21.692,-16.8848 -25.9416,-22.1566 -28.1685,-34.9447 -2.3734,-13.6286 2.2804,-27.2138 11.4615,-33.4581 6.3215,-4.2994 11.53,-5.5752 20.5732,-5.0393 8.9876,0.5325 13.9159,2.791 19.6392,9.0001 5.8237,6.3179 7.8608,12.3499 7.8608,23.2756 v 9 l -3.8198,0.3145 c -5.5539,0.4573 -6.421,-0.7721 -6.8259,-9.6789 -0.2989,-6.5753 -0.8284,-8.5595 -3.3896,-12.7021 -3.7822,-6.1175 -9.2281,-9.3945 -15.6496,-9.417 -12.0371,-0.042 -19.1102,7.8937 -19.1473,21.4835 -0.034,12.4281 2.4176,15.7913 23.4304,32.1422 16.9857,13.2174 21.1342,17.4393 24.6223,25.0585 3.0692,6.7039 3.4707,18.6901 0.9199,27.4644 -4.4409,15.2763 -20.121,24.2177 -36.4936,20.81 z m 456.12046,0.012 c -14.7241,-3.0499 -23.254,-14.131 -24.0889,-31.2935 l -0.4284,-8.8066 5.3751,0.3066 5.375,0.3066 0.6118,7.5189 c 0.9849,12.105 6.1348,19.6241 15.0929,22.0362 8.2865,2.2313 16.6718,-1.5858 21.49,-9.7827 2.4423,-4.1548 2.8053,-5.8077 2.8053,-12.7724 0,-12.552 -2.7669,-16.3164 -23.5178,-31.9954 -20.996,-15.8642 -26.0417,-23.1462 -26.7973,-38.6739 -1.0094,-20.7443 10.2746,-33.8307 29.1711,-33.8307 19.6897,0 31.5684,13.2317 31.6284,35.2309 0.014,5.2075 -0.2017,5.7855 -2.3636,6.3281 -1.3085,0.3285 -3.671,0.4495 -5.25,0.2691 -2.812,-0.3214 -2.8835,-0.4818 -3.4912,-7.8281 -1.2964,-15.6725 -8.3703,-24 -20.3873,-24 -11.1353,0 -18.5008,8.5259 -18.4867,21.3992 0.013,11.6797 3.9517,17.0402 23.9171,32.5482 15.9635,12.3996 20.7512,17.2012 23.983,24.0526 2.2247,4.7165 2.5942,6.8533 2.5933,15 0,11.8797 -2.0318,18.1519 -8.0401,24.8344 -6.9307,7.7087 -18.5598,11.3548 -29.1917,9.1525 z m 615,0.01 c -13.1511,-2.7419 -21.7344,-12.3363 -24.2476,-27.104 -0.7131,-4.1901 -0.9896,-23.9401 -0.8034,-57.3887 l 0.2838,-51 h 5 5 l 0.5,54 0.5,54 2.6292,5.607 c 7.9165,16.8826 28.8407,16.5353 36.5678,-0.607 1.6448,-3.649 1.8469,-8.782 2.303,-58.5 l 0.5,-54.5 h 5 5 v 56 c 0,61.5934 0.2968,58.3686 -6.2426,67.837 -6.2946,9.1141 -20.0834,14.1381 -31.9902,11.6557 z m 181.0765,0.013 c -8.4946,-1.7769 -16.7501,-8.0457 -20.6704,-15.696 -2.2096,-4.312 -3.8774,-13.2574 -3.5069,-18.8097 l 0.3336,-5 h 5 5 l 0.6447,7.2167 c 0.8056,9.0175 3.8625,15.5516 9.0254,19.2916 13.6122,9.8606 30.8104,-1.0289 30.8104,-19.5083 0,-11.618 -4.4744,-17.5286 -24.9805,-32.9991 -13.3395,-10.0637 -19.1201,-15.9934 -22.6516,-23.2355 -2.5316,-5.1918 -2.8132,-6.81 -2.8299,-16.2654 -0.017,-9.506 0.2476,-11.0419 2.7924,-16.2242 5.1571,-10.5059 14.0794,-15.7798 26.6891,-15.7798 9.5156,0 15.477,2.3466 21.6542,8.5238 6.2451,6.245 9.3458,14.697 9.3458,25.4745 0,7.3064 -0.5188,8.0169 -5.8318,7.9864 -4.2584,-0.024 -4.8678,-1.0439 -5.3707,-8.9847 -0.9046,-14.2827 -8.408,-23 -19.7975,-23 -12.0112,0 -19.9646,10.2335 -18.7207,24.0879 0.9365,10.4314 3.998,14.2869 23.2207,29.243 16.0466,12.485 21.3835,17.7407 24.5428,24.1691 2.1577,4.3907 2.4572,6.3405 2.4569,16 -4e-4,13.636 -2.0654,19.0745 -9.9937,26.3205 -7.0896,6.4795 -17.4431,9.2183 -27.1623,7.1852 z M 11.368145,1179.5915 c -0.2627,-0.6875 -0.3611,-30.95 -0.2186,-67.25 l 0.259,-66 h 29 29 l 0.3041,4.7318 0.304,4.7317 -23.804,0.2683 -23.8041,0.2682 v 26 26 l 15.8038,0.2757 15.8037,0.2756 -0.3037,4.7244 -0.3038,4.7243 -15.7668,0.2755 -15.7668,0.2755 0.2668,25.7245 0.2668,25.7245 23.75,0.2681 23.75,0.2681 v 4.9819 4.9819 h -29.0313 c -22.3037,0 -29.1421,-0.2897 -29.5091,-1.25 z m 108.207095,0.5833 c -0.3667,-0.3666 -0.6667,-28.4916 -0.6667,-62.5 v -61.8333 h -13.0548 -13.054695 l 0.3047,-4.75 0.3048,-4.75 h 31.999995 32 l 0.3037,4.7214 0.3036,4.7215 -13.8036,0.2785 -13.8037,0.2786 -0.2575,62.25 -0.2576,62.25 h -4.8258 c -2.6541,0 -5.1257,-0.3 -5.4924,-0.6667 z m 114.5763,-66.5682 0.257,-67.2651 h 29 29 l 0.3048,4.75 0.3048,4.75 h -24.0548 -24.0548 v 26.4746 26.4746 l 15.75,0.2754 15.75,0.2754 0.3183,3.3153 c 0.5596,5.8304 -0.4108,6.1847 -16.9407,6.1847 h -14.8776 v 25.9819 25.9819 l 23.75,0.2681 23.75,0.2681 v 4.5 4.5 l -29.257,0.2651 -29.2571,0.2651 z m 379.75699,36.7104 v -30.5245 l -13.5333,-35.6674 c -7.4433,-19.6171 -13.3075,-36.2561 -13.0314,-36.9755 0.5405,-1.4086 8.2404,-1.819 10.183,-0.5428 0.615,0.4041 5.7698,13.9578 11.4551,30.1194 5.6853,16.1616 10.4965,28.9866 10.6916,28.5 0.1951,-0.4866 4.9403,-13.9347 10.5449,-29.8847 l 10.1901,-29 4.5876,-0.2982 c 2.9821,-0.1938 4.9862,0.1821 5.7265,1.0742 0.8846,1.0658 -1.8709,9.2648 -12.3376,36.7117 l -13.4765,35.3395 v 30.8364 30.8364 h -5.5 -5.5 z m 169.75761,-31.6735 -0.2576,-62.302 -13.3036,-0.2794 -13.3035,-0.2794 0.3035,-4.7206 0.3036,-4.7206 h 32.5 32.50003 v 4.5 4.5 l -13.7424,0.2782 -13.74243,0.2781 -0.2576,62.2219 -0.2576,62.2218 -5.2424,0.302 -5.2424,0.302 z m 68.48543,-5.0369 0.257,-67.2651 h 29 29 l 0.3048,4.75 0.3048,4.75 h -24.0548 -24.0548 v 26.4746 26.4746 l 15.75,0.2754 15.75,0.2754 0.3182,3.3153 c 0.5597,5.8304 -0.4108,6.1847 -16.9406,6.1847 h -14.8776 v 25.9819 25.9819 l 23.75,0.2681 23.75,0.2681 v 4.5 4.5 l -29.257,0.2651 -29.2571,0.2651 z m 89,-0.015 0.257,-67.25 4.5876,-0.2982 c 3.031,-0.1969 4.9838,0.1793 5.7554,1.109 0.6422,0.7739 6.2531,13.8294 12.4686,29.0122 l 11.3008,27.6052 11.3269,-27.7141 c 6.2298,-15.2428 11.7901,-28.2983 12.3562,-29.0123 0.6474,-0.8164 2.73173,-1.1875 5.61693,-1 l 4.5876,0.2982 0.257,67.25 0.2571,67.25 h -5.4984 -5.49833 l -0.2587,-53.3974 -0.2587,-53.3974 -10.0642,24.0789 c -9.8155,23.4838 -12.4087,27.9204 -14.4467,24.7159 -0.5247,-0.825 -5.5744,-12.2714 -11.2216,-25.4364 l -10.2675,-23.9365 -0.2587,53.6865 -0.2587,53.6864 h -5.4983 -5.4984 z m 105.00003,0.015 0.257,-67.2651 h 29 29 l 0.304,4.7318 0.3041,4.7317 -23.8041,0.2683 -23.804,0.2682 v 26 26 l 15.5,0.5 15.5,0.5 v 4.5 4.5 l -15.75,0.2754 -15.75,0.2754 v 25.9565 25.9565 l 23.75,0.2681 23.75,0.2681 v 4.5 4.5 l -29.257,0.2651 -29.2571,0.2651 z m 224,-0.015 0.257,-67.25 h 5 5 l 0.2576,62.25 0.2575,62.25 h 23.4925 23.4924 v 5 5 h -29.007 -29.0071 z m 82,0 0.257,-67.25 h 5 5 l 0.257,67.25 0.2571,67.25 h -5.5141 -5.5141 z m 48.2166,66 c -0.2627,-0.6875 -0.3611,-30.95 -0.2186,-67.25 l 0.259,-66 4.5,-0.2605 c 2.475,-0.1433 4.9774,0.082 5.561,0.5 0.5835,0.4183 6.171,13.263 12.4166,28.5439 6.2456,15.2809 11.6724,27.4309 12.0597,27 0.3872,-0.4309 5.5597,-12.7084 11.4945,-27.2834 5.9348,-14.575 11.2411,-27.0842 11.7918,-27.7982 0.6317,-0.8191 2.6942,-1.1881 5.5888,-1 l 4.5876,0.2982 0.257,67.25 0.2571,67.25 h -5.5071 -5.507 l -0.025,-53.75 -0.025,-53.75 -10.6118,25.25 c -8.1162,19.3117 -11.0227,25.25 -12.3585,25.25 -1.3291,0 -4.3441,-6.0356 -12.6132,-25.25 l -10.8667,-25.25 -0.2587,53.75 -0.2587,53.75 h -5.0227 c -3.0967,0 -5.2058,-0.4793 -5.5003,-1.25 z m 104.7834,-66 0.257,-67.25 4.6926,-0.3024 c 3.9972,-0.2577 4.9033,0.039 6.1145,2 0.7821,1.2663 10.3704,25.022 21.3074,52.7903 l 19.8855,50.488 0.5,-52.488 0.5,-52.4879 h 5 5 l 0.2571,67.3001 0.257,67.3001 -5.7236,-0.3001 -5.7236,-0.3001 -20.5334,-52.0743 -20.5335,-52.0742 -0.2588,52.3242 -0.2589,52.3243 h -5.4982 -5.4982 z m 101.2166,66 c -0.2627,-0.6875 -0.3611,-30.95 -0.2186,-67.25 l 0.259,-66 h 5 5 l 0.257,67.25 0.2571,67.25 h -5.0384 c -3.1094,0 -5.2214,-0.4786 -5.5161,-1.25 z m 235.7834,-66 0.257,-67.25 h 29 29 l 0.304,4.7318 0.3041,4.7317 -23.8041,0.2683 -23.804,0.2682 v 26 26 l 15.8037,0.2757 15.8038,0.2756 -0.3038,4.7244 -0.3037,4.7243 -15.75,0.2754 -15.75,0.2754 v 25.9746 25.9746 h 24 24 v 5 5 h -29.507 -29.5071 z M 254.90854,1029.6789 c 0,-2.2286 12.2195,-22.8845 14.1486,-23.9169 2.7474,-1.4704 8.2716,-0.7561 8.6253,1.1152 0.2982,1.5779 -12.0634,21.8814 -14.1246,23.199 -1.8735,1.1977 -8.6493,0.8865 -8.6493,-0.3973 z m 620.20723,-1.5874 c -5.5388,-7.8963 -12.2587,-19.7472 -11.9932,-21.1507 0.3877,-2.0487 6.6581,-2.6743 8.9585,-0.8938 2.1765,1.6846 13.8746,22.9093 13.2149,23.9767 -0.278,0.4498 -2.2482,0.8178 -4.3783,0.8178 -3.0907,0 -4.2625,-0.5554 -5.8019,-2.75 z m 823.45953,-53.91668 c -0.3667,-0.3666 -0.6667,-5.3081 -0.6667,-10.9809 v -10.3143 l -2.75,-0.6609 c -8.2605,-1.9854 -16.5992,-9.5222 -19.8442,-17.9359 -1.7741,-4.5998 -1.9058,-8.0863 -1.9058,-50.4413 v -45.49998 l 2.6226,-5.5 c 3.2856,-6.8903 7.941,-11.6313 14.3774,-14.6418 6.5427,-3.0602 19.8325,-3.2987 26.0654,-0.4678 9.6992,4.4054 15.6979,12.9568 17.4139,24.8246 0.5396,3.7318 0.9811,22.53498 0.9811,41.78498 0,19.25 -0.4415,38.0532 -0.9811,41.785 -1.8577,12.8475 -8.9695,22.0336 -19.6697,25.4065 l -5.3096,1.6737 v 10.8174 10.8174 h -4.8333 c -2.6584,0 -5.1334,-0.3 -5.5,-0.6667 z m 12.0182,-32.3969 c 4.0022,-1.5122 8.2637,-5.7807 10.4192,-10.4364 1.7119,-3.6974 1.852,-7.2525 1.852,-47 0,-48.22268 0.062,-47.76508 -7.3175,-54.24408 -4.4256,-3.8858 -7.0404,-4.6361 -14.1127,-4.0496 -6.5113,0.54 -11.4938,3.9441 -14.7851,10.1016 -2.2034,4.1222 -2.2457,4.8884 -2.5321,45.93198 -0.3046,43.6513 -0.07,46.7029 4.0687,52.8438 4.5322,6.7253 14.5975,9.8035 22.4075,6.8527 z M 27.902145,951.90722 c -7.6418,-2.3245 -14.6138,-8.6961 -18.1269002,-16.5657 -1.5704,-3.5176 -2.3633,-7.6109 -2.6744,-13.8066 l -0.4423,-8.8066 5.3750002,0.3066 5.375,0.3066 0.6118,7.5189 c 0.9948,12.2257 6.0392,19.3883 15.3882,21.85 7.0462,1.8553 13.2627,-0.4371 18.8332,-6.9451 4.1414,-4.8382 6.1696,-12.0307 5.3483,-18.9658 -1.1589,-9.7846 -5.5343,-15.0076 -24.6815,-29.4623 -13.7398,-10.3726 -18.9806,-15.7175 -22.5603,-23.0085 -2.7118002,-5.5232 -2.9397002,-6.8397 -2.9397002,-16.98718 0,-12.5572 1.6357,-17.569 7.7194002,-23.6527 5.3158,-5.3158 10.1545,-7.2341 19.3242,-7.661 9.7914,-0.456 15.0253,0.8439 20.6644,5.1318 8.1772,6.2181 13.5693,19.602 12.6102,31.30048 l -0.3182,3.8814 -5.1021,0.2971 -5.1021,0.2972 -0.5645,-7.46448 c -0.3105,-4.1054 -1.427,-9.4141 -2.4811,-11.7971 -3.6422,-8.2338 -12.6944,-13.6531 -20.3648,-12.192 -10.3659,1.9747 -15.8742,9.5598 -15.8742,21.8593 0,11.60268 3.525,16.39648 23.382,31.79828 16.573,12.8546 21.1066,17.4009 24.4367,24.5052 2.3484,5.01 2.667,6.9105 2.6438,15.7709 -0.024,9.328 -0.2682,10.566 -3.292,16.7081 -3.7615,7.6407 -9.2853,12.8833 -15.9764,15.1632 -4.7393,1.6149 -16.7838,1.9669 -21.2117,0.62 z m 81.506395,-1.3813 c -8.8944,-4.2916 -14.400695,-11.1845 -16.970095,-21.2436 -1.3187,-5.1625 -1.5094,-13.8936 -1.2888,-59 l 0.2589,-52.94078 5.2097,-0.3009 5.209695,-0.3008 0.2907,54.80078 c 0.2576,48.58 0.4789,55.1982 1.9494,58.3009 4.1843,8.8285 10.3148,13 19.1049,13 7.3473,0 13.1899,-3.7534 17.2356,-11.0726 l 3,-5.4274 0.2903,-54.8009 0.2903,-54.80078 5.2097,0.3008 5.2097,0.3009 v 55.49998 55.5 l -2.8854,6.2475 c -2.9946,6.4839 -8.7799,12.7051 -14.7502,15.8616 -2.3439,1.2392 -6.2457,1.8863 -12.8644,2.1333 -8.4195,0.3142 -10.0686,0.08 -14.5,-2.058 z m 368.99999,1.0883 c -12.2823,-4.378 -19.59229,-15.8353 -19.87039,-31.1435 l -0.1296,-7.1292 5.10099,-0.2971 5.1011,-0.2971 0.5795,6.9131 c 0.3188,3.8022 1.3097,8.6609 2.2021,10.7971 9.0015,21.5488 37.5639,14.0848 37.702,-9.8524 0.07,-12.2082 -3.0007,-16.491 -22.9663,-32.027 -8.2373,-6.4098 -16.8164,-13.744 -19.0647,-16.2983 -5.87619,-6.6757 -8.43219,-14.0063 -8.52099,-24.43828 -0.1192,-14.0157 4.25719,-22.9215 14.09779,-28.6885 3.7101,-2.1743 6.1778,-2.7702 12.9401,-3.1252 15.0576,-0.7903 23.7093,3.752 29.4884,15.4817 2.9229,5.9327 3.3835,7.9447 3.6885,16.1113 l 0.3484,9.33198 -5.3484,-0.3056 -5.3485,-0.3057 -0.5544,-7.99998 c -0.9312,-13.4367 -6.4068,-20.8735 -16.831,-22.8593 -9.1576,-1.7444 -18.9787,5.5512 -21.0735,15.6544 -1.4664,7.0723 -0.6602,12.66228 2.7376,18.98158 2.6971,5.0163 6.0482,8.113 23.2213,21.4579 12.6262,9.8117 18.0538,15.2647 21.1661,21.2654 2.0656,3.9826 2.3339,5.8797 2.3339,16.5 0,11.1122 -0.2001,12.3794 -2.7051,17.1282 -5.9709,11.3193 -14.4774,16.3939 -27.2949,16.2831 -4.4,-0.038 -9.35,-0.5504 -11,-1.1386 z m 285.12751,-0.1838 c -12.2355,-4.5418 -19.6275,-16.8338 -19.6275,-32.6381 v -5.9508 h 5.5 5.5 v 5.3185 c 0,8.1042 2.5094,15.1909 6.9522,19.6337 8.8072,8.8072 23.1706,6.4994 29.8067,-4.7892 2.3712,-4.0337 2.7411,-5.7427 2.7411,-12.663 0,-12.8312 -2.4172,-16.2349 -22.2814,-31.3744 -21.8271,-16.6355 -26.9654,-23.6725 -27.9682,-38.30318 -1.0577,-15.4313 4.7896,-27.1381 16.2115,-32.4568 4.0421,-1.8823 6.7185,-2.3461 13.5381,-2.3461 10.5619,0 16.6689,2.5253 22.713,9.3918 5.2553,5.9703 7.3154,11.8436 8.011,22.8387 l 0.55343,8.74998 h -5.51023 -5.5102 l -0.4509,-7.78828 c -0.5893,-10.181 -4.1455,-17.1543 -10.7102,-21.0014 -13.5003,-7.9117 -28.099,2.1227 -28.0641,19.2897 0.023,11.35058 4.0678,16.88158 22.9074,31.32408 23.0175,17.6454 27.0575,23.134 27.85853,37.8473 0.8183,15.0317 -4.65783,26.6461 -15.58223,33.0482 -3.9337,2.3053 -5.9552,2.75 -13.666,3.0062 -6.0815,0.202 -10.3195,-0.1708 -12.922,-1.1369 z m 253.87256,-0.9045 c -8.8945,-4.2916 -14.4008,-11.1845 -16.9702,-21.2436 -1.31863,-5.1625 -1.50943,-13.8936 -1.28873,-59 l 0.2589,-52.94078 5.20973,-0.3009 5.2097,-0.3008 0.2906,54.80078 c 0.2577,48.58 0.479,55.1982 1.9495,58.3009 4.1843,8.8285 10.3147,13 19.1049,13 7.3473,0 13.1899,-3.7534 17.2356,-11.0726 l 3,-5.4274 0.2903,-54.8009 0.2903,-54.80078 5.2097,0.3008 5.2097,0.3009 v 55.49998 55.5 l -2.8854,6.2475 c -2.9947,6.4839 -8.78,12.7051 -14.7502,15.8616 -2.344,1.2392 -6.2458,1.8863 -12.8644,2.1333 -8.4196,0.3142 -10.0686,0.08 -14.5,-2.058 z m 372.8242,0.6781 c -6.0064,-2.1284 -12.7616,-8.5166 -16.018,-15.1481 l -2.8062,-5.7144 v -45.5 c 0,-51.45438 -0.032,-51.21318 7.8608,-59.77558 6.2286,-6.7572 10.5019,-8.5363 21.6392,-9.0088 12.7289,-0.5401 18.8505,1.6521 25.7772,9.231 8.3499,9.1361 8.3472,9.1159 8.0122,61.13258 l -0.2894,44.9208 -2.7027,5.1233 c -3.3662,6.3813 -10.4601,12.7331 -16.5309,14.8016 -5.8118,1.9803 -19.2725,1.9466 -24.9422,-0.062 z m 22.7685,-10.6901 c 2.8946,-1.5288 5.437,-3.9902 7.4073,-7.1716 l 3,-4.844 v -44.1568 -44.15678 l -3,-4.844 c -5.2167,-8.4231 -16.5827,-11.9985 -25.8428,-8.1293 -4.5238,1.8902 -10.2275,8.8667 -11.5532,14.1314 -0.7112,2.8244 -1.104,18.21608 -1.104,43.25998 0,44.0567 0.2717,46.1772 6.7197,52.4529 4.733,4.6066 7.3353,5.6427 14.373,5.7224 4.0181,0.046 6.8336,-0.5919 10,-2.2642 z m 367.2794,11.1159 c -6.2605,-2.0166 -12.6788,-7.9847 -16.3721,-15.2236 l -3.5,-6.86 -0.2819,-56.4057 -0.2819,-56.40568 5.2819,0.3033 5.2819,0.3034 0.5,54.99998 c 0.4906,53.9627 0.5407,55.0754 2.6584,59 4.2668,7.9072 9.8712,11.5 17.9388,11.5 5.7193,0 10.0812,-1.8963 14.1021,-6.1308 6.9746,-7.345 6.7681,-5.4347 7.0988,-65.6698 l 0.2981,-54.30058 5.2019,0.3006 5.2019,0.3006 v 54.99998 55 l -2.4008,5.969 c -3.1291,7.7798 -10.7539,15.5459 -17.5298,17.8547 -5.4624,1.8612 -18.0713,2.1138 -23.1913,0.4646 z m 164.6279,-0.865 c -5.8615,-2.6478 -11.5276,-8.1811 -14.7695,-14.4233 -2.0961,-4.0359 -2.6813,-6.7944 -3.0354,-14.3065 l -0.4386,-9.3065 5.3718,0.3065 5.3717,0.3065 0.5352,7.5 c 0.9705,13.5991 8.4434,22.2857 19.1719,22.2857 5.9649,0 10.0126,-1.728 13.9287,-5.9464 8.7251,-9.3985 8.8519,-24.1524 0.2934,-34.1509 -2.0045,-2.3419 -9.3336,-8.6228 -16.2869,-13.9577 -23.5515,-18.0696 -27.2764,-23.3686 -27.9288,-39.73068 -0.3392,-8.5071 -0.069,-10.8756 1.8087,-15.8648 2.4663,-6.5526 7.4748,-12.1755 13.511,-15.1684 3.1847,-1.579 6.0371,-1.9668 14.4668,-1.9668 9.6529,0 10.8773,0.2218 15.1764,2.749 9.7293,5.7194 14.7517,15.4041 15.1113,29.1392 l 0.2123,8.11178 -5.1021,0.2971 -5.1021,0.2972 -0.5567,-7.36098 c -0.6354,-8.4014 -2.6549,-13.9801 -6.5421,-18.0726 -9.4959,-9.9969 -24.6892,-7.5925 -30.3173,4.7979 -2.2501,4.9536 -2.4928,16.13828 -0.456,21.01308 2.1669,5.186 8.7924,11.7899 22.0965,22.0242 15.7752,12.1353 21.0899,17.4108 24.0469,23.8697 8.391,18.3283 0.185,42.4421 -16.3618,48.0801 -6.653,2.2669 -18.6014,2.009 -24.2053,-0.5224 z m -1761.49406,-1.1221 c -0.3068,-1.2657 -0.4337,-31.5512 -0.2819,-67.3012 l 0.2759,-64.99998 18.9236,-0.2727 c 15.1456,-0.2183 19.8758,0.043 23.6926,1.3113 13.6334,4.5283 22.0253,22.9935 19.0748,41.97148 -0.6421,4.1306 -2.2575,9.6612 -3.5898,12.2902 -2.7743,5.4749 -10.2698,12.8275 -14.0421,13.7742 -1.4075,0.3533 -2.5578,1.156 -2.5562,1.7839 0,0.6279 4.7266,14.339 10.5,30.4691 5.7734,16.1301 10.4971,30.2161 10.4971,31.3023 0,1.7539 -0.587,1.9409 -5.25,1.6725 l -5.25,-0.3023 -7.2503,-21 c -3.9877,-11.55 -8.8741,-25.6125 -10.8588,-31.25 l -3.6084,-10.25 h -9.377 -9.377 l -0.2642,31.25 -0.2643,31.25 -5.2181,0.3012 c -4.7358,0.2733 -5.2696,0.088 -5.7759,-2 z m 39.9587,-73.0796 c 10.0452,-5.6895 14.065,-22.764 8.6778,-36.86048 -1.5128,-3.9585 -7.1885,-9.9824 -10.8447,-11.5101 -2.0815,-0.8697 -7.3422,-1.351 -14.7656,-1.351 h -11.5322 v 25.99998 26 l 12.25,-0.016 c 10.8349,-0.014 12.708,-0.2758 16.2147,-2.2619 z m 83.0008,74.0438 c -0.2659,-0.696 -0.367,-30.9654 -0.2245,-67.2654 l 0.259,-65.99998 5.2424,-0.302 5.2425,-0.302 0.2575,62.30198 0.2576,62.302 23.5,0.5 23.5,0.5 v 4.5 4.5 l -28.7754,0.2654 c -22.4813,0.2073 -28.8813,-0.011 -29.2591,-1 z m 74.5345,-66.2654 v -67.53018 l 29.25,0.2651 29.25,0.2651 v 4.5 4.5 l -23.75,0.2681 -23.75,0.2681 v 25.95648 25.9565 l 15.75,0.2754 15.75,0.2754 v 4.5 4.5 l -15.5,0.5 -15.5,0.5 -0.2666,26.25 -0.2666,26.25 h 24.0714 24.0714 l -0.3048,4.75 -0.3048,4.75 -29.25,0.2651 -29.25,0.2651 z m 201.99999,0.052 v -67.55228 h 18.8743 c 14.1505,0 19.9295,0.3723 23.0903,1.4875 14.784,5.2161 23.113,24.9093 18.9111,44.71328 -2.2611,10.6564 -9.2253,20.3497 -16.5139,22.9853 -1.849,0.6686 -3.3618,1.6159 -3.3618,2.105 0,0.4891 4.725,14.136 10.5,30.3263 5.775,16.1903 10.5,30.3482 10.5,31.462 0,1.8147 -0.5455,1.9937 -5.25,1.7229 l -5.25,-0.302 -9.1118,-26.5 c -5.0115,-14.575 -9.8675,-28.6375 -10.7911,-31.25 l -1.6793,-4.75 h -9.4446 -9.4447 l -0.2642,31.25 -0.2643,31.25 -5.25,0.3023 -5.25,0.3022 v -67.5522 z m 39.4647,-7.8307 c 12.4995,-7.0797 15.1752,-31.35718 4.7315,-42.93108 -5.289,-5.8612 -8.253,-6.7902 -21.664,-6.7902 h -11.5322 v 25.99998 26 l 12.25,-0.016 c 10.8349,-0.014 12.708,-0.2758 16.2147,-2.2619 z m 43.99491,74.0284 c -0.2627,-0.6875 -0.3611,-30.95 -0.2186,-67.25 l 0.259,-65.99998 29.25,-0.2651 29.25,-0.2651 v 5.0151 5.0151 h -23.5 -23.5 v 25.97398 25.9739 l 15.25,0.2761 15.25,0.276 0.3048,4.75 0.3048,4.75 h -15.5548 -15.5548 v 26.5 26.5 h 23.5 23.5 v 5 5 h -29.0313 c -22.3037,0 -29.1421,-0.2897 -29.5091,-1.25 z m 161.54043,-66.2497 v -67.53018 l 29.25,0.2651 29.25,0.2651 0.3048,4.75 0.3048,4.75 h -24.0548 -24.0548 v 25.97458 25.9746 l 15.75,0.2754 15.75,0.2754 v 4.5 4.5 l -15.5,0.5 -15.5,0.5 -0.2666,26.25 -0.2666,26.25 h 24.0714 24.0714 l -0.3048,4.75 -0.3048,4.75 -29.25,0.2651 -29.25,0.2651 z m 79.4422,66.2101 c -0.4461,-1.1626 28.1221,-131.16918 29.2172,-132.96008 0.6458,-1.0561 11.106,-0.9386 11.7678,0.1322 0.8378,1.3557 29.5728,129.63538 29.5728,132.02008 0,1.8523 -0.5886,2.0977 -5.0314,2.0977 -3.5069,0 -5.2025,-0.4459 -5.5961,-1.4718 -0.3107,-0.8094 -1.7616,-6.9969 -3.2243,-13.75 l -2.6595,-12.2782 h -18.9274 -18.9274 l -2.6617,12.5943 c -1.4639,6.9268 -2.9831,13.1143 -3.376,13.75 -0.9931,1.6069 -9.5291,1.4941 -10.154,-0.1342 z m 51.5578,-36.6879 c 0,-1.4043 -14.9141,-72.07728 -15.7804,-74.77818 -0.5841,-1.821 -10.4114,40.66798 -17.0012,73.50598 l -0.4516,2.25 h 16.6166 c 10.1593,0 16.6166,-0.38 16.6166,-0.9778 z m 125.40663,36.595 c -0.2919,-0.7606 5.6148,-15.8736 13.1259,-33.5844 7.5112,-17.7109 13.4353,-32.9511 13.1649,-33.8672 -0.2705,-0.9161 -6.388,-15.5207 -13.5946,-32.45468 -7.2065,-16.934 -13.1028,-31.469 -13.1028,-32.2999 0,-1.2045 1.1425,-1.45 5.6346,-1.2109 l 5.6346,0.2999 11.04,27.8652 11.04,27.86528 11.0754,-27.86528 11.0754,-27.8652 5.25,-0.3023 c 4.7655,-0.2743 5.25,-0.1081 5.25,1.8017 0,1.1571 -5.9301,16.1431 -13.1779,33.30218 -7.2479,17.1591 -13.122,31.8734 -13.0537,32.6984 0.068,0.825 6.2409,15.8601 13.7166,33.4113 8.0452,18.888 13.2254,32.2783 12.6932,32.8105 -0.4946,0.4946 -3.0785,0.7595 -5.742,0.5887 l -4.8428,-0.3105 -11.1443,-27.8704 -11.1443,-27.8703 -11.2566,28.1203 -11.2566,28.1204 h -4.9272 c -3.2717,0 -5.1055,-0.4646 -5.4578,-1.3828 z m 146.3062,0.7622 c -0.3921,-0.392 -0.7128,-28.5247 -0.7128,-62.517 v -61.80428 l -13.25,-0.2791 -13.25,-0.279 v -4.5 -4.5 l 32.75,-0.2637 32.75,-0.2636 v 5.0136 5.0137 h -13.9924 -13.9925 l -0.2575,62.24998 -0.2576,62.25 -4.5372,0.2961 c -2.4955,0.1629 -4.858,-0.025 -5.25,-0.4167 z m 60.2872,-66.8995 v -67.62468 l 20.75,0.3224 c 20.6222,0.3204 20.7791,0.3395 25.4753,3.1001 5.7421,3.3754 11.0372,10.0756 13.467,17.0405 2.6519,7.6018 2.4588,25.30218 -0.3527,32.31378 -2.9455,7.3459 -6.9557,12.1343 -13.0365,15.5661 -2.9167,1.646 -5.3031,3.0911 -5.3031,3.2112 0,0.1201 4.9516,14.1155 11.0036,31.1009 6.1823,17.3511 10.6251,31.2611 10.1395,31.7467 -0.4752,0.4752 -3.0165,0.7244 -5.6472,0.5536 l -4.7831,-0.3105 -10.7158,-31 -10.7157,-31 -9.6264,-0.286 -9.6263,-0.2861 -0.2643,31.2861 -0.2643,31.286 -5.25,0.3023 -5.25,0.3022 z m 41.6325,-9.0672 c 2.096,-1.698 4.9386,-5.298 6.3169,-8 2.1177,-4.1513 2.5095,-6.3076 2.5283,-13.9127 0.02,-7.89518 -0.3274,-9.71208 -2.8262,-14.80098 -1.961,-3.9936 -4.1177,-6.6419 -6.9221,-8.5 -3.8052,-2.5211 -4.919,-2.7207 -16.9015,-3.0285 l -12.8279,-0.3294 v 26.15688 26.157 l 13.4108,-0.3275 c 13.2865,-0.3245 13.4462,-0.3561 17.2217,-3.4148 z m 129.0342,75.9206 c -0.3667,-0.3666 -0.6667,-30.7416 -0.6667,-67.5 v -66.83328 l 19.75,0.01 c 18.5842,0.01 20.0451,0.1475 24.75,2.343 5.7783,2.6966 11.9059,9.05 14.5981,15.1361 4.5629,10.3151 4.5516,27.73258 -0.025,38.07798 -2.5788,5.8299 -8.3509,11.901 -13.887,14.6064 -4.0913,1.9994 -6.5594,2.3381 -19.4364,2.6675 l -14.75,0.3772 v 30.891 30.891 h -4.8333 c -2.6584,0 -5.1334,-0.3 -5.5,-0.6667 z m 37.631,-72.6843 c 4.2523,-1.7767 9.0317,-7.3262 11.2004,-13.0049 1.3471,-3.5272 1.6512,-6.6799 1.3368,-13.8552 -0.4716,-10.76018 -2.7532,-16.03258 -9.1741,-21.19948 -3.8022,-3.0597 -3.9681,-3.0926 -17.25,-3.4169 l -13.4108,-0.3275 v 26.57748 26.5775 h 12.0321 c 7.8434,0 13.1578,-0.4703 15.2656,-1.351 z m 46.1619,72.101 c -0.2627,-0.6875 -0.3611,-30.95 -0.2186,-67.25 l 0.259,-65.99998 5.25,-0.3023 5.25,-0.3022 v 31.0522 31.05228 h 19.5 19.5 v -31.05228 -31.0522 l 5.25,0.3022 5.25,0.3023 v 66.99998 67 l -5.2357,0.3018 -5.2357,0.3017 -0.2643,-31.3017 -0.2643,-31.3018 h -19 -19 l -0.2642,31.25 -0.2643,31.25 h -5.0171 c -3.0923,0 -5.2004,-0.4796 -5.4948,-1.25 z m 90.5404,-66.25 v -67.60448 l 5.25,0.3022 5.25,0.3023 v 66.99998 67 l -5.25,0.3023 -5.25,0.3022 z m 213.4596,66.25 c -0.2627,-0.6875 -0.3611,-30.95 -0.2186,-67.25 l 0.259,-65.99998 29.25,-0.2651 29.25,-0.2651 v 4.997 4.997 l -23.75,0.2681 -23.75,0.2681 -0.2668,25.72448 -0.2669,25.7245 15.7669,0.2755 15.7668,0.2755 0.3037,4.7243 0.3038,4.7244 -15.8038,0.2756 -15.8037,0.2757 v 26 26 l 23.75,0.2681 23.75,0.2681 v 4.9819 4.9819 h -29.0314 c -22.3037,0 -29.1421,-0.2897 -29.509,-1.25 z M 688.29054,800.39464 c -0.596,-1.5532 9.9332,-21.2253 12.4726,-23.3031 2.0779,-1.7002 9.0663,-1.6198 9.7308,0.1119 0.4756,1.2392 -9.7307,18.7106 -13.3706,22.8881 -1.8781,2.1556 -8.0407,2.367 -8.8328,0.3031 z M 27.317045,722.01618 c -6.2292,-2.15333 -10.2006,-5.27131 -14.2331,-11.17468 -5.1209002,-7.49676 -5.3053002,-9.66426 -4.9775002,-58.5 l 0.3021,-45 2.6607002,-5 c 5.9295,-11.14266 14.3567,-15.87331 28.3647,-15.92271 7.8679,-0.0277 9.7506,0.32304 14.6816,2.73552 10.2564,5.01802 15.7713,13.83949 16.5935,26.54271 0.5465,8.44327 0.072,9.10531 -6.5505,9.12917 l -4.25,0.0153 v -4.8185 c 0,-9.93317 -4.4369,-18.40021 -11.5,-21.94538 -3.7011,-1.85773 -10.2033,-2.39309 -14.6202,-1.20376 -5.733,1.54375 -12.2904,8.06503 -13.8194,13.74341 -0.7944,2.95008 -1.0535,17.10209 -0.8512,46.48281 0.2873,41.72666 0.3185,42.2932 2.5606,46.4903 5.8827,11.01226 22.2858,13.69166 31.0948,5.07926 4.7453,-4.63937 6.374,-8.4308 6.924,-16.11765 l 0.487,-6.80545 5.1122,0.29748 5.1122,0.29748 -0.074,7.5 c -0.054,5.52664 -0.6821,8.8891 -2.3858,12.77943 -3.0173,6.88995 -10.5129,13.68948 -17.319,15.71068 -6.7372,2.00073 -17.0149,1.86167 -23.3129,-0.31543 z m 1388.764855,0.34128 c -5.7995,-1.80988 -11.4382,-5.84768 -14.6616,-10.49902 -5.3156,-7.67044 -5.5117,-9.69842 -5.5117,-56.99437 0,-49.92975 0.08,-50.55853 7.4805,-58.78961 7.3588,-8.18484 19.1115,-11.67252 31.1362,-9.2399 14.4665,2.9266 22.796,12.61406 24.0871,28.01398 0.7146,8.52351 -0.2157,9.99296 -6.3262,9.99296 h -4.3776 v -4.55718 c 0,-6.83531 -1.8267,-12.77693 -5.1783,-16.84299 -4.1705,-5.05952 -8.2396,-6.92361 -15.3217,-7.01901 -8.3791,-0.11287 -14.3162,3.40268 -17.9033,10.60102 l -2.5967,5.21085 v 42.15443 c 0,28.85528 0.3591,43.22684 1.1381,45.55366 4.8835,14.58575 22.3558,18.54661 33.6393,7.62581 3.6771,-3.55888 6.2226,-10.70147 6.2226,-17.46035 v -4.37076 l 5.25,0.30226 5.25,0.30226 -0.1105,7.5 c -0.08,5.39925 -0.7478,8.97877 -2.3858,12.77943 -2.9666,6.88338 -10.4425,13.67947 -17.2824,15.71068 -6.1941,1.83947 -16.6979,1.85151 -22.548,0.0258 z m 350.2352,-0.34128 c -8.6757,-2.99903 -14.823,-9.4516 -17.8651,-18.75228 -1.4411,-4.40576 -1.6034,-10.51389 -1.3415,-50.46741 l 0.2981,-45.45499 2.6607,-5 c 5.9295,-11.14266 14.3566,-15.87331 28.3646,-15.92271 7.868,-0.0277 9.7507,0.32304 14.6816,2.73552 10.2565,5.01802 15.7714,13.83949 16.5936,26.54271 0.5465,8.44327 0.071,9.10531 -6.5505,9.12917 l -4.25,0.0153 -0.01,-5.25 c -0.01,-7.28518 -1.5719,-12.19916 -5.1974,-16.32842 -4.4317,-5.04739 -8.3204,-6.76788 -15.297,-6.76788 -3.5926,0 -7.2444,0.65083 -9.1016,1.62207 -4.4604,2.33275 -9.1427,8.06094 -10.3972,12.71968 -0.7198,2.6731 -0.9854,18.18668 -0.7921,46.26313 0.2874,41.72666 0.3186,42.2932 2.5607,46.4903 1.2493,2.33868 4.1406,5.48573 6.4311,7 3.5658,2.3574 5.1853,2.75112 11.3161,2.75112 6.1852,0 7.6951,-0.37451 11.1425,-2.76374 5.6629,-3.92478 8.5222,-9.54363 9.1219,-17.92551 l 0.4941,-6.90571 5.1123,0.29748 5.1122,0.29748 -0.074,7.5 c -0.054,5.52664 -0.6821,8.8891 -2.3858,12.77943 -3.0173,6.88995 -10.5129,13.68948 -17.3191,15.71068 -6.7371,2.00073 -17.0148,1.86167 -23.3128,-0.31543 z M 99.590245,722.18987 c -0.3749,-0.37494 -0.6817,-30.7567 -0.6817,-67.51504 V 587.8415 h 29.554795 29.5548 l -0.3048,4.75 -0.3048,4.75 -23.75,0.2681 -23.75,0.2681 v 25.95651 25.9565 l 15.75,0.2754 15.75,0.27539 v 4.5 4.5 l -15.5,0.5 -15.5,0.5 v 26 26 l 23.8041,0.26823 23.804,0.26822 -0.304,4.73178 -0.3041,4.73177 -28.5683,0.26504 c -15.7125,0.14577 -28.874995,-0.0417 -29.249995,-0.41667 z m 85.031095,0.0311 c -0.392,-0.39206 -0.7128,-30.81026 -0.7128,-67.59604 v -66.88324 l 5.6924,0.29991 5.6924,0.2999 20.7821,52.5 20.7821,52.5 0.026,-52.75 0.025,-52.75 h 5.507 5.5071 l -0.2571,67.25 -0.257,67.25 -4.5876,0.29816 c -2.9229,0.18996 -4.9888,-0.18533 -5.6934,-1.03425 -0.6082,-0.73283 -10.3416,-24.717 -21.6299,-53.29816 l -20.5241,-51.96575 -0.2825,53 -0.2825,53 -4.5372,0.2961 c -2.4955,0.16286 -4.858,-0.0246 -5.25,-0.41667 z m 115,0 c -0.392,-0.39206 -0.7128,-28.5378 -0.7128,-62.54614 V 597.8415 h -12.9809 c -12.8656,0 -12.9863,-0.0213 -13.5829,-2.39829 -0.3311,-1.31906 -0.4521,-3.45656 -0.269,-4.75 l 0.3328,-2.35171 32.75,-0.26366 32.75,-0.26367 v 5.01367 5.01366 h -13.9924 -13.9924 l -0.2576,62.25 -0.2576,62.25 -4.5372,0.2961 c -2.4955,0.16286 -4.858,-0.0246 -5.25,-0.41667 z m 63.768,-0.57422 c -0.2743,-0.71791 -0.3822,-31.23025 -0.2398,-67.80525 l 0.259,-66.5 19,0.0375 c 17.7375,0.035 19.3514,0.19381 24.2877,2.38935 6.5285,2.9037 12.3762,9.33762 15.3838,16.92602 1.8472,4.66043 2.2458,7.65637 2.2816,17.14709 0.04,10.63348 -0.1756,11.97474 -2.864,17.80048 -3.08,6.67422 -10.8111,14.71518 -15.2097,15.81915 -1.3087,0.32845 -2.3794,0.92185 -2.3794,1.31867 0,0.39681 4.9516,14.5634 11.0036,31.48131 6.052,16.9179 10.7504,31.16945 10.441,31.67011 -0.6696,1.08334 -8.4832,1.19645 -10.0144,0.14497 -0.5885,-0.40404 -5.8053,-14.45965 -11.593,-31.23465 l -10.523,-30.5 -9.6428,-0.28604 -9.6428,-0.28604 -0.2643,31.28604 -0.2643,31.28604 -4.7602,0.30521 c -3.2264,0.20687 -4.9209,-0.11533 -5.259,-1 z m 40.2486,-75.00422 c 2.8045,-1.85811 4.9611,-4.50634 6.9221,-8.5 2.4616,-5.01301 2.8456,-6.9556 2.8269,-14.30099 -0.027,-10.43927 -3.0685,-18.05834 -9.0257,-22.60696 -3.6755,-2.8064 -4.1882,-2.90285 -17.1208,-3.22052 l -13.3319,-0.32752 v 26.15695 26.15695 l 12.8279,-0.32947 c 11.9826,-0.30776 13.0964,-0.50733 16.9015,-3.02848 z m 46.5134,75.37902 c -0.9931,-0.63747 -1.2031,-14.75983 -1,-67.24348 l 0.2572,-66.43657 29.24999,-0.2651 29.25,-0.26511 v 4.99701 4.997 l -23.75,0.2681 -23.74999,0.2681 v 25.5 25.5 l 15.74999,0.27539 15.75,0.2754 v 4.94921 4.94921 l -15.75,0.2754 -15.74999,0.27539 v 26 26 l 23.80409,0.26823 23.804,0.26822 -0.304,4.73178 -0.3041,4.73177 -28,0.24348 c -15.4,0.13391 -28.56569,-0.11965 -29.25719,-0.56347 z m 118.90199,-0.0694 c -1.0968,-0.69498 1.4776,-13.51607 13.5,-67.23469 l 14.8552,-66.37596 6.25,-0.29772 c 3.4375,-0.16374 6.25,-0.007 6.25,0.34768 0,0.35496 6.5427,29.7304 14.5393,65.27875 7.9966,35.54835 14.4091,65.5419 14.25,66.65233 -0.2315,1.61563 -1.1654,2.08172 -4.6751,2.3331 -2.4123,0.17277 -4.746,-0.0522 -5.1861,-0.5 -0.4401,-0.44778 -2.0306,-6.77664 -3.5345,-14.06414 l -2.7342,-13.25 h -18.7623 c -16.9996,0 -18.8123,0.16441 -19.2941,1.75 -0.2926,0.9625 -1.4643,6.25 -2.604,11.75 -2.8959,13.97605 -3.1771,14.50316 -7.7275,14.48469 -2.0743,-0.008 -4.3813,-0.40175 -5.1267,-0.87405 z m 50.8552,-37.51982 c 0,-1.48792 -14.6822,-71.66342 -15.7106,-75.09083 -0.454,-1.51297 -17.1415,71.69798 -17.2663,75.75 -0.013,0.4125 7.4019,0.75 16.4769,0.75 13.5274,0 16.5,-0.25388 16.5,-1.40917 z m 44.66671,37.7425 c -0.3667,-0.36666 -0.6667,-30.74166 -0.6667,-67.5 V 587.8415 h 5.4925 5.4924 l 0.2576,62.25 0.2575,62.25 23.5,0.5 23.5,0.5 0.3183,3.31532 c 0.5975,6.22518 0.7925,6.18468 -29.774,6.18468 -15.241,0 -28.0109,-0.3 -28.3776,-0.66667 z m 77.5333,-0.53333 c -0.9089,-0.90897 -1.2,-17.12835 -1.2,-66.87756 0,-56.86395 0.1993,-65.84293 1.485,-66.90994 1.0993,-0.91235 6.2281,-1.12504 19.75,-0.81904 16.4417,0.37207 18.7929,0.64653 23.5527,2.74929 10.3981,4.59361 16.9135,15.57776 17.9485,30.25905 1.0157,14.40592 -2.9287,26.27679 -11.1297,33.49553 -6.0771,5.3493 -10.0058,6.30267 -25.9725,6.30267 h -13.634 v 30.3 c 0,22.23333 -0.3194,30.61947 -1.2,31.5 -0.66,0.66 -2.82,1.2 -4.8,1.2 -1.98,0 -4.14,-0.54 -4.8,-1.2 z m 37.0822,-72.16 c 13.3682,-5.64992 17.9816,-28.37144 8.7245,-42.96849 -4.5638,-7.19633 -8.4709,-8.67151 -22.9668,-8.67151 h -12.0399 v 26.5 26.5 h 11.5322 c 7.4791,0 12.663,-0.47798 14.75,-1.36 z m 49.83303,71.99882 c -0.8202,-0.98828 -1.0592,-19.41162 -0.8724,-67.25 l 0.2572,-65.88882 h 5.5 5.5 l 0.2572,65.88882 c 0.1868,47.83838 -0.052,66.26172 -0.8724,67.25 -0.6213,0.74865 -2.8195,1.36118 -4.8848,1.36118 -2.0653,0 -4.2635,-0.61253 -4.8848,-1.36118 z m 43.5976,0.74061 c -0.3921,-0.39202 -0.7128,-30.81022 -0.7128,-67.596 v -66.88324 l 5.7438,0.29991 5.7437,0.2999 20.5063,51.88854 20.5062,51.88854 0.5,-51.88854 0.5,-51.88854 5.2571,-0.3025 5.257,-0.30251 -0.257,67.30251 -0.2571,67.3025 -4.6926,0.30245 c -4.0022,0.25795 -4.8984,-0.0363 -6.0915,-2 -0.7695,-1.26635 -10.3578,-25.10422 -21.3074,-52.97304 l -19.9085,-50.67059 -0.5,52.67059 -0.5,52.67059 -4.5372,0.2961 c -2.4955,0.16286 -4.858,-0.0246 -5.25,-0.41667 z m 138.49003,-0.63513 c -0.935,-1.12658 -1.1576,-16.74449 -0.96,-67.35548 l 0.2572,-65.88882 17.9124,-0.27374 c 13.6448,-0.20851 19.1454,0.0847 23.0872,1.2306 7.1699,2.08433 13.4587,7.87531 17.0877,15.73492 l 2.9127,6.30822 0.3019,40.77322 c 0.2562,34.60543 0.062,41.71515 -1.2811,47 -2.6495,10.42266 -9.3812,18.31697 -18.5208,21.71942 -2.1845,0.81325 -10.2803,1.47499 -21.54,1.76065 -15.0314,0.38135 -18.243,0.21308 -19.2572,-1.00899 z m 37.2972,-10.97249 c 4.1478,-2.20283 8.059,-6.52768 10.1939,-11.27181 1.6049,-3.56644 1.8346,-7.91984 2.1196,-40.16404 0.4023,-45.51108 -0.4179,-50.64912 -9.223,-57.78267 -3.7048,-3.00142 -3.9882,-3.05889 -16.6797,-3.38276 l -12.9108,-0.32947 v 57.70272 57.70273 l 11.75,-0.44072 c 8.1101,-0.30419 12.6793,-0.93428 14.75,-2.03398 z m 53.1817,11.57656 c -0.3749,-0.37494 -0.6817,-30.7567 -0.6817,-67.51504 V 587.8415 h 29.5548 29.5548 l -0.3048,4.75 -0.3048,4.75 -23.75,0.2681 -23.75,0.2681 v 25.95651 25.9565 l 15.75,0.2754 15.75,0.27539 v 4.5 4.5 l -15.7666,0.27548 -15.7665,0.27547 0.2665,26.22453 0.2666,26.22452 23.804,0.26823 23.8041,0.26822 -0.3041,4.73178 -0.304,4.73177 -28.5683,0.26504 c -15.7126,0.14577 -28.8751,-0.0417 -29.25,-0.41667 z m 126.5183,-0.54837 c -0.909,-0.90897 -1.2,-17.12835 -1.2,-66.87756 0,-56.86395 0.1993,-65.84293 1.4849,-66.90994 1.0947,-0.90847 6.3058,-1.13694 19.827,-0.86923 18.1033,0.35842 18.4188,0.4024 24.2365,3.3777 7.0303,3.59539 12.4111,10.14339 15.101,18.37636 2.7295,8.35439 2.4282,23.67683 -0.6197,31.52148 -2.6567,6.83752 -8.4817,13.63241 -13.8194,16.1204 -2.0407,0.95119 -3.8911,1.88732 -4.1122,2.08031 -0.221,0.19299 4.447,14.06332 10.3734,30.82297 5.9264,16.75965 10.5089,31.16631 10.1833,32.0148 -0.6263,1.63213 -7.1259,2.16654 -9.3264,0.76683 -0.6444,-0.40989 -5.8793,-14.4655 -11.6332,-31.23469 l -10.4615,-30.48943 -9.6169,-0.28621 -9.6168,-0.28621 v 30.33621 c 0,22.2615 -0.3194,30.65562 -1.2,31.53621 -0.66,0.66 -2.82,1.2 -4.8,1.2 -1.98,0 -4.14,-0.54 -4.8,-1.2 z m 40.0401,-74.75916 c 14.2718,-9.79189 13.5458,-39.49765 -1.1487,-46.99419 -3.3846,-1.72674 -5.8937,-2.04665 -16.0516,-2.04665 h -12.0398 v 26.07947 26.07947 l 12.8279,-0.32947 c 11.6962,-0.3004 13.1441,-0.54642 16.4122,-2.78863 z m 46.2254,74.72454 c -0.266,-0.69596 -0.367,-30.96538 -0.2245,-67.26538 l 0.259,-66 29.25,-0.2651 29.25,-0.26511 v 5.01511 5.0151 h -24 -24 v 25.97461 25.9746 l 15.75,0.2754 15.75,0.27539 0.3037,4.72433 0.3038,4.72434 -15.8038,0.27566 -15.8037,0.27567 v 26 26 l 23.804,0.26823 23.8041,0.26822 -0.3041,4.73178 -0.304,4.73177 -28.7755,0.26538 c -22.4812,0.20733 -28.8812,-0.0114 -29.259,-1 z m 173.2473,0.61405 c -0.3921,-0.39202 -0.7128,-30.78776 -0.7128,-67.5461 V 587.8415 h 5.5 5.5 v 31 31 h 18.9855 18.9856 l 0.2644,-30.75 0.2645,-30.75 4.9033,-0.31105 c 3.2455,-0.20589 5.1843,0.1322 5.7346,1 1.4056,2.21629 1.0769,131.19628 -0.3379,132.61105 -0.66,0.66 -2.82,1.2 -4.8,1.2 -1.98,0 -4.14,-0.54 -4.8,-1.2 -0.8805,-0.88053 -1.2,-9.26667 -1.2,-31.5 v -30.3 h -18.9858 -18.9857 l -0.2643,31.25 -0.2642,31.25 -4.5372,0.2961 c -2.4955,0.16286 -4.858,-0.0246 -5.25,-0.41667 z m 91.9539,-0.0461 c -0.3667,-0.36666 -0.6667,-30.74846 -0.6667,-67.5151 v -66.84844 l 29.25,0.26511 29.25,0.2651 v 4.5 4.5 l -23.75,0.2681 -23.75,0.2681 v 25.9819 25.9819 h 15.5 15.5 v 5 5 h -15.5 -15.5 v 26.4819 26.4819 l 23.75,0.2681 23.75,0.2681 0.3192,3.89821 c 0.2,2.44261 -0.1734,4.21056 -1,4.73469 -1.5546,0.98572 -56.1757,1.17727 -57.1525,0.20043 z m 84.7929,-0.58333 c -0.2627,-0.6875 -0.3611,-31.175 -0.2186,-67.75 l 0.259,-66.5 19,0.0375 c 17.7375,0.035 19.3514,0.19381 24.2877,2.38935 6.5249,2.90212 12.3722,9.33296 15.39,16.92602 1.8652,4.69299 2.2462,7.59006 2.2549,17.14709 0.01,10.55925 -0.2251,12.01541 -2.8703,17.80048 -3.0738,6.72266 -10.7709,14.7118 -15.2593,15.83833 -3.0558,0.76694 -3.7492,-1.82969 9.043,33.86119 7.2816,20.31598 10.0969,29.37431 9.4016,30.25 -1.0711,1.34896 -7.5605,1.68612 -9.3291,0.48469 -0.5948,-0.40404 -5.8195,-14.45965 -11.6105,-31.23465 l -10.5291,-30.5 -9.6394,-0.28621 -9.6395,-0.28621 v 30.92922 c 0,34.21489 0.4262,32.1432 -6.6132,32.1432 -1.8973,0 -3.6645,-0.5625 -3.9272,-1.25 z m 38.6331,-74.07764 c 15.2548,-8.05657 15.4962,-38.82769 0.3719,-47.39394 -3.5066,-1.98611 -5.3798,-2.24742 -16.2146,-2.26197 l -12.25,-0.0164 v 26 26 h 11.8427 c 10.4694,0 12.3538,-0.26992 16.25,-2.32764 z m 135.6201,74.70707 c -0.3921,-0.39202 -0.7128,-30.78776 -0.7128,-67.5461 V 587.8415 h 5.5 5.5 v 31 31 h 19 19 l 0.015,-29.75 c 0.01,-16.3625 0.3895,-30.33997 0.8468,-31.06105 0.5503,-0.8678 2.4891,-1.20589 5.7346,-1 l 4.9033,0.31105 0.2572,66.43653 c 0.2032,52.48732 -0.01,66.60412 -1,67.23469 -1.9245,1.2218 -8.2083,0.97773 -9.5572,-0.37122 -0.8806,-0.88057 -1.2,-9.27157 -1.2,-31.52207 v -30.32206 l -18.75,0.27206 -18.75,0.27207 -0.5,31 -0.5,31 -4.5372,0.2961 c -2.4955,0.16286 -4.858,-0.0246 -5.25,-0.41667 z m 91.9689,-0.0311 c -0.3749,-0.3749 -0.6817,-30.76346 -0.6817,-67.5301 v -66.84844 l 29.25,0.26511 29.25,0.2651 v 4.5 4.5 l -23.75,0.2681 -23.75,0.2681 v 25.95651 25.9565 l 15.75,0.2754 15.75,0.27539 v 4.5 4.5 l -15.7666,0.27548 -15.7665,0.27547 0.2665,26.22453 0.2666,26.22452 23.804,0.26823 23.8041,0.26822 -0.3041,4.73178 -0.304,4.73177 -28.5683,0.26504 c -15.7126,0.14577 -28.8751,-0.0417 -29.25,-0.41667 z M 96.352045,445.90661 c -40.9568,-7.21376 -73.0518,-32.37563 -87.4577002,-68.5651 -1.7515,-4.4 -4.3613,-12.725 -5.7995,-18.5 l -2.61490004,-10.5 -0.3471,-118.5 c -0.3678,-125.50509 -0.2698,-128.81749 4.31730004,-145.957944 5.1589,-19.27718 12.8731002,-33.13926 26.2166002,-47.11009 22.4639,-23.5201 49.2251,-34.82089 86.611695,-36.57451995 34.3067,-1.60917005 64.3956,6.56074995 87.8843,23.86281995 8.0435,5.92498 21.9652,20.59224 21.0409,22.16773 -0.3588,0.61159 -15.0845,20.61177 -32.7237,44.44483 l -32.0714,43.332844 -0.5898,-13.83284 c -0.4462,-10.46562 -1.1061,-15.25797 -2.711,-19.6874 -3.4833,-9.613594 -9.3907,-16.268574 -18.1992,-20.502054 -4.8166,-2.31496 -6.7424,-2.64339 -15.5,-2.64339 -8.5881,0 -10.7022,0.34557 -14.9739,2.4476 -6.0706,2.98728 -12.628795,9.37632 -15.609695,15.20719 -5.0147,9.809154 -4.8926,6.581074 -4.8926,129.345224 0,122.67581 -0.1179,119.54458 4.8652,129.29149 7.778895,15.21565 26.373995,21.76781 44.372395,15.63511 5.5794,-1.90108 13.8001,-8.96905 17.2208,-14.8059 3.7649,-6.42434 5.4865,-15.63335 5.5031,-29.43644 0.01,-6.77366 0.4552,-13.13883 0.9936,-14.14482 1.8909,-3.53319 5.5547,-3.69258 45.3035,-1.97081 34.3261,1.48687 39.0084,1.88451 40.75,3.46062 1.704,1.54218 1.9676,3.10484 1.9676,11.66515 0,28.47136 -6.7278,53.53396 -19.5902,72.97731 -5.9808,9.041 -20.7531,24.07179 -29.2796,29.79213 -14.7923,9.92394 -34.6592,17.33425 -53.4973,19.9544 -12.0528,1.67638 -39.4171,1.22031 -51.189395,-0.85314 z M 2209.4086,442.10332 c -6.6625,-2.39974 -11.8207,-6.18177 -25.2338,-18.50151 -11.8156,-10.85245 -18.3864,-15.39242 -27.964,-19.32123 -3.5107,-1.44012 -5.7527,-2.95209 -5.6769,-3.82833 0.2085,-2.40817 113.7704,-181.645 114.8617,-181.28817 0.5571,0.18218 8.438,10.74299 17.513,23.46847 9.075,12.72548 17.0678,23.36629 17.7618,23.64626 3.4239,1.38118 6.1654,-2.11609 17.257,-22.01468 6.261,-11.23244 11.6307,-20.41517 11.9325,-20.40607 0.3018,0.009 3.2487,5.26397 6.5487,11.67748 5.6416,10.96431 10.6655,18.30597 12.5269,18.30597 1.671,0 7.4019,-5.61682 15.2279,-14.9247 4.428,-5.26642 8.4256,-9.5753 8.8835,-9.5753 0.4579,0 13.1204,21.34047 28.1389,47.42328 15.7343,27.32592 28.4,48.23979 29.887,49.35 4.9108,3.66645 13.6394,1.72778 17.2873,-3.8396 3.418,-5.21646 2.4452,-8.30268 -8.8684,-28.13799 -7.5803,-13.28993 -10.436,-19.18369 -9.9845,-20.60642 1.288,-4.05807 8.4597,-18.96429 8.9083,-18.51569 1.2837,1.28371 86.3758,146.27706 86.0416,146.61126 -0.2144,0.21444 -3.0131,-0.18783 -6.2192,-0.89393 -8.312,-1.83058 -25.4411,-1.59051 -33.3293,0.46712 -14.7507,3.84769 -24.4925,9.98454 -42.8694,27.00542 -6.1791,5.72319 -12.6447,10.71297 -16,12.34794 -5.0865,2.47857 -6.6952,2.74586 -16.6481,2.76615 -10.3993,0.0212 -11.3813,-0.15709 -17.5,-3.17693 -4.4102,-2.17661 -10.1143,-6.58433 -17.8433,-13.78799 -22.42,-20.89607 -35.1371,-26.76811 -58.1392,-26.84547 -12.805,-0.0431 -20.5003,1.53569 -30.7296,6.30448 -8.9757,4.18438 -14.2213,8.05318 -28.0571,20.69277 -15.6773,14.32184 -19.9325,16.51405 -33.0422,17.02293 -7.5159,0.29175 -10.7854,-0.0259 -14.6711,-1.42552 z m 377,1.07518 c -1.1,-0.29754 -4.06,-1.41717 -6.5778,-2.48807 l -4.5779,-1.94709 -41.8955,-70.70091 c -23.0425,-38.88551 -51.9379,-88.02592 -64.2119,-109.20092 -12.2741,-21.175 -23.6557,-39.7375 -25.2925,-41.25 -2.322,-2.14571 -3.9579,-2.75 -7.4444,-2.75 -6.904,0 -9.6639,3.15831 -16.4716,18.84972 -3.166,7.29756 -6.1364,13.35424 -6.6009,13.45929 -0.8759,0.19808 -11.1527,-17.49719 -48.6734,-83.80902 -32.9851,-58.29579 -39.1663,-67.500004 -45.3308,-67.500004 -1.4957,0 -3.9615,1.53815 -6.4415,4.01816 -4.5884,4.588444 -28.8041,40.967134 -53.4069,80.231854 -9.2186,14.7125 -17.0567,26.73182 -17.418,26.70959 -0.3613,-0.0222 -8.9726,-12.22944 -19.1361,-27.12715 -10.1636,-14.89772 -19.5105,-27.76246 -20.771,-28.58833 -3.1004,-2.0315 -9.3488,-2.06451 -12.3997,-0.0655 -1.3729,0.89962 -20.6884,26.17985 -42.9232,56.17828 -22.2348,29.99844 -40.7644,54.56522 -41.1769,54.59286 -0.4125,0.0276 -0.75,-58.23383 -0.75,-129.46994 V 2.801126 l 9.25,0.50268 c 5.0875,0.27648 15.55,0.74935 23.25,1.05082 81.8314,3.20387 173.1786,28.49323 247.7273,68.58302 128.5981,69.155684 225.5363,179.529534 277.4128,315.861904 2.3979,6.30192 4.3599,11.95662 4.3599,12.56599 0,0.60937 -2.4974,2.14305 -5.5497,3.40817 -8.7556,3.62898 -19.0447,10.97015 -30.9503,22.08263 -14.3089,13.35573 -20.1798,16.31561 -33,16.63731 -4.95,0.12422 -9.9,-0.0176 -11,-0.31515 z M 276.72504,440.33801 c -0.9684,-2.12548 5.832,-34.62667 45.0385,-215.25 25.3986,-117.01058 46.8278,-214.185124 47.6206,-215.943414 1.9246,-4.26849 4.5836,-4.68081 25.8435,-4.00736 11.9733,0.37928 19.7767,1.14917 25.7447,2.53999 26.7891,6.24309 44.87469,18.87103 53.94229,37.66427 3.6053,7.47226 6.6007,20.69573 45.4072,200.455604 38.4895,178.29088 41.4367,192.62445 40.044,194.75 l -1.5034,2.29441 h -42.3219 c -39.0493,0 -42.4419,-0.13532 -43.8725,-1.75 -1.0307,-1.16328 -3.3101,-12.47852 -6.7989,-33.75 -3.7355,-22.77569 -5.69439,-32.36032 -6.79559,-33.25 -1.1788,-0.95233 -10.8626,-1.25 -40.665,-1.25 -29.7768,0 -39.4986,0.29849 -40.7128,1.25 -1.1342,0.88882 -3.3311,10.62604 -7.6032,33.69915 -4.6775,25.26256 -6.4022,32.73725 -7.7872,33.75 -1.3924,1.01812 -10.7618,1.30085 -43.1093,1.30085 h -41.3303 z m 171.1835,-138.19514 c 0,-4.18519 -26.1674,-161.86885 -27.0002,-162.70156 -0.5789,-0.57899 -1.1192,-0.39534 -1.4207,0.48297 -0.591,1.72191 -29.5791,161.30226 -29.5791,162.83404 0,0.75268 8.8486,1.08319 29,1.08319 26.6184,0 29,-0.1395 29,-1.69864 z m 155.99999,138.69864 c -1.9876,-1.9876 -2,-3.33333 -2,-217 0,-214.922754 8e-4,-215.000744 2.0357,-217.035694 2.0172,-2.01714 2.7251,-2.03294 77.75001,-1.73477 l 75.7143,0.3009 10,2.72955 c 5.5,1.50125 14.95,5.18923 21,8.1955 33.50733,16.64995 55.14363,47.78182 63.27493,91.044504 2.6276,13.98 2.3058,47.64372 -0.584,61.10407 -6.9564,32.40164 -22.0887,57.26956 -45.3357,74.5033 -3.77033,2.79507 -6.85523,5.31319 -6.85523,5.59581 0,0.28263 13.05003,42.35891 29.00003,93.50286 15.95,51.14395 29,93.8747 29,94.95723 0,1.08252 -0.4658,2.83864 -1.0352,3.90248 -0.9985,1.86573 -2.5397,1.93426 -43.5,1.93426 -40.74803,0 -42.54353,-0.0787 -44.41203,-1.94725 -1.071,-1.07099 -2.4152,-3.65849 -2.9871,-5.75 -18.5709,-67.91656 -48.2248,-171.78849 -49.2239,-172.42169 -1.5288,-0.96896 -20.8557,-1.19669 -23.26,-0.27407 -1.4257,0.54711 -1.5818,9.25894 -1.5818,88.31144 0,86.88074 -0.019,87.725 -2.0389,89.89301 -2.0326,2.18176 -2.1647,2.18856 -42.50001,2.18856 -39.1277,0 -40.527,-0.0659 -42.4611,-2 z m 130.14471,-250.0046 c 13.8104,-4.3561 23.7119,-15.84706 28.4929,-33.06681 2.4715,-8.90173 2.4577,-31.77232 -0.025,-40.84864 -4.0187,-14.69398 -12.6493,-26.018044 -24.113,-31.638344 l -6,-2.94162 h -20.5 -20.5 l -0.2598,54.000004 c -0.1429,29.70001 -0.044,54.56251 0.2186,55.25001 0.3582,0.93572 4.9855,1.25 18.4045,1.25 15.1595,0 18.9069,-0.30937 24.2814,-2.0046 z m 163.92793,249.36974 -2.0726,-2.63486 V 223.84151 10.111216 l 2.1006,-2.67045 2.1005,-2.67044 75.6495,0.30081 75.64943,0.30081 10,2.72686 c 40.6048,11.07237 70.4962,42.69598 81.5187,86.24269 8.5576,33.808554 6.2252,72.886684 -6.0753,101.792644 -7.9158,18.60175 -21.8289,36.10234 -37.7125,47.43668 -4.4223,3.15568 -6.1445,4.97995 -5.7885,6.13147 0.2788,0.90157 13.3422,42.81422 29.0299,93.13922 15.6876,50.325 28.524,92.8725 28.5253,94.55 0,1.6775 -0.5376,3.59 -1.1976,4.25 -1.5363,1.53627 -83.9314,1.7352 -86.7822,0.20952 -2.4205,-1.2954 -1.3547,2.26815 -28.1156,-94.00952 -12.7652,-45.925 -23.6453,-84.0625 -24.1782,-84.75 -1.3206,-1.70376 -22.82643,-1.74761 -24.52403,-0.05 -0.915,0.91501 -1.2,21.93333 -1.2,88.5 0,85.96667 -0.031,87.33055 -2,89.3 -1.934,1.93404 -3.3333,2 -42.4274,2 h -40.4274 z M 1031.9086,189.68916 c 11.2256,-5.25027 19.1784,-14.80004 23.8205,-28.60372 2.3809,-7.07962 2.602,-9.11652 2.5783,-23.74394 -0.024,-14.4871 -0.2698,-16.73224 -2.6043,-23.74394 -4.5727,-13.734514 -12.569,-23.415444 -23.6194,-28.595654 -5.5664,-2.60947 -6.0676,-2.66041 -26.1751,-2.66041 h -20.50003 l -0.2599,54.000004 c -0.1429,29.70001 -0.029,54.60249 0.2528,55.33886 0.4115,1.07506 4.5017,1.2642 20.75983,0.96001 19.2489,-0.36015 20.5185,-0.50568 25.7473,-2.95121 z m 233.405,251.04743 c -1.8563,-2.05109 -1.9116,-6.66679 -2.1632,-180.5 l -0.2581,-178.395094 h -40.0373 -40.0373 l -2.4546,-2.45455 -2.4545,-2.45454 V 42.959526 8.986656 l 2.6349,-2.07258 c 2.634,-2.07191 2.6755,-2.07258 128.8651,-2.07258 126.1896,0 126.2311,6.7e-4 128.8651,2.07258 l 2.6349,2.07258 v 33.97287 33.97288 l -2.4545,2.45454 -2.4546,2.45455 h -41.4288 -41.4288 l -0.603,2.25 c -0.3317,1.2375 -0.6091,81.717774 -0.6166,178.845024 -0.013,169.80282 -0.084,176.65867 -1.8424,178.25 -1.6384,1.48266 -6.0476,1.65499 -42.3451,1.65499 -39.9194,0 -40.5443,-0.031 -42.4212,-2.10492 z m 219.595,0.10492 c -1.9876,-1.98759 -2,-3.33333 -2,-216.92742 V 8.986656 l 2.6349,-2.07258 c 2.6293,-2.06822 2.866,-2.07258 112.5454,-2.07258 h 109.9106 l 2.4546,2.45455 2.4545,2.45454 v 33.43467 c 0,31.42698 -0.1148,33.57643 -1.9112,35.79546 l -1.9113,2.36078 -68.3387,0.5 -68.3388,0.5 -0.2593,50.935264 c -0.204,40.0854 0.01,51.10555 1,51.73469 0.6926,0.43969 18.9218,0.80633 40.5093,0.81475 37.9059,0.0148 39.3185,0.0838 41.25,2.01531 1.9211,1.92113 2,3.33333 2,35.80887 0,27.61191 -0.26,34.16467 -1.4187,35.75 -1.3534,1.8519 -3.2956,1.96411 -42.25,2.44113 l -40.8313,0.5 v 52 52 l 68.1829,0.25692 68.1828,0.25692 2.0672,2.62794 c 1.9938,2.53481 2.0671,3.78779 2.0671,35.35822 0,31.59815 -0.072,32.82142 -2.0726,35.36514 l -2.0726,2.63486 H 1597.836 c -109.5941,0 -110.9514,-0.024 -112.9274,-2 z m 273.0658,-0.64351 -2.0794,-2.64351 0.2568,-214.44488 0.2568,-214.444894 2.3608,-1.91161 c 2.2348,-1.80959 4.4558,-1.91161 41.6151,-1.91161 38.1984,0 39.3253,0.0557 41.8892,2.07258 l 2.6349,2.07258 V 186.79165 c 0,147.63505 0.228,177.99419 1.3437,178.92012 0.9508,0.78913 20.4166,1.19037 66.5822,1.37245 l 65.2386,0.25729 -27.8322,37.70339 -27.8323,37.70339 -81.1774,0.0466 -81.1774,0.0466 -2.0794,-2.64351 z m 346.9729,-86.49808 0.039,-49.35841 44.7114,-60.20693 c 24.5912,-33.1138 45.1613,-60.07697 45.7113,-59.91814 0.55,0.15883 8.075,10.54236 16.7223,23.07451 12.2115,17.69774 15.5136,23.15025 14.7878,24.41815 -0.5139,0.89782 -24.5261,38.97644 -53.3605,84.61915 l -52.426,82.98674 -5.3618,1.12719 c -2.949,0.61995 -6.5993,1.4622 -8.1118,1.87166 l -2.75,0.74449 0.039,-49.35841 z"
     id="path4520"
     inkscape:connector-curvature="0"
     inkscape:export-filename="/home/jamesrunnalls/git/datalakes/website/datalakes-react-app/datalakes/src/components/footer/img/carrtel.png"
     inkscape:export-xdpi="96"
     inkscape:export-ydpi="96" />
</svg>
