<?xml version="1.0" encoding="UTF-8" standalone="no"?>
<!-- Created with Inkscape (http://www.inkscape.org/) -->

<svg
   xmlns:dc="http://purl.org/dc/elements/1.1/"
   xmlns:cc="http://creativecommons.org/ns#"
   xmlns:rdf="http://www.w3.org/1999/02/22-rdf-syntax-ns#"
   xmlns:svg="http://www.w3.org/2000/svg"
   xmlns="http://www.w3.org/2000/svg"
   xmlns:sodipodi="http://sodipodi.sourceforge.net/DTD/sodipodi-0.dtd"
   xmlns:inkscape="http://www.inkscape.org/namespaces/inkscape"
   version="1.0"
   width="380.54437"
   height="81.536209"
   id="svg2"
   xml:space="preserve"
   sodipodi:docname="eawag.svg"
   inkscape:version="0.92.3 (2405546, 2018-03-11)"><metadata
     id="metadata39"><rdf:RDF><cc:Work
         rdf:about=""><dc:format>image/svg+xml</dc:format><dc:type
           rdf:resource="http://purl.org/dc/dcmitype/StillImage" /><dc:title /></cc:Work></rdf:RDF></metadata><sodipodi:namedview
     pagecolor="#ffffff"
     bordercolor="#666666"
     borderopacity="1"
     objecttolerance="10"
     gridtolerance="10"
     guidetolerance="10"
     inkscape:pageopacity="0"
     inkscape:pageshadow="2"
     inkscape:window-width="1859"
     inkscape:window-height="1025"
     id="namedview37"
     showgrid="false"
     inkscape:zoom="2.4183052"
     inkscape:cx="44.157168"
     inkscape:cy="41.536136"
     inkscape:window-x="61"
     inkscape:window-y="27"
     inkscape:window-maximized="1"
     inkscape:current-layer="svg2" /><defs
     id="defs5"><clipPath
       id="clipPath19"><path
         d="m 2056.6484,3325.3643 h 257.0166 v -55.0689 h -257.0166 z"
         id="path21"
         inkscape:connector-curvature="0" /></clipPath><clipPath
       id="clipPath39"><path
         d="m 2056.6484,3325.3643 h 257.0166 v -55.0689 h -257.0166 z"
         id="path41"
         inkscape:connector-curvature="0" /></clipPath></defs><g
     transform="matrix(1.25,0,0,-1.25,-1399.5638,2457.2975)"
     id="g11"
     style="fill:#000000"><g
       transform="matrix(1.1844974,0,0,1.1844974,-253.26435,-372.16808)"
       id="g3312"
       style="fill:#000000"><g
         transform="translate(-897.57844,-1351.5262)"
         id="g15"
         style="fill:#000000"><g
           clip-path="url(#clipPath19)"
           id="g17"
           style="fill:#000000"><path
             d="m 2091.9814,3318.1377 c -2.8369,0 -4.9023,-2.2588 -5.1621,-5.5503 h 9.6797 c 0.127,3.6138 -1.6777,5.5503 -4.5166,5.5503 h -10e-4 m 13.8741,-12.0654 h -19.1016 c 0.065,-4.2598 2.6475,-6.7115 7.9375,-6.7115 3.1621,0 6.4531,0.6441 9.4209,1.9986 l 0.9023,-7.417 c -3.6132,-1.4863 -7.9355,-2.1992 -11.873,-2.1992 -10.5166,0 -16.3232,5.0996 -16.3232,16.3896 0,9.8731 5.4863,17.1621 15.4218,17.1621 9.6778,0 13.9356,-6.5166 13.9356,-14.9033 0,-1.3535 -0.1289,-2.7764 -0.3203,-4.3228"
             id="path23"
             style="fill:#000000;fill-opacity:1;fill-rule:nonzero;stroke:none"
             inkscape:connector-curvature="0" /><path
             d="m 2129.6621,3306.1367 c -5.8066,0 -8.7754,-1.2285 -8.7754,-4.1953 0,-1.6758 1.1621,-2.8369 3.2256,-2.8369 3.294,0 5.5498,3.0322 5.5498,6.1289 v 0.9033 0 m 0.9033,-13.7431 c 0,1.6127 0,3.289 0.2569,4.9023 h -0.064 c -1.5478,-3.3521 -5.3535,-5.5508 -9.8076,-5.5508 -6.1289,0 -9.3564,3.6138 -9.3564,8.7774 0,8.1294 7.872,11.6137 18.0644,11.7431 v 1.6128 c 0,2.7759 -1.2236,4.0015 -5.2256,4.0015 -1.3525,0 -2.582,-0.1924 -3.6142,-0.4512 -0.128,-1.0322 -0.3243,-2.3232 -0.5801,-3.5488 h -6.2588 v 9.8086 c 3.4863,1.0322 7.4219,1.6787 11.293,1.6787 11.163,0 14.2588,-4.1309 14.2588,-11.4854 v -13.9345 c 1.5488,-0.2588 3.5488,-0.5171 5.1621,-0.6446 v -6.3896 c -4.1944,-0.4502 -9.4844,-0.708 -14.1309,-0.5142"
             id="path25"
             style="fill:#000000;fill-opacity:1;fill-rule:nonzero;stroke:none"
             inkscape:connector-curvature="0" /><path
             d="m 2195.3838,3317.4917 -7.5469,-25.0347 h -10.8398 l -3.4864,11.1641 c -0.707,2.3223 -1.2871,4.708 -1.8691,7.6758 h -0.064 c -0.6445,-3.0303 -1.291,-5.4195 -2.1308,-8.0645 l -3.1602,-10.7754 h -10.6455 l -7.3564,25.0347 c -1.0322,0.1289 -2.0645,0.2593 -3.0332,0.5176 v 6.5171 h 15.7431 v -6.5171 c -0.7724,-0.1939 -1.5488,-0.3218 -2.4511,-0.3867 l 1.6142,-5.9356 c 0.6455,-2.4521 1.3545,-4.9038 1.8731,-7.4849 h 0.1279 c 0.5811,3.483 1.4219,6.2574 2.2588,8.9683 l 3.5488,11.356 h 8.6465 l 3.4854,-11.356 c 0.9677,-3.1621 1.6113,-5.8071 2.3193,-8.9683 h 0.1309 c 0.4531,2.5167 1.0332,4.5821 1.6132,6.8389 l 1.9327,6.5796 c -0.837,0.064 -1.6749,0.1939 -2.4483,0.3862 v 6.5176 h 14.7734 v -6.5176 c -0.9687,-0.2578 -1.998,-0.3862 -3.0332,-0.5166"
             id="path27"
             style="fill:#000000;fill-opacity:1;fill-rule:nonzero;stroke:none"
             inkscape:connector-curvature="0" /><path
             d="m 2218.0322,3306.1367 c -5.8086,0 -8.7734,-1.2285 -8.7734,-4.1953 0,-1.6758 1.1601,-2.8369 3.2246,-2.8369 3.29,0 5.5488,3.0322 5.5488,6.1289 v 0.9033 0 m 0.9024,-13.7431 c 0,1.6127 0,3.289 0.2597,4.9023 h -0.062 c -1.5517,-3.3521 -5.3584,-5.5508 -9.8086,-5.5508 -6.1328,0 -9.3584,3.6138 -9.3584,8.7774 0,8.1294 7.8711,11.6137 18.0664,11.7431 v 1.6128 c 0,2.7759 -1.2265,4.0015 -5.2246,4.0015 -1.3555,0 -2.5849,-0.1924 -3.6142,-0.4512 -0.1309,-1.0322 -0.3233,-2.3232 -0.583,-3.5488 h -6.2579 v 9.8086 c 3.4844,1.0322 7.42,1.6787 11.2911,1.6787 11.1621,0 14.2617,-4.1309 14.2617,-11.4854 v -13.9345 c 1.5468,-0.2588 3.5468,-0.5171 5.1601,-0.6446 v -6.3896 c -4.1943,-0.4502 -9.4843,-0.708 -14.1308,-0.5142"
             id="path29"
             style="fill:#000000;fill-opacity:1;fill-rule:nonzero;stroke:none"
             inkscape:connector-curvature="0" /></g></g><path
         d="m 1352.532,1966.6759 c -3.1612,0 -5.0967,-1.872 -5.0967,-4.6455 0,-2.9043 1.8066,-4.7099 5.1601,-4.7099 3.0342,0 5.0323,1.7431 5.0323,4.6455 0,2.8379 -1.8067,4.7099 -5.0957,4.7099 v 0 m 3.0839,-27.3105 h -5.0986 c -0.3857,0 -0.9678,0 -1.29,0.062 -1.3545,-0.9048 -2.2452,-3.0312 -2.3116,-4.3877 -0.1455,-2.8828 0.7588,-6.2803 5.7803,-6.2803 4.582,0 7.0488,4.8609 7.0488,7.378 0,1.7392 -1.1601,3.226 -4.1308,3.226 v 0 m -3.9453,-17.9893 c -8.7099,0 -14.3301,5.6905 -14.3301,12.0127 0,3.0318 2.2198,7.1563 4.6719,8.3868 -1.8711,0.9003 -3.0957,2.708 -3.0957,4.9648 0,2.5791 1.6758,4.9678 3.8731,5.8711 -2.9034,1.5464 -4.7764,4.645 -4.7764,8.8394 0,6.7128 4.7764,12.3256 14.8447,12.3256 2.2559,0 4.126,-0.3232 5.999,-0.7763 h 10.7745 v -7.7422 h -3.6778 c 0.6465,-0.6441 0.9688,-1.6787 0.9688,-2.9043 0,-7.0967 -4.8408,-11.6143 -14.1963,-11.6143 -0.6475,0 -1.4815,0.065 -2.1934,0.1304 -0.8388,-0.3247 -1.1601,-1.0347 -1.1601,-1.6157 0,-1.2906 0.9033,-1.6758 4.581,-1.6758 h 4.3867 c 6.9053,0 10.9395,-4.124 10.9395,-10.5112 0,-7.0337 -6.5107,-15.691 -17.6074,-15.691"
         id="path31"
         style="fill:#000000;fill-opacity:1;fill-rule:nonzero;stroke:none"
         inkscape:connector-curvature="0" /><path
         d="m 1380.5866,1932.3625 c -2.8505,0 -5.1699,-2.3213 -5.1699,-5.1719 0,-2.8506 2.3194,-5.1719 5.1699,-5.1719 2.8487,0 5.1709,2.3213 5.1709,5.1719 0,2.8506 -2.3222,5.1719 -5.1709,5.1719 v 0 m 3.6084,-5.1739 c 0,-1.9873 -1.6181,-3.6079 -3.6084,-3.6079 -1.9892,0 -3.6054,1.6206 -3.6054,3.6079 0,1.9898 1.6162,3.6084 3.6054,3.6084 1.9903,0 3.6084,-1.6186 3.6084,-3.6084"
         id="path33"
         style="fill:#000000;fill-opacity:1;fill-rule:nonzero;stroke:none"
         inkscape:connector-curvature="0" /><g
         transform="translate(-897.57844,-1351.5262)"
         id="g35"
         style="fill:#000000"><g
           clip-path="url(#clipPath39)"
           id="g37"
           style="fill:#000000"><path
             d="m 2293.5186,3283.8887 c -2.8497,0 -5.17,-2.3213 -5.17,-5.1719 0,-2.8506 2.3203,-5.1719 5.17,-5.1719 2.8544,0 5.1738,2.3213 5.1738,5.1719 0,2.8506 -2.3194,5.1719 -5.1738,5.1719 v 0 m 3.6123,-5.1739 c 0,-1.9873 -1.6221,-3.6079 -3.6123,-3.6079 -1.9893,0 -3.6055,1.6206 -3.6055,3.6079 0,1.9898 1.6162,3.6084 3.6055,3.6084 1.9902,0 3.6123,-1.6186 3.6123,-3.6084"
             id="path43"
             style="fill:#000000;fill-opacity:1;fill-rule:nonzero;stroke:none"
             inkscape:connector-curvature="0" /><path
             d="m 2308.4932,3283.8887 c -2.8487,0 -5.168,-2.3213 -5.168,-5.1719 0,-2.8506 2.3193,-5.1719 5.168,-5.1719 2.8506,0 5.1718,2.3213 5.1718,5.1719 0,2.8506 -2.3212,5.1719 -5.1718,5.1719 v 0 m 3.6074,-5.1739 c 0,-1.9873 -1.6172,-3.6079 -3.6074,-3.6079 -1.9873,0 -3.6055,1.6206 -3.6055,3.6079 0,1.9898 1.6182,3.6084 3.6055,3.6084 1.9902,0 3.6074,-1.6186 3.6074,-3.6084"
             id="path45"
             style="fill:#000000;fill-opacity:1;fill-rule:nonzero;stroke:none"
             inkscape:connector-curvature="0" /><path
             d="m 2061.917,3278.4688 c -0.7266,0 -3.457,0 -3.457,-1.9502 0,-0.6104 0.3808,-1.6622 1.9863,-1.6622 0.915,0 1.6055,0.3658 2.0439,1.0342 0.4014,0.6499 0.42,1.1836 0.4571,2.5191 -0.3233,0.039 -0.5909,0.059 -1.0303,0.059 v 0 m 1.2422,-4.7188 c -0.1358,0.4795 -0.1729,0.9385 -0.1729,1.4336 -0.8593,-1.584 -2.1562,-1.7383 -2.959,-1.7383 -2.1962,0 -3.3789,1.2412 -3.3789,2.8281 0,0.7613 0.2627,1.9834 1.6758,2.8072 1.0322,0.5727 2.5606,0.6289 3.3242,0.6289 0.46,0 0.7481,-0.021 1.2989,-0.056 0,1.1826 0,1.6997 -0.3428,2.1172 -0.3623,0.4775 -1.1465,0.6318 -1.6611,0.6318 -1.8145,0 -1.9102,-1.2436 -1.9288,-1.624 h -1.7939 c 0.055,0.4956 0.1133,1.1641 0.667,1.8101 0.7266,0.8027 2.084,1.0332 3.0937,1.0332 1.3926,0 2.8838,-0.4414 3.3985,-1.4131 0.3056,-0.5718 0.3281,-1.0308 0.3281,-1.4702 l -0.079,-4.586 c 0,-0.1518 0.02,-1.4296 0.1543,-2.4057 h -1.624"
             id="path47"
             style="fill:#000000;fill-opacity:1;fill-rule:nonzero;stroke:none"
             inkscape:connector-curvature="0" /><path
             d="m 2073.2998,3282.1572 c -2.5791,0 -2.6162,-2.7129 -2.6162,-3.459 0,-0.6855 0.097,-2.08 0.7842,-3.0556 0.4189,-0.6113 1.165,-0.9346 2.0605,-0.9346 2.2168,0 2.6563,1.7363 2.6563,3.6475 0,0.7832 0,3.8017 -2.8848,3.8017 v 0 m 4.6797,1.1831 c -0.019,-0.3823 -0.038,-1.2207 -0.038,-1.5669 v -11.708 h -1.8125 v 4.7574 c -0.1543,-0.2286 -0.3467,-0.5372 -0.7851,-0.8238 -0.8008,-0.5517 -1.7159,-0.6103 -2.1573,-0.6103 -2.3291,0 -4.376,1.6426 -4.376,5.1963 0,3.5346 2.0098,4.9101 4.0323,4.9101 1.9482,0 2.8457,-1.0722 3.2676,-1.7412 l 0.057,1.5845 h 1.8144"
             id="path49"
             style="fill:#000000;fill-opacity:1;fill-rule:nonzero;stroke:none"
             inkscape:connector-curvature="0" /></g></g><path
         d="m 1186.9157,1931.8141 v -6.1684 c 0,-0.9385 0.211,-2.1211 2.043,-2.1211 0.8965,0 1.7383,0.3032 2.252,1.0703 0.4033,0.5723 0.4033,1.3184 0.4033,1.7969 v 5.4238 h 1.8535 v -7.792 c 0,-0.1938 0.038,-1.2622 0.058,-1.7969 h -1.873 l -0.038,1.6441 c -0.3438,-0.6665 -0.9922,-1.7383 -3.0557,-1.7383 -2.3662,0 -3.4756,1.3559 -3.4756,3.2495 v 6.4365 h 1.834"
         id="path51"
         style="fill:#000000;fill-opacity:1;fill-rule:nonzero;stroke:none"
         inkscape:connector-curvature="0" /><path
         d="m 1203.1696,1926.9426 c -0.7255,0 -3.457,0 -3.457,-1.9502 0,-0.6104 0.3799,-1.6622 1.9854,-1.6622 0.916,0 1.6054,0.3658 2.042,1.0342 0.4023,0.6499 0.4218,1.1836 0.4609,2.5191 -0.3252,0.04 -0.5938,0.059 -1.0313,0.059 v 0 m 1.2422,-4.7188 c -0.1377,0.4795 -0.1748,0.9385 -0.1748,1.4336 -0.8584,-1.584 -2.1582,-1.7383 -2.957,-1.7383 -2.1992,0 -3.3838,1.2412 -3.3838,2.8281 0,0.7613 0.2676,1.9834 1.6807,2.8072 1.0312,0.5727 2.5605,0.6289 3.3222,0.6289 0.46,0 0.7471,-0.02 1.3018,-0.056 0,1.1826 0,1.6997 -0.3428,2.1172 -0.3642,0.4775 -1.1484,0.6318 -1.664,0.6318 -1.8145,0 -1.9092,-1.2436 -1.9287,-1.624 h -1.7969 c 0.059,0.4956 0.1172,1.1641 0.6689,1.8101 0.7276,0.8027 2.0821,1.0332 3.0957,1.0332 1.3936,0 2.8819,-0.4414 3.3994,-1.4131 0.3047,-0.5718 0.3233,-1.0308 0.3233,-1.4702 l -0.076,-4.586 c 0,-0.1518 0.02,-1.4296 0.1524,-2.4057 h -1.6202"
         id="path53"
         style="fill:#000000;fill-opacity:1;fill-rule:nonzero;stroke:none"
         inkscape:connector-curvature="0" /><path
         d="m 1209.3366,1931.8498 h 1.7032 v 2.0068 l 1.7744,0.5723 v -2.5791 h 2.1396 v -1.3164 h -2.1396 v -5.7505 c 0,-0.4766 0,-1.2793 1.2803,-1.2793 0.3623,0 0.705,0.056 0.8593,0.098 v -1.3955 c -0.3242,-0.057 -0.8398,-0.1137 -1.4902,-0.1137 -1.6445,0 -2.4238,0.4795 -2.4238,2.0429 v 6.3994 h -1.7032 v 1.3174"
         id="path55"
         style="fill:#000000;fill-opacity:1;fill-rule:nonzero;stroke:none"
         inkscape:connector-curvature="0" /><path
         d="m 1218.8122,1931.8141 h 1.794 v -9.5903 h -1.794 v 9.5903 0 m -0.1924,4.1636 h 2.1602 v -1.9687 h -2.1602 v 1.9687"
         id="path57"
         style="fill:#000000;fill-opacity:1;fill-rule:nonzero;stroke:none"
         inkscape:connector-curvature="0" /><path
         d="m 1231.1872,1928.7394 c -0.038,0.4375 -0.1699,2.0025 -1.9082,2.0025 -2.4834,0 -2.4834,-2.8804 -2.4834,-3.6079 0,-1.9688 0.4776,-3.8038 2.3867,-3.8038 1.5264,0 2.045,1.1475 2.084,2.084 h 1.8145 c -0.1153,-1.873 -1.5098,-3.4365 -3.8779,-3.4365 -0.6495,0 -2.1407,0.1318 -3.1514,1.2417 -0.5723,0.6665 -1.1465,1.6802 -1.1465,3.6641 0,3.9946 2.4463,5.1792 4.3574,5.1792 0.628,0 2.0606,-0.1353 2.9405,-1.1836 0.707,-0.8228 0.7626,-1.6045 0.8027,-2.1377 h -1.8145"
         id="path59"
         style="fill:#000000;fill-opacity:1;fill-rule:nonzero;stroke:none"
         inkscape:connector-curvature="0" /><path
         d="m 1244.2146,1929.8664 c 0,0.6494 -0.038,1.3183 -0.095,1.9477 h 1.8164 l 0.037,-1.852 c 0.3427,1.3359 1.4892,1.7744 2.291,1.8896 0.5351,0.077 0.9345,0.059 1.2441,0.04 v -1.7578 c -0.099,0.038 -0.2129,0.057 -0.3467,0.076 -0.1367,0.021 -0.3056,0.021 -0.5166,0.021 -2.1191,0 -2.6152,-1.2603 -2.6152,-2.9034 v -5.1025 h -1.8154 v 7.6426"
         id="path61"
         style="fill:#000000;fill-opacity:1;fill-rule:nonzero;stroke:none"
         inkscape:connector-curvature="0" /><path
         d="m 1259.3239,1927.9562 c 0.02,0.9151 -0.1552,2.8252 -2.3701,2.8252 -1.164,0 -2.5771,-0.706 -2.6152,-2.8252 h 4.9853 v 0 m -5.0654,-1.2593 c -0.036,-1.9897 0.7842,-3.4594 2.752,-3.4594 1.165,0 2.0996,0.6108 2.2529,1.9863 h 1.7959 c -0.059,-0.4751 -0.1348,-1.2588 -0.8223,-2.0044 -0.4199,-0.479 -1.375,-1.2793 -3.3047,-1.2793 -3.0175,0 -4.4511,1.8706 -4.4511,4.9077 0,1.8916 0.3828,3.459 1.8906,4.5064 0.916,0.6523 2.0625,0.7085 2.6162,0.7085 4.2988,0 4.2022,-3.8018 4.1631,-5.3658 h -6.8945"
         id="path63"
         style="fill:#000000;fill-opacity:1;fill-rule:nonzero;stroke:none"
         inkscape:connector-curvature="0" /><path
         d="m 1266.446,1925.0705 c -0.019,-0.7246 0.3652,-1.7383 2.1016,-1.7383 0.7422,0 1.2969,0.1357 1.6797,0.6143 0.1933,0.247 0.3056,0.5727 0.3056,0.8964 0,0.9346 -0.6689,1.1084 -2.0996,1.4327 -2.0049,0.4575 -3.6875,0.8584 -3.6875,2.8632 0,1.7579 1.5283,2.9053 3.7422,2.9053 1.2061,0 2.8857,-0.3447 3.458,-1.4922 0.249,-0.5332 0.249,-0.9907 0.249,-1.3945 h -1.83 c 0.056,1.4531 -1.2032,1.5654 -1.8526,1.5654 -0.2695,0 -1.9502,0 -1.9502,-1.375 0,-0.8779 0.8614,-1.0869 1.3565,-1.2207 2.6562,-0.6308 3.2265,-0.7837 3.7978,-1.3208 0.5352,-0.4975 0.7295,-1.1636 0.7295,-1.7744 0,-1.0698 -0.5937,-1.9878 -1.2978,-2.4272 -0.8428,-0.5157 -1.8545,-0.6499 -2.8467,-0.6499 -1.9483,0 -3.7637,0.8003 -3.7442,3.1128 h 1.8907"
         id="path65"
         style="fill:#000000;fill-opacity:1;fill-rule:nonzero;stroke:none"
         inkscape:connector-curvature="0" /><path
         d="m 1282.738,1927.9562 c 0.019,0.9151 -0.1504,2.8252 -2.3652,2.8252 -1.169,0 -2.5821,-0.706 -2.6201,-2.8252 h 4.9853 v 0 m -5.0586,-1.2593 c -0.039,-1.9897 0.7783,-3.4594 2.749,-3.4594 1.1651,0 2.1016,0.6108 2.2539,1.9863 h 1.793 c -0.056,-0.4751 -0.1318,-1.2588 -0.8193,-2.0044 -0.4209,-0.479 -1.375,-1.2793 -3.3057,-1.2793 -3.0195,0 -4.4512,1.8706 -4.4512,4.9077 0,1.8916 0.3809,3.459 1.8907,4.5064 0.9179,0.6523 2.0625,0.7085 2.6191,0.7085 4.2949,0 4.2002,-3.8018 4.1602,-5.3658 h -6.8926"
         id="path67"
         style="fill:#000000;fill-opacity:1;fill-rule:nonzero;stroke:none"
         inkscape:connector-curvature="0" /><path
         d="m 1293.4343,1926.9426 c -0.7266,0 -3.459,0 -3.459,-1.9502 0,-0.6104 0.3828,-1.6622 1.9902,-1.6622 0.9151,0 1.6006,0.3658 2.0411,1.0342 0.4004,0.6499 0.4199,1.1836 0.4589,2.5191 -0.3242,0.04 -0.5937,0.059 -1.0312,0.059 v 0 m 1.2402,-4.7188 c -0.1299,0.4795 -0.1699,0.9385 -0.1699,1.4336 -0.8594,-1.584 -2.1601,-1.7383 -2.9609,-1.7383 -2.1983,0 -3.3789,1.2412 -3.3789,2.8281 0,0.7613 0.2675,1.9834 1.6797,2.8072 1.0312,0.5727 2.5576,0.6289 3.3251,0.6289 0.4571,0 0.7413,-0.02 1.2969,-0.056 0,1.1826 0,1.6997 -0.3467,2.1172 -0.3593,0.4775 -1.1445,0.6318 -1.6591,0.6318 -1.8164,0 -1.9112,-1.2436 -1.9278,-1.624 h -1.7959 c 0.057,0.4956 0.1153,1.1641 0.669,1.8101 0.7275,0.8027 2.0849,1.0332 3.0947,1.0332 1.3945,0 2.8838,-0.4414 3.4014,-1.4131 0.3037,-0.5718 0.3222,-1.0308 0.3222,-1.4702 l -0.077,-4.586 c 0,-0.1518 0.023,-1.4296 0.1543,-2.4057 h -1.625"
         id="path69"
         style="fill:#000000;fill-opacity:1;fill-rule:nonzero;stroke:none"
         inkscape:connector-curvature="0" /><path
         d="m 1301.1716,1929.8664 c 0,0.6494 -0.041,1.3183 -0.097,1.9477 h 1.8145 l 0.039,-1.852 c 0.3428,1.3359 1.4903,1.7744 2.293,1.8896 0.5332,0.077 0.9356,0.059 1.2432,0.04 v -1.7578 c -0.096,0.038 -0.211,0.057 -0.3467,0.076 -0.1318,0.021 -0.3047,0.021 -0.5166,0.021 -2.1162,0 -2.6143,-1.2603 -2.6143,-2.9034 v -5.1025 h -1.8125 v 7.6426"
         id="path71"
         style="fill:#000000;fill-opacity:1;fill-rule:nonzero;stroke:none"
         inkscape:connector-curvature="0" /><path
         d="m 1315.5896,1928.7394 c -0.038,0.4375 -0.1719,2.0025 -1.9073,2.0025 -2.4843,0 -2.4843,-2.8804 -2.4843,-3.6079 0,-1.9688 0.4775,-3.8038 2.3886,-3.8038 1.5274,0 2.0459,1.1475 2.0821,2.084 h 1.8115 c -0.1123,-1.873 -1.5068,-3.4365 -3.874,-3.4365 -0.6504,0 -2.1387,0.1318 -3.1533,1.2417 -0.5743,0.6665 -1.1465,1.6802 -1.1465,3.6641 0,3.9946 2.4463,5.1792 4.3545,5.1792 0.6308,0 2.0644,-0.1353 2.9423,-1.1836 0.708,-0.8228 0.7647,-1.6045 0.8018,-2.1377 h -1.8154"
         id="path73"
         style="fill:#000000;fill-opacity:1;fill-rule:nonzero;stroke:none"
         inkscape:connector-curvature="0" /><path
         d="m 1320.3445,1935.9967 h 1.8144 v -5.5957 c 0.5928,1.0123 1.7773,1.5865 3.1123,1.5865 1.0147,0 2.4649,-0.3662 3.0166,-1.5293 0.1934,-0.3828 0.3252,-0.8428 0.3252,-2.2344 v -6 h -1.832 v 5.6758 c 0,0.8589 0,2.7124 -2.0635,2.7124 -1.3379,0 -2.0039,-0.8213 -2.2539,-1.2808 -0.3047,-0.5351 -0.3047,-1.4316 -0.3047,-2.0239 v -5.0835 h -1.8144 v 13.7729"
         id="path75"
         style="fill:#000000;fill-opacity:1;fill-rule:nonzero;stroke:none"
         inkscape:connector-curvature="0" /></g></g></svg>