<?xml version="1.0" encoding="UTF-8" standalone="no"?>
<!-- Created with Inkscape (http://www.inkscape.org/) -->

<svg
   xmlns:dc="http://purl.org/dc/elements/1.1/"
   xmlns:cc="http://creativecommons.org/ns#"
   xmlns:rdf="http://www.w3.org/1999/02/22-rdf-syntax-ns#"
   xmlns:svg="http://www.w3.org/2000/svg"
   xmlns="http://www.w3.org/2000/svg"
   xmlns:sodipodi="http://sodipodi.sourceforge.net/DTD/sodipodi-0.dtd"
   xmlns:inkscape="http://www.inkscape.org/namespaces/inkscape"
   id="svg2"
   sodipodi:version="0.32"
   inkscape:version="0.92.3 (2405546, 2018-03-11)"
   width="342.67563"
   height="98.891502"
   xml:space="preserve"
   sodipodi:docname="geneve.svg"
   inkscape:output_extension="org.inkscape.output.svg.inkscape"
   version="1.0"><metadata
     id="metadata7"><rdf:RDF><cc:Work
         rdf:about=""><dc:format>image/svg+xml</dc:format><dc:type
           rdf:resource="http://purl.org/dc/dcmitype/StillImage" /></cc:Work></rdf:RDF></metadata><defs
     id="defs5"><inkscape:perspective
       sodipodi:type="inkscape:persp3d"
       inkscape:vp_x="0 : 526.18109 : 1"
       inkscape:vp_y="0 : 1000 : 0"
       inkscape:vp_z="744.09448 : 526.18109 : 1"
       inkscape:persp3d-origin="372.04724 : 350.78739 : 1"
       id="perspective9" /><clipPath
       clipPathUnits="userSpaceOnUse"
       id="clipPath19"><path
         d="M 0,1137.6 V 0 h 3152.82 v 1137.6 z"
         id="path21"
         inkscape:connector-curvature="0" /></clipPath></defs><sodipodi:namedview
     inkscape:window-height="1025"
     inkscape:window-width="1853"
     inkscape:pageshadow="2"
     inkscape:pageopacity="0.0"
     guidetolerance="10.0"
     gridtolerance="10.0"
     objecttolerance="10.0"
     borderopacity="1.0"
     bordercolor="#666666"
     pagecolor="#ffffff"
     id="base"
     showgrid="false"
     inkscape:zoom="1.4101266"
     inkscape:cx="74.461402"
     inkscape:cy="71.1415"
     inkscape:window-x="67"
     inkscape:window-y="27"
     inkscape:current-layer="g11"
     inkscape:window-maximized="1" /><g
     id="g11"
     inkscape:groupmode="layer"
     inkscape:label="Genève"
     transform="matrix(1.25,0,0,-1.25,-21.868125,123.09125)"><g
       id="g13"
       transform="scale(0.1)"
       style="fill:#000000"><g
         id="g15"
         style="fill:#000000"><g
           id="g17"
           clip-path="url(#clipPath19)"
           style="fill:#000000"><path
             d="m 348.398,798.578 17.063,-22.062 12.523,9.687 -27.789,35.918 -9.808,-7.578 c 3.894,-6.055 -1.696,-13.34 -8.594,-18.516 l 4.984,-6.445 11.621,8.996"
             style="fill:#000000;fill-opacity:1;fill-rule:nonzero;stroke:none"
             id="path23"
             inkscape:connector-curvature="0" /><path
             d="m 393.691,819.301 c 0.864,3.515 3.356,5.594 7.11,7.527 5.476,2.813 10.004,1.699 12.031,-2.246 2.023,-3.945 -0.582,-8.496 -5.742,-11.152 -3.992,-2.051 -9.641,-2.606 -11.36,0.547 l -13.296,-6.836 c 5.75,-9.278 16.867,-7.813 28.761,-1.707 12.676,6.511 19.821,16.472 14.703,26.445 -4.316,8.406 -13.878,9.5 -25.07,3.758 -4.148,-2.129 -7.426,-4.989 -9.152,-8.367 l -0.156,-0.079 -1.75,8.407 24.183,12.414 -4.285,8.347 -34.434,-17.675 6.407,-25.575 12.05,6.192"
             style="fill:#000000;fill-opacity:1;fill-rule:nonzero;stroke:none"
             id="path25"
             inkscape:connector-curvature="0" /><path
             d="m 682.148,833.266 c -4.16,2.097 -8.398,3.074 -12.148,2.488 l -0.156,0.078 5.777,6.348 24.258,-12.246 4.23,8.371 -34.543,17.449 -16.921,-20.215 12.097,-6.113 c 3.348,1.379 6.504,0.586 10.27,-1.309 5.496,-2.781 7.254,-7.109 5.258,-11.055 -2,-3.964 -7.219,-4.531 -12.399,-1.914 -4.004,2.024 -7.777,6.27 -6.238,9.504 l -13.348,6.746 c -4.121,-10.117 3.594,-18.242 15.527,-24.277 12.719,-6.426 24.981,-6.348 30.04,3.652 4.257,8.438 -0.473,16.817 -11.704,22.493"
             style="fill:#000000;fill-opacity:1;fill-rule:nonzero;stroke:none"
             id="path27"
             inkscape:connector-curvature="0" /><path
             d="m 735.582,796.594 c -2.512,-3.242 -7.602,-3.504 -12.617,0.371 -4.867,3.769 -5.762,8.652 -3.168,12.004 2.308,2.996 7.609,3.093 12.062,-0.352 5.082,-3.926 6.192,-8.82 3.723,-12.023 z m 1.57,19.297 c -10.09,7.804 -22.648,9.101 -28.59,1.425 -5.414,-7.011 -2.824,-17.324 6.782,-24.754 4.172,-3.234 9.535,-5.636 13.84,-4.523 l 0.14,-0.105 c -3.941,-4.532 -9.629,-7.141 -16.027,-2.188 -1.465,1.121 -2.793,2.566 -3.539,4.051 -0.789,1.426 -1.012,3.008 -0.418,4.355 l -11.063,8.555 c -3.472,-7.949 0.5,-16.035 9.34,-22.871 15.453,-11.934 28.121,-7.481 36.133,2.871 7.449,9.648 7.527,22.266 -6.598,33.184"
             style="fill:#000000;fill-opacity:1;fill-rule:nonzero;stroke:none"
             id="path29"
             inkscape:connector-curvature="0" /><path
             d="m 235.543,629.652 c 7.969,-2.636 13.82,5.047 18.465,13.067 4.676,8.086 8.144,16.484 11.551,15.359 2.898,-0.957 2.386,-5.43 1.281,-8.769 -1.586,-4.766 -4.574,-9.434 -8.512,-7.84 l -5.144,-15.528 c 9.992,-3.222 18.211,7.293 22.136,19.161 3.719,11.199 4.285,25.546 -5.359,28.738 -8.106,2.687 -13.914,-5.305 -18.531,-13.211 -4.649,-8.008 -8.2,-16.289 -12.106,-14.981 -3.273,1.082 -2.902,6.336 -1.351,11.012 2.172,6.586 5.289,10.375 10.589,8.988 l 5.153,15.536 c -11.352,3.652 -19.809,-6.973 -24.356,-20.653 -4.336,-13.105 -5.011,-27.168 6.184,-30.879"
             style="fill:#000000;fill-opacity:1;fill-rule:nonzero;stroke:none"
             id="path31"
             inkscape:connector-curvature="0" /><path
             d="m 230.426,551.379 1.25,16.309 c -5.289,1.027 -8.199,5.664 -7.614,13.3 0.821,10.52 8.016,14.024 14.907,13.489 6.886,-0.539 13.457,-5.098 12.648,-15.618 -0.523,-6.843 -3.375,-11.574 -8.121,-12.078 l -1.262,-16.308 c 11.211,-0.442 18.711,13.718 19.743,27.246 1.468,18.926 -8.305,32.027 -21.75,33.066 -13.45,1.035 -25.122,-10.414 -26.582,-29.355 -1.219,-15.879 4.886,-28.274 16.781,-30.051"
             style="fill:#000000;fill-opacity:1;fill-rule:nonzero;stroke:none"
             id="path33"
             inkscape:connector-curvature="0" /><path
             d="m 266.234,498.852 -16.703,-2.864 -3.656,21.231 16.699,2.871 -2.777,16.133 -45.852,-7.899 2.778,-16.133 18.882,3.262 3.657,-21.242 -18.879,-3.262 2.781,-16.121 45.844,7.899 -2.774,16.125"
             style="fill:#000000;fill-opacity:1;fill-rule:nonzero;stroke:none"
             id="path35"
             inkscape:connector-curvature="0" /><path
             d="m 269.441,420.109 c -6.3,-2.824 -14.25,-1.961 -18.578,7.676 -4.316,9.629 0.336,16.153 6.637,18.977 6.305,2.812 14.258,1.953 18.578,-7.676 4.32,-9.633 -0.32,-16.152 -6.637,-18.977 z m 16.157,23.243 c -8.102,18.058 -22.477,23.859 -34.793,18.339 -12.305,-5.527 -17.539,-20.117 -9.442,-38.183 8.094,-18.055 22.465,-23.836 34.774,-18.328 12.316,5.515 17.551,20.105 9.461,38.172"
             style="fill:#000000;fill-opacity:1;fill-rule:nonzero;stroke:none"
             id="path37"
             inkscape:connector-curvature="0" /><path
             d="m 314.469,391.887 -9.914,13.027 -37.012,-28.184 27.652,-36.328 8.289,6.309 -17.73,23.312 28.715,21.864"
             style="fill:#000000;fill-opacity:1;fill-rule:nonzero;stroke:none"
             id="path39"
             inkscape:connector-curvature="0" /><path
             d="m 344.457,318.234 -10.805,9.289 16.016,7.715 0.137,-0.109 z m -40.723,12.129 12.754,-10.945 8.434,3.75 16.617,-14.277 -2.496,-8.84 12.945,-11.121 12.489,50.593 -12.606,10.832 -48.137,-19.992"
             style="fill:#000000;fill-opacity:1;fill-rule:nonzero;stroke:none"
             id="path41"
             inkscape:connector-curvature="0" /><path
             d="m 481.5,273.996 c 6.461,-1.336 11.141,-4.766 10.848,-8.769 l 16.019,-3.321 c 0.906,11.731 -11.656,19.59 -24.406,22.239 -18.606,3.855 -32.848,-4.18 -35.586,-17.383 -2.734,-13.203 7.137,-26.231 25.742,-30.09 5.688,-1.18 13.242,-1.152 18.371,2.375 l -0.082,-5.168 10.332,-2.149 5.176,24.954 -25.84,5.351 -1.824,-8.801 11.199,-2.324 c -1.722,-3.965 -7.637,-5.605 -15.558,-3.957 -10.332,2.141 -12.899,9.731 -11.496,16.488 1.406,6.758 6.765,12.704 17.105,10.555"
             style="fill:#000000;fill-opacity:1;fill-rule:nonzero;stroke:none"
             id="path43"
             inkscape:connector-curvature="0" /><path
             d="m 548.949,241.301 -0.449,8.847 30.746,1.563 -0.476,9.375 -30.747,-1.57 -0.41,8.132 33.641,1.719 -0.492,9.699 -49.985,-2.539 2.364,-46.465 50.863,2.579 -0.527,10.41 -34.528,-1.75"
             style="fill:#000000;fill-opacity:1;fill-rule:nonzero;stroke:none"
             id="path45"
             inkscape:connector-curvature="0" /><path
             d="m 635.289,293.48 8.523,-27.375 -0.164,-0.046 -29.351,20.886 -16.043,-5 13.832,-44.422 14.695,4.579 -8.621,27.683 0.168,0.063 29.449,-21.203 16.047,5 -13.84,44.414 -14.695,-4.579"
             style="fill:#000000;fill-opacity:1;fill-rule:nonzero;stroke:none"
             id="path47"
             inkscape:connector-curvature="0" /><path
             d="m 699.902,284.074 -4.66,7.539 26.188,16.184 -4.926,7.976 -26.195,-16.179 -4.286,6.933 28.668,17.703 -5.101,8.262 -42.582,-26.308 24.453,-39.579 43.324,26.766 -5.473,8.867 -29.41,-18.164"
             style="fill:#000000;fill-opacity:1;fill-rule:nonzero;stroke:none"
             id="path49"
             inkscape:connector-curvature="0" /><path
             d="m 748.52,369.145 15.89,-33.118 -0.125,-0.125 -33.234,15.633 -12.02,-12.117 46.969,-18.715 13.258,13.363 -18.711,47.188 -12.027,-12.109"
             style="fill:#000000;fill-opacity:1;fill-rule:nonzero;stroke:none"
             id="path51"
             inkscape:connector-curvature="0" /><path
             d="m 807.328,386.977 -7.578,4.597 15.969,26.321 -8.028,4.863 -15.961,-26.32 -6.964,4.23 17.464,28.797 -8.3,5.039 -25.95,-42.801 39.778,-24.125 26.414,43.559 -8.918,5.398 -17.926,-29.558"
             style="fill:#000000;fill-opacity:1;fill-rule:nonzero;stroke:none"
             id="path53"
             inkscape:connector-curvature="0" /><path
             d="m 812.582,487.902 27.453,-8.269 -0.047,-0.168 -33.75,-12.617 -4.847,-16.082 44.55,-13.43 4.446,14.738 -27.77,8.367 0.055,0.168 34.058,12.528 4.84,16.086 -44.543,13.418 -4.445,-14.739"
             style="fill:#000000;fill-opacity:1;fill-rule:nonzero;stroke:none"
             id="path55"
             inkscape:connector-curvature="0" /><path
             d="m 853.941,571.098 c -8.398,0.371 -11.929,-8.625 -14.218,-17.602 -2.289,-9.051 -3.34,-18.074 -6.926,-17.918 -3.063,0.137 -3.774,4.57 -3.617,8.086 0.218,5.012 1.82,10.313 6.047,9.856 l 0.726,16.347 c -10.488,0.379 -15.531,-11.996 -16.094,-24.472 -0.523,-11.778 2.84,-25.743 12.993,-26.192 8.531,-0.383 11.937,8.887 14.226,17.762 2.293,8.976 3.469,17.902 7.57,17.726 3.454,-0.156 4.524,-5.312 4.305,-10.238 -0.305,-6.941 -2.269,-11.433 -7.754,-11.543 l -0.719,-16.344 c 11.915,-0.441 17.165,12.098 17.805,26.504 0.617,13.809 -2.562,27.5 -14.344,28.028"
             style="fill:#000000;fill-opacity:1;fill-rule:nonzero;stroke:none"
             id="path57"
             inkscape:connector-curvature="0" /><path
             d="m 819.41,590.062 46.051,6.641 -2.336,16.192 -46.051,-6.633 2.336,-16.2"
             style="fill:#000000;fill-opacity:1;fill-rule:nonzero;stroke:none"
             id="path59"
             inkscape:connector-curvature="0" /><path
             d="m 826.746,628.996 c 8.074,2.774 7.848,12.649 6.731,21.75 -1.157,9.18 -3.332,17.918 0.554,19.258 3.266,1.121 6.157,-3.281 7.75,-7.942 2.258,-6.582 2.074,-11.472 -2.98,-13.582 L 844.105,633 c 11.25,3.953 11.555,17.539 6.868,31.191 -4.481,13.055 -12.453,24.637 -23.606,20.821 -7.949,-2.727 -7.937,-12.391 -6.793,-21.582 1.184,-9.27 3.508,-18.047 0.117,-19.207 -2.894,-0.989 -5.187,2.871 -6.328,6.187 -1.625,4.75 -2.074,10.266 2.024,11.399 l -5.317,15.476 c -9.886,-3.484 -10.058,-16.844 -6.008,-28.66 3.825,-11.152 12.067,-22.93 21.684,-19.629"
             style="fill:#000000;fill-opacity:1;fill-rule:nonzero;stroke:none"
             id="path61"
             inkscape:connector-curvature="0" /><path
             d="m 393.793,289.516 c -3.691,-4.895 -2.703,-11.856 2.187,-15.547 4.899,-3.703 11.856,-2.715 15.54,2.176 3.699,4.902 2.722,11.855 -2.168,15.546 -4.911,3.692 -11.868,2.715 -15.559,-2.175"
             style="fill:#000000;fill-opacity:1;fill-rule:nonzero;stroke:none"
             id="path63"
             inkscape:connector-curvature="0" /><path
             d="m 302.973,732.785 c 3.613,4.961 2.531,11.895 -2.422,15.508 -4.961,3.613 -11.895,2.539 -15.516,-2.422 -3.613,-4.961 -2.531,-11.894 2.422,-15.508 4.961,-3.613 11.902,-2.527 15.516,2.422"
             style="fill:#000000;fill-opacity:1;fill-rule:nonzero;stroke:none"
             id="path65"
             inkscape:connector-curvature="0" /><path
             d="m 775.094,745.871 c -3.614,-4.961 -2.532,-11.894 2.429,-15.508 4.954,-3.613 11.895,-2.527 15.508,2.422 3.614,4.961 2.531,11.895 -2.422,15.508 -4.961,3.613 -11.894,2.539 -15.515,-2.422"
             style="fill:#000000;fill-opacity:1;fill-rule:nonzero;stroke:none"
             id="path67"
             inkscape:connector-curvature="0" /><path
             d="m 567.348,866.926 -9.012,-14.121 h 22.059 v 6.836 l -8.692,-0.039 4.817,7.187 -4.817,7.422 8.535,0.051 v 6.746 h -21.902 l 9.012,-14.082"
             style="fill:#000000;fill-opacity:1;fill-rule:nonzero;stroke:none"
             id="path69"
             inkscape:connector-curvature="0" /><path
             d="m 519.672,859.602 -5.438,-0.059 v 14.719 l 5.059,-0.051 v 6.797 h -18.145 v -6.797 l 5.04,0.051 v -14.719 l -5.372,0.059 v -6.797 h 18.856 v 6.797"
             style="fill:#000000;fill-opacity:1;fill-rule:nonzero;stroke:none"
             id="path71"
             inkscape:connector-curvature="0" /><path
             d="m 545.355,871.066 h -11.484 l 0.051,10.039 h -8.418 v -28.3 h 8.418 l -0.051,11.25 h 11.484 v -11.25 h 8.399 v 28.3 h -8.399 v -10.039"
             style="fill:#000000;fill-opacity:1;fill-rule:nonzero;stroke:none"
             id="path73"
             inkscape:connector-curvature="0" /><path
             d="m 536.078,897.844 c 0,2.129 1.535,3.476 3.762,3.476 2,0 3.496,-1.523 3.496,-3.476 l 0.105,-10 h 15.696 v 8.398 h -9.621 l -0.039,2.149 c -0.059,6.023 -2.84,10.879 -9.696,10.879 -5.265,0 -8.906,-2.95 -9.551,-8.008 -0.117,-1.074 -0.117,-2.207 -0.117,-3.309 v -1.711 h -9.609 l -0.012,-8.398 h 15.567 l 0.019,10"
             style="fill:#000000;fill-opacity:1;fill-rule:nonzero;stroke:none"
             id="path75"
             inkscape:connector-curvature="0" /><path
             d="m 539.84,846.164 c -2.785,0 -5.051,-2.266 -5.051,-5.059 0,-2.781 2.266,-5.046 5.051,-5.046 2.793,0 5.058,2.265 5.058,5.046 0,2.793 -2.265,5.059 -5.058,5.059"
             style="fill:#000000;fill-opacity:1;fill-rule:nonzero;stroke:none"
             id="path77"
             inkscape:connector-curvature="0" /><path
             d="m 539.164,215.316 c -188.855,0 -342.5,153.653 -342.5,342.508 0,167.071 120.274,306.504 278.774,336.465 l 4.773,-5.879 -41.152,-15.691 41.132,-15.735 -27.785,-34.179 43.489,6.933 -1.442,-8.972 C 368.59,799.426 272.406,689.672 272.406,557.824 c 0,-147.09 119.668,-266.765 266.758,-266.765 147.09,0 266.758,119.675 266.758,266.765 0,131.778 -96.063,241.477 -221.824,262.91 l -1.188,8.809 42.36,-6.797 -26.653,34.621 40.039,15.293 -40.496,16.512 4.238,5.215 C 761.129,864.621 881.664,725.07 881.664,557.824 c 0,-188.855 -153.644,-342.508 -342.5,-342.508 z m -50.242,538.114 6.16,10.468 h -25.457 l 2.977,10.887 c 0,5.246 -4.247,9.504 -9.5,9.504 -1.278,0 -2.489,-0.262 -3.594,-0.723 0.211,0.957 0.351,1.868 0.351,2.559 0,3.457 -2.804,6.27 -6.261,6.27 -3.457,0 -6.27,-2.813 -6.27,-6.27 0,-0.691 0.145,-1.602 0.352,-2.559 -1.11,0.461 -2.313,0.723 -3.582,0.723 -5.254,0 -9.504,-4.258 -9.504,-9.504 l 2.968,-10.887 h -6.707 c -4.609,0 -8.449,-3.281 -9.316,-7.617 -1.398,0.391 -2.863,0.625 -4.375,0.625 -8.633,0 -15.625,-6.992 -15.625,-15.625 0,-2.695 0.691,-5.234 1.883,-7.441 2.648,4.883 7.805,8.195 13.73,8.195 5.325,0 10.012,-2.668 12.832,-6.73 0.332,-0.469 0.637,-0.957 0.911,-1.465 0.808,-1.492 1.269,-3.176 1.55,-4.91 h -31.601 c -8.633,0 -15.625,7 -15.625,15.613 v -10.059 c 0,-8.632 6.992,-15.625 15.625,-15.625 h 29.953 c -2.668,-4.785 -7.766,-8.027 -13.645,-8.027 -0.3,0 -0.605,0.02 -0.918,0.039 2.825,-4.082 7.532,-6.758 12.871,-6.758 6.672,0 12.356,4.192 14.59,10.078 h 42.317 c 8.621,0 15.625,-6.992 15.625,-15.613 0,-4.016 0.019,-9.668 -3.985,-13.957 l -3.898,-5.848 -26.652,-41.132 c -4.868,-7.141 -14.582,-8.977 -21.719,-4.106 -7.121,4.856 -8.996,14.875 -4.133,22.004 6.199,3.449 8.633,10.586 7.477,18.008 -1.438,9.18 -9.825,15.5 -18.965,14.57 l -5.254,0.117 c -33.418,0 -58.375,22.598 -61.828,54.629 35.269,33.653 80.097,57.325 129.949,66.524 l -3.707,-23.125 33.969,27.578 11.461,-29.473 V 738.754 Z M 351.734,389.973 c 0.336,1.418 1.196,2.617 2.43,3.398 l 32.676,18.457 9.144,-9.402 -0.129,-0.11 2.25,-2.07 1.68,-1.719 0.102,0.078 11.672,-10.722 c 2.035,-2.051 2.035,-5.528 -0.098,-7.656 -1.031,-1.024 -2.406,-1.602 -3.867,-1.602 h -6.563 l 8.309,-8.289 h 1.125 c 5.785,-0.012 11.223,2.254 15.32,6.336 4.094,4.101 6.348,9.531 6.348,15.332 0,11.523 -9.063,20.879 -20.418,21.543 -2.551,2.558 -6.195,6.191 -8.008,8.008 5.199,3.3 95.75,60.761 104.184,66.105 -2.836,-31.672 -30.161,-68.84 -55.942,-91.113 -11.797,-11.801 -16.328,-24.961 -16.328,-36.367 0,-10.071 3.527,-18.762 8.703,-23.938 4.539,-4.531 11.446,-5.898 17.196,-3.371 l 3.632,1.594 -2.808,2.812 c -4.571,4.571 -6.196,12.539 -6.196,18.477 0,11.914 3.075,17.969 8.832,24.219 1.219,-1.211 3.786,-3.778 7.383,-7.383 -2.437,-6.582 -3.609,-13.223 -3.609,-19.59 0,-12.734 4.5,-24.277 11.937,-31.719 1.555,-1.551 18.047,-15.234 24.985,-12.91 l 4.965,1.68 -4.231,3.086 c -2.422,1.777 -10.222,10.871 -12.871,16.418 -2.117,4.433 -3.379,9.754 -3.379,15.379 0,9.062 3.707,19.562 11.906,27.754 0.434,0.644 18.504,45.234 27.723,66.718 0.008,-0.488 0.016,-4.218 0.016,-4.218 0.058,-5.059 0.113,-10.059 0.113,-14.961 0,-25.946 -1.574,-48.985 -12.984,-60.399 -7.09,-7.09 -20.274,-10.84 -20.274,-10.84 l 3.418,-4.023 c 0.332,-0.383 5.817,-8.828 14.684,-9.113 2.113,-0.079 3.777,1.347 5.621,2.218 0.461,-20.324 4.289,-28.293 11.121,-35.949 -68.168,2.012 -129.727,30.774 -174.488,76.184 l -4.598,7.547 c -0.547,0.871 -0.824,1.855 -0.824,2.871 0,0.41 0.047,0.832 0.14,1.25 z m -19.847,22.734 c 0,1.602 0.636,3.301 1.84,4.57 1.246,1.387 2.949,2.168 4.808,2.246 l 15.586,-0.039 c -7.789,-1.777 -14.504,-6.894 -18.191,-14.199 -1.91,2.774 -3.844,5.899 -4.043,7.207 0,0.078 0,0.156 0,0.215 z m -29.504,201.855 c 0,0 31.664,5.911 66.129,12.325 -0.266,-1.778 -0.25,-3.614 0.449,-5.41 0.457,-1.192 1.18,-2.168 1.961,-3.067 l -65.137,-25.359 c -9.105,-5.559 -11.738,-16.75 -6.484,-25.235 2.539,-4.113 6.535,-6.984 11.242,-8.097 4.707,-1.114 9.57,-0.313 13.68,2.226 l 57.226,35.371 c 0.399,-1.757 1.071,-3.457 2.375,-4.882 0.848,-0.938 1.879,-1.602 2.934,-2.157 l -51.59,-47.16 c -6.48,-8.476 -4.902,-19.851 3.051,-25.879 7.965,-6.023 19.347,-4.441 25.375,3.516 l 41.058,54.258 c 0.95,-1.485 2.145,-2.821 3.84,-3.672 0.903,-0.449 1.856,-0.586 2.797,-0.75 0.203,-0.149 0.391,-0.305 0.59,-0.442 L 383.27,512.531 c -2.911,-9.953 2.5,-19.687 11.812,-22.363 9.313,-2.645 19.051,2.766 21.711,12.07 l 16.512,57.754 c 7.105,-2.129 14.621,-3.301 22.414,-3.301 6.336,0 10.504,0.528 16.406,1.954 -0.055,-10.43 -0.109,-20.333 -0.113,-21.25 -1.387,-1.504 -52.469,-57.012 -52.469,-57.012 -9,-7.383 -12.262,-7.774 -18.105,-1.934 l -1.704,1.699 -15.961,-12.519 2.165,-2.168 c 6.011,-6.016 11.675,-10.156 19.328,-10.899 -11.106,-5.839 -20.575,-10.828 -22.235,-11.699 -1.722,1.778 -9.996,10.352 -14.359,14.875 -0.652,11.367 -10.024,20.438 -21.559,20.438 -11.945,0 -21.668,-9.715 -21.668,-21.66 v -1.133 l 8.301,-8.301 v 6.563 c 0,1.464 0.566,2.832 1.598,3.867 2.133,2.129 5.609,2.129 7.742,0 0,0 6.391,-6.953 10.644,-11.582 l -0.042,-0.047 1.71,-1.77 c 1.207,-1.308 2.043,-2.207 2.043,-2.207 l 0.055,0.059 4.813,-4.942 -6.231,0.012 c -4.109,3.406 -9.223,5.223 -14.598,5.008 -5.792,-0.234 -11.144,-2.695 -15.074,-6.953 -2.847,-3.086 -4.664,-6.856 -5.375,-10.899 -23.929,38.926 -37.765,84.688 -37.765,133.633 0,20.528 2.5,40.481 7.089,59.629 3.192,-2.734 7.309,-3.769 12.028,-2.891 z m 23.793,84.903 c 7.496,11.23 15.859,21.836 24.984,31.738 4.602,-16.23 14.676,-30.82 27.91,-41.289 -1.82,-1.102 -3.39,-2.656 -4.222,-4.805 -0.528,-1.367 -0.7,-2.761 -0.629,-4.14 z m 41.769,-38.086 c -1.351,-1.797 -2.304,-3.926 -2.304,-6.348 0,-1.699 0.472,-3.242 1.171,-4.668 l -66.207,-0.125 c 2.911,7.489 6.153,14.793 9.731,21.922 z M 561.293,471.652 c 0,9.328 6.738,17.032 15.594,18.614 0.746,-11.063 9.867,-19.844 21.125,-19.844 h 42.539 c 11.25,0 20.379,8.769 21.125,19.844 8.82,-1.621 15.527,-9.317 15.527,-18.614 0,-35.82 -24.68,-57.461 -57.949,-65.691 -33.274,8.23 -57.961,29.871 -57.961,65.691 z m 38.223,-81.894 c -7.411,-2.899 -12.684,-10.067 -12.684,-18.496 0,-10.977 8.906,-19.883 19.891,-19.883 h 25.05 c 10.985,0 19.891,8.906 19.891,19.883 0,8.429 -5.269,15.597 -12.68,18.496 33.899,11.808 58.266,43.965 58.266,81.894 0,19.629 -14.547,35.723 -33.418,38.45 v 14.46 l -29.715,27.383 v 57.032 h 17.129 v -24.102 h 28.984 v 18.223 h 21.297 v -18.223 h 28.985 v 64.434 H 701.527 V 633.723 H 680.23 v 15.586 h -24.042 v 19.765 h 24.042 v 15.578 h 21.297 v -15.578 h 28.985 v 58.418 c 40.136,-45.176 64.55,-104.609 64.55,-169.668 0,-139.082 -111.539,-252.519 -249.851,-255.75 v 143.738 c 8.187,-26.191 28.449,-47.05 54.305,-56.054 z m -13.887,419.551 c 54.355,-10.02 102.754,-37.215 139.297,-75.801 H 701.527 V 716.047 H 680.23 v 17.461 h -28.984 v -24.11 h -17.129 c 0,0 0.117,36.707 0.117,37.079 0,8.261 -6.722,14.98 -14.988,14.98 -8.262,0 -14.984,-6.719 -14.984,-14.98 0,-0.372 0.117,-194.532 0.117,-194.532 l -29.715,-27.383 v -14.46 c -13.066,-1.887 -23.926,-10.266 -29.453,-21.692 v 296.348 l 9.941,28.769 33.582,-27.304 z m -45.996,113.007 c 27.547,0 49.953,-22.402 49.953,-49.941 0,-27.539 -22.406,-49.941 -49.953,-49.941 -27.543,0 -49.949,22.402 -49.949,49.941 0,27.539 22.406,49.941 49.949,49.941 z m 78.203,-8.925 7.453,9.179 -43.402,-6.386 6.867,42.91 -34.199,-27.715 -15.711,41.094 -15.703,-41.114 -34.133,27.774 6.945,-43.496 -43.508,6.972 7.567,-9.316 C 297.125,877.043 174.945,731.457 174.945,557.824 c 0,-200.84 163.391,-364.226 364.219,-364.226 200.832,0 364.219,163.386 364.219,364.226 0,173.809 -122.414,319.504 -285.547,355.567"
             style="fill:#000000;fill-opacity:1;fill-rule:nonzero;stroke:none"
             id="path79"
             inkscape:connector-curvature="0" /><path
             d="m 1130.74,628.664 c -78.91,0 -96.7,45.234 -96.7,95.547 v 171.992 h 48.16 V 727.336 c 0,-33.152 10.37,-56.551 51.88,-56.551 37.05,0 52.61,16.375 52.61,61.219 v 164.199 h 47.8 V 735.129 c 0,-71.758 -37.8,-106.465 -103.75,-106.465"
             style="fill:#000000;fill-opacity:1;fill-rule:nonzero;stroke:none"
             id="path81"
             inkscape:connector-curvature="0" /><path
             d="m 1428.19,632.953 c 0,0 -94.42,172.371 -101.83,189.539 1.49,-22.617 2.23,-63.965 2.23,-95.547 v -93.992 h -46.68 v 263.25 h 61.19 c 0,0 92.56,-167.707 101.83,-187.598 -1.86,26.524 -2.59,73.321 -2.59,105.696 v 81.902 h 46.68 v -263.25 h -60.83"
             style="fill:#000000;fill-opacity:1;fill-rule:nonzero;stroke:none"
             id="path83"
             inkscape:connector-curvature="0" /><path
             d="m 1545.7,632.953 h 48.1602 v 263.25 H 1545.7 Z"
             style="fill:#000000;fill-opacity:1;fill-rule:nonzero;stroke:none"
             id="path85"
             inkscape:connector-curvature="0" /><path
             d="m 1767.19,632.953 h -55.57 l -87.06,263.25 h 52.6 l 48.54,-154.051 c 4.82,-14.816 10.38,-32.375 14.82,-51.476 h 0.74 c 3.71,17.929 7.78,32.363 14.82,54.59 l 49.28,150.937 h 49.27 l -87.44,-263.25"
             style="fill:#000000;fill-opacity:1;fill-rule:nonzero;stroke:none"
             id="path87"
             inkscape:connector-curvature="0" /><path
             d="m 1887.5,632.953 v 263.25 h 137.42 v -42.519 h -88.74 v -64.735 h 84.24 v -41.34 h -84.24 v -71.367 h 88.74 V 632.953 H 1887.5"
             style="fill:#000000;fill-opacity:1;fill-rule:nonzero;stroke:none"
             id="path89"
             inkscape:connector-curvature="0" /><path
             d="m 2144.12,856.418 c -7.04,0 -14.09,-0.391 -18.9,-1.172 v -76.043 c 3.33,-0.391 10,-0.781 17.41,-0.781 28.9,0 46.69,15.594 46.69,40.164 0,25.352 -14.82,37.832 -45.2,37.832 z m 52.6,-223.465 -69.64,108.809 h -1.86 V 632.953 h -48.16 v 263.25 c 19.63,1.172 42.97,1.555 71.87,1.555 55.21,0 90.77,-20.285 90.77,-74.094 0,-39.004 -25.93,-67.09 -63.72,-73.32 7.04,-9.754 14.07,-19.891 20.37,-28.867 l 60.03,-88.524 h -59.66"
             style="fill:#000000;fill-opacity:1;fill-rule:nonzero;stroke:none"
             id="path91"
             inkscape:connector-curvature="0" /><path
             d="m 2337.81,628.664 c -17.79,0 -35.57,1.953 -51.14,6.231 l 2.97,47.199 c 14.09,-5.071 34.09,-9.367 52.24,-9.367 24.45,0 43.35,10.527 43.35,34.707 0,50.312 -104.85,27.304 -104.85,113.886 0,46.797 35.2,79.172 95.22,79.172 14.08,0 30.38,-1.957 45.21,-4.68 l -2.6,-44.46 c -14.08,4.285 -29.64,7.019 -44.84,7.019 -27.78,0 -41.86,-13.262 -41.86,-31.98 0,-47.188 105.22,-29.641 105.22,-111.926 0,-49.531 -37.42,-85.801 -98.92,-85.801"
             style="fill:#000000;fill-opacity:1;fill-rule:nonzero;stroke:none"
             id="path93"
             inkscape:connector-curvature="0" /><path
             d="m 2475.63,632.953 h 48.1602 v 263.25 H 2475.63 Z"
             style="fill:#000000;fill-opacity:1;fill-rule:nonzero;stroke:none"
             id="path95"
             inkscape:connector-curvature="0" /><path
             d="M 2669.77,852.902 V 632.953 h -48.17 v 219.949 h -64.84 v 43.301 h 177.84 v -43.301 h -64.83"
             style="fill:#000000;fill-opacity:1;fill-rule:nonzero;stroke:none"
             id="path97"
             inkscape:connector-curvature="0" /><path
             d="m 2826.07,913.352 -17.16,28.476 68.25,42.902 20.68,-34.328 z m -53.43,-280.399 v 263.25 h 143.14 v -42.519 h -92.44 v -64.735 h 87.75 v -41.34 h -87.75 v -71.367 h 92.44 v -43.289 h -143.14"
             style="fill:#000000;fill-opacity:1;fill-rule:nonzero;stroke:none"
             id="path99"
             inkscape:connector-curvature="0" /><path
             d="m 1116.91,435.246 c -11.7,0 -22.62,-0.391 -30.8,-1.172 V 256.633 c 7.01,-1.172 17.54,-1.953 27.68,-1.953 49.54,0 85.41,28.078 85.41,90.48 0,56.551 -22.23,90.086 -82.29,90.086 z m -8.18,-223.855 c -27.31,0 -51.1,1.171 -73.32,1.953 v 262.468 c 20.66,0.782 52.65,1.946 85.01,1.946 81.51,0 133.38,-36.27 133.38,-128.703 0,-90.477 -59.27,-137.664 -145.07,-137.664"
             style="fill:#000000;fill-opacity:1;fill-rule:nonzero;stroke:none"
             id="path101"
             inkscape:connector-curvature="0" /><path
             d="m 1288.12,212.953 v 263.25 h 143.13 v -42.519 h -92.43 v -64.735 h 87.76 v -41.34 h -87.76 v -71.367 h 92.43 v -43.289 h -143.13"
             style="fill:#000000;fill-opacity:1;fill-rule:nonzero;stroke:none"
             id="path103"
             inkscape:connector-curvature="0" /><path
             d="m 1794.33,421.594 c -21.05,8.191 -45.23,13.261 -69.8,13.261 -51.88,0 -89.32,-32.753 -89.32,-91.64 0,-55.77 30.43,-88.535 83.85,-88.535 12.48,0 23.41,1.562 33.54,4.679 v 91.649 h 50.71 V 225.434 c -26.14,-10.528 -58.51,-16.379 -90.09,-16.379 -83.46,0 -132.99,49.14 -132.99,129.472 0,82.676 56.15,141.575 147.41,141.575 26.13,0 51.88,-4.68 74.49,-11.321 l -7.8,-47.187"
             style="fill:#000000;fill-opacity:1;fill-rule:nonzero;stroke:none"
             id="path105"
             inkscape:connector-curvature="0" /><path
             d="m 1857.12,212.953 v 263.25 h 143.13 v -42.519 h -92.43 v -64.735 h 87.75 v -41.34 h -87.75 v -71.367 h 92.43 v -43.289 h -143.13"
             style="fill:#000000;fill-opacity:1;fill-rule:nonzero;stroke:none"
             id="path107"
             inkscape:connector-curvature="0" /><path
             d="m 2206.8,212.953 c 0,0 -99.3,172.371 -107.1,189.539 1.55,-22.617 2.34,-63.965 2.34,-95.547 v -93.992 h -49.14 v 263.25 h 64.5 c 0,0 97.35,-167.707 107.1,-187.586 -1.96,26.512 -2.74,73.309 -2.74,105.684 v 81.902 h 49.14 v -263.25 h -64.1"
             style="fill:#000000;fill-opacity:1;fill-rule:nonzero;stroke:none"
             id="path109"
             inkscape:connector-curvature="0" /><path
             d="m 2410.52,492.961 -71.76,37.051 21.46,34.718 67.85,-42.902 z m -86.96,-280.008 v 263.25 h 143.12 v -42.519 h -92.43 v -64.735 h 87.76 v -41.34 h -87.76 v -71.367 h 92.43 v -43.289 h -143.12"
             style="fill:#000000;fill-opacity:1;fill-rule:nonzero;stroke:none"
             id="path111"
             inkscape:connector-curvature="0" /><path
             d="m 2648.03,212.953 h -58.49 l -91.65,263.25 h 55.38 l 51.08,-154.051 c 5.07,-14.816 10.92,-32.375 15.61,-51.484 h 0.78 c 3.89,17.949 8.18,32.371 15.59,54.598 l 51.87,150.937 h 51.87 l -92.04,-263.25"
             style="fill:#000000;fill-opacity:1;fill-rule:nonzero;stroke:none"
             id="path113"
             inkscape:connector-curvature="0" /><path
             d="m 2773.22,212.953 v 263.25 h 143.13 v -42.519 h -92.43 v -64.735 h 87.75 v -41.34 h -87.75 v -71.367 h 92.43 v -43.289 h -143.13"
             style="fill:#000000;fill-opacity:1;fill-rule:nonzero;stroke:none"
             id="path115"
             inkscape:connector-curvature="0" /></g></g></g></g></svg>