<?xml version="1.0" encoding="UTF-8" standalone="no"?>
<!-- Created with Inkscape (http://www.inkscape.org/) -->

<svg
   xmlns:dc="http://purl.org/dc/elements/1.1/"
   xmlns:cc="http://creativecommons.org/ns#"
   xmlns:rdf="http://www.w3.org/1999/02/22-rdf-syntax-ns#"
   xmlns:svg="http://www.w3.org/2000/svg"
   xmlns="http://www.w3.org/2000/svg"
   xmlns:sodipodi="http://sodipodi.sourceforge.net/DTD/sodipodi-0.dtd"
   xmlns:inkscape="http://www.inkscape.org/namespaces/inkscape"
   version="1.1"
   id="svg2"
   width="1871.603"
   height="520.89978"
   viewBox="0 0 1871.603 520.89978"
   sodipodi:docname="sdscc.svg"
   inkscape:version="0.92.3 (2405546, 2018-03-11)">
  <metadata
     id="metadata8">
    <rdf:RDF>
      <cc:Work
         rdf:about="">
        <dc:format>image/svg+xml</dc:format>
        <dc:type
           rdf:resource="http://purl.org/dc/dcmitype/StillImage" />
        <dc:title></dc:title>
      </cc:Work>
    </rdf:RDF>
  </metadata>
  <defs
     id="defs6" />
  <sodipodi:namedview
     pagecolor="#ffffff"
     bordercolor="#666666"
     borderopacity="1"
     objecttolerance="10"
     gridtolerance="10"
     guidetolerance="10"
     inkscape:pageopacity="0"
     inkscape:pageshadow="2"
     inkscape:window-width="1853"
     inkscape:window-height="1145"
     id="namedview4"
     showgrid="false"
     inkscape:zoom="0.51950702"
     inkscape:cx="1338.2671"
     inkscape:cy="38.635712"
     inkscape:window-x="67"
     inkscape:window-y="27"
     inkscape:window-maximized="1"
     inkscape:current-layer="svg2" />
  <path
     style="fill:#262262;fill-opacity:1;stroke:#ffffff;stroke-width:10;stroke-miterlimit:4;stroke-dasharray:none;stroke-opacity:1"
     d="m 719.23728,443.51408 c -34.7542,-1.69158 -67.3387,-24.69376 -81.0328,-57.20286 -4.536,-10.76867 -7.9018,-25.05376 -5.9029,-25.05376 0.3103,0 13.441,-3.38434 29.1793,-7.52076 15.7382,-4.13641 28.9343,-7.17391 29.325,-6.75 0.3905,0.42392 1.4745,3.45154 2.4089,6.72805 3.4337,12.04023 9.4258,20.83724 16.9277,24.85162 4.0359,2.15955 4.7283,2.19109 48.0948,2.19109 h 44 l 5.09,-2.68578 c 5.9532,-3.14124 10.8523,-8.38151 13.8022,-14.76341 1.8423,-3.98563 2.1035,-6.41371 2.1035,-19.55081 0,-13.53994 -0.224,-15.48669 -2.3014,-20 -2.7315,-5.93407 -6.3973,-10.01925 -11.1943,-12.47479 -1.925,-0.98539 -30.5,-9.09999 -63.5,-18.03249 -33,-8.9325 -62.3287,-17.2704 -65.175,-18.5286 -19.8531,-8.7764 -36.7515,-28.482 -44.1329,-51.4641 -3.8846,-12.0949 -4.4071,-17.6074 -3.9415,-41.5829 0.3857,-19.864 0.7391,-23.9163 2.6525,-30.4171 7.2114,-24.4999 22.7188,-43.3105 44.5969,-54.09639 19.1696,-9.4506 18.4633,-9.3651 77.5,-9.3791 50.2364,-0.012 51.6963,0.043 59.5,2.2185 11.3362,3.1608 26.6806,11.06349 35.8113,18.44339 16.7625,13.5485 30.2339,36.2606 33.1867,55.9514 l 0.6747,4.4995 -28.3363,7.7035 c -15.585,4.237 -28.8622,7.6936 -29.5048,7.6814 -0.6427,-0.012 -2.1605,-3.0597 -3.373,-6.7722 -4.7966,-14.6872 -11.8695,-24.0194 -19.8932,-26.2484 -2.0955,-0.5821 -21.1089,-0.9928 -46.119,-0.996 l -42.5538,-0.01 -5.1851,2.5839 c -6.504,3.241 -12.6033,10.081 -14.7484,16.5393 -1.3017,3.9191 -1.5704,7.8499 -1.2761,18.6705 0.3399,12.4995 0.6068,14.1544 3.0307,18.7963 3.2078,6.1432 8.3926,10.8825 15.4296,14.1042 2.879,1.318 28.0747,8.2653 55.9904,15.4383 27.9157,7.173 53.5689,14.063 57.0071,15.311 25.6826,9.3222 46.7546,32.1943 54.6009,59.26497 2.0531,7.08355 2.2583,9.88128 2.2583,30.79149 0,26.91321 -1.1306,32.87579 -9.5067,50.13796 -12.7426,26.26071 -34.8068,43.68548 -62.9933,49.74768 -6.0599,1.3034 -15.1805,1.6612 -47.5,1.8637 -22,0.1379 -42.25,0.1412 -45,0.01 z m 652.36202,-0.4152 c -37.1517,-2.83263 -69.8582,-29.17861 -81.1162,-65.34142 -3.2985,-10.59533 -4.0765,-15.17766 -2.7193,-16.01644 1.9138,-1.18279 57.2576,-15.42594 58.0461,-14.93861 0.417,0.25773 1.7345,3.50305 2.9278,7.21182 4.8948,15.21353 11.0452,22.97177 20.431,25.77195 7.5308,2.24676 81.9232,2.14905 89.5559,-0.11762 7.373,-2.18955 15.8829,-10.68715 18.3022,-18.27593 2.2905,-7.18449 2.3689,-27.55477 0.135,-35.07712 -2.0978,-7.0639 -8.8894,-14.39656 -15.2641,-16.47988 -2.5633,-0.83772 -30.5355,-8.51075 -62.1605,-17.05125 -66.1584,-17.8664 -70.3704,-19.4587 -83.2235,-31.4621 -12.541,-11.7119 -19.9372,-23.8632 -25.5196,-41.9263 -2.5898,-8.3798 -2.67,-9.3872 -2.6804,-33.6385 -0.01,-22.8341 0.1827,-25.6931 2.2223,-33 8.8121,-31.56999 31.2151,-53.88539 63.0027,-62.75669 7.2893,-2.0343 10.2531,-2.1675 55.7548,-2.506 44.4787,-0.3309 48.7593,-0.2132 57.5,1.5822 30.45,6.2543 54.8911,25.3057 67.5138,52.6259 4.902,10.60959 9.1888,27.55459 6.9708,27.55459 -0.2524,0 -12.7971,3.375 -27.877,7.5 -15.0798,4.125 -28.0597,7.5 -28.8441,7.5 -0.8903,0 -2.298,-2.7238 -3.7467,-7.25 -3.0413,-9.5017 -5.3571,-13.9499 -9.8664,-18.9514 -7.1031,-7.8783 -6.22,-7.7519 -54.331,-7.7767 -47.2799,-0.024 -47.5434,0.01 -55.4707,6.5024 -2.5187,2.0639 -5.4242,5.8508 -7.0869,9.2368 -2.6996,5.4975 -2.8176,6.3487 -2.8068,20.2389 0.01,13.3519 0.205,14.8925 2.4578,19.4578 3.1914,6.4673 8.4427,11.6246 15.1369,14.866 3.0661,1.4846 28.2669,8.4839 58.394,16.2185 56.0304,14.3847 62.3134,16.5028 75.4849,25.4474 15.4735,10.5079 28.1875,27.8465 33.8285,46.13319 4.5825,14.85516 5.3326,42.54809 1.6382,60.47629 -7.8122,37.91122 -36.8572,66.72811 -73.9516,73.37079 -6.7859,1.21523 -79.1955,1.89633 -92.6379,0.87143 z m -414.61472,-177.5914 0.2527,-177.74999 83.50002,-0.3008 c 87.0975,-0.3137 91.363,-0.151 104.9999,4.0042 14.7105,4.4824 31.7919,15.21349 41.6385,26.15879 10.5083,11.6808 18.7231,27.042 22.6001,42.2608 l 2.2614,8.877 v 96 c 0,106.26647 0.2425,101.85989 -6.5787,119.54771 -8.7081,22.58103 -29.8762,43.6666 -53.0134,52.80687 -15.7672,6.22882 -14.2827,6.14542 -109.3684,6.14542 H 956.73178 Z M 1133.596,377.78931 c 6.6794,-3.69958 11.5404,-9.28501 13.8576,-15.92256 1.6615,-4.75961 1.7836,-11.40577 1.7836,-97.10927 v -92 l -2.3576,-5.2138 c -1.2966,-2.8676 -4.4593,-7.1797 -7.0281,-9.5826 -8.5463,-7.994 -6.7151,-7.7869 -66.1143,-7.4773 l -52.4999,0.2737 -0.2543,114.4383 c -0.2019,90.882 0,114.60627 1,115.25397 0.6898,0.44858 24.8793,0.70132 53.7542,0.56165 l 52.5,-0.25394 z m 551.6412,63.81232 c -22.6966,-4.84012 -44.9219,-20.14579 -58.1735,-40.06174 -6.5492,-9.84282 -10.4817,-18.805 -13.57,-30.92612 l -2.2565,-8.85631 v -95.49998 c 0,-100.9933 -0.082,-99.0141 4.704,-114 8.5016,-26.622 30.4044,-49.5179 56.3519,-58.90679 16.2436,-5.8776 20.6384,-6.2418 70.6702,-5.8575 51.1463,0.3928 52.4259,0.5546 69.7023,8.8139 25.0252,11.96389 44.0449,34.47649 51.071,60.45039 0.7439,2.75 1.6782,5.225 2.0763,5.5 1.3091,0.9043 1.4603,7.5202 0.1659,7.2578 -0.6572,-0.1333 -13.828,3.1687 -29.2685,7.3376 -15.4406,4.169 -28.6171,7.3714 -29.2811,7.1166 -0.6641,-0.2548 -2.0604,-2.8818 -3.1029,-5.8377 -4.8933,-13.875 -11.1352,-22.8542 -18.0805,-26.0093 -3.6739,-1.6691 -7.5671,-1.8229 -46.6329,-1.8431 -47.2799,-0.024 -47.5434,0.01 -55.4707,6.5024 -2.5187,2.0639 -5.4242,5.8508 -7.0869,9.2368 l -2.8181,5.7389 v 94 93.99998 l 2.7027,5.12335 c 3.5521,6.73367 10.7493,12.98796 17.1249,14.88128 7.3528,2.18355 81.9417,2.1985 89.2846,0.0179 9.7571,-2.89756 16.3338,-11.13578 20.2917,-25.41821 1.1262,-4.06404 2.2253,-7.56681 2.4424,-7.78392 0.2171,-0.21711 13.2875,2.99698 29.0453,7.14243 15.7578,4.14544 28.8661,7.53717 29.1295,7.53717 1.1836,0 0.2707,6.49467 -2.0278,14.42645 -4.7057,16.23838 -13.0666,30.09201 -25.1318,41.64216 -12.7953,12.24915 -25.4074,19.28252 -42.2282,23.54949 -9.2551,2.34772 -10.0583,2.38072 -56.0115,2.30032 -37.3082,-0.065 -48.0202,-0.3797 -53.6218,-1.57425 z"
     id="path3724-3"
     inkscape:connector-curvature="0"
     inkscape:export-filename="/home/jamesrunnalls/git/datalakes/website/datalakes-react-app/datalakes/src/components/footer/img/sdsc.png"
     inkscape:export-xdpi="96"
     inkscape:export-ydpi="96"
     sodipodi:nodetypes="ccsscccscccscssccccsccccccccccccccccsccsccccccccccsscccsccccssccscscccccccccccsccccsccccsccsccccscccccscsccccccscccccscccccccscccccccsssccccc" />
  <g
     id="g883"
     transform="translate(-937.9175,101.79592)">
    <path
       sodipodi:nodetypes="cccscccscccsccscccccccscccssccc"
       inkscape:export-ydpi="96"
       inkscape:export-xdpi="96"
       inkscape:export-filename="/home/jamesrunnalls/git/datalakes/website/datalakes-react-app/datalakes/src/components/footer/img/sdsc.png"
       inkscape:connector-curvature="0"
       id="path3730-3"
       d="m 1116.6547,413.77068 c -8.9669,-0.7662 -29.7171,-5.549 -42.913,-9.8914 -64.1562,-21.1116 -111.71908,-73.92715 -125.54488,-139.40957 -1.3982,-6.6221 -2.5422,-13.40958 -2.5422,-15.08329 0,-1.6737 -0.3926,-2.8004 -0.8726,-2.50378 -0.4799,0.29662 -1.1929,-4.40182 -1.5843,-10.44099 -0.7934,-12.24219 0.2331,-33.23666 1.5843,-32.40157 0.48,0.29662 0.8726,-0.87906 0.8726,-2.61262 0,-10.00981 8.2274,-38.79941 15.7093,-54.97074 4.547,-9.82777 80.42068,-141.712777 89.86488,-156.204877 3.4802,-5.3402 9.8202,-13.4402 14.089,-18 4.2688,-4.5597 5.5869,-6.2655 2.9291,-3.7905 -9.2165,8.5826 -2.7804,-0.032 8.2976,-11.1067 26.7971,-26.7881 57.5523,-42.886803 97.5737,-51.074403 13.6835,-2.7994 16.7462,-3.0762 34.0365,-3.0762 17.3203,0 20.3262,0.2728 34,3.0854 30.6595,6.3065 54.2298,16.635403 78,34.181103 17.0893,12.6142 33.6978,30.2355 44.7615,47.4908 6.706,10.459 82.4076,141.675297 87.4037,151.500017 4.9428,9.71983 12.5006,29.96434 15.3065,41 6.4898,25.52483 6.7299,60.91561 0.5928,87.3781 -4.5577,19.65261 -15.5802,45.35934 -26.4221,61.62189 -25.2291,37.84313 -63.6079,65.73303 -106.6424,77.49723 -26.9264,7.3608 -18.7317,6.8853 -121.5,7.0491 -50.875,0.081 -94.525,-0.026 -97,-0.237 z m 170,-195.25828 c 2.6009,-0.46278 3.4449,-0.85555 2,-0.93065 -2.2228,-0.11553 -6.713,-7.44395 -40.5,-66.09938 -23.4674,-40.74031 -38.5753,-65.979307 -39.5043,-65.995237 -2.2038,-0.0378 -78.3535,132.128137 -76.7243,133.163107 1.62,1.02914 148.9076,0.89793 154.7286,-0.13784 z"
       style="fill:#8dc63f;fill-opacity:1;stroke:#ffffff;stroke-width:10;stroke-miterlimit:4;stroke-dasharray:none;stroke-opacity:1" />
    <path
       sodipodi:nodetypes="cccscccscscccccccscccccscscsscccscscc"
       inkscape:export-ydpi="96"
       inkscape:export-xdpi="96"
       inkscape:export-filename="/home/jamesrunnalls/git/datalakes/website/datalakes-react-app/datalakes/src/components/footer/img/sdsc.png"
       inkscape:connector-curvature="0"
       id="path3726-6"
       d="m 1114.9892,417.95924 c -8.9669,-0.7662 -29.7171,-5.549 -42.913,-9.8914 -64.1562,-21.1116 -111.71906,-73.92715 -125.54486,-139.40957 -1.3982,-6.6221 -2.5422,-13.40958 -2.5422,-15.08329 0,-1.6737 -0.3926,-2.8004 -0.8726,-2.50378 -0.4799,0.29662 -1.1929,-4.40182 -1.5843,-10.44099 -0.7934,-12.24219 0.2331,-33.23666 1.5843,-32.40157 0.48,0.29662 0.8726,-0.87906 0.8726,-2.61262 0,-10.00981 8.2274,-38.79941 15.7093,-54.97074 4.5612,-9.85847 80.43556,-141.7359219 89.91436,-156.2804019 23.3094,-35.7664001 62.7662,-57.0027401 105.8764,-56.9845301 21.4695,0.009 39.6238,4.26402 58.196,13.63974 15.9842,8.06918 31.6349,20.69017 42.2114,34.03984 4.676,5.9021204 81.068,137.017382 85.6994,147.089982 5.4551,11.86413 7.0519,29.31031 3.8232,41.77041 -4.6818,18.06746 -17.2709,33.45818 -34.0659,41.64714 -6.7147,4.78719 -19.6782,7.65381 -25.4179,8.02951 l -39.4462,-67.92605 c -23.5985,-40.6365 -38.5755,-65.979312 -39.5037,-65.995232 -2.0638,-0.0354 -80.6725,136.145952 -83.9729,145.474232 -2.1424,6.05536 -2.4797,8.75433 -2.5,20 -0.026,14.441 0.9385,18.5408 7.2931,31 2.4818,4.86606 6.0262,9.44011 11.6268,15.00433 8.6186,8.56256 15.4388,12.75693 27.0567,16.63971 l 7,2.33944 83.5,0.3242 c 55.7073,0.21629 87.0763,-0.041 94.2444,-0.77285 15.3861,-1.57098 28.2753,-5.14507 41.5168,-11.51233 13.7608,-6.61696 22.0644,-12.33212 32.6307,-22.4589 27.3191,-26.18269 40.8372,-62.42002 37.5227,-100.58513 -0.5594,-6.44016 -3.078,-12.07281 -2.8418,-12.30905 0.597,-0.59693 6.6912,14.08331 8.5754,24.05557 2.1232,11.23778 2.9171,42.1854 1.3989,54.53378 -5.3733,43.7038 -25.4084,84.2635 -56.2248,113.82335 -22.6461,21.7228 -50.8944,37.8705 -80.3223,45.9151 -26.9264,7.3608 -18.7317,6.8853 -121.5,7.0491 -50.875,0.081 -94.525,-0.026 -97,-0.237 z"
       style="fill:#5561a6;fill-opacity:1;stroke:#ffffff;stroke-width:0;stroke-miterlimit:4;stroke-dasharray:none;stroke-opacity:1" />
    <path
       sodipodi:nodetypes="cscccccsccccccscscccccccccc"
       inkscape:export-ydpi="96"
       inkscape:export-xdpi="96"
       inkscape:export-filename="/home/jamesrunnalls/git/datalakes/website/datalakes-react-app/datalakes/src/components/footer/img/sdsc.png"
       inkscape:connector-curvature="0"
       id="path3724-6"
       d="m 1117.1095,417.74736 c -19.4727,-2.7832 -32.0647,-6.4654 -45.7679,-13.3834 -34.112,-17.2213 -58.34,-47.9925 -67.9648,-86.31979 -2.4612,-9.80117 -2.7076,-12.48943 -2.7291,-29.77394 -0.022,-17.43812 0.2007,-19.88567 2.7055,-29.77394 2.7958,-11.03694 8.1159,-25.01816 12.25,-32.19285 64.1015,-111.24888 81.4224,-140.950081 84.6919,-145.226631 13.8671,-18.13877 40.1642,-27.72954 62.8144,-22.90893 9.4249,2.00588 21.9299,7.97667 28.7005,13.70352 6.9816,5.90546 15.6899,15.493334 15.0893,17.790334 -0.2603,0.99507 -19.402,30.026727 -40.0377,65.764647 -20.6356,35.73791 -38.9171,68.16301 -40.6257,72.05577 -4.9479,11.27355 -6.4171,19.17633 -5.8166,31.28808 0.8656,17.46002 6.4645,29.8911 19.1439,42.50433 8.6091,8.56429 15.4187,12.7537 27.0463,16.63971 l 7,2.33944 83.5,0.3242 c 88.9106,0.3452 97.5371,0.0204 114.6325,-4.31621 11.1866,-2.83774 29.6294,-11.3812 39.2407,-18.17795 35.5329,-25.12786 55.9721,-68.71305 52.1999,-111.31352 -0.4627,-5.225 -3.2897,-13.65913 -3.111,-13.85575 0.5203,-0.57241 6.5194,13.4848 8.1198,21.84861 8.3198,43.48371 -0.7797,91.80652 -23.6541,130.67345 -22.8006,38.74142 -52.8953,64.02151 -95.5213,80.57662 -6.7326,4.55452 -36.9277,10.94053 -44.1562,11.0071 -0.3286,0.9865 -19.5826,1.2777 -91.3333,1.3816 -50.0043,0.072 -93.392,-0.2221 -96.417,-0.6545 z"
       style="fill:#262262;fill-opacity:1;stroke:#ffffff;stroke-width:0;stroke-miterlimit:4;stroke-dasharray:none;stroke-opacity:1" />
  </g>
</svg>
