<?xml version="1.0" encoding="UTF-8" standalone="no"?>
<!-- Created with Inkscape (http://www.inkscape.org/) -->

<svg
   xmlns:dc="http://purl.org/dc/elements/1.1/"
   xmlns:cc="http://creativecommons.org/ns#"
   xmlns:rdf="http://www.w3.org/1999/02/22-rdf-syntax-ns#"
   xmlns:svg="http://www.w3.org/2000/svg"
   xmlns="http://www.w3.org/2000/svg"
   xmlns:sodipodi="http://sodipodi.sourceforge.net/DTD/sodipodi-0.dtd"
   xmlns:inkscape="http://www.inkscape.org/namespaces/inkscape"
   version="1.1"
   id="svg2"
   width="961.7334"
   height="259.46347"
   viewBox="0 0 961.73338 259.46347"
   sodipodi:docname="sdsc.svg"
   inkscape:version="0.92.3 (2405546, 2018-03-11)">
  <metadata
     id="metadata8">
    <rdf:RDF>
      <cc:Work
         rdf:about="">
        <dc:format>image/svg+xml</dc:format>
        <dc:type
           rdf:resource="http://purl.org/dc/dcmitype/StillImage" />
        <dc:title />
      </cc:Work>
    </rdf:RDF>
  </metadata>
  <defs
     id="defs6" />
  <sodipodi:namedview
     pagecolor="#ffffff"
     bordercolor="#666666"
     borderopacity="1"
     objecttolerance="10"
     gridtolerance="10"
     guidetolerance="10"
     inkscape:pageopacity="0"
     inkscape:pageshadow="2"
     inkscape:window-width="1859"
     inkscape:window-height="1025"
     id="namedview4"
     showgrid="false"
     inkscape:zoom="0.51950702"
     inkscape:cx="232.3495"
     inkscape:cy="158.11914"
     inkscape:window-x="61"
     inkscape:window-y="27"
     inkscape:window-maximized="1"
     inkscape:current-layer="g3722" />
  <g
     id="g3722"
     transform="translate(-2412.751,272.69919)">
    <path
       style="fill:#000000"
       d="m 2500.5057,-13.840313 c -26.7436,-3.26896 -49.1171,-23.22563 -55.2641,-49.29447 -1.9139,-8.11688 -1.8866,-22.75052 0.057,-30.2361 2.228,-8.582997 4.5644,-13.276087 19.3956,-38.960097 33.0227,-57.18741 32.1654,-55.9669 42.6124,-60.66269 6.6187,-2.97503 17.022,-3.0017 23.6146,-0.0605 5.2348,2.33543 12.8303,8.73748 12.8303,10.81438 0,0.74713 -8.7808,16.77161 -19.5128,35.60996 -10.7321,18.83834 -20.4538,36.73719 -21.6039,39.77521 -2.6561,7.016197 -2.2213,19.210417 0.9397,26.356347 2.8476,6.43761 11.0084,14.75153 17.9114,18.2474 l 5.7656,2.91993 48.1816,0.27761 c 55.3279,0.31878 56.9828,0.14954 72.2509,-7.38876 15.2769,-7.54262 26.603,-20.37383 32.695,-37.039657 l 2.5037,-6.84919 -0.5739,8 c -2.743,38.234477 -27.7107,71.205677 -63.0573,83.270707 -15.5011,5.29106 -17.9922,5.50776 -66.5,5.7847 -25.025,0.14287 -48.5354,-0.11126 -52.2453,-0.56474 z m -47.3609,-17.63588 c -15.7786,-11.7529 -28.6115,-28.93609 -34.2456,-45.85479 -2.5566,-7.67728 -6.1482,-25.557347 -6.1482,-30.607617 0,-6.05929 2.8761,-21.25363 5.6252,-29.71748 1.371,-4.22119 4.657,-11.7249 7.3022,-16.6749 8.0487,-15.06159 37.9269,-66.47698 43.6764,-75.15979 18.5549,-28.0214 56.13,-36.44227 85.2351,-19.10187 11.7882,7.02323 16.5858,13.07134 33.9202,42.76166 23.778,40.72691 28.0343,48.68781 29.306,54.81363 3.2304,15.56085 -7.19,31.52797 -22.864,35.03411 -5.1667,1.15576 -2.8036,4.36271 -24.204,-32.84774 -8.3823,-14.575 -16.5389,-28.3 -18.1257,-30.5 -9.2796,-12.86527 -9.3855,-12.96951 -17.2857,-17 -7.3528,-3.75121 -8.3768,-4 -16.4631,-4 -9.7984,0 -16.6099,2.47692 -23.5368,8.55881 -4.7066,4.13243 -4.2138,3.34937 -28.7741,45.72261 -21.4088,36.93615 -23.8297,41.64021 -26.2634,51.032277 -2.3713,9.15125 -2.0851,27.23626 0.5672,35.83096 2.9068,9.4196 7.8266,18.87338 13.3515,25.65566 2.5536,3.13482 4.4579,5.69968 4.2317,5.69968 -0.2261,0 -2.6133,-1.64034 -5.3049,-3.64521 z m 321.6062,-19.44626 c -8.1035,-1.5709 -18.3069,-7.39264 -24.2978,-13.8635 -5.8234,-6.28996 -10.4045,-14.43591 -11.3317,-20.14954 l -0.5579,-3.43775 11.8437,-2.87305 c 6.514,-1.58018 12.3115,-3.04499 12.8833,-3.25513 0.5718,-0.21014 1.6385,1.31724 2.3705,3.39418 0.732,2.07694 2.4249,5.23923 3.7621,7.02731 4.5048,6.0239 5.687,6.24895 32.8258,6.24895 h 24.5972 l 4.7843,-4.78423 c 5.1714,-5.17139 6.1205,-7.82276 6.1205,-17.09737 0,-7.423487 -1.3527,-11.825687 -4.7303,-15.393757 -3.5526,-3.75294 -2.7402,-3.467 -36.2524,-12.75991 -15.6845,-4.34929 -30.1239,-8.36944 -32.0876,-8.93366 -8.4198,-2.41924 -16.9552,-10.84607 -22.315,-22.03107 -3.0978,-6.46474 -3.1147,-6.5895 -3.1147,-23 v -16.5 l 3.3912,-6.93881 c 4.5165,-9.24142 11.1671,-15.73255 20.862,-20.36199 l 7.7468,-3.6992 26.2368,-0.3357 c 28.3676,-0.36296 32.8181,0.1206 42.0868,4.57276 10.8454,5.20945 22.6918,19.58986 24.7931,30.09639 l 0.573,2.86492 -11.4505,3.15081 c -6.2978,1.73295 -12.1103,3.15082 -12.9166,3.15082 -0.8064,0 -2.4438,-2.16345 -3.6389,-4.80768 -3.214,-7.11158 -7.1214,-10.39987 -13.4243,-11.29739 -2.8927,-0.41191 -14.0698,-0.78177 -24.838,-0.82193 l -19.5785,-0.073 -4.4215,2.93221 c -6.9362,4.59994 -8.4337,7.92848 -8.3538,18.56779 0.077,10.22089 1.4775,13.95274 6.6814,17.80042 4.2398,3.13491 2.9005,2.70503 35.251,11.31486 15.4,4.09859 30.025,8.42238 32.5,9.60842 6.3673,3.05125 16.0723,13.10564 19.5718,20.2763 2.8656,5.8717 2.9282,6.34213 2.9282,22 v 15.999997 l -3.6912,7.72998 c -4.9133,10.28927 -11.2056,16.8684 -20.5495,21.48644 -6.5827,3.25336 -8.6279,3.75221 -18.0906,4.41256 -14.2198,0.99233 -40.5614,0.86655 -46.1687,-0.22045 z m 132.6667,0.4248 c -0.3667,-0.36666 -0.6667,-40.86666 -0.6667,-89.999997 v -89.33333 h 42.9508 c 28.0151,0 44.7935,0.3913 48.25,1.12526 12.5333,2.66139 25.7161,12.81345 31.1723,24.0057 5.4119,11.10137 5.6061,13.06674 5.568,56.36904 -0.046,52.062557 -0.7418,63.038747 -4.5028,70.999997 -3.7862,8.01445 -14.9048,19.18256 -22.9383,23.04031 -5.9179,2.84182 -6.3217,2.89076 -29.5,3.5758 -31.3651,0.92699 -69.5058,1.04479 -70.3333,0.21722 z m 91.4622,-29.8706 c 2.1034,-1.35099 4.5319,-4.19629 5.7772,-6.76865 2.1221,-4.38368 2.1449,-5.04798 1.8711,-54.394697 l -0.2772,-49.95681 -2.8017,-3.67234 c -4.5826,-6.00663 -7.4242,-6.91822 -23.2395,-7.45513 -7.7245,-0.26224 -21.1128,-0.14554 -29.7517,0.25933 l -15.7071,0.73614 v 59.32962 c 0,35.61589 0.3849,60.342047 0.9631,61.862657 0.9463,2.48895 1.1682,2.53795 12.75,2.8151 6.4828,0.15513 19.6619,0.12309 29.2869,-0.0712 16.3011,-0.32906 17.7486,-0.51293 21.1289,-2.68402 z m 117.3711,29.42432 c -13.3038,-1.92697 -27.3414,-12.47307 -33.3292,-25.03933 -1.6636,-3.49125 -3.1701,-7.66469 -3.3478,-9.27432 -0.3215,-2.91325 -0.2774,-2.93874 9.677,-5.59259 5.5,-1.4663 11.1788,-2.95566 12.6195,-3.30969 2.4222,-0.59524 2.8576,-0.15995 5.7823,5.78103 2.2304,4.53042 4.2591,7.10628 6.8806,8.73629 3.6102,2.24477 4.3966,2.31143 27.2176,2.30693 22.8713,-0.005 23.6006,-0.067 27.2589,-2.33703 2.0673,-1.28282 4.8798,-4.24527 6.25,-6.58323 2.1514,-3.67112 2.4911,-5.46835 2.4911,-13.17857 0,-9.780037 -1.561,-14.233027 -6.2048,-17.700147 -1.3761,-1.02739 -16.9344,-5.85478 -34.574,-10.72755 -17.6396,-4.87277 -34.2915,-9.98427 -37.0042,-11.35889 -9.7633,-4.94742 -18.1585,-17.35596 -20.183,-29.83148 -4.3981,-27.10192 4.4169,-47.46556 24.7075,-57.07702 l 6.7585,-3.20145 26.1815,-0.33512 c 16.7336,-0.21419 28.1242,0.0682 31.565,0.78249 16.5899,3.44405 30.5625,16.06469 35.0922,31.69685 l 1.4907,5.14422 -12.1647,3.20418 c -6.6906,1.76231 -12.5584,3.27241 -13.0397,3.35579 -0.4812,0.0834 -1.5141,-1.70949 -2.2952,-3.98414 -0.7812,-2.27465 -2.8747,-5.81828 -4.6524,-7.87475 -4.0883,-4.72951 -7.4929,-5.35176 -29.6774,-5.42412 -25.9522,-0.0847 -31.7739,1.65623 -35.6231,10.65248 -1.6666,3.89499 -1.839,18.51419 -0.2547,21.59786 1.6232,3.15949 5.9813,7.65551 8.8994,9.18109 1.3869,0.72506 14.5455,4.51475 29.2414,8.42154 14.6959,3.90679 29.0862,7.99519 31.9784,9.08532 10.6668,4.0205 20.49,14.25019 24.4832,25.49631 2.7101,7.63231 2.4276,29.897377 -0.4788,37.733077 -4.198,11.31827 -12.8248,20.97324 -23.1939,25.95822 -5.4393,2.61496 -8.1773,3.22461 -17.5,3.89662 -14.1629,1.0209 -37.3299,0.91761 -45.0519,-0.20087 z m 162.2847,-1.47685 c -11.4006,-3.50698 -23.9229,-15.66178 -28.9351,-28.08597 -2.3378,-5.79505 -2.351,-6.06654 -2.6363,-54.184737 -0.1656,-27.93202 0.1282,-51.35406 0.6954,-55.44717 2.6044,-18.79352 17.477,-34.79369 36.0428,-38.77534 3.1909,-0.68431 14.5287,-0.96661 30.3225,-0.75499 l 25.226,0.33801 7.5,3.61135 c 12.576,6.05551 20.1881,14.33433 25.394,27.6182 l 2.3394,5.96924 -12.2588,3.15061 c -14.629,3.7598 -15.0983,3.7859 -15.8276,0.88033 -0.9679,-3.85648 -6.4681,-11.32308 -9.3797,-12.73297 -3.2846,-1.59054 -33.2752,-2.60583 -44.8723,-1.51909 -6.4378,0.60327 -8.0414,1.15103 -11.0159,3.76264 -6.6262,5.81789 -6.3795,3.53595 -6.3753,58.96003 0,48.169597 0.087,50.435587 1.9609,53.509637 1.0765,1.76549 3.7285,4.38214 5.8934,5.81479 3.7273,2.46666 4.8035,2.63381 20.289,3.15135 8.9941,0.30059 20.3323,0.0941 25.1959,-0.45878 8.0072,-0.91029 9.1656,-1.3179 12.2552,-4.31249 1.8767,-1.81894 4.2585,-5.57915 5.2929,-8.35601 1.1126,-2.98676 2.5883,-5.19021 3.6132,-5.39497 0.9628,-0.19234 1.4586,0.0972 1.1159,0.65165 -0.3651,0.59068 4.1128,2.15128 10.9753,3.825 l 11.5919,2.82722 -0.5365,3.30644 c -2.0849,12.8476 -15.3908,27.50166 -29.3244,32.2955 -5.063,1.74194 -8.4096,1.9332 -32.733,1.87067 -20.6771,-0.0532 -28.2102,-0.41316 -31.8088,-1.52015 z m -748.7847,-12.30287 c -8.7179,-2.80956 -16.5764,-9.41841 -20.5996,-17.32409 -1.932,-3.79643 -2.4004,-6.25506 -2.4004,-12.60077 0,-4.33621 0.494,-9.301167 1.0978,-11.033247 l 1.0979,-3.14922 38.1521,-0.008 c 21.2224,-0.004 41.0365,-0.46402 44.6522,-1.03623 12.8755,-2.03763 23.7084,-9.83212 28.8189,-20.73588 2.2858,-4.87694 2.6811,-7.04728 2.6811,-14.72034 0,-7.65141 -0.3978,-9.84862 -2.655,-14.6634 -3.2241,-6.87716 -37.3054,-65.65309 -43.5427,-75.09279 -7.6811,-11.6248 -21.8433,-21.12236 -38.2822,-25.67315 -8.9898,-2.48864 -23.822,-2.76494 -31.9736,-0.59562 -2.9994,0.79821 -5.6541,1.25068 -5.8993,1.00547 -0.809,-0.80894 12.1911,-6.33861 21.3528,-9.0826 7.4779,-2.23966 11.4523,-2.76644 23.5,-3.11473 13.117,-0.37921 15.4538,-0.17416 24.5,2.14975 26.3974,6.78134 46.4276,22.10331 61.0322,46.68621 19.0639,32.08896 42.1683,73.18968 44.6233,79.38086 5.0369,12.70259 3.4731,31.48628 -3.8604,46.370897 -4.9671,10.08146 -15.9128,21.24583 -25.8873,26.40439 -13.6077,7.0376 -13.5468,7.03085 -66.4078,7.3505 -26.125,0.15797 -48.625,-0.0753 -50,-0.51846 z"
       id="path6060"
       inkscape:connector-curvature="0" />
  </g>
</svg>
