<?xml version="1.0" encoding="UTF-8" standalone="no"?>
<!-- Generator: Adobe Illustrator 19.2.1, SVG Export Plug-In . SVG Version: 6.00 Build 0)  -->

<svg
   xmlns:dc="http://purl.org/dc/elements/1.1/"
   xmlns:cc="http://creativecommons.org/ns#"
   xmlns:rdf="http://www.w3.org/1999/02/22-rdf-syntax-ns#"
   xmlns:svg="http://www.w3.org/2000/svg"
   xmlns="http://www.w3.org/2000/svg"
   xmlns:sodipodi="http://sodipodi.sourceforge.net/DTD/sodipodi-0.dtd"
   xmlns:inkscape="http://www.inkscape.org/namespaces/inkscape"
   version="1.1"
   id="layer"
   x="0px"
   y="0px"
   viewBox="0 0 600.09998 220.12978"
   xml:space="preserve"
   sodipodi:docname="unil.svg"
   width="600.09998"
   height="220.12978"
   inkscape:version="0.92.3 (2405546, 2018-03-11)"><metadata
   id="metadata19"><rdf:RDF><cc:Work
       rdf:about=""><dc:format>image/svg+xml</dc:format><dc:type
         rdf:resource="http://purl.org/dc/dcmitype/StillImage" /></cc:Work></rdf:RDF></metadata><defs
   id="defs17" /><sodipodi:namedview
   pagecolor="#ffffff"
   bordercolor="#666666"
   borderopacity="1"
   objecttolerance="10"
   gridtolerance="10"
   guidetolerance="10"
   inkscape:pageopacity="0"
   inkscape:pageshadow="2"
   inkscape:window-width="1853"
   inkscape:window-height="1025"
   id="namedview15"
   showgrid="false"
   inkscape:zoom="1.0237865"
   inkscape:cx="410.24387"
   inkscape:cy="281.89882"
   inkscape:window-x="67"
   inkscape:window-y="27"
   inkscape:window-maximized="1"
   inkscape:current-layer="layer" />
<style
   type="text/css"
   id="style2">
	.st0{fill:#1C95CD;}
	.st1{fill:#231F20;}
</style>
<g
   id="g8"
   style="fill:#000000"
   transform="translate(-20.8,-212.17023)">
	<g
   transform="matrix(0.13,0,0,-0.13,0,72.5)"
   id="g6"
   style="fill:#000000">
		<path
   class="st0"
   d="m 4049.8,-1982.6 c -21.9,3.7 -198.3,21 -311.4,15 -62.9,-3.3 -329.7,-33.1 -445.1,-55.9 -101.1,-20 -242.6,-51.4 -397.3,-53.6 -191.3,-2.7 -281.6,38.6 -332.1,59.3 -50.4,20.8 -91.2,58.3 -107.9,77.4 -15,17.2 -16,45.9 -16,45.9 0,0 166,177.3 245.6,332.6 68.1,132.7 88.3,230.2 94.3,276.7 6.1,46.5 -5.9,85 -29.9,103.3 -24.3,18.4 -61.7,23.1 -96.7,3.7 -48.4,-26.7 -92.6,-80.3 -128,-130.2 -35.3,-49.9 -84.3,-122.2 -120,-244.6 -38.9,-133.8 -45.3,-190.7 -46.3,-221.4 -1.1,-30.6 2.7,-84 2.7,-84 0,0 -39.5,-53.3 -83.4,-95.6 -43.9,-42.2 -92.9,-80.5 -152.7,-70.5 -46.1,7.8 -50.4,60.9 -51,88.8 -0.5,27.8 12.5,63.8 16.5,94.4 4.1,30.5 6.6,21.7 -6.1,33.8 -12.7,12.2 -30.4,7 -55.4,6.4 -24.9,-0.6 -19.5,-15.4 -33.6,-39.8 -13.9,-24.3 -47.7,-95.1 -88.4,-131.7 -40.7,-36.6 -57.6,-35.7 -89.6,-31.6 -32,4 -50.6,19.3 -64.2,47.5 -13.6,28.3 -8.7,130.3 -10.5,158.2 -2,27.8 -15.3,47.9 -38.9,59.8 -28.4,14.5 -59.6,6.9 -86.4,-15.1 -27.7,-22.7 -75.1,-88.8 -95.2,-121.7 -20.1,-33 -62,-79.9 -73,-79.5 -13.1,0.5 -11.9,22.5 -7.4,60.3 3,25 5.8,58.2 6.8,87.5 1.1,29.1 -14.6,41.4 -43.6,48.2 -28.9,6.8 -53.5,-8.7 -71.3,-34 -20.6,-29.2 -60.3,-78.2 -101.6,-130.8 -41.3,-52.6 -107.2,-114.7 -131.9,-112.4 -24.8,2.4 -35.9,20.2 -45.1,49.8 -9.2,29.6 5,143 9.4,185.3 4.4,42.3 32.7,226.8 53.7,324.1 20.9,97.2 28.7,111.5 47.3,182.5 18.5,71 24,58.8 17.8,92.6 -6.1,33.8 -23.6,33.3 -42.5,38.3 -18.8,5.1 -27.2,5.4 -45,-2.8 -17.9,-8.2 -31.5,-15.3 -43.3,-60.1 -11.8,-44.9 -36.5,-122 -107.6,-273 -71.1,-151 -153,-282.5 -239.8,-416.6 -74.7,-115.5 -112.1,-126.2 -137.7,-120.4 -21.4,4.8 -23.5,34.7 -24,61 -0.6,26.4 7.1,63.7 20.4,110 13.3,46.3 48.4,137.5 80.2,213.8 32,76.4 97.3,210.3 150.6,328.3 58.3,129.2 68.7,186.2 74.6,204.4 7.6,23.7 -15.6,33.3 -34.3,41.3 -18.7,8 -48.9,-1 -48.9,-1 -19.9,-6.5 -34.9,-11.1 -51.6,-29.6 -16.8,-18.4 -65.4,-51.9 -88,-58.7 -16.5,-5 -17.5,-13.8 -8.2,-29.7 0,0 4.5,-17.9 25,-15.7 20.5,2.2 15.9,5 37.9,8.6 22,3.6 24.2,-21.6 9.6,-62 -14.6,-40.4 -72.5,-184.7 -111.1,-287.1 -38.7,-102.4 -138.8,-335.8 -148.7,-446.1 -8.1,-88.5 -14.9,-145.9 40.1,-194.8 73.1,-65 233.2,67.1 289.5,175.9 37.4,72 175.7,331.7 200.9,386.4 25.3,54.7 72.5,153.9 64.2,129.3 -8.1,-24.6 -54.1,-220.2 -74.9,-394.9 -20.8,-174.6 39.5,-190.9 81.2,-210 41.7,-19 96.1,15.3 124.5,36.3 28.6,20.9 134.5,158.6 143.9,177.4 9.4,18.6 32.3,18.6 31.9,8.4 -0.3,-10.3 0.1,-91.1 15,-126.6 14.9,-35.6 28.8,-53.6 70.7,-69.7 41.7,-16 65.8,11.3 114.2,78.8 49.9,69.4 75.1,134.2 86.5,148.1 15.7,19 15.1,-10.5 17.7,-38.6 2.9,-31 4.4,-83.5 42.3,-128.6 37.8,-45.1 63.8,-68 140.1,-58.8 76.3,9 149.6,111.5 149.6,111.5 0,0 6.4,-68.9 55.8,-115.9 49.5,-47.1 73.9,-45.6 148.8,-36.5 74.9,9 198,170.5 198,170.5 0,0 56.1,-74.8 123.6,-112.5 84.4,-47.1 247.7,-79 387.9,-81 140.3,-2 367.8,39.1 547.2,83.5 158.1,39.1 346.1,60.1 416.2,61.9 70.3,2 162.4,-15.2 169.9,-8.1 7.5,6.6 35.3,20.7 13.5,24.4 z m -1518.2,543.2 c 71.4,121.7 135.4,180.3 155.9,172 20.5,-8.3 20.4,-13.9 5.5,-58.7 -14.7,-44.7 -44.9,-149.3 -124.2,-261.7 -79.5,-112.4 -140.5,-189.5 -140.5,-189.5 0,0 12,182.4 103.3,337.9"
   id="path4"
   style="fill:#000000"
   inkscape:connector-curvature="0" />
	</g>
</g>
<path
   class="st0"
   d="m 233.9,74.929769 c 0,-0.2 -0.3,-0.8 0.7,-0.6 1.1,0.1 2,0.5 2.1,0.5 0.1,0 0.8,0.1 0.8,0.1 0,0 0.6,-2.8 0.9,-3 0.3,-0.3 0.8,-0.4 1.1,-0.9 0.3,-0.5 0.8,-1.3 1.7,-1.8 1,-0.4 0.9,-0.5 1.9,-0.4 1,0 2.3,0 3,0.3 0.7,0.3 0.9,0.4 1.5,0.9 0.5,0.6 1.1,0.9 1.1,1.6 0,0.7 0,0.9 -0.1,1.4 -0.1,0.5 -0.4,0.8 -0.1,1.3 0.3,0.5 0.5,0.8 0.4,1.4 -0.1,0.6 0.2,1.4 -0.4,1.7 -0.6,0.2 -2.3,1.2 -3.1,1.4 -0.7,0.2 -3.3,1 -4,1 -0.7,0 -2.8,0.1 -3.5,0 -0.7,-0.1 -2.3,-0.3 -2.6,-0.8 -0.3,-0.6 -0.5,-0.8 -0.7,-1.5 l -0.7,-2.6"
   id="path10"
   style="fill:#000000"
   inkscape:connector-curvature="0" />
<path
   class="st1"
   d="m 0,180.12977 h 5.9 v 17 c 0,5 1.6,8.3 6.1,8.3 4.5,0 6.1,-3.3 6.1,-8.3 v -17 H 24 v 18.8 c 0,7.9 -4.5,11.2 -12,11.2 -7.6,0 -12,-3.3 -12,-11.2 v -18.8 m 32.7,0 H 40 l 11.2,22 h 0.1 v -22.1 H 57 v 29.5 h -7.2 l -11.3,-22.1 h -0.1 v 22 h -5.7 v -29.3 m 32.7,0 h 5.9 v 29.5 h -5.9 v -29.5 m 14.5,0 h 5.9 v 24.8 h 11.5 v 4.6 H 79.9 v -29.4 m 40.3,-2.3 v 42.3 h -2.9 v -42.3 h 2.9 m 44.4,21.4 c 0,8.7 -6.4,10.8 -10.7,10.8 -4.3,0 -10.7,-2.1 -10.7,-10.8 v -19.2 h 2.9 v 19.2 c 0,4.8 2.7,8.3 7.8,8.3 5.1,0 7.8,-3.5 7.8,-8.3 v -19.2 h 2.9 v 19.2 m 9,-6.1 c 0,-1.7 0,-3.3 -0.2,-5.1 h 2.6 v 3.8 h 0.1 c 0.9,-1.9 2.5,-4.3 7,-4.3 5.3,0 7.3,3.5 7.3,8.3 v 13.8 h -2.7 v -13.1 c 0,-4.1 -1.4,-6.7 -5.1,-6.7 -4.9,0 -6.4,4.3 -6.4,7.9 v 11.9 h -2.7 v -16.5 m 28.6,-10.9 h -2.7 v -3.5 h 2.7 v 3.5 m -2.7,5.8 h 2.7 v 21.5 h -2.7 v -21.5 m 19.2,21.5 h -3.1 l -7.3,-21.5 h 2.9 l 6,18.6 h 0.1 l 6.3,-18.6 h 2.8 l -7.7,21.5 m 28.1,-0.6 c -2,0.8 -4.1,1.2 -6.3,1.2 -7.1,0 -9.8,-4.8 -9.8,-11.3 0,-6.6 3.6,-11.3 9.1,-11.3 6.1,0 8.6,4.9 8.6,10.7 v 1.4 h -14.8 c 0,4.6 2.5,8.2 7.1,8.2 1.9,0 4.8,-0.8 6,-1.6 l 0.1,2.7 m -1.3,-11.6 c 0,-3.8 -1.5,-7.5 -5.5,-7.5 -3.9,0 -6.4,3.9 -6.4,7.5 h 11.9 m 10.3,-4.5 c 0,-2.4 0,-3.2 -0.2,-4.8 h 2.7 v 4.1 h 0.1 c 1,-2.4 2.8,-4.6 5.5,-4.6 0.6,0 1.4,0.1 1.9,0.3 v 2.8 c -0.6,-0.2 -1.3,-0.3 -1.9,-0.3 -4.2,0 -5.4,4.7 -5.4,8.6 v 10.6 h -2.7 v -16.7 m 14.7,13.6 c 1.7,0.9 3.7,1.3 5.6,1.4 2.5,0 4.8,-1.4 4.8,-3.8 0,-5.1 -10.4,-4.3 -10.4,-10.6 0,-4.3 3.5,-5.9 7,-5.9 1.8,0 3.6,0.4 5.3,1 l -0.3,2.3 c -1.4,-0.6 -3.3,-1 -4.8,-1 -2.7,0 -4.6,0.8 -4.6,3.6 0,4 10.6,3.5 10.6,10.6 0,4.6 -4.3,6.1 -7.5,6.1 -2.1,0 -4.1,-0.2 -6,-1 l 0.3,-2.7 m 23.1,-24.2 h -2.7 v -3.5 h 2.7 v 3.5 m -2.7,5.8 h 2.7 v 21.5 h -2.7 v -21.5 m 21,2.3 h -4.9 v 13.9 c 0,2 0.7,3.6 2.9,3.6 1,0 1.7,-0.2 2.5,-0.5 l 0.2,2.2 c -0.6,0.3 -2,0.6 -3.3,0.6 -4.7,0 -4.9,-3.2 -4.9,-7.2 v -12.6 h -4.2 v -2.3 h 4.2 v -5.2 l 2.7,-0.9 v 6.1 h 4.9 l -0.1,2.3 m 21.6,18.6 c -1.8,0.8 -4.3,1.2 -6.2,1.2 -7.1,0 -9.8,-4.8 -9.8,-11.3 0,-6.6 3.6,-11.3 9.1,-11.3 6.1,0 8.6,4.9 8.6,10.7 v 1.4 h -14.9 c 0,4.6 2.5,8.2 7.1,8.2 1.9,0 4.8,-0.8 6,-1.6 l 0.1,2.7 m -1.3,-11.6 c 0,-3.8 -1.5,-7.5 -5.5,-7.5 -3.9,0 -6.3,3.9 -6.3,7.5 h 11.8 m -4.5,-17.6 h 3.3 l -5.3,6.1 h -2 l 4,-6.1 m 45.9,29.8 h -2.7 v -3.4 h -0.1 c -1.4,2.8 -3.6,3.9 -6.7,3.9 -5.9,0 -8.9,-4.9 -8.9,-11.3 0,-6.6 2.5,-11.3 8.9,-11.3 4.2,0 6.4,3.1 6.7,4.1 h 0.1 v -13.7 h 2.7 v 31.7 m -9,-1.7 c 4.7,0 6.4,-5.1 6.4,-9 0,-3.9 -1.6,-9 -6.4,-9 -5.1,0 -6.4,4.8 -6.4,9 0,4.2 1.3,9 6.4,9 m 32.2,1.1 c -2,0.8 -4.1,1.2 -6.3,1.2 -7.1,0 -9.8,-4.8 -9.8,-11.3 0,-6.6 3.6,-11.3 9.1,-11.3 6.1,0 8.6,4.9 8.6,10.7 v 1.4 h -14.7 c 0,4.6 2.5,8.2 7.1,8.2 1.9,0 4.8,-0.8 6,-1.6 v 2.7 m -1.3,-11.6 c 0,-3.8 -1.5,-7.5 -5.5,-7.5 -3.9,0 -6.3,3.9 -6.3,7.5 h 11.8 m 24.4,-17.2 h 2.9 v 26.9 h 11.8 v 2.5 h -14.8 v -29.4 m 33.5,26 v 0 c -1.3,2.6 -4.3,4 -6.9,4 -6.1,0 -7.1,-4.1 -7.1,-6.1 0,-7.2 7.7,-7.6 13.3,-7.6 h 0.5 v -1.1 c 0,-3.7 -1.3,-5.5 -4.9,-5.5 -2.2,0 -4.4,0.5 -6.4,1.8 v -2.6 c 1.6,-0.8 4.4,-1.5 6.4,-1.5 5.3,0 7.5,2.4 7.5,8 v 9.5 c 0,1.7 0,3 0.2,4.5 h -2.6 v -3.4 m -0.2,-7.4 h -0.8 c -4.6,0 -10.1,0.5 -10.1,5.2 0,2.8 2,3.9 4.5,3.9 6.2,0 6.4,-5.4 6.4,-7.8 v -1.3 m 28.1,5.8 c 0,1.6 0,3.4 0.2,5.1 h -2.6 v -3.8 h -0.1 c -0.9,1.9 -2.5,4.4 -7,4.4 -5.3,0 -7.4,-3.5 -7.4,-8.3 v -13.8 h 2.7 v 13.1 c 0,4.1 1.4,6.7 5.1,6.7 4.8,0 6.4,-4.3 6.4,-7.9 v -11.9 h 2.7 v 16.4 m 7.4,1.9 c 1.7,0.9 3.7,1.3 5.6,1.4 2.5,0 4.8,-1.4 4.8,-3.8 0,-5.1 -10.4,-4.3 -10.4,-10.6 0,-4.3 3.5,-5.9 7,-5.9 1.8,0 3.6,0.4 5.3,1 l -0.3,2.3 c -1.5,-0.6 -3.1,-1 -4.8,-1 -2.7,0 -4.6,0.8 -4.6,3.6 0,4 10.6,3.5 10.6,10.6 0,4.6 -4.3,6.1 -7.5,6.1 -2.1,0 -4.1,-0.2 -6,-1 l 0.3,-2.7 m 32.7,-0.3 v 0 c -1.3,2.6 -4.3,4 -6.9,4 -6.1,0 -7.1,-4.1 -7.1,-6.1 0,-7.2 7.7,-7.6 13.3,-7.6 h 0.5 v -1.1 c 0,-3.7 -1.3,-5.5 -4.9,-5.5 -2.2,0 -4.3,0.5 -6.3,1.8 v -2.6 c 1.6,-0.8 4.4,-1.5 6.3,-1.5 5.3,0 7.6,2.4 7.6,8 v 9.5 c 0,1.7 0,3 0.2,4.5 h -2.7 v -3.4 m -0.2,-7.4 h -0.8 c -4.6,0 -10.1,0.5 -10.1,5.2 0,2.8 2,3.9 4.5,3.9 6.2,0 6.4,-5.4 6.4,-7.8 v -1.3 m 11.3,-5.6 c 0,-1.7 0,-3.3 -0.2,-5.1 h 2.6 v 3.8 h 0.1 c 0.9,-1.9 2.5,-4.3 7,-4.3 5.3,0 7.4,3.5 7.4,8.3 v 13.8 h -2.7 v -13.1 c 0,-4.1 -1.4,-6.7 -5.1,-6.7 -4.8,0 -6.4,4.3 -6.4,7.9 v 11.9 h -2.7 v -16.5 m 25.8,0 c 0,-1.7 0,-3.3 -0.2,-5.1 h 2.6 v 3.8 h 0.1 c 0.9,-1.9 2.5,-4.3 7,-4.3 5.3,0 7.3,3.5 7.3,8.3 v 13.8 h -2.7 v -13.1 c 0,-4.1 -1.4,-6.7 -5.1,-6.7 -4.9,0 -6.4,4.3 -6.4,7.9 v 11.9 H 558 v -16.5 m 40.4,15.8 c -1.9,0.8 -4.3,1.2 -6.2,1.2 -7.2,0 -9.8,-4.8 -9.8,-11.3 0,-6.6 3.6,-11.3 9.1,-11.3 6.1,0 8.6,4.9 8.6,10.7 v 1.4 h -14.9 c 0,4.6 2.5,8.2 7.1,8.2 2,0 4.8,-0.8 6,-1.6 v 2.7 m -1.2,-11.6 c 0,-3.8 -1.5,-7.5 -5.5,-7.5 -3.9,0 -6.3,3.9 -6.3,7.5 h 11.8"
   id="path12"
   inkscape:connector-curvature="0"
   style="fill:#231f20" />
</svg>