<?xml version="1.0" encoding="UTF-8" standalone="no"?>
<!-- Created with Inkscape (http://www.inkscape.org/) -->

<svg
   xmlns:dc="http://purl.org/dc/elements/1.1/"
   xmlns:cc="http://creativecommons.org/ns#"
   xmlns:rdf="http://www.w3.org/1999/02/22-rdf-syntax-ns#"
   xmlns:svg="http://www.w3.org/2000/svg"
   xmlns="http://www.w3.org/2000/svg"
   xmlns:sodipodi="http://sodipodi.sourceforge.net/DTD/sodipodi-0.dtd"
   xmlns:inkscape="http://www.inkscape.org/namespaces/inkscape"
   width="26.85532mm"
   height="23.002893mm"
   viewBox="0 0 26.85532 23.002893"
   version="1.1"
   id="svg211"
   inkscape:version="0.92.3 (2405546, 2018-03-11)"
   sodipodi:docname="backward.svg">
  <defs
     id="defs205" />
  <sodipodi:namedview
     id="base"
     pagecolor="#ffffff"
     bordercolor="#666666"
     borderopacity="1.0"
     inkscape:pageopacity="0.0"
     inkscape:pageshadow="2"
     inkscape:zoom="0.35"
     inkscape:cx="903.60737"
     inkscape:cy="-302.24425"
     inkscape:document-units="mm"
     inkscape:current-layer="layer1"
     showgrid="false"
     inkscape:window-width="1853"
     inkscape:window-height="1145"
     inkscape:window-x="67"
     inkscape:window-y="27"
     inkscape:window-maximized="1" />
  <metadata
     id="metadata208">
    <rdf:RDF>
      <cc:Work
         rdf:about="">
        <dc:format>image/svg+xml</dc:format>
        <dc:type
           rdf:resource="http://purl.org/dc/dcmitype/StillImage" />
        <dc:title></dc:title>
      </cc:Work>
    </rdf:RDF>
  </metadata>
  <g
     inkscape:label="Layer 1"
     inkscape:groupmode="layer"
     id="layer1"
     transform="translate(264.40386,-45.861648)">
    <path
       style="fill:#515151;fill-opacity:1;stroke-width:0.26458332"
       d="m -254.74686,63.585357 c -5.02047,-2.89456 -9.28012,-5.48958 -9.46589,-5.76672 -0.28317,-0.42245 -0.26179,-0.59206 0.13229,-1.04935 0.53558,-0.62147 18.4636,-10.907639 19.01121,-10.907639 0.82081,0 0.90573,1.079 0.90573,11.509369 0,6.72218 -0.0983,10.66952 -0.2739,10.99761 -0.15064,0.28147 -0.47806,0.50452 -0.72759,0.49566 -0.24955,-0.009 -4.56138,-2.38438 -9.58185,-5.27893 z m 13.81125,4.44837 c -0.45595,-0.45595 -0.45595,-20.869459 0,-21.325409 0.17463,-0.17463 0.82097,-0.3175 1.43632,-0.3175 2.0289,0 1.95035,-0.44218 1.95035,10.980199 0,11.42239 0.0785,10.98021 -1.95035,10.98021 -0.61535,0 -1.26169,-0.14287 -1.43632,-0.3175 z"
       id="path106"
       inkscape:connector-curvature="0" />
  </g>
</svg>
