<?xml version="1.0" encoding="UTF-8" standalone="no"?>
<!-- Created with Inkscape (http://www.inkscape.org/) -->

<svg
   xmlns:dc="http://purl.org/dc/elements/1.1/"
   xmlns:cc="http://creativecommons.org/ns#"
   xmlns:rdf="http://www.w3.org/1999/02/22-rdf-syntax-ns#"
   xmlns:svg="http://www.w3.org/2000/svg"
   xmlns="http://www.w3.org/2000/svg"
   xmlns:sodipodi="http://sodipodi.sourceforge.net/DTD/sodipodi-0.dtd"
   xmlns:inkscape="http://www.inkscape.org/namespaces/inkscape"
   width="26.680437mm"
   height="23.018753mm"
   viewBox="0 0 26.680437 23.018753"
   version="1.1"
   id="svg169"
   inkscape:version="0.92.3 (2405546, 2018-03-11)"
   sodipodi:docname="forward.svg">
  <defs
     id="defs163" />
  <sodipodi:namedview
     id="base"
     pagecolor="#ffffff"
     bordercolor="#666666"
     borderopacity="1.0"
     inkscape:pageopacity="0.0"
     inkscape:pageshadow="2"
     inkscape:zoom="0.35"
     inkscape:cx="437.56258"
     inkscape:cy="-210.78571"
     inkscape:document-units="mm"
     inkscape:current-layer="layer1"
     showgrid="false"
     inkscape:window-width="1853"
     inkscape:window-height="1145"
     inkscape:window-x="67"
     inkscape:window-y="27"
     inkscape:window-maximized="1" />
  <metadata
     id="metadata166">
    <rdf:RDF>
      <cc:Work
         rdf:about="">
        <dc:format>image/svg+xml</dc:format>
        <dc:type
           rdf:resource="http://purl.org/dc/dcmitype/StillImage" />
        <dc:title></dc:title>
      </cc:Work>
    </rdf:RDF>
  </metadata>
  <g
     inkscape:label="Layer 1"
     inkscape:groupmode="layer"
     id="layer1"
     transform="translate(141.09617,-70.044194)">
    <path
       style="fill:#515151;fill-opacity:1;stroke-width:0.26458332"
       d="m -134.1981,92.647178 c -0.36424,-0.36424 -0.41578,-1.73927 -0.41578,-11.09361 0,-9.354334 0.0515,-10.729364 0.41578,-11.093604 0.22867,-0.22867 0.51817,-0.41577 0.64333,-0.41577 0.12516,0 3.77782,2.03716 8.11704,4.52702 4.33921,2.489861 8.51727,4.884005 9.28457,5.320324 1.71952,0.9778 2.07862,1.54353 1.44534,2.27704 -0.46779,0.54183 -18.34978,10.89437 -18.81789,10.89437 -0.14114,0 -0.44372,-0.1871 -0.67239,-0.41577 z m -6.50119,-0.37238 c -0.34187,-0.21611 -0.39688,-1.70215 -0.39688,-10.72123 0,-9.019074 0.055,-10.505114 0.39688,-10.721224 0.56536,-0.35739 2.48081,-0.31817 2.8575,0.0585 0.45595,0.45595 0.45595,20.869464 0,21.325414 -0.37669,0.37669 -2.29214,0.41591 -2.8575,0.0585 z"
       id="path110"
       inkscape:connector-curvature="0" />
  </g>
</svg>
