<?xml version="1.0" encoding="UTF-8" standalone="no"?>
<!-- Created with Inkscape (http://www.inkscape.org/) -->

<svg
   xmlns:dc="http://purl.org/dc/elements/1.1/"
   xmlns:cc="http://creativecommons.org/ns#"
   xmlns:rdf="http://www.w3.org/1999/02/22-rdf-syntax-ns#"
   xmlns:svg="http://www.w3.org/2000/svg"
   xmlns="http://www.w3.org/2000/svg"
   xmlns:sodipodi="http://sodipodi.sourceforge.net/DTD/sodipodi-0.dtd"
   xmlns:inkscape="http://www.inkscape.org/namespaces/inkscape"
   width="59.048931mm"
   height="49.048931mm"
   viewBox="0 0 59.048931 49.048931"
   version="1.1"
   id="svg8"
   inkscape:version="0.92.3 (2405546, 2018-03-11)"
   sodipodi:docname="predictions.svg">
  <defs
     id="defs2" />
  <sodipodi:namedview
     id="base"
     pagecolor="#ffffff"
     bordercolor="#666666"
     borderopacity="1.0"
     inkscape:pageopacity="0.0"
     inkscape:pageshadow="2"
     inkscape:zoom="0.35"
     inkscape:cx="-195.55435"
     inkscape:cy="-158.73766"
     inkscape:document-units="mm"
     inkscape:current-layer="layer1"
     showgrid="false"
     inkscape:window-width="930"
     inkscape:window-height="1025"
     inkscape:window-x="61"
     inkscape:window-y="27"
     inkscape:window-maximized="0" />
  <metadata
     id="metadata5">
    <rdf:RDF>
      <cc:Work
         rdf:about="">
        <dc:format>image/svg+xml</dc:format>
        <dc:type
           rdf:resource="http://purl.org/dc/dcmitype/StillImage" />
        <dc:title></dc:title>
      </cc:Work>
    </rdf:RDF>
  </metadata>
  <g
     inkscape:label="Layer 1"
     inkscape:groupmode="layer"
     id="layer1"
     transform="translate(-25.660065,-57.785063)">
    <g
       transform="translate(356.18454,90.309527)"
       id="g2528">
      <rect
         y="-32.524464"
         x="-330.52448"
         height="49.048931"
         width="59.048931"
         id="rect2415"
         style="fill:#ffffff;fill-opacity:1;fill-rule:evenodd;stroke:none;stroke-width:0.95106727;stroke-miterlimit:4;stroke-dasharray:none;stroke-opacity:1" />
      <text
         id="text843"
         y="10.896647"
         x="-327.80334"
         style="font-style:normal;font-variant:normal;font-weight:normal;font-stretch:normal;font-size:10.58333302px;line-height:1.25;font-family:Roboto;-inkscape-font-specification:Roboto;letter-spacing:0px;word-spacing:0px;fill:#000000;fill-opacity:1;stroke:none;stroke-width:0.26458332"
         xml:space="preserve"><tspan
           style="stroke-width:0.26458332"
           y="10.896647"
           x="-327.80334"
           id="tspan841"
           sodipodi:role="line">Predictions</tspan></text>
      <g
         transform="matrix(0.03906219,0,0,0.06781017,-310.95696,-30.359505)"
         id="g2407">
        <g
           id="g2296">
          <g
             id="g2294">
            <path
               inkscape:connector-curvature="0"
               d="m 503.325,140.931 c -14.29,0 -20.989,-6.142 -29.469,-13.918 -9.447,-8.663 -20.155,-18.482 -41.198,-18.482 -21.043,0 -31.751,9.819 -41.199,18.482 -8.479,7.776 -15.177,13.918 -29.467,13.918 -14.29,0 -20.988,-6.142 -29.467,-13.918 -9.448,-8.663 -20.155,-18.482 -41.198,-18.482 -21.043,0 -31.75,9.819 -41.198,18.483 -8.478,7.776 -15.176,13.917 -29.465,13.917 -14.288,0 -20.985,-6.142 -29.464,-13.917 -9.447,-8.663 -20.154,-18.483 -41.196,-18.483 -21.042,0 -31.749,9.819 -41.197,18.482 -8.478,7.776 -15.176,13.918 -29.465,13.918 -14.289,0 -20.987,-6.142 -29.466,-13.918 -9.448,-8.662 -20.155,-18.482 -41.197,-18.482 -4.794,0 -8.678,3.886 -8.678,8.678 0,4.792 3.884,8.678 8.678,8.678 14.289,0 20.987,6.142 29.465,13.917 9.447,8.663 20.155,18.483 41.198,18.483 21.042,0 31.749,-9.819 41.197,-18.481 8.478,-7.776 15.176,-13.918 29.465,-13.918 14.288,0 20.985,6.142 29.464,13.917 9.447,8.663 20.154,18.483 41.196,18.483 21.042,0 31.749,-9.818 41.197,-18.481 8.479,-7.776 15.177,-13.918 29.466,-13.918 14.289,0 20.987,6.142 29.466,13.917 9.448,8.663 20.156,18.483 41.198,18.483 21.042,0 31.75,-9.818 41.198,-18.481 8.481,-7.776 15.178,-13.918 29.469,-13.918 14.29,0 20.989,6.142 29.469,13.918 9.447,8.663 20.155,18.481 41.198,18.481 4.794,0 8.678,-3.886 8.678,-8.678 10e-4,-4.794 -3.884,-8.68 -8.678,-8.68 z"
               id="path2292" />
          </g>
        </g>
        <g
           id="g2302">
          <g
             id="g2300">
            <path
               inkscape:connector-curvature="0"
               d="m 503.323,222.659 c -14.29,0 -20.989,-6.142 -29.469,-13.918 -9.447,-8.663 -20.155,-18.482 -41.198,-18.482 -21.043,0 -31.751,9.819 -41.199,18.482 -8.479,7.776 -15.177,13.918 -29.467,13.918 -14.29,0 -20.988,-6.142 -29.468,-13.918 -9.447,-8.663 -20.153,-18.482 -41.197,-18.482 -21.044,0 -31.75,9.819 -41.198,18.483 -8.478,7.776 -15.176,13.917 -29.465,13.917 -14.288,0 -20.984,-6.142 -29.464,-13.917 -1.083,-0.993 -2.165,-1.986 -3.263,-2.965 -3.578,-3.19 -9.064,-2.873 -12.253,0.703 -3.189,3.578 -2.873,9.064 0.704,12.253 1.037,0.924 2.059,1.862 3.081,2.799 9.447,8.662 20.154,18.481 41.195,18.481 21.042,0 31.749,-9.818 41.197,-18.481 8.479,-7.776 15.177,-13.918 29.466,-13.918 14.289,0 20.987,6.142 29.466,13.917 9.448,8.663 20.156,18.483 41.198,18.483 21.042,0 31.75,-9.818 41.198,-18.481 8.48,-7.776 15.178,-13.918 29.469,-13.918 14.29,0 20.989,6.142 29.469,13.918 9.447,8.663 20.155,18.481 41.198,18.481 4.794,0 8.678,-3.886 8.678,-8.678 0,-4.792 -3.885,-8.677 -8.678,-8.677 z"
               id="path2298" />
          </g>
        </g>
        <g
           id="g2308">
          <g
             id="g2306">
            <path
               inkscape:connector-curvature="0"
               d="m 162.376,191.561 c -3.864,-0.863 -8.027,-1.302 -12.372,-1.302 -21.042,0 -31.749,9.819 -41.197,18.481 -8.478,7.776 -15.176,13.918 -29.465,13.918 -14.289,0 -20.987,-6.142 -29.466,-13.918 -9.447,-8.663 -20.155,-18.481 -41.197,-18.481 -4.794,0 -8.678,3.886 -8.678,8.678 0,4.792 3.884,8.68 8.678,8.68 14.289,0 20.987,6.142 29.465,13.917 9.447,8.663 20.155,18.483 41.198,18.483 21.042,0 31.749,-9.819 41.197,-18.482 8.478,-7.776 15.176,-13.918 29.465,-13.918 3.118,0 5.927,0.289 8.587,0.883 4.674,1.044 9.317,-1.899 10.362,-6.577 1.045,-4.678 -1.9,-9.317 -6.577,-10.362 z"
               id="path2304" />
          </g>
        </g>
        <g
           id="g2314">
          <g
             id="g2312">
            <path
               inkscape:connector-curvature="0"
               d="m 503.323,386.115 c -14.29,0 -20.989,-6.142 -29.469,-13.918 -9.447,-8.663 -20.155,-18.481 -41.198,-18.481 -21.043,0 -31.751,9.819 -41.199,18.481 -8.479,7.776 -15.177,13.918 -29.467,13.918 -14.29,0 -20.988,-6.142 -29.468,-13.918 -9.447,-8.663 -20.153,-18.481 -41.197,-18.481 -21.044,0 -31.75,9.819 -41.198,18.483 -8.478,7.776 -15.176,13.917 -29.465,13.917 -14.288,0 -20.985,-6.142 -29.464,-13.917 -9.447,-8.663 -20.154,-18.483 -41.196,-18.483 -21.042,0 -31.749,9.819 -41.197,18.481 -8.478,7.776 -15.176,13.918 -29.465,13.918 -4.794,0 -8.678,3.886 -8.678,8.678 0,4.793 3.884,8.678 8.678,8.678 21.042,0 31.749,-9.819 41.197,-18.481 8.478,-7.776 15.176,-13.918 29.465,-13.918 14.288,0 20.985,6.142 29.464,13.917 9.447,8.663 20.154,18.483 41.196,18.483 21.042,0 31.749,-9.818 41.197,-18.481 8.479,-7.776 15.177,-13.918 29.466,-13.918 14.289,0 20.987,6.142 29.466,13.918 9.448,8.662 20.156,18.481 41.198,18.481 21.042,0 31.75,-9.818 41.198,-18.481 8.481,-7.776 15.178,-13.918 29.469,-13.918 14.29,0 20.989,6.142 29.469,13.918 9.447,8.663 20.155,18.481 41.198,18.481 4.794,0 8.678,-3.886 8.678,-8.678 0,-4.793 -3.885,-8.679 -8.678,-8.679 z"
               id="path2310" />
          </g>
        </g>
        <g
           id="g2320">
          <g
             id="g2318">
            <path
               inkscape:connector-curvature="0"
               d="m 59.028,379.917 c -3.162,-2.227 -6.071,-4.895 -9.152,-7.719 -9.447,-8.663 -20.155,-18.483 -41.197,-18.483 -4.794,0 -8.678,3.886 -8.678,8.678 0,4.792 3.884,8.678 8.678,8.678 14.289,0 20.987,6.142 29.466,13.918 3.35,3.071 6.812,6.246 10.888,9.117 1.519,1.07 3.262,1.584 4.99,1.584 2.727,0 5.414,-1.282 7.104,-3.682 2.759,-3.918 1.819,-9.331 -2.099,-12.091 z"
               id="path2316" />
          </g>
        </g>
        <g
           id="g2326">
          <g
             id="g2324">
            <path
               inkscape:connector-curvature="0"
               d="m 503.323,304.387 c -14.29,0 -20.989,-6.142 -29.469,-13.918 -9.447,-8.663 -20.155,-18.481 -41.198,-18.481 -21.042,0 -31.749,9.818 -41.198,18.48 -3.533,3.239 -3.771,8.728 -0.531,12.262 3.238,3.533 8.727,3.77 12.262,0.531 8.479,-7.775 15.178,-13.917 29.467,-13.917 14.29,0 20.989,6.142 29.469,13.918 9.447,8.663 20.155,18.481 41.198,18.481 4.794,0 8.678,-3.886 8.678,-8.678 0,-4.793 -3.885,-8.678 -8.678,-8.678 z"
               id="path2322" />
          </g>
        </g>
        <g
           id="g2332">
          <g
             id="g2330">
            <path
               inkscape:connector-curvature="0"
               d="m 382.128,309.516 c -1.191,-4.642 -5.915,-7.439 -10.565,-6.248 -2.934,0.753 -6.066,1.12 -9.573,1.12 -14.29,0 -20.988,-6.142 -29.468,-13.918 -9.447,-8.663 -20.154,-18.482 -41.197,-18.482 -21.043,0 -31.75,9.819 -41.198,18.483 -8.478,7.776 -15.176,13.917 -29.465,13.917 -14.288,0 -20.985,-6.142 -29.464,-13.918 -9.447,-8.662 -20.154,-18.482 -41.196,-18.482 -21.042,0 -31.749,9.819 -41.197,18.482 -8.478,7.776 -15.176,13.918 -29.465,13.918 -14.289,0 -20.987,-6.142 -29.466,-13.918 -9.447,-8.663 -20.155,-18.482 -41.197,-18.482 -4.794,0 -8.678,3.886 -8.678,8.678 0,4.792 3.886,8.677 8.68,8.677 14.289,0 20.987,6.142 29.465,13.917 9.447,8.663 20.155,18.483 41.198,18.483 21.042,0 31.749,-9.819 41.197,-18.482 8.478,-7.776 15.176,-13.918 29.465,-13.918 14.288,0 20.985,6.142 29.464,13.918 9.447,8.662 20.154,18.481 41.196,18.481 21.042,0 31.749,-9.818 41.197,-18.481 8.479,-7.776 15.177,-13.918 29.466,-13.918 14.289,0 20.987,6.142 29.466,13.918 9.448,8.662 20.156,18.481 41.198,18.481 4.913,0 9.587,-0.56 13.89,-1.664 4.642,-1.19 7.438,-5.921 6.247,-10.562 z"
               id="path2328" />
          </g>
        </g>
        <g
           id="g2334" />
        <g
           id="g2336" />
        <g
           id="g2338" />
        <g
           id="g2340" />
        <g
           id="g2342" />
        <g
           id="g2344" />
        <g
           id="g2346" />
        <g
           id="g2348" />
        <g
           id="g2350" />
        <g
           id="g2352" />
        <g
           id="g2354" />
        <g
           id="g2356" />
        <g
           id="g2358" />
        <g
           id="g2360" />
        <g
           id="g2362" />
      </g>
    </g>
  </g>
</svg>
