<?xml version="1.0" encoding="UTF-8" standalone="no"?>
<!-- Created with Inkscape (http://www.inkscape.org/) -->

<svg
   xmlns:dc="http://purl.org/dc/elements/1.1/"
   xmlns:cc="http://creativecommons.org/ns#"
   xmlns:rdf="http://www.w3.org/1999/02/22-rdf-syntax-ns#"
   xmlns:svg="http://www.w3.org/2000/svg"
   xmlns="http://www.w3.org/2000/svg"
   xmlns:sodipodi="http://sodipodi.sourceforge.net/DTD/sodipodi-0.dtd"
   xmlns:inkscape="http://www.inkscape.org/namespaces/inkscape"
   width="59.048931mm"
   height="49.048931mm"
   viewBox="0 0 59.048931 49.048931"
   version="1.1"
   id="svg8447"
   inkscape:version="0.92.3 (2405546, 2018-03-11)"
   sodipodi:docname="rs.svg">
  <defs
     id="defs8441" />
  <sodipodi:namedview
     id="base"
     pagecolor="#ffffff"
     bordercolor="#666666"
     borderopacity="1.0"
     inkscape:pageopacity="0.0"
     inkscape:pageshadow="2"
     inkscape:zoom="0.35"
     inkscape:cx="1021.5885"
     inkscape:cy="-387.30911"
     inkscape:document-units="mm"
     inkscape:current-layer="layer1"
     showgrid="false"
     inkscape:window-width="1859"
     inkscape:window-height="1025"
     inkscape:window-x="61"
     inkscape:window-y="27"
     inkscape:window-maximized="1" />
  <metadata
     id="metadata8444">
    <rdf:RDF>
      <cc:Work
         rdf:about="">
        <dc:format>image/svg+xml</dc:format>
        <dc:type
           rdf:resource="http://purl.org/dc/dcmitype/StillImage" />
        <dc:title></dc:title>
      </cc:Work>
    </rdf:RDF>
  </metadata>
  <g
     inkscape:label="Layer 1"
     inkscape:groupmode="layer"
     id="layer1"
     transform="translate(296.37566,2.6911334)">
    <g
       id="g7811"
       transform="translate(-53.067886,-139.20862)">
      <rect
         y="136.51749"
         x="-243.30777"
         height="49.048931"
         width="59.048931"
         id="rect2415-7-1-7"
         style="fill:#ffffff;fill-opacity:1;fill-rule:evenodd;stroke:none;stroke-width:0.95106727;stroke-miterlimit:4;stroke-dasharray:none;stroke-opacity:1" />
      <text
         transform="scale(0.86594339,1.1548099)"
         id="text847-2-3"
         y="155.81664"
         x="-279.72757"
         style="font-style:normal;font-variant:normal;font-weight:normal;font-stretch:normal;font-size:9.16456699px;line-height:1.25;font-family:Roboto;-inkscape-font-specification:Roboto;letter-spacing:0px;word-spacing:0px;fill:#000000;fill-opacity:1;stroke:none;stroke-width:0.22911417"
         xml:space="preserve"><tspan
           style="stroke-width:0.22911417"
           y="155.81664"
           x="-279.72757"
           id="tspan845-7-6"
           sodipodi:role="line">Remote Sensing</tspan></text>
      <g
         style="fill:#000000"
         id="g6394"
         transform="matrix(0.03906302,0,0,0.03906257,-223.803,145.94496)">
        <path
           style="fill:#000000"
           d="m 412.16016,240.61719 c -2.92969,-2.92969 -6.90235,-4.57422 -11.04688,-4.57422 -4.14062,0 -8.11719,1.64453 -11.04687,4.57422 l -21.75782,21.76172 -12.64453,-12.64844 64.80078,-64.79688 c 4.85157,-4.78125 7.58594,-11.30859 7.59375,-18.12109 C 428.06641,160 425.34375,153.46875 420.5,148.67578 L 364.09375,92.261719 c -10.01172,-9.972657 -26.20703,-9.96875 -36.21484,0.0078 L 263.03906,157.10547 249.625,143.69141 271.38672,121.93359 c 6.08984,-6.10547 6.08984,-15.98828 0,-22.093746 L 176.11719,4.574219 c -6.10157,-6.097657 -15.99219,-6.097657 -22.09375,0 L 93.859375,64.742188 c -6.09375,6.105468 -6.09375,15.992187 0,22.101562 l 95.257815,95.25781 c 2.92187,2.94531 6.90234,4.59766 11.05078,4.58203 h 0.0156 c 4.14063,0.008 8.11328,-1.64453 11.03516,-4.58203 l 26.33984,-26.33984 13.41407,13.41406 -62.09766,62.09766 c -23.17969,0.35156 -45.53125,8.6914 -63.27344,23.61718 -3.375,2.85157 -5.40234,6.98829 -5.59375,11.40235 -0.17969,4.35937 1.46875,8.59765 4.55078,11.6875 l 119.875,119.88672 c 2.9336,2.91406 6.89844,4.55468 11.03125,4.55859 0.21875,0 0.44532,-0.008 0.66016,-0.0195 4.41406,-0.19141 8.54687,-2.21875 11.39844,-5.58984 19.07422,-22.45313 27.23047,-52.19532 22.27343,-81.23829 l 53.79688,-53.78515 12.64453,12.64453 -26.33203,26.33594 c -2.9375,2.92578 -4.58984,6.90234 -4.59375,11.05078 0,4.14844 1.64844,8.125 4.58594,11.05469 l 95.25781,95.26171 c 6.10937,6.08985 15.99609,6.08985 22.10156,0 l 60.16797,-60.16796 c 6.08984,-6.10547 6.08984,-15.98829 0,-22.08985 z m -211.99219,-71.60157 -93.22656,-93.222651 58.125,-58.128907 93.22656,93.226568 z m 55.23437,215.6836 -117.68359,-117.69141 c 33.26953,-27.05469 81.61328,-24.57031 111.93359,5.75391 30.32422,30.32422 32.8086,78.66797 5.75,111.9375 z m 6.34375,-124.02344 c -13.85937,-13.91797 -31.51562,-23.44141 -50.75781,-27.37891 l 57.88281,-57.88281 c 0.0742,-0.0703 0.17578,-0.0898 0.25,-0.16406 0.0703,-0.0742 0.0937,-0.17188 0.16407,-0.24609 l 70.66015,-70.66407 c 3.33985,-3.32422 8.73828,-3.32812 12.08203,-0.008 l 56.40625,56.40625 c 1.63672,1.60938 2.5586,3.80469 2.5586,6.10156 -0.0117,2.25782 -0.9336,4.41407 -2.5586,5.98047 l -123.6875,123.6836 c -5.01172,-13.45313 -12.85937,-25.67188 -23.0039,-35.82813 z m 174.46485,144.38281 -93.22657,-93.22656 58.125,-58.125 93.22657,93.22656 z m 0,0"
           id="path5831"
           inkscape:connector-curvature="0" />
        <path
           style="fill:#000000"
           d="M 187.73437,494.93359 C 93.519531,494.82812 17.171875,418.48047 17.066406,324.26562 c 0,-4.71093 -3.820312,-8.53125 -8.53125,-8.53125 C 3.820312,315.73437 0,319.55469 0,324.26562 0.117188,427.90234 84.097656,511.88281 187.73437,512 c 4.71094,0 8.53125,-3.82031 8.53125,-8.53516 0,-4.71093 -3.82031,-8.53125 -8.53125,-8.53125 z m 0,0"
           id="path5833"
           inkscape:connector-curvature="0" />
        <path
           style="fill:#000000"
           d="M 187.73437,443.73437 C 121.78516,443.66016 68.339844,390.21484 68.265625,324.26562 c 0,-4.71093 -3.820313,-8.53125 -8.53125,-8.53125 -4.714844,0 -8.535156,3.82032 -8.535156,8.53125 0.08594,75.3711 61.164061,136.44922 136.535151,136.53516 4.71094,0 8.53125,-3.82031 8.53125,-8.53516 0,-4.71093 -3.82031,-8.53125 -8.53125,-8.53125 z m 0,0"
           id="path5835"
           inkscape:connector-curvature="0" />
        <path
           style="fill:#000000"
           d="m 187.73437,392.53516 c -37.6875,-0.0469 -68.22265,-30.58204 -68.26953,-68.26954 0,-4.71093 -3.82031,-8.53125 -8.53125,-8.53125 -4.71484,0 -8.53515,3.82032 -8.53515,8.53125 0.0547,47.10547 38.23047,85.28125 85.33593,85.33594 4.71094,0 8.53125,-3.82031 8.53125,-8.53515 0,-4.71094 -3.82031,-8.53125 -8.53125,-8.53125 z m 0,0"
           id="path5837"
           inkscape:connector-curvature="0" />
      </g>
    </g>
  </g>
</svg>
