<?xml version="1.0" encoding="UTF-8" standalone="no"?>
<!-- Created with Inkscape (http://www.inkscape.org/) -->

<svg
   xmlns:dc="http://purl.org/dc/elements/1.1/"
   xmlns:cc="http://creativecommons.org/ns#"
   xmlns:rdf="http://www.w3.org/1999/02/22-rdf-syntax-ns#"
   xmlns:svg="http://www.w3.org/2000/svg"
   xmlns="http://www.w3.org/2000/svg"
   xmlns:sodipodi="http://sodipodi.sourceforge.net/DTD/sodipodi-0.dtd"
   xmlns:inkscape="http://www.inkscape.org/namespaces/inkscape"
   width="62.999882mm"
   height="70.155037mm"
   viewBox="0 0 62.999883 70.155037"
   version="1.1"
   id="svg8"
   inkscape:version="0.92.3 (2405546, 2018-03-11)"
   sodipodi:docname="leftbanner.svg">
  <defs
     id="defs2">
    <inkscape:path-effect
       effect="spiro"
       id="path-effect831"
       is_visible="true" />
    <inkscape:path-effect
       effect="spiro"
       id="path-effect827"
       is_visible="true" />
    <clipPath
       clipPathUnits="userSpaceOnUse"
       id="clipPath100">
      <path
         d="M 0,417.5 H 875 V 0 H 0 Z"
         id="path98"
         inkscape:connector-curvature="0" />
    </clipPath>
  </defs>
  <sodipodi:namedview
     id="base"
     pagecolor="#ffffff"
     bordercolor="#666666"
     borderopacity="1.0"
     inkscape:pageopacity="0.0"
     inkscape:pageshadow="2"
     inkscape:zoom="2.3751352"
     inkscape:cx="74.293359"
     inkscape:cy="119.08533"
     inkscape:document-units="mm"
     inkscape:current-layer="layer1"
     showgrid="false"
     inkscape:window-width="1853"
     inkscape:window-height="1025"
     inkscape:window-x="67"
     inkscape:window-y="27"
     inkscape:window-maximized="1"
     inkscape:snap-intersection-paths="true" />
  <metadata
     id="metadata5">
    <rdf:RDF>
      <cc:Work
         rdf:about="">
        <dc:format>image/svg+xml</dc:format>
        <dc:type
           rdf:resource="http://purl.org/dc/dcmitype/StillImage" />
        <dc:title />
      </cc:Work>
    </rdf:RDF>
  </metadata>
  <g
     inkscape:label="Layer 1"
     inkscape:groupmode="layer"
     id="layer1"
     transform="translate(-33.081593,-94.197717)">
    <path
       style="fill:#000080;stroke:#000026;stroke-width:0.2736764px;stroke-linecap:butt;stroke-linejoin:miter;stroke-opacity:1"
       d="m 36.081385,128.35293 h 60"
       id="path817"
       inkscape:connector-curvature="0" />
    <path
       style="fill:#3dd2f2;fill-opacity:0.77619046;stroke:#000000;stroke-width:0;stroke-linecap:butt;stroke-linejoin:miter;stroke-miterlimit:4;stroke-dasharray:none;stroke-opacity:1"
       d="m 96.08138,110.35273 c -4.249776,0.0349 -6.772924,3.35026 -9.91757,4.09947 -3.136272,0.68262 -6.383393,-0.0147 -9.553954,-0.51424 -1.58528,-0.24976 -3.186281,-0.45036 -4.79037,-0.4019 -1.604086,0.0485 -3.219482,0.35432 -4.654398,1.07329 -2.198823,1.10172 -3.865704,3.10892 -6.123285,4.08448 -2.115017,0.91395 -4.511758,0.82441 -6.810861,0.67602 -2.299106,-0.14838 -4.672356,-0.33041 -6.84949,0.42355 -1.696816,0.58762 -3.151883,1.70435 -4.553451,2.82724 -2.303354,1.84537 -4.553275,3.75717 -6.746484,5.73229 H 96.08138 Z"
       id="path825"
       inkscape:connector-curvature="0"
       sodipodi:nodetypes="cccccccssccc" />
    <path
       style="fill:#3ed1f2;fill-opacity:1;stroke:#000000;stroke-width:0;stroke-linecap:butt;stroke-linejoin:miter;stroke-miterlimit:4;stroke-dasharray:none;stroke-opacity:1"
       d="m 136.37109,485.11328 c 4.26537,2.19355 8.26522,4.90042 11.88868,8.04297 12.05376,10.454 19.40834,25.15411 26.79492,39.29687 4.87885,9.34134 9.98504,18.72683 17.21484,26.39454 3.6149,3.83385 7.7504,7.21047 12.38867,9.71093 4.63828,2.50047 9.79054,4.1105 15.05274,4.38477 7.03274,0.36655 13.9422,-1.62681 20.8164,-3.15625 6.8742,-1.52944 14.1643,-2.58799 20.86328,-0.41602 5.97637,1.93768 10.89265,6.28142 14.91993,11.10352 4.02727,4.8221 7.33708,10.20186 11.27929,15.09375 8.80272,10.92328 25.46048,3.25855 38.74951,7.75383 13.28903,4.49528 21.15498,17.715 36.80323,17.85359 v -136.0625 z"
       id="path829"
       inkscape:connector-curvature="0"
       sodipodi:nodetypes="ccsssssscssccc"
       transform="scale(0.26458333)" />
    <g
       id="g3669"
       transform="matrix(-0.1073207,0,0,-0.1073207,147.58859,135.62348)">
      <path
         d="m 1025.4904,353.33395 -45.512,13.968 6.55,-3.89 40.794,-12.52 z"
         style="fill:#8fb4b4;fill-opacity:1;fill-rule:evenodd;stroke:none"
         id="path636"
         inkscape:connector-curvature="0" />
      <path
         d="m 993.0461,372.03175 -45.512,13.968 1.648,-19.865 40.793,-12.52 z"
         style="fill:#1880bf;fill-opacity:1;fill-rule:evenodd;stroke:none"
         id="path640"
         inkscape:connector-curvature="0" />
      <path
         d="m 1021.9454,363.16205 45.512,-13.968 -12.508,-15.522 -40.794,12.521 z"
         style="fill:#1880bf;fill-opacity:1;fill-rule:evenodd;stroke:none"
         id="path644"
         inkscape:connector-curvature="0" />
      <path
         d="m 992.4201,348.42725 2.492,14.965 20.642,-6.336 -6.332,-13.786 z"
         style="fill:#669999;fill-opacity:1;fill-rule:evenodd;stroke:none"
         id="path648"
         inkscape:connector-curvature="0" />
      <path
         d="m 994.9123,363.39205 20.642,-6.335 0.658,10.554 -15.924,4.887 z"
         style="fill:#8fb4b4;fill-opacity:1;fill-rule:evenodd;stroke:none"
         id="path652"
         inkscape:connector-curvature="0" />
      <path
         d="m 990.7766,349.69825 20.52,-6.298 c 1.432,4.669 -2,9.864 -7.666,11.603 -5.667,1.738 -11.421,-0.637 -12.854,-5.305"
         style="fill:#ffffff;fill-opacity:1;fill-rule:evenodd;stroke:none"
         id="path656"
         inkscape:connector-curvature="0" />
      <path
         d="m 999.0676,340.13625 c 5.666,-1.739 11.142,-0.277 12.229,3.264 1.086,3.542 -2.627,7.822 -8.292,9.562 -5.666,1.738 -11.142,0.277 -12.228,-3.264 -1.088,-3.542 2.625,-7.823 8.291,-9.562"
         style="fill:#e6e6e6;fill-opacity:1;fill-rule:evenodd;stroke:none"
         id="path660"
         inkscape:connector-curvature="0" />
      <path
         d="m 1000.9045,346.12155 c 0.685,-0.21 1.07,-0.936 0.86,-1.622 -0.211,-0.684 -0.936,-1.069 -1.622,-0.859 -0.684,0.21 -1.069,0.936 -0.859,1.621 0.21,0.685 0.936,1.071 1.621,0.86"
         style="fill:#003333;fill-opacity:1;fill-rule:evenodd;stroke:none"
         id="path664"
         inkscape:connector-curvature="0" />
      <path
         d="m 990.7766,349.69775 -75.012,-79.332 73.417,-59.583 22.113,132.618 c -1.085,-3.542 -6.561,-5.004 -12.227,-3.264 -5.666,1.738 -9.378,6.019 -8.291,9.561"
         style="fill:#29ccf1;fill-opacity:1;fill-rule:evenodd;stroke:none"
         id="path972"
         inkscape:connector-curvature="0" />
    </g>
    <g
       transform="matrix(0.16469155,0,0,-0.16469155,-90.486644,138.2053)"
       id="g3704">
      <path
         d="m 1056.2654,99.022248 h -98.72897 v 20.108002 h 98.72897 l 6.475,-10.053 z"
         style="fill:#cbcbcb;fill-opacity:1;fill-rule:evenodd;stroke:none"
         id="path1112"
         inkscape:connector-curvature="0" />
      <path
         d="m 959.99103,104.84835 -3.093,-5.356002 -3.093,-5.357 h -6.185 -6.186 l -3.091,5.357 -3.094,5.356002 3.094,5.357 3.091,5.357 h 6.186 6.185 l 3.093,-5.357 z"
         style="fill:#b3b3b3;fill-opacity:1;fill-rule:evenodd;stroke:none"
         id="path1116"
         inkscape:connector-curvature="0" />
      <path
         d="m 935.24883,104.84835 6.186,10.714 -1.725,-10.714 -6.186,-10.713002 z"
         style="fill:#d8d8d8;fill-opacity:1;fill-rule:evenodd;stroke:none"
         id="path1120"
         inkscape:connector-curvature="0" />
      <path
         d="m 953.80543,115.56225 h -12.371 l -1.725,-10.714 h 12.371 z"
         style="fill:#f9f9f9;fill-opacity:1;fill-rule:evenodd;stroke:none"
         id="path1124"
         inkscape:connector-curvature="0" />
      <path
         d="m 953.80543,115.56225 6.186,-10.714 -1.725,-10.713002 -6.186,10.713002 z"
         style="fill:#b0b0b0;fill-opacity:1;fill-rule:evenodd;stroke:none"
         id="path1128"
         inkscape:connector-curvature="0" />
      <path
         d="m 941.43433,115.56225 h 12.371 l 14.697,3.568 h -12.37 z"
         style="fill:#f9f9f9;fill-opacity:1;fill-rule:evenodd;stroke:none"
         id="path1132"
         inkscape:connector-curvature="0" />
      <path
         d="m 953.80543,115.56225 6.186,-10.714 h 97.78697 l 2.966,4.27 -5.292,6.444 z"
         style="fill:#bebebe;fill-opacity:1;fill-rule:evenodd;stroke:none"
         id="path1136"
         inkscape:connector-curvature="0" />
      <path
         d="M 1055.4529,115.56225 H 953.80593 l 14.039,3.408 88.41997,0.16 6.475,-10.053 -1.995,0.041 -4.197,5.11 z"
         style="fill:#f9f9f9;fill-opacity:1;fill-rule:evenodd;stroke:none"
         id="path1140"
         inkscape:connector-curvature="0" />
      <path
         d="m 1056.2654,119.13065 -1.557,-3.568 h -4.527 v -14.744 h 10.834 l 6.898,-10.713002 -5.173,18.971002 z"
         style="fill:#f9f9f9;fill-opacity:1;fill-rule:evenodd;stroke:none"
         id="path1144"
         inkscape:connector-curvature="0" />
      <path
         d="m 958.26543,94.135448 -3.092,-5.356 -3.094,-5.357 h -6.184 -6.186 l -3.092,5.357 -3.093,5.356 3.093,5.357 3.092,5.356002 h 6.186 6.184 l 3.094,-5.356002 z"
         style="fill:#b3b3b3;fill-opacity:1;fill-rule:evenodd;stroke:none"
         id="path1148"
         inkscape:connector-curvature="0" />
      <path
         d="m 947.90113,90.105248 6.507,10.713002 -14.698,4.03 -6.186,-10.713002 z"
         style="fill:#eaeaea;fill-opacity:1;fill-rule:evenodd;stroke:none"
         id="path1152"
         inkscape:connector-curvature="0" />
      <path
         d="m 939.70973,83.422548 14.377,-4.031 -6.186,10.714 -14.377,4.03 z"
         style="fill:#bebebe;fill-opacity:1;fill-rule:evenodd;stroke:none"
         id="path1156"
         inkscape:connector-curvature="0" />
      <path
         d="m 939.70973,104.84835 h 12.371 l 14.697,-4.03 h -12.37 z"
         style="fill:#f9f9f9;fill-opacity:1;fill-rule:evenodd;stroke:none"
         id="path1160"
         inkscape:connector-curvature="0" />
      <path
         d="m 987.66893,133.27795 c -0.275,2.188 -0.287,4.402 -0.014,6.595 0.264,2.124 0.8,4.27 1.627,6.395 0.824,2.119 1.883,4.066 3.13,5.819 1.287,1.808 2.788,3.43 4.45,4.839 1.075,0.907 1.211,2.515 0.303,3.59 -0.907,1.075 -2.514,1.21 -3.589,0.303 -1.979,-1.677 -3.77,-3.616 -5.316,-5.787 -1.499,-2.107 -2.761,-4.421 -3.732,-6.917 -0.969,-2.491 -1.604,-5.051 -1.924,-7.627 -0.33,-2.657 -0.322,-5.288 -0.002,-7.838 0.174,-1.399 1.449,-2.393 2.849,-2.219 1.398,0.172 2.392,1.449 2.218,2.847 m -7.792,-0.972 c 0.174,-1.394 -0.815,-2.665 -2.208,-2.839 -1.393,-0.174 -2.665,0.816 -2.838,2.208 -0.404,3.212 -0.418,6.495 -0.011,9.774 0.399,3.207 1.19,6.4 2.4,9.51 1.213,3.116 2.785,6.001 4.653,8.625 1.925,2.705 4.157,5.121 6.625,7.214 1.075,0.906 2.683,0.77 3.59,-0.305 0.907,-1.075 0.771,-2.682 -0.304,-3.589 -2.151,-1.825 -4.092,-3.921 -5.759,-6.264 -1.615,-2.271 -2.985,-4.788 -4.05,-7.527 -1.07,-2.746 -1.763,-5.523 -2.105,-8.279 -0.357,-2.869 -0.345,-5.733 0.007,-8.528 m 43.38797,-27.29 -11.03,-0.202 -0.011,-0.001 -0.065,-0.001 -10.978,-0.202 0.133,-7.257002 22.085,0.407 z m -0.664,36.028 -22.083,-0.407 0.133,-7.257 11.022,0.203 0.018,10e-4 0.066,0.001 10.979,0.202 z m -5.175,-29.749 -2.771,-0.05 0.023,-1.286 11.041,0.204 c 1.407,0.026 2.571,-1.094 2.598,-2.502 l 0.228,-12.355002 c 0.027,-1.408 -1.094,-2.572 -2.501,-2.599 l -27.18397,-0.501 c -1.408,-0.026 -2.571,1.094 -2.598,2.502 l -0.227,12.356002 c -0.027,1.408 1.093,2.571 2.501,2.598 l 11.04297,0.203 -0.024,1.285 -2.768,-0.051 c -1.407,-0.027 -2.57,1.094 -2.597,2.501 l -0.201,10.904 c -0.028,1.408 1.093,2.571 2.501,2.598 l 2.771,0.052 -0.024,1.283 -11.03997,-0.202 c -1.408,-0.028 -2.572,1.093 -2.599,2.501 l -0.226,12.355 c -0.027,1.408 1.093,2.572 2.501,2.599 l 27.18297,0.5 c 1.408,0.027 2.571,-1.093 2.598,-2.501 l 0.228,-12.356 c 0.027,-1.407 -1.094,-2.571 -2.501,-2.598 l -11.045,-0.204 0.024,-1.284 2.768,0.051 c 1.408,0.027 2.572,-1.093 2.598,-2.501 l 0.201,-10.904 c 0.027,-1.407 -1.094,-2.571 -2.501,-2.598"
         style="fill:#000000;fill-opacity:1;fill-rule:evenodd;stroke:none"
         id="path1272"
         inkscape:connector-curvature="0" />
      <path
         d="m 966.45783,79.391348 h -6.186 -6.185 l -3.093,5.356 -3.093,5.358 3.093,5.356 3.093,5.357002 h 6.185 6.186 94.55797 l 6.898,-10.713002 -6.898,-10.714 z"
         style="fill:#e3e3e3;fill-opacity:1;fill-rule:evenodd;stroke:none"
         id="path1276"
         inkscape:connector-curvature="0" />
    </g>
    <path
       style="fill:none;stroke:#000000;stroke-width:0.26458332px;stroke-linecap:butt;stroke-linejoin:miter;stroke-opacity:1"
       d="m 75.137387,128.45609 v 17.48935"
       id="path2993"
       inkscape:connector-curvature="0" />
    <circle
       style="fill:#000000;fill-opacity:1;stroke:#000000;stroke-width:0;stroke-miterlimit:4;stroke-dasharray:none;stroke-opacity:1"
       id="path2995"
       cx="75.109535"
       cy="146.11255"
       r="0.5" />
    <circle
       style="fill:#000000;fill-opacity:1;stroke:#000000;stroke-width:0;stroke-miterlimit:4;stroke-dasharray:none;stroke-opacity:1"
       id="path2995-4"
       cx="75.126595"
       cy="140.58307"
       r="0.5" />
    <circle
       style="fill:#000000;fill-opacity:1;stroke:#000000;stroke-width:0;stroke-miterlimit:4;stroke-dasharray:none;stroke-opacity:1"
       id="path2995-8"
       cx="75.126595"
       cy="134.89197"
       r="0.5" />
    <path
       style="fill:none;stroke:#000000;stroke-width:0.26458332px;stroke-linecap:butt;stroke-linejoin:miter;stroke-opacity:1"
       d="m 69.238558,128.43286 v 12.28807"
       id="path3018"
       inkscape:connector-curvature="0" />
    <circle
       style="fill:#000000;fill-opacity:1;stroke:#000000;stroke-width:0;stroke-miterlimit:4;stroke-dasharray:none;stroke-opacity:1"
       id="path2995-0"
       cx="69.218864"
       cy="140.74062"
       r="0.5" />
  </g>
</svg>
