<?xml version="1.0" encoding="UTF-8" standalone="no"?>
<!-- Created with Inkscape (http://www.inkscape.org/) -->

<svg
   xmlns:dc="http://purl.org/dc/elements/1.1/"
   xmlns:cc="http://creativecommons.org/ns#"
   xmlns:rdf="http://www.w3.org/1999/02/22-rdf-syntax-ns#"
   xmlns:svg="http://www.w3.org/2000/svg"
   xmlns="http://www.w3.org/2000/svg"
   xmlns:sodipodi="http://sodipodi.sourceforge.net/DTD/sodipodi-0.dtd"
   xmlns:inkscape="http://www.inkscape.org/namespaces/inkscape"
   width="205mm"
   height="205mm"
   viewBox="0 0 205 205"
   version="1.1"
   id="svg71"
   inkscape:version="0.92.3 (2405546, 2018-03-11)"
   sodipodi:docname="logocircle.svg"
   inkscape:export-filename="/home/jamesrunnalls/git/react-app/datalakes/public/img/logocirc.png"
   inkscape:export-xdpi="96"
   inkscape:export-ydpi="96">
  <defs
     id="defs65" />
  <sodipodi:namedview
     id="base"
     pagecolor="#ffffff"
     bordercolor="#666666"
     borderopacity="1.0"
     inkscape:pageopacity="0.0"
     inkscape:pageshadow="2"
     inkscape:zoom="0.24748737"
     inkscape:cx="547.15398"
     inkscape:cy="851.00689"
     inkscape:document-units="mm"
     inkscape:current-layer="layer1"
     showgrid="false"
     inkscape:window-width="1853"
     inkscape:window-height="1145"
     inkscape:window-x="67"
     inkscape:window-y="27"
     inkscape:window-maximized="1" />
  <metadata
     id="metadata68">
    <rdf:RDF>
      <cc:Work
         rdf:about="">
        <dc:format>image/svg+xml</dc:format>
        <dc:type
           rdf:resource="http://purl.org/dc/dcmitype/StillImage" />
        <dc:title></dc:title>
      </cc:Work>
    </rdf:RDF>
  </metadata>
  <g
     inkscape:label="Layer 1"
     inkscape:groupmode="layer"
     id="layer1"
     transform="translate(290.17102,-129.79756)">
    <path
       style="fill:#000000;stroke-width:0.18411681"
       d="m -274.90466,244.26802 c -2.12163,-0.47206 -3.37127,-1.2906 -4.52054,-2.96104 -2.17774,-3.16522 -2.13288,-10.1399 0.0875,-13.59684 1.85582,-2.88942 4.49797,-4.11572 8.44688,-3.92043 1.03287,0.0511 2.06436,0.15284 2.29221,0.22614 l 0.41426,0.13325 v -2.39336 -2.39336 l -1.38088,-0.12941 -1.38087,-0.12938 v -2.26487 -2.26485 l 0.59837,-0.10806 c 0.32912,-0.0594 2.44187,-0.16449 4.69498,-0.23344 l 4.09661,-0.1254 v 12.34755 12.34754 l 1.28881,0.23034 1.28882,0.23031 v 2.27199 2.27196 h -4.05512 -4.05513 l -0.18069,-0.47526 c -0.0995,-0.26138 -0.24233,-0.44733 -0.31764,-0.41321 -0.0754,0.0342 -0.58848,0.29921 -1.14035,0.58906 -1.00008,0.52526 -3.20425,1.03041 -4.42806,1.01481 -0.35442,-0.005 -1.14152,-0.11882 -1.74911,-0.25403 z m 5.55608,-5.86569 c 0.86804,-0.94495 1.0241,-1.70194 1.11606,-5.41367 l 0.0833,-3.36126 -0.80008,-0.36306 c -1.07409,-0.48741 -2.27199,-0.47172 -3.29165,0.0431 -0.65882,0.33261 -0.92959,0.62939 -1.37388,1.50581 -0.52782,1.0412 -0.55335,1.19832 -0.55335,3.40616 0,3.32942 0.61803,4.69547 2.25144,4.97623 1.06224,0.18259 1.91314,-0.0804 2.56817,-0.79333 z m 17.55058,5.94337 c -1.60097,-0.27522 -3.22931,-1.1652 -3.96414,-2.16665 -1.82856,-2.492 -1.51737,-6.61085 0.64722,-8.56643 1.59314,-1.43932 3.36488,-1.94788 7.36749,-2.11483 l 2.85382,-0.11902 -0.0453,-0.73647 c -0.0808,-1.31224 -1.00085,-2.10469 -2.62266,-2.25881 -0.45666,-0.0434 -1.12025,-0.003 -1.47469,0.0886 -0.57958,0.1507 -0.67021,0.26362 -0.90116,1.12282 l -0.25679,0.95529 h -2.55098 -2.55102 v -2.93878 -2.93878 l 0.69044,-0.18498 c 1.55492,-0.41663 4.60527,-0.74979 6.86489,-0.74979 4.92779,0 7.72869,1.13778 8.95661,3.63837 l 0.51886,1.05662 0.0607,5.18504 c 0.0692,5.90125 -0.14678,5.24981 1.82635,5.50715 l 0.96661,0.12608 v 2.27773 2.27774 h -4.32674 -4.32675 v -0.64439 c 0,-0.35444 -0.0331,-0.64443 -0.0736,-0.64443 -0.0404,0 -0.5025,0.28867 -1.02678,0.6415 -0.52426,0.3528 -1.35525,0.76085 -1.84666,0.90678 -1.20047,0.3565 -3.54262,0.49334 -4.7859,0.2796 z m 5.41764,-5.19102 c 0.97021,-0.55211 1.5788,-1.71545 1.5788,-3.01785 v -0.98368 h -1.1877 c -1.85451,0 -3.03857,0.32303 -3.73426,1.01869 -0.52344,0.52344 -0.60155,0.72455 -0.60155,1.54892 0,0.76034 0.0892,1.03657 0.45194,1.39929 0.62456,0.62456 2.42473,0.6424 3.49277,0.0347 z m 19.25402,5.21404 c -2.03969,-0.38095 -3.55373,-1.554 -4.02168,-3.11587 -0.40551,-1.35345 -0.57031,-4.31967 -0.45396,-8.17101 l 0.11538,-3.82042 -1.73236,6e-5 -1.73235,6e-5 0.18412,-2.53165 0.1841,-2.53168 1.59474,-0.0531 1.59471,-0.0529 0.1304,-2.35773 0.13039,-2.35773 2.78575,-0.60573 c 1.53216,-0.33314 2.88931,-0.64498 3.0159,-0.69297 0.17742,-0.0672 0.23072,0.51848 0.23265,2.55614 0.002,1.45384 0.0525,2.82977 0.11353,3.05763 0.10862,0.40543 0.16782,0.41425 2.77978,0.41425 h 2.66877 l -0.13338,2.43954 c -0.0734,1.34175 -0.17033,2.5017 -0.21551,2.57765 -0.0452,0.076 -1.19203,0.13808 -2.54853,0.13808 h -2.46635 l -0.11762,0.62693 c -0.19587,1.04399 0.0135,7.68958 0.26201,8.32237 0.3347,0.85176 0.94414,1.08573 2.81477,1.08062 l 1.62706,-0.005 v 2.33077 2.33076 l -1.42691,0.20463 c -2.08212,0.29859 -4.43663,0.3929 -5.38541,0.21569 z m 14.64249,-0.0219 c -1.46815,-0.24548 -2.51148,-0.72885 -3.43242,-1.59025 -1.27387,-1.19159 -1.70452,-2.3167 -1.71529,-4.48131 -0.008,-1.62305 0.0374,-1.85074 0.59592,-2.98535 0.66495,-1.35072 1.46484,-2.12285 2.88953,-2.7893 1.41101,-0.66006 2.59588,-0.86974 5.65766,-1.00114 l 2.81173,-0.12067 -0.0222,-0.70406 c -0.0284,-0.90187 -0.32879,-1.45344 -1.0108,-1.85632 -0.70738,-0.41786 -2.33315,-0.58007 -3.14116,-0.3134 -0.55692,0.18381 -0.66638,0.32536 -0.87204,1.12773 l -0.23516,0.91753 h -2.5606 -2.56063 v -2.92401 -2.92402 l 0.84673,-0.21319 c 1.77397,-0.4467 4.48708,-0.74898 6.7319,-0.75002 4.88343,-0.002 7.65452,1.10293 8.95766,3.57262 l 0.49451,0.93715 0.0587,5.282 0.0587,5.28202 1.36832,0.22073 1.36831,0.22073 v 2.27619 2.2762 h -4.32674 -4.32676 v -0.66687 c 0,-0.6591 -0.005,-0.66331 -0.41425,-0.36211 -1.89951,1.39732 -4.66054,1.99724 -7.22137,1.56912 z m 5.13171,-5.03146 c 1.1124,-0.4648 1.93296,-2.01588 1.94708,-3.68046 l 0.005,-0.53094 -1.79515,0.0877 c -1.3525,0.0662 -1.98715,0.18614 -2.57384,0.48671 -1.36303,0.69831 -1.76581,2.25294 -0.86198,3.32707 0.43379,0.51555 0.57504,0.56646 1.57091,0.56646 0.60182,0 1.37063,-0.11547 1.70846,-0.25662 z m 32.14674,5.03025 c -2.2488,-0.39335 -4.07768,-1.8372 -4.72416,-3.72958 -0.21141,-0.61888 -0.32055,-1.46734 -0.31188,-2.42491 0.0303,-3.3377 1.74073,-5.38302 5.25492,-6.28332 0.62358,-0.15975 2.38294,-0.34413 3.90964,-0.40973 l 2.77585,-0.11927 0.0568,-0.58666 c 0.1329,-1.37203 -0.9115,-2.26122 -2.81024,-2.39263 -1.47242,-0.10188 -1.92667,0.1556 -2.25152,1.27622 l -0.25352,0.87455 h -2.57206 -2.57206 v -2.92401 -2.92402 l 0.84671,-0.21319 c 2.98336,-0.75123 7.88724,-0.9761 10.47762,-0.48048 2.81806,0.53918 4.72806,1.85633 5.43951,3.7511 0.35159,0.93635 0.40156,1.54662 0.49504,6.04573 0.11765,5.66348 -0.0848,5.04911 1.75116,5.314 l 0.87456,0.12617 v 2.28055 2.28055 h -4.22634 -4.22634 l -0.12002,-0.63974 -0.12002,-0.63976 -0.77814,0.53539 c -1.63639,1.12585 -4.63433,1.68205 -6.91552,1.28304 z m 5.3025,-5.0323 c 1.11192,-0.57852 1.65156,-1.49123 1.81689,-3.07295 l 0.11907,-1.13917 -1.82411,0.0892 c -1.3624,0.0666 -2.0157,0.18735 -2.58124,0.47713 -1.4001,0.71736 -1.77683,2.56481 -0.71172,3.49026 0.38038,0.3305 0.69992,0.41425 1.58034,0.41425 0.60698,0 1.32732,-0.11639 1.60077,-0.25868 z m 45.88197,5.11855 c -1.91382,-0.22969 -3.11329,-0.51391 -4.12244,-0.97685 -3.11595,-1.4293 -4.52047,-4.13541 -4.52786,-8.72382 -0.007,-4.50829 1.33096,-7.57735 4.1547,-9.52856 2.60551,-1.80039 8.05163,-1.97914 10.88643,-0.3573 2.76988,1.58468 3.91009,4.17022 3.91652,8.88097 l 0.002,2.34748 h -6.16792 -6.16792 v 0.42127 c 0,0.84114 0.78845,2.04207 1.65706,2.52395 0.73631,0.4085 1.08735,0.46685 3.15441,0.52426 2.21456,0.0615 2.71433,0.003 5.63715,-0.65706 0.41326,-0.0934 0.41428,-0.0878 0.41428,2.31429 v 2.40789 l -0.69044,0.18306 c -1.78573,0.47347 -6.47015,0.84168 -8.14716,0.64042 z m 4.52951,-13.162 c -0.20452,-1.27901 -0.7792,-2.17952 -1.64045,-2.57054 -1.72902,-0.78497 -3.73592,-0.20492 -4.4931,1.29861 -0.22949,0.45568 -0.46994,1.09779 -0.53433,1.4269 l -0.11707,0.59838 h 3.45272 3.45271 z m 13.85235,13.06191 c -1.07969,-0.0879 -2.73675,-0.30528 -3.68235,-0.48297 l -1.71927,-0.32309 -0.0502,-3.26567 -0.0504,-3.26568 h 2.56948 c 2.84232,0 2.62703,-0.0992 2.87988,1.3283 0.17939,1.0126 0.45046,1.14115 2.57184,1.21967 1.72787,0.0639 1.9225,0.0368 2.27768,-0.31842 0.886651,-0.88665 0.39916,-1.34499 -2.75716,-2.59246 -3.30009,-1.30426 -4.10821,-1.72797 -5.14435,-2.69718 -1.33087,-1.24484 -1.71079,-2.2978 -1.6155,-4.47731 0.0849,-1.94187 0.41476,-2.82825 1.43042,-3.8439 0.72847,-0.72848 2.21095,-1.42089 3.58366,-1.67382 2.30061,-0.42387 6.889281,-0.17045 9.448203,0.52181 l 0.782491,0.21168 v 2.94397 2.94397 l -2.516503,-0.0512 -2.516541,-0.0513 -0.26453,-0.7944 c -0.3003,-0.90173 -0.71399,-1.13883 -1.98701,-1.13883 -0.57106,0 -0.92727,0.11075 -1.18478,0.36824 -0.84541,0.84541 -0.43308,1.18363 3.34429,2.74298 1.654261,0.68292 3.339143,1.45422 3.744199,1.71404 1.797882,1.15319 2.475154,2.44883 2.482445,4.74881 0.0068,2.07552 -0.372313,3.13061 -1.561858,4.34934 -1.107929,1.13507 -2.242489,1.60102 -4.603656,1.8906 -1.84435,0.22617 -2.60769,0.22517 -5.46054,-0.007 z m -83.23986,-0.17305 c -1.75297,-0.41301 -2.84528,-1.3923 -3.41253,-3.05945 -0.26067,-0.76612 -0.30858,-2.26169 -0.36242,-11.31077 l -0.062,-10.4279 -1.37118,-0.12849 -1.37115,-0.12849 v -2.26485 -2.26487 l 0.59837,-0.10985 c 0.32911,-0.0604 2.3959,-0.16507 4.59287,-0.23259 l 3.99448,-0.12275 0.056,11.76503 c 0.05,10.48787 0.0892,11.83805 0.36148,12.43774 0.36766,0.80984 0.74568,0.9507 2.5024,0.93252 l 1.33483,-0.0139 v 2.27586 c 0,2.58107 0.16512,2.34249 -1.84117,2.66053 -1.42173,0.22536 -4.04759,0.22126 -5.02003,-0.008 z m 31.53286,-2.63259 v -2.28055 l 0.87455,-0.12617 c 0.48101,-0.0694 1.06097,-0.17065 1.28881,-0.225 l 0.41427,-0.0989 v -9.71954 -9.71956 l -1.28882,-0.12941 -1.28881,-0.12944 v -2.26188 -2.26187 l 0.59838,-0.10986 c 0.32911,-0.0604 2.39962,-0.16518 4.60112,-0.23279 l 4.00272,-0.12296 0.0479,8.7903 0.0479,8.7903 1.97925,-1.51435 c 1.0886,-0.83291 1.97926,-1.58622 1.97926,-1.67402 0,-0.0879 -0.24178,-0.15965 -0.53729,-0.15965 -1.09705,0 -1.11977,-0.0452 -1.11977,-2.2291 v -2.00559 h 5.61557 5.61558 v 2.28905 c 0,2.54987 0.11053,2.35325 -1.46115,2.59857 -0.59546,0.0929 -1.3561,0.50277 -2.80778,1.51288 -1.09507,0.76198 -1.99106,1.45241 -1.99106,1.53431 0,0.25159 3.51341,6.50602 3.72992,6.63981 0.11177,0.0691 0.72923,0.22487 1.37212,0.34616 l 1.16892,0.22056 -0.0516,2.23355 -0.0515,2.23354 -3.50304,0.0499 -3.50304,0.0498 -2.09586,-4.23454 -2.09584,-4.23453 -1.12139,0.80141 c -1.07672,0.76951 -1.12365,0.83647 -1.17862,1.6813 -0.0662,1.01569 0.0342,1.11597 1.29124,1.28883 l 0.88337,0.12151 v 2.28419 2.28417 h -5.70763 -5.70763 z"
       id="path3777-36-3-9"
       inkscape:connector-curvature="0"
       inkscape:export-xdpi="96"
       inkscape:export-ydpi="96"
       inkscape:export-filename="/home/jamesrunnalls/git/datalakes/website/datalakes-react-app/datalakes/src/img/logocirc.png" />
    <circle
       style="fill:none;fill-opacity:1;fill-rule:evenodd;stroke:#000026;stroke-width:5;stroke-miterlimit:4;stroke-dasharray:none;stroke-opacity:1"
       id="path865"
       cx="-187.67102"
       cy="232.29756"
       r="100"
       inkscape:export-filename="/home/jamesrunnalls/git/datalakes/website/datalakes-react-app/datalakes/src/img/logocirc.png"
       inkscape:export-xdpi="96"
       inkscape:export-ydpi="96" />
  </g>
</svg>
