<?xml version="1.0" encoding="UTF-8" standalone="no"?>
<!-- Created with Inkscape (http://www.inkscape.org/) -->

<svg
   xmlns:dc="http://purl.org/dc/elements/1.1/"
   xmlns:cc="http://creativecommons.org/ns#"
   xmlns:rdf="http://www.w3.org/1999/02/22-rdf-syntax-ns#"
   xmlns:svg="http://www.w3.org/2000/svg"
   xmlns="http://www.w3.org/2000/svg"
   xmlns:sodipodi="http://sodipodi.sourceforge.net/DTD/sodipodi-0.dtd"
   xmlns:inkscape="http://www.inkscape.org/namespaces/inkscape"
   width="303.18674mm"
   height="130.86317mm"
   viewBox="0 0 303.18674 130.86317"
   version="1.1"
   id="svg834"
   inkscape:version="0.92.3 (2405546, 2018-03-11)"
   sodipodi:docname="carrtel.svg">
  <defs
     id="defs828" />
  <sodipodi:namedview
     id="base"
     pagecolor="#ffffff"
     bordercolor="#666666"
     borderopacity="1.0"
     inkscape:pageopacity="0.0"
     inkscape:pageshadow="2"
     inkscape:zoom="0.35"
     inkscape:cx="0.094153432"
     inkscape:cy="527.30047"
     inkscape:document-units="mm"
     inkscape:current-layer="layer1"
     showgrid="false"
     inkscape:window-width="1859"
     inkscape:window-height="1025"
     inkscape:window-x="61"
     inkscape:window-y="27"
     inkscape:window-maximized="1" />
  <metadata
     id="metadata831">
    <rdf:RDF>
      <cc:Work
         rdf:about="">
        <dc:format>image/svg+xml</dc:format>
        <dc:type
           rdf:resource="http://purl.org/dc/dcmitype/StillImage" />
        <dc:title></dc:title>
      </cc:Work>
    </rdf:RDF>
  </metadata>
  <g
     inkscape:label="Layer 1"
     inkscape:groupmode="layer"
     id="layer1"
     transform="translate(26.105269,-157.48508)">
    <path
       style="fill:#000000;stroke-width:0.26458332"
       d="m 211.98811,269.78834 c -0.0157,-10.20797 -0.0454,-23.08428 -0.0661,-28.61408 l -0.0377,-10.05416 22.80896,-0.13229 c 22.42021,-0.13005 22.81582,-0.14132 23.20878,-0.66146 0.53972,-0.71438 0.51524,-1.28397 -0.0782,-1.82105 -0.4558,-0.41251 -2.28904,-0.45231 -23.21719,-0.50403 l -22.72231,-0.0562 -0.069,-11.03807 -0.069,-11.03808 0.7835,-0.40515 c 1.07631,-0.55658 3.00952,-0.50975 4.19377,0.10157 0.5399,0.27871 1.45789,1.00338 2.03998,1.61036 1.54664,1.61282 3.32681,2.43959 5.55625,2.58051 2.57116,0.16253 4.25802,-0.50615 6.49025,-2.57273 1.96106,-1.81555 3.5674,-2.48214 5.13136,-2.12939 1.13313,0.25556 1.65356,0.60028 3.59193,2.37918 3.49615,3.20855 8.29387,3.16884 11.675,-0.0966 1.72953,-1.67034 2.84239,-2.27809 4.17076,-2.27764 1.46206,0 2.35715,0.46194 4.57018,2.35601 2.28094,1.9522 3.34565,2.3939 5.77781,2.39691 1.66806,0.003 2.22533,-0.11972 3.49594,-0.76417 0.83134,-0.42166 2.0483,-1.26976 2.70433,-1.88462 1.57128,-1.47273 2.22284,-1.91334 2.6094,-1.76464 0.38489,0.14803 1.03481,2.65946 1.79499,6.93616 0.80261,4.51551 1.00123,13.76524 0.39782,18.52789 -0.80996,6.39318 -2.51679,12.82666 -4.77136,17.98461 l -0.92522,2.11666 -19.99287,0.1323 c -17.38601,0.11504 -20.02557,0.18401 -20.2437,0.52916 -0.39711,0.62836 -0.30207,1.27974 0.27025,1.85209 0.5193,0.51929 0.88193,0.52916 19.44688,0.52916 11.64441,0 18.9177,0.0957 18.9177,0.24895 0,0.13695 -0.12075,0.32361 -0.26836,0.41484 -0.14759,0.0912 -0.52033,0.66379 -0.82831,1.27238 -1.74072,3.43982 -5.46041,8.30871 -9.60929,12.57808 -11.88932,12.23452 -26.88921,18.89723 -44.39351,19.71879 l -2.31511,0.10866 z m 11.51895,10.78992 c 0.49203,-0.49202 0.5478,-1.7276 0.0983,-2.17712 -0.44383,-0.44384 -1.66902,-0.39627 -2.06443,0.0802 -1.12197,1.35191 0.73292,3.3302 1.96616,2.09695 z m 6.81109,-0.0222 c 0.71893,-0.65061 0.63191,-1.88725 -0.15811,-2.24719 -1.52884,-0.69659 -2.78146,0.67212 -1.87756,2.05163 0.48281,0.73684 1.34593,0.81976 2.03567,0.19556 z m -14.70708,-11.14169 c 1.05252,-0.71239 0.84167,-2.58053 -0.3243,-2.87316 -1.43441,-0.36002 -2.32334,1.80316 -1.09465,2.66377 0.64712,0.45326 0.98498,0.50313 1.41895,0.20939 z m 7.18728,-0.40013 c 0.55798,-0.43174 0.4089,-1.98273 -0.22308,-2.32097 -1.27791,-0.68393 -2.52704,0.49302 -2.03347,1.91598 0.33538,0.96686 1.30541,1.14096 2.25655,0.40499 z m 31.39485,0.0937 c 0.62402,-0.51787 0.53176,-1.76496 -0.16674,-2.2542 -0.51263,-0.35906 -2.2357,-0.41188 -13.43488,-0.41188 -14.31986,0 -14.13737,-0.022 -13.97164,1.67302 0.15018,1.53572 0.0942,1.53008 14.27795,1.43187 10.17834,-0.0705 12.96225,-0.16237 13.29531,-0.43881 z m -8.3761,-8.17758 c 0.93554,-1.1611 -0.27006,-2.74368 -1.62115,-2.12807 -0.38166,0.17388 -0.69395,0.4064 -0.69395,0.51665 0,0.11025 -0.0703,0.38351 -0.15608,0.60722 -0.092,0.23973 0.11925,0.68209 0.51446,1.0773 0.70895,0.70895 1.34577,0.68514 1.95672,-0.0731 z m 5.53919,0.17372 c 0.33681,-0.31641 0.60859,-0.7629 0.60396,-0.99219 -0.0143,-0.70855 -0.72684,-1.40909 -1.43319,-1.40909 -2.02301,0 -1.93406,2.58667 0.10162,2.95566 0.0634,0.0114 0.39082,-0.23799 0.72761,-0.55438 z m -25.85628,-7.6767 c 0.64606,-0.69344 0.6885,-1.35077 0.12372,-1.91558 -0.34779,-0.34777 -1.2101,-0.41577 -5.27277,-0.41577 -4.06268,0 -4.92499,0.068 -5.27277,0.41577 -0.56627,0.56626 -0.52221,1.32987 0.11339,1.96548 0.48876,0.48874 0.88195,0.52917 5.14907,0.52917 4.41186,0 4.64419,-0.0262 5.15936,-0.57907 z m -5.16795,-11.21381 c 0.527,-0.52699 0.52829,-1.15792 0.004,-1.90658 -0.48773,-0.69633 -1.34092,-0.75991 -2.01469,-0.15016 -0.96735,0.87543 -0.33992,2.47254 0.97136,2.47254 0.34302,0 0.81076,-0.18712 1.03944,-0.4158 z m 15.96732,0.004 c 0.72995,-0.51128 0.75279,-1.27545 0.0589,-1.96937 -0.48835,-0.48832 -0.88194,-0.52917 -5.10051,-0.52917 -3.70919,0 -4.68222,0.0777 -5.15937,0.41188 -0.69633,0.48773 -0.75991,1.34093 -0.15015,2.0147 0.39264,0.43389 0.91945,0.48384 5.1005,0.48384 3.79182,0 4.77245,-0.0769 5.25066,-0.41188 z m 6.52227,-0.004 c 0.98039,-0.98038 0.0302,-2.72087 -1.30273,-2.3863 -0.39849,0.10001 -0.79036,0.45746 -0.94372,0.86082 -0.54099,1.42293 1.1802,2.59173 2.24645,1.52548 z m 25.33192,-0.0222 c 0.60172,-0.54454 0.62042,-1.3539 0.046,-1.98866 -0.40987,-0.45291 -1.09426,-0.48384 -10.70062,-0.48384 h -10.26274 l -0.41188,0.58804 c -0.52731,0.75284 -0.52051,1.23462 0.0259,1.83851 0.40976,0.4528 1.09202,0.48387 10.62863,0.48387 9.11132,0 10.24202,-0.0464 10.67464,-0.43789 z m -3.06149,-11.40626 c 0.60862,-0.40637 0.92908,-1.36453 0.63817,-1.90812 -0.70249,-1.31262 -2.43763,-1.07648 -2.60278,0.3542 -0.13978,1.21107 1.05854,2.15892 1.96461,1.55392 z m 6.92605,-0.20939 c 0.64783,-0.45376 0.79679,-1.65476 0.27053,-2.18104 -0.17462,-0.17462 -0.62706,-0.3175 -1.00541,-0.3175 -0.88408,0 -1.32292,0.45011 -1.32292,1.35694 0,0.74906 0.59584,1.55348 1.15065,1.55348 0.17552,0 0.58372,-0.18534 0.90715,-0.41188 z m -11.39047,-11.47096 c 4.24439,-0.023 4.29821,-0.0307 4.71516,-0.66712 0.34618,-0.52834 0.36391,-0.75358 0.0988,-1.25677 -0.17767,-0.33718 -0.454,-0.70054 -0.61413,-0.80745 -0.16012,-0.1069 -6.51213,-0.19619 -14.1156,-0.19844 -13.47451,-0.004 -13.83787,0.009 -14.35364,0.52512 -0.60812,0.60812 -0.6635,1.25616 -0.16357,1.91452 0.31644,0.41675 1.14316,0.46577 8.92128,0.52917 4.71487,0.0384 9.16781,0.0506 9.89541,0.0271 0.72761,-0.0236 3.25493,-0.0533 5.61629,-0.0662 z m -35.12664,-0.53517 c 0.45336,-0.84712 0.31218,-1.56763 -0.39841,-2.03322 -0.54142,-0.35475 -0.80037,-0.38213 -1.33033,-0.14068 -0.86095,0.39228 -1.04225,0.92853 -0.64123,1.89667 0.27053,0.65312 0.47916,0.78899 1.21145,0.78899 0.60382,0 0.97156,-0.16246 1.15852,-0.51176 z m 6.85419,-0.1801 c 0.63351,-1.39044 -0.42495,-2.53365 -1.75671,-1.89736 -1.39353,0.6658 -0.97218,2.58922 0.56722,2.58922 0.68604,0 0.94213,-0.14896 1.18949,-0.69186 z m -125.35913,53.67112 c -2.02995,-1.02343 -4.61756,-3.51975 -5.75291,-5.54995 -1.844288,-3.2979 -1.939088,-4.09811 -1.939088,-16.36736 0,-6.00067 0.0723,-11.09866 0.1606,-11.32883 0.13385,-0.34882 0.673678,-0.41785 3.241148,-0.41446 1.6943,0.003 3.23979,0.10498 3.43442,0.22836 0.19463,0.12335 0.3137,0.5085 0.26458,0.85584 -0.0866,0.61262 -0.16994,0.63379 -2.78292,0.70673 l -2.69363,0.0752 -0.007,9.5821 c -0.004,5.27016 0.077,10.0235 0.18009,10.56299 l 0.18745,0.98092 1.95531,-2.61618 c 1.07542,-1.43891 2.3134,-3.00826 2.75106,-3.48742 l 0.79575,-0.87125 1.09651,1.24609 1.0965,1.2461 2.05361,-2.77447 c 2.27181,-3.0693 2.81149,-3.35695 3.74501,-1.99623 0.29105,0.42423 1.22365,1.67706 2.07246,2.78408 l 1.54329,2.01276 0.7855,-1.08436 c 0.57115,-0.78844 0.942,-1.06178 1.35896,-1.00161 0.51559,0.0744 2.18857,2.03867 4.42625,5.19695 0.3638,0.51347 0.78052,0.94205 0.92604,0.95239 0.17112,0.0122 0.28904,-3.6462 0.33379,-10.35645 l 0.0692,-10.37527 -2.55467,-0.0758 c -2.04092,-0.0605 -2.61044,-0.16441 -2.83199,-0.5166 -0.20091,-0.31938 -0.18149,-0.55631 0.0705,-0.85989 0.48634,-0.58603 6.4032,-0.61786 6.88522,-0.0371 0.23893,0.28789 0.29238,3.17169 0.21698,11.70781 -0.0953,10.78949 -0.12739,11.40817 -0.67759,13.0647 -0.71396,2.14955 -2.19941,4.4631 -3.97169,6.18585 -1.49436,1.45259 -4.36039,3.11208 -4.97045,2.87798 -0.21608,-0.0829 -0.76783,-0.70197 -1.22611,-1.3757 -0.45828,-0.67371 -0.90139,-1.28445 -0.98468,-1.35721 -0.1542,-0.1347 -1.60943,-2.09674 -2.24342,-3.02474 -0.32317,-0.47302 -0.5002,-0.30517 -2.37207,2.24896 -2.38861,3.25924 -2.73788,3.68734 -3.00447,3.68263 -0.11056,-0.003 -0.84728,-0.32938 -1.63715,-0.72761 z m 3.8025,-4.89122 c 1.72927,-2.33153 2.44941,-3.10644 2.88013,-3.09914 0.42198,0.007 1.19579,0.84936 2.91709,3.175 1.28852,1.7409 2.48849,3.16529 2.66662,3.16529 0.98863,0 4.28019,-2.90185 4.03027,-3.55309 -0.11434,-0.29797 -1.48672,-2.17477 -6.52611,-8.92466 -1.38245,-1.85169 -2.64145,-3.57539 -2.79779,-3.83048 -0.249,-0.40624 -0.4276,-0.26863 -1.43979,1.10921 -0.63554,0.86514 -2.8697,3.87808 -4.9648,6.69547 l -3.80926,5.12249 0.88342,0.92488 c 1.12559,1.17835 3.45746,2.7731 3.68251,2.51841 0.0945,-0.107 1.20951,-1.59351 2.47771,-3.30338 z m -38.217413,3.48851 c -3.706122,-0.35851 -6.56866,-1.73736 -9.260417,-4.46059 -1.698905,-1.71878 -1.731841,-1.73693 -2.711979,-1.49481 -0.545703,0.1348 -0.991751,0.37293 -0.991217,0.52916 5.3e-4,0.15624 0.353627,1.17706 0.784644,2.26846 1.200745,3.04046 1.293989,2.91042 -2.086648,2.91042 h -2.888533 l -0.420801,-1.12448 c -0.231441,-0.61846 -0.639524,-1.77932 -0.906854,-2.57969 l -0.486055,-1.45521 -5.710161,-0.0713 -5.710164,-0.0713 -0.188147,0.60042 c -0.103482,0.33022 -0.53839,1.52056 -0.966462,2.6452 l -0.778315,2.04478 h -6.001443 -6.001443 l -0.574799,-1.1194 c -0.31614,-0.61595 -1.611403,-3.11396 -2.878358,-5.55144 l -2.303557,-4.43177 h -2.344021 -2.34402 l -0.01357,0.72761 c -0.0075,0.40018 -0.03722,2.87072 -0.06615,5.4901 l -0.05258,4.7625 -2.846496,0.0751 -2.846496,0.0751 0.06837,-14.75949 0.06838,-14.75949 h 6.746875 c 6.5181,0 6.808632,0.0222 8.56814,0.6567 2.208323,0.79629 4.096472,2.45538 4.973711,4.37038 0.509845,1.11297 0.602565,1.74281 0.584256,3.96875 -0.01543,1.87474 -0.152498,2.94019 -0.470363,3.65588 -0.540565,1.21709 -2.269945,3.14352 -3.510029,3.90991 l -0.902615,0.55785 1.508844,2.81736 c 0.829863,1.54953 2.242947,4.22151 3.140187,5.9377 l 1.631341,3.12036 1.513187,-4.0464 c 0.832252,-2.22552 1.683244,-4.46313 1.891096,-4.97245 0.207851,-0.50932 1.040011,-2.71198 1.849241,-4.89479 0.809234,-2.18281 2.138633,-5.75469 2.954221,-7.9375 0.815589,-2.18281 1.749621,-4.68312 2.075625,-5.55625 l 0.592733,-1.5875 h 2.582365 2.582365 l 0.654092,1.71979 c 0.359754,0.94589 1.096582,2.91042 1.637401,4.36563 5.271301,14.18378 4.748392,12.93611 5.461849,13.03223 1.066321,0.14367 1.221745,-0.249 0.929688,-2.34878 -1.045218,-7.51486 3.882321,-14.79968 11.346415,-16.77448 1.901963,-0.50318 5.045062,-0.49511 7.022012,0.018 3.27129,0.84918 6.20715,2.59879 6.20715,3.69917 0,0.91876 -2.4477,5.55987 -4.11251,7.79774 -2.80843,3.77519 -6.236041,6.79612 -10.102122,8.90353 -1.204243,0.65643 -2.18953,1.29262 -2.18953,1.41377 0,0.49773 2.369061,1.91323 4.066344,2.42962 5.824928,1.77212 11.681628,-2.2482 12.434958,-8.53597 0.15407,-1.28595 1.21263,-3.65106 1.88321,-4.20761 0.2205,-0.18296 0.4009,-0.42892 0.4009,-0.54652 0,-0.41212 1.19368,-2.08034 1.49649,-2.09143 0.55753,-0.0204 1.202,2.45703 1.34122,5.15588 0.11176,2.1666 0.0367,3.01628 -0.40931,4.63021 -0.73732,2.66838 -1.95006,4.80563 -3.74586,6.60143 -3.41946,3.41945 -7.53362,4.93525 -12.176285,4.48615 z M 51.679083,260.0008 c 0,-0.19556 -0.597688,-2.07079 -1.3282,-4.16719 -1.960126,-5.62509 -2.435183,-6.88332 -2.554041,-6.76444 -0.19403,0.19402 -3.788752,10.71142 -3.790014,11.08876 -2.64e-4,0.10915 1.725745,0.19844 3.835797,0.19844 3.035692,0 3.836458,-0.0742 3.836458,-0.35557 z m 14.131034,-2.42951 c 1.972492,-0.82415 4.829754,-2.90401 7.033461,-5.11974 2.045474,-2.05666 4.500084,-5.26952 4.500084,-5.89021 0,-0.89072 -4.521629,-1.03775 -6.711884,-0.21825 -4.225571,1.58099 -7.18769,6.52026 -6.406735,10.68311 0.202269,1.07817 0.260924,1.09836 1.585074,0.54509 z m -40.589367,-3.7033 c 1.120262,-0.64749 2.116667,-2.48195 2.116667,-3.89702 0,-1.49608 -0.87566,-3.00445 -2.109687,-3.634 -0.874393,-0.44609 -1.559317,-0.53271 -4.211148,-0.53271 h -3.166915 l -0.08797,4.16719 c -0.04838,2.29195 -0.04241,4.26831 0.01326,4.39195 0.05568,0.12361 1.545394,0.18314 3.310488,0.13229 2.626937,-0.0757 3.37729,-0.1896 4.1353,-0.6277 z m -51.152783,16.36612 c -0.220371,-0.22037 -0.235743,-28.46525 -0.01588,-29.03842 0.132213,-0.34448 0.647039,-0.41851 2.910417,-0.41851 h 2.749815 v 14.81666 14.81667 H -23.0217 c -1.503707,0 -2.813394,-0.0794 -2.910417,-0.1764 z m 10.142353,-14.63132 v -14.82561 h 2.774817 2.774818 l 0.6927321,1.12448 c 0.381,0.61846 0.958639,1.54119 1.2836,2.05052 0.324987,0.50932 1.105289,1.75948 1.734026,2.77812 0.628737,1.01865 1.702514,2.74505 2.386174,3.83646 0.683657,1.09141 2.229551,3.56547 3.43532096,5.49794 1.205767,1.93243 2.29715504,3.57835 2.42530604,3.65754 0.132662,0.082 0.227489,-3.82368 0.220202,-9.06981 -0.007,-5.06759 -0.0099,-9.36667 -0.0064,-9.55349 0.0049,-0.25974 0.673823,-0.322 2.843006,-0.26459 l 2.836561,0.0751 -0.02291,14.68438 -0.02294,14.68438 -2.770518,0.0746 -2.770521,0.0747 -0.969153,-1.45965 c -0.53303504,-0.8028 -0.96915604,-1.51572 -0.96915604,-1.58425 0,-0.0686 -0.267891,-0.5234 -0.595313,-1.01079 -0.327421,-0.48738 -1.25015596,-1.93598 -2.05051996,-3.2191 -0.800365,-1.28312 -1.883932,-3.003 -2.407928,-3.82193 -0.523997,-0.81897 -1.86345,-2.97556 -2.976568,-4.79243 -1.113102,-1.8169 -2.030545,-3.18611 -2.038721,-3.04271 -0.0082,0.14338 -0.03797,4.42791 -0.06614,9.52114 l -0.05128,9.26042 -2.84427,0.0751 -2.844271,0.0751 z m 159.97835,12.69185 c -2.89621,-0.89956 -3.46676,-5.25127 -0.89674,-6.83964 2.64433,-1.63428 5.8657,0.21942 5.8184,3.34814 -0.0377,2.49674 -2.50014,4.2436 -4.92166,3.4915 z m 2.88473,-1.97316 c 1.88167,-1.88166 -0.48492,-5.0822 -2.82995,-3.82717 -0.81929,0.43847 -1.34135,1.90775 -0.99838,2.80982 0.46725,1.22896 1.03187,1.6668 2.14954,1.6668 0.74012,0 1.21184,-0.18249 1.67879,-0.64945 z m 53.15611,1.86478 c -2.78747,-1.21414 -3.14126,-5.0656 -0.612,-6.66226 1.21055,-0.76417 2.84731,-0.84053 3.95773,-0.18457 0.85169,0.5031 0.96312,0.9072 0.38292,1.38872 -0.30542,0.25347 -0.51005,0.23272 -0.98492,-0.0999 -0.93584,-0.65551 -2.00537,-0.52436 -2.88326,0.35353 -2.06752,2.06754 0.30005,4.9353 3.04277,3.68562 0.51609,-0.23513 0.75872,-0.22659 1.07746,0.0379 0.37101,0.30793 0.36789,0.3895 -0.0318,0.83117 -0.42917,0.47423 -1.93471,1.02819 -2.74513,1.01004 -0.21828,-0.005 -0.75997,-0.16703 -1.20374,-0.36031 z m -67.26467,-3.53044 0.0736,-3.63802 0.69942,-0.081 c 0.60406,-0.07 0.83214,0.13748 1.6728,1.52136 0.53536,0.8813 1.0814,1.60237 1.21343,1.60237 0.13203,0 0.47654,-0.44649 0.76559,-0.99219 0.89433,-1.68844 1.44867,-2.24031 2.15067,-2.14117 0.63969,0.0903 0.64208,0.10279 0.71545,3.72867 l 0.0736,3.63802 h -0.80122 -0.80121 v -2.44599 -2.446 l -0.96463,1.51996 c -0.53054,0.83597 -1.06164,1.51995 -1.18022,1.51995 -0.11858,0 -0.60723,-0.59918 -1.0859,-1.33152 l -0.87029,-1.33151 -0.0765,2.25755 -0.0764,2.25756 h -0.79091 -0.79092 z m 17.66841,-0.0661 c 0,-3.69033 0.002,-3.70417 0.60938,-3.70417 0.45714,0 1.03062,0.56515 2.29539,2.26203 0.9273,1.24412 1.79182,2.32743 1.92115,2.40736 0.13195,0.0815 0.20976,-0.88209 0.1773,-2.19588 l -0.0578,-2.34122 0.70231,-0.0837 0.7023,-0.0837 v 3.72173 c 0,3.70541 -0.003,3.72176 -0.60755,3.72176 -0.55925,0 -1.47715,-1.00052 -4.00517,-4.36562 -0.3633,-0.48361 -0.39826,-0.31843 -0.40595,1.91823 -0.008,2.43191 -0.0126,2.44739 -0.66987,2.44739 h -0.66146 z m 9.77718,3.50572 c -0.007,-0.10914 -0.0366,-1.44859 -0.0662,-2.97656 l -0.0537,-2.77812 H 159.295 c -0.73645,0 -1.03594,-0.12745 -1.15077,-0.48967 -0.26518,-0.83648 0.24905,-0.98753 3.0953,-0.90913 2.72217,0.075 2.75517,0.0836 2.75517,0.72022 0,0.57251 -0.11802,0.64624 -1.05834,0.66146 l -1.05833,0.0172 -0.0748,2.97656 c -0.0746,2.96786 -0.0767,2.97656 -0.72761,2.97656 -0.35903,0 -0.65837,-0.0893 -0.66519,-0.19844 z m 7.9499,-3.24114 c 0,-1.89177 -0.0298,-3.52888 -0.0661,-3.63802 -0.11915,-0.35745 3.86307,-0.35431 4.55884,0.004 1.01653,0.52287 1.36788,1.43963 0.9422,2.45843 -0.31514,0.75422 -0.2996,0.88646 0.14939,1.2709 0.76834,0.65786 0.66597,2.11825 -0.19601,2.7963 -0.5862,0.46112 -1.07039,0.54838 -3.04271,0.54838 h -2.34557 z m 4.45012,1.38948 c 0.10013,-0.705 -0.90379,-1.19713 -2.18627,-1.07169 -0.70208,0.0687 -0.8197,0.1942 -0.89257,0.95271 l -0.0839,0.87363 1.53914,-0.0799 c 1.36564,-0.0709 1.54867,-0.14695 1.62364,-0.67477 z m -0.46296,-2.6023 c 0.59238,-0.71377 -0.0259,-1.30072 -1.37016,-1.30072 -1.11734,0 -1.16496,0.0329 -1.2447,0.85989 -0.0823,0.8535 -0.0742,0.8599 1.09208,0.8599 0.7493,0 1.30099,-0.15182 1.52278,-0.41907 z m 3.42117,0.94824 v -3.70417 h 0.66146 0.66146 v 3.04271 3.04271 h 1.85208 c 1.79917,0 1.85209,0.0188 1.85209,0.66145 0,0.65913 -0.009,0.66146 -2.51354,0.66146 h -2.51355 z m 5.96454,3.10885 c 0.15662,-0.51985 0.74593,-1.92712 2.43751,-5.82083 0.53976,-1.24246 1.44791,-1.36179 2.01382,-0.26459 0.44388,0.86059 2.8133,6.38577 2.8133,6.56027 0,0.0662 -0.33108,0.12046 -0.73574,0.12046 -0.57453,0 -0.8014,-0.17394 -1.03535,-0.79375 -0.2905,-0.76962 -0.35181,-0.79375 -2.0165,-0.79375 -1.66978,0 -1.72449,0.0217 -1.9936,0.79375 -0.21247,0.6095 -0.43757,0.79375 -0.96975,0.79375 -0.59547,0 -0.6678,-0.0838 -0.51369,-0.59531 z m 4.6188,-2.45795 c 0,-0.0786 -0.25656,-0.6441 -0.57014,-1.25677 l -0.57014,-1.11393 -0.46857,1.05834 c -0.64314,1.45261 -0.64216,1.45521 0.55051,1.45521 0.58209,0 1.05834,-0.0643 1.05834,-0.14285 z m 3.76273,-0.56645 c 0.0709,-3.51602 0.0956,-3.65945 0.64404,-3.73761 0.40467,-0.0577 0.78846,0.2113 1.32141,0.92604 0.4131,0.55401 0.81801,1.06685 0.89979,1.13962 0.0818,0.0728 0.58368,0.70866 1.11533,1.41313 l 0.96664,1.28088 0.0768,-2.33921 c 0.0735,-2.2397 0.10259,-2.33918 0.68314,-2.33918 0.60082,0 0.60658,0.0325 0.63277,3.57188 l 0.0264,3.57187 -0.63278,0.0713 c -0.52416,0.0591 -0.92798,-0.33689 -2.35256,-2.30682 -0.94589,-1.30797 -1.79097,-2.38189 -1.87796,-2.38644 -0.087,-0.004 -0.15899,1.03352 -0.16001,2.30683 -0.002,2.31161 -0.003,2.31521 -0.70932,2.39956 l -0.70747,0.0844 0.0737,-3.6563 z m -56.31691,-7.08014 c -1.06381,-0.46297 -1.31879,-0.89265 -0.82356,-1.3879 0.35066,-0.35065 0.48712,-0.3478 1.20879,0.0254 1.04174,0.53872 2.00207,0.53615 2.45245,-0.007 0.30395,-0.36624 0.26664,-0.49837 -0.2615,-0.92604 -0.33882,-0.27435 -0.84689,-0.49882 -1.12903,-0.49882 -1.61498,0 -2.88511,-1.59152 -2.3333,-2.9237 0.58666,-1.41634 3.17071,-1.90518 4.47522,-0.84661 0.51099,0.41463 0.53086,0.51726 0.19024,0.98218 -0.28576,0.39005 -0.46975,0.44823 -0.73973,0.23395 -0.57959,-0.46003 -1.77738,-0.57407 -2.26729,-0.21585 -0.62515,0.45715 -0.0817,1.08945 1.24275,1.44611 1.98362,0.53414 2.80992,1.76075 2.22062,3.29644 -0.41264,1.07529 -2.65358,1.50988 -4.23566,0.82138 z m 5.12909,0.22823 c -0.14501,-0.14502 0.38944,-1.44444 2.24138,-5.44949 0.75872,-1.64084 1.40138,-2.24198 1.9668,-1.8397 0.23458,0.1669 2.88547,6.17683 3.0464,6.9066 0.0521,0.23619 -0.14752,0.42629 -0.50495,0.48088 -0.45806,0.07 -0.69238,-0.12216 -1.04119,-0.85363 -0.44373,-0.93051 -0.47309,-0.94387 -2.07189,-0.94387 -1.59297,0 -1.62963,0.0164 -2.06339,0.92604 -0.40385,0.84688 -1.13842,1.2079 -1.57316,0.77317 z m 4.5515,-3.35286 c -0.006,-0.1819 -0.22529,-0.73271 -0.48708,-1.22401 l -0.47599,-0.89329 -0.43896,1.09707 c -0.24143,0.60338 -0.43897,1.15419 -0.43897,1.22402 0,0.0698 0.41672,0.12694 0.92605,0.12694 0.57036,0 0.92178,-0.12702 0.91495,-0.33073 z m 5.30275,3.41442 c 0,-0.0502 -0.65484,-1.68677 -1.4552,-3.6368 -0.80037,-1.95003 -1.45521,-3.57582 -1.45521,-3.61286 0,-0.0371 0.34489,-0.0674 0.76641,-0.0674 0.72342,0 0.8211,0.14113 1.74125,2.5159 0.8836,2.28044 1.46109,2.974 1.46109,1.75472 0,-0.25334 0.10056,-0.57373 0.22347,-0.71197 0.12292,-0.13825 0.49462,-0.9955 0.82601,-1.905 0.54869,-1.50588 0.67059,-1.65365 1.36403,-1.65365 0.41882,0 0.76149,0.0457 0.76149,0.10152 0,0.10666 -1.82924,4.61373 -2.56285,6.31463 -0.3206,0.74331 -0.58376,0.99218 -1.04921,0.99218 -0.3417,0 -0.62128,-0.0411 -0.62128,-0.0913 z m 6.43053,-0.42621 c -1.77541,-1.08254 -2.31487,-2.90764 -1.44241,-4.87998 0.45017,-1.01769 0.76754,-1.33506 1.78522,-1.78522 3.4295,-1.51704 6.58811,1.8156 4.96421,5.23769 -0.82933,1.74768 -3.57199,2.48542 -5.30702,1.42751 z m 3.07555,-1.19248 c 0.84978,-0.43944 1.07726,-0.88061 1.07726,-2.08923 0,-1.76776 -1.47594,-2.82559 -3.03407,-2.17456 -1.66313,0.69491 -1.99716,2.57078 -0.69045,3.87747 0.8619,0.86191 1.53704,0.96041 2.64726,0.38632 z m 4.21108,1.5267 c -0.0501,-0.11748 -0.0547,-1.79115 -0.0103,-3.7193 l 0.0809,-3.50573 h 0.65421 0.65422 l -0.0736,3.63798 c -0.0708,3.49737 -0.0957,3.64114 -0.64396,3.7193 -0.31369,0.0447 -0.61135,-0.0148 -0.66146,-0.13229 z m 3.13666,0.0156 c -0.10179,-0.10179 -0.18507,-1.77258 -0.18507,-3.71284 v -3.52777 h 2.77813 2.77812 v 0.66146 c 0,0.64674 -0.0441,0.66145 -1.98437,0.66145 h -1.98438 v 0.78166 c 0,0.78089 0.002,0.78174 1.78594,0.8599 1.62274,0.0711 1.79367,0.13263 1.87049,0.67355 0.0808,0.5692 0.002,0.59531 -1.78594,0.59531 h -1.87049 v 0.92604 0.92604 h 2.13507 c 2.06281,0 2.13221,0.0201 2.05052,0.59532 -0.0804,0.56639 -0.21372,0.59893 -2.74375,0.6701 -1.46257,0.0412 -2.74249,-0.008 -2.84427,-0.11022 z m -55.54913,-8.04881 c -0.35134,-0.20979 -0.46302,-0.62749 -0.46302,-1.73173 v -1.45526 l 1.52136,0.0794 1.52135,0.0794 v 1.5875 1.5875 l -1.05833,0.0649 c -0.58209,0.0357 -1.2667,-0.0595 -1.52136,-0.21159 z m 4.40764,-0.0854 c -0.0769,-0.2004 -0.10292,-0.94454 -0.0578,-1.65365 l 0.082,-1.28929 h 1.5875 1.5875 l -0.0683,1.32292 c -0.045,0.87111 -0.22039,1.43587 -0.5136,1.65364 -0.60836,0.45186 -2.43995,0.42834 -2.61722,-0.0336 z m 20.32083,-2.31553 c -1.44922,-0.41794 -1.90601,-1.50294 -1.90717,-4.53001 -0.001,-2.57556 8e-5,-2.57969 0.66047,-2.57969 0.65532,0 0.66146,0.0217 0.66146,2.32238 0,2.82004 0.34357,3.49845 1.77177,3.49845 1.39818,0 1.64956,-0.51104 1.6594,-3.37343 l 0.008,-2.4474 h 0.82376 0.82376 l -0.10205,2.75685 c -0.11289,3.04964 -0.36995,3.60119 -1.99999,4.29112 -0.96288,0.40754 -1.18127,0.41315 -2.39982,0.0617 z m 40.82205,0.0463 c -1.71985,-0.40082 -2.38284,-1.09548 -1.69859,-1.77975 0.20465,-0.20463 0.65615,-0.1293 1.59044,0.26543 1.23443,0.52155 1.32919,0.52668 1.76026,0.0956 0.66428,-0.66429 0.18243,-1.23706 -1.50292,-1.78646 -0.77479,-0.25258 -1.51044,-0.61979 -1.63479,-0.81601 -0.41915,-0.6614 -0.26029,-2.23549 0.27444,-2.71941 0.73247,-0.66286 2.36625,-0.81253 3.53573,-0.3239 1.0337,0.4319 1.12851,0.59116 0.72854,1.22359 -0.20558,0.32507 -0.39308,0.33594 -1.13921,0.0662 -1.215,-0.43934 -2.03106,-0.40566 -2.22192,0.0917 -0.22461,0.58534 0.22966,0.94718 1.96182,1.56263 1.14292,0.40611 1.56804,0.70382 1.75165,1.22669 0.66268,1.88719 -1.14252,3.42111 -3.40545,2.89372 z m -34.84324,-0.21072 c -0.045,-0.10914 -0.0452,-1.71649 -5.2e-4,-3.57188 l 0.0813,-3.37343 0.71249,0.006 c 0.55215,0.005 0.93759,0.31699 1.71286,1.38906 0.55021,0.76083 1.32412,1.77474 1.71979,2.25311 l 0.71941,0.86979 -0.0856,-2.25885 -0.0856,-2.25883 h 0.81319 0.81319 v 3.57188 3.57187 h -0.64957 c -0.50089,0 -1.01564,-0.48088 -2.24896,-2.10105 -0.87967,-1.1556 -1.71846,-2.17464 -1.86398,-2.26457 -0.16851,-0.10414 -0.26457,0.65876 -0.26457,2.10105 0,2.22454 -0.0114,2.26457 -0.64585,2.26457 -0.35521,0 -0.68263,-0.0893 -0.7276,-0.19844 z m 7.98803,-3.35587 v -3.58944 h 0.80144 0.80142 l -0.0738,3.50573 -0.0738,3.50573 -0.7276,0.0837 -0.72761,0.0837 z m 5.39289,3.10899 c -0.0882,-0.2644 -0.55399,-1.43322 -1.03508,-2.59739 -0.48109,-1.16417 -1.05702,-2.56315 -1.27984,-3.10886 l -0.40513,-0.99218 h 0.76787 c 0.83382,0 1.23757,0.66251 2.23648,3.66995 0.2566,0.77256 0.55219,1.30466 0.65686,1.18245 0.10468,-0.12221 0.58484,-1.26399 1.06704,-2.5373 0.8201,-2.16561 0.92552,-2.3151 1.6326,-2.3151 0.41575,0 0.7559,0.0356 0.7559,0.0791 0,0.0435 -0.636,1.62107 -1.41332,3.50573 -1.27348,3.08755 -1.48307,3.4349 -2.11817,3.51046 -0.49441,0.0588 -0.75273,-0.0597 -0.86521,-0.39687 z m 5.45503,-3.12656 c 0,-2.67255 0.0833,-3.57592 0.33073,-3.58793 0.1819,-0.009 1.4321,-0.0386 2.77821,-0.0661 2.37661,-0.0487 2.44748,-0.0329 2.4474,0.54522 -8e-5,0.56444 -0.10301,0.59532 -1.98446,0.59532 h -1.98438 v 0.92604 0.92604 h 1.6757 c 1.8709,0 2.0296,0.0708 1.83404,0.81862 -0.11369,0.43476 -0.34415,0.51631 -1.36029,0.48133 -2.08939,-0.0719 -2.14945,-0.0491 -2.14945,0.81672 v 0.79375 h 1.98438 c 1.94027,0 1.98437,0.0148 1.98437,0.66145 v 0.66146 h -2.77812 -2.77813 z m 6.87917,0 v -3.57187 h 2.39327 c 2.18824,0 2.44892,0.0556 3.04271,0.64942 0.96187,0.96186 0.88771,2.27803 -0.17892,3.17555 l -0.82836,0.69702 0.82836,1.03076 c 1.01793,1.2667 1.03848,1.59116 0.10075,1.59041 -0.56685,0 -0.90297,-0.26222 -1.52135,-1.1848 -0.61539,-0.91813 -0.95725,-1.18554 -1.52136,-1.19007 -0.68682,-0.006 -0.7276,0.0609 -0.7276,1.18483 0,1.14652 -0.0294,1.19063 -0.79375,1.19063 h -0.79375 z m 3.98614,-0.40619 c 0.2904,-0.15541 0.51177,-0.55197 0.51177,-0.91672 0,-0.776 -0.68499,-1.19063 -1.96698,-1.19063 -0.94175,0 -0.94343,0.003 -0.94343,1.19063 0,1.1885 0.002,1.19062 0.94343,1.19062 0.51889,0 1.17374,-0.12327 1.45521,-0.2739 z m 10.03677,0.40619 v -3.57187 h 0.79375 0.79375 v 3.57187 3.57188 h -0.79375 -0.79375 z m 4.96961,0.59531 -0.0748,-2.97656 -1.12448,-0.0814 c -0.90908,-0.0658 -1.12448,-0.17981 -1.12448,-0.59531 0,-0.30038 0.1924,-0.52782 0.46302,-0.54732 0.35738,-0.0257 4.27486,-0.006 5.42396,0.0276 0.10914,0.003 0.19843,0.23704 0.19843,0.51972 0,0.4155 -0.2154,0.52954 -1.12447,0.59532 l -1.12448,0.0814 -0.0748,2.97656 c -0.0743,2.95677 -0.0791,2.97656 -0.71894,2.97656 -0.63985,0 -0.64463,-0.0198 -0.71894,-2.97656 z m 4.99637,2.80017 c -0.097,-0.097 -0.17639,-1.69495 -0.17639,-3.55097 v -3.37458 l 1.91823,-0.0871 c 2.91042,-0.13208 3.63802,-0.0138 3.63802,0.59116 0,0.46127 -0.19803,0.51242 -1.98438,0.51242 h -1.98437 v 0.92604 0.92604 h 1.71979 c 1.67098,0 1.71979,0.0193 1.71979,0.68064 0,0.65 -0.0625,0.67876 -1.38906,0.63889 -2.31892,-0.0697 -2.31511,-0.071 -2.31511,0.786 v 0.78261 l 2.05053,0.0773 c 1.89765,0.0715 2.05682,0.12166 2.13506,0.6726 0.0828,0.58295 0.0303,0.59531 -2.53559,0.59531 -1.44107,0 -2.69951,-0.0794 -2.79652,-0.1764 z m -80.87431,-3.77915 v -1.6007 h 1.6007 1.60071 l -0.0794,1.52135 -0.0793,1.52136 -1.52135,0.0794 -1.52136,0.0793 z m 4.95043,1.40943 c -0.10336,-0.10334 -0.18793,-0.82859 -0.18793,-1.61165 v -1.42375 l 1.65365,0.0788 1.65364,0.0788 v 1.45521 1.45521 l -1.46571,0.0777 c -0.80614,0.0427 -1.55028,-0.007 -1.65365,-0.11026 z m -6.49105,-4.93805 c -0.35133,-0.4233 -1.20077,-5.64353 -1.00244,-6.16037 0.0799,-0.20812 0.39664,-0.37838 0.70396,-0.37838 0.40455,0 0.67148,0.28697 0.96722,1.03984 0.46038,1.17202 1.44348,1.73823 2.54014,1.46299 0.82865,-0.20799 1.21135,-0.62902 1.47799,-1.62603 0.14794,-0.55316 0.36169,-0.74451 0.83163,-0.74451 0.49046,0 0.68959,0.19899 0.88663,0.88599 0.17635,0.61491 0.52343,1.01443 1.13438,1.30577 0.8076,0.38512 0.95592,0.38372 1.79642,-0.0172 0.65473,-0.31221 0.98039,-0.68482 1.1413,-1.30577 0.17693,-0.68279 0.36323,-0.8689 0.86979,-0.8689 0.48591,0 0.66802,0.16288 0.73959,0.66146 0.10391,0.72396 -0.37388,3.86003 -0.79612,5.22552 l -0.26591,0.8599 h -5.37104 c -4.05541,0 -5.44024,-0.0834 -5.65354,-0.34039 z m 9.7427,-1.87798 c 0,-0.26355 -0.35456,-0.36095 -1.26419,-0.34724 -0.78623,0.0119 -1.57843,-0.16653 -2.09531,-0.47186 -0.80982,-0.47837 -0.85029,-0.47831 -1.58007,0.003 -0.48015,0.3161 -1.24743,0.49824 -2.13777,0.50744 -1.33573,0.0138 -1.59273,0.11965 -1.21293,0.49946 0.097,0.097 2.00201,0.17637 4.23333,0.17637 3.27929,3e-5 4.05694,-0.0702 4.05694,-0.36629 z m 74.87709,1.48352 c 0,-0.48006 0.86292,-1.38179 1.3223,-1.38179 0.79363,0 0.93692,0.56761 0.27799,1.10117 -0.60397,0.48906 -1.60029,0.66376 -1.60029,0.28062 z M -8.1826979,206.37222 c -5.1175711,-0.86138 -8.9594261,-4.39622 -10.1177191,-9.3091 -0.566632,-2.40329 -0.574278,-27.51744 -0.0093,-30.18423 0.674688,-3.18418 3.20339,-6.46205 6.122855,-7.93689 4.0322501,-2.037 10.9049721,-1.92193 14.6016911,0.2445 1.51543,0.8881 3.491246,2.69127 3.491246,3.18614 0,0.31988 -0.894255,1.79811 -1.333638,2.20456 -0.07866,0.0728 -1.258646,1.65164 -2.622198,3.50862 -3.198186,4.35549 -3.187915,4.34752 -3.187915,2.4684 0,-1.75024 -0.444336,-2.93941 -1.442426,-3.86035 -0.607557,-0.5606 -0.972616,-0.66146 -2.394032,-0.66146 -1.423805,0 -1.784099,0.0999 -2.385073,0.66146 -1.488837,1.39113 -1.451399,0.98994 -1.451399,15.54964 v 13.45928 l 0.933794,1.0909 c 0.744294,0.86955 1.169766,1.12628 2.096821,1.26532 1.588158,0.23815 2.905828,-0.24887 3.782298,-1.39798 0.608182,-0.79738 0.737018,-1.26198 0.819451,-2.95508 0.0538,-1.10493 0.219544,-2.15897 0.36832696,-2.3423 0.266729,-0.32864 3.30784504,-0.28972 7.80817704,0.1 l 1.653646,0.14319 v 1.81798 c 0,5.11498 -2.413503,9.37757 -6.555716,11.57835 -2.61874804,1.39136 -6.747325,1.94664 -10.178982,1.36906 z m 19.7347529,-0.66808 c -0.08709,-0.22693 0.09302,-1.50685 0.40023,-2.84427 0.307216,-1.33739 0.979929,-4.39616 1.494925,-6.79725 0.514995,-2.40109 1.167111,-5.37766 1.449149,-6.61458 0.282038,-1.23693 0.94216,-4.27302 1.466938,-6.74688 1.309483,-6.17304 2.158116,-10.08166 2.901016,-13.36146 0.346096,-1.52797 0.709027,-3.25437 0.806518,-3.83645 0.09749,-0.58209 0.449739,-2.18943 0.782775,-3.57188 0.333037,-1.38245 0.680247,-2.84096 0.771581,-3.24115 0.162526,-0.71212 0.207185,-0.7276 2.096802,-0.7276 3.689807,0 6.041009,0.71334 7.989284,2.42395 1.449316,1.27252 1.93567,2.52021 3.06619,7.86591 0.572699,2.70803 1.210178,5.69759 1.416619,6.64347 0.364003,1.66778 1.368504,6.32749 2.652204,12.30313 0.953638,4.43915 1.651934,7.68255 2.250094,10.45104 1.318567,6.10275 1.61839,7.7383 1.483159,8.09072 -0.116824,0.30443 -0.988817,0.37518 -4.58434,0.3719 -2.442041,-0.003 -4.604089,-0.10795 -4.804553,-0.23492 -0.225753,-0.14299 -0.553188,-1.47577 -0.86029,-3.50169 -0.272698,-1.79895 -0.552514,-3.42246 -0.621814,-3.6078 -0.09682,-0.25898 -1.181552,-0.32025 -4.684352,-0.26458 l -4.558353,0.0724 -0.175252,0.92604 c -0.09639,0.50932 -0.383741,2.05713 -0.638561,3.43958 -0.254821,1.38245 -0.582711,2.66237 -0.728647,2.84427 -0.193416,0.24106 -1.478005,0.33073 -4.739161,0.33073 -3.808545,0 -4.497369,-0.0614 -4.632161,-0.41264 z m 18.580238,-16.05767 c -0.100746,-0.61846 -0.412795,-2.70062 -0.693444,-4.62706 -0.280649,-1.9264 -0.621305,-4.00999 -0.757016,-4.6302 -0.135707,-0.62019 -0.443788,-2.49685 -0.684622,-4.17034 -0.240834,-1.67349 -0.534948,-3.14344 -0.653584,-3.26652 -0.11864,-0.12311 -0.294643,0.29361 -0.391123,0.92604 -0.179084,1.17391 -1.269691,7.25332 -2.365907,13.1884 -0.335976,1.81901 -0.561832,3.39659 -0.501907,3.50573 0.05993,0.10914 1.486366,0.19843 3.169867,0.19843 h 3.060909 z m 17.494001,16.13959 c -0.418375,-0.30766 -0.444984,-1.98324 -0.381299,-24.01094 l 0.06846,-23.68021 h 8.995834 8.995833 l 2.087933,1.0422 c 2.416157,1.20602 4.200253,2.86475 5.435568,5.05362 1.304099,2.31071 1.633619,3.65207 1.784899,7.26564 0.16214,3.87292 -0.23574,6.04864 -1.560773,8.53464 -0.780396,1.46418 -3.422089,4.42994 -3.945874,4.42994 -0.384006,0 -0.277003,0.48858 0.982514,4.48625 1.839199,5.83758 2.610343,8.30874 3.677807,11.78563 0.536126,1.74625 1.098396,3.50253 1.249486,3.90284 0.52624,1.39425 0.12477,1.52157 -4.783018,1.51707 -2.419657,-0.003 -4.547082,-0.0979 -4.727612,-0.21251 -0.180528,-0.11468 -0.565576,-1.09512 -0.855663,-2.17877 -0.290083,-1.08368 -0.888026,-3.22045 -1.328761,-4.74842 -0.440735,-1.52797 -1.089903,-3.84969 -1.442595,-5.15938 -0.352693,-1.30969 -0.966193,-3.54211 -1.363332,-4.96094 l -0.722069,-2.57968 h -1.411444 -1.411441 v 9.64798 c 0,9.26787 -0.02016,9.65877 -0.511773,9.92187 -0.758571,0.40598 -8.269023,0.35764 -8.832683,-0.0568 z M 62.23254,178.08619 c 1.794036,-0.91524 2.67571,-2.70451 2.67571,-5.43009 0,-4.39521 -1.709105,-6.22681 -5.810292,-6.22681 H 56.97075 v 5.90902 c 0,3.24995 0.07937,5.98839 0.17639,6.08541 0.09701,0.097 1.054256,0.1764 2.127205,0.1764 1.409396,0 2.230403,-0.14264 2.958195,-0.51393 z m 17.404182,27.8542 c -0.097,-0.097 -0.17639,-10.85943 -0.17639,-23.91648 0,-21.40379 0.0412,-23.75591 0.41852,-23.90069 0.23018,-0.0883 4.01041,-0.1592 8.40052,-0.15748 8.6559,0.003 9.58137,0.11602 12.065868,1.46825 2.93127,1.59542 5.36801,4.97581 6.23382,8.64799 0.46408,1.96831 0.51664,6.22731 0.10107,8.18999 -0.49173,2.32236 -1.90973,4.9797 -3.54257,6.63882 -0.81743,0.83058 -1.59765,1.51016 -1.73382,1.51016 -0.13616,0 -0.24758,0.14208 -0.24758,0.31578 0,0.34346 1.06239,3.96865 1.84591,6.29881 0.26912,0.80036 0.98855,3.06255 1.59873,5.02708 0.61018,1.96453 1.32558,4.22672 1.58977,5.02708 1.23026,3.72703 1.35049,4.26935 1.03163,4.65355 -0.24513,0.29538 -1.27012,0.37354 -4.8985,0.37354 -4.102568,0 -4.613808,-0.0491 -4.827488,-0.46302 -0.13144,-0.25467 -0.60072,-1.77271 -1.04284,-3.37344 -5.0212,-18.17955 -4.17207,-15.85778 -5.83519,-15.95499 l -1.36827,-0.08 v 9.61822 c 0,7.12806 -0.0822,9.70039 -0.3175,9.93571 -0.34239,0.3424 -8.96353,0.47326 -9.29569,0.1411 z m 14.90933,-27.93558 c 1.75501,-0.88924 2.64136,-2.73751 2.64136,-5.50789 0,-2.1735 -0.23938,-3.00688 -1.26099,-4.3901 -0.92986,-1.25899 -2.06101,-1.67753 -4.53368,-1.67753 h -2.14283 v 6.08541 6.08542 h 2.06061 c 1.61241,0 2.31616,-0.12949 3.23553,-0.59531 z m 25.448448,27.79448 c -0.24121,-0.24122 -0.3175,-5.00947 -0.3175,-19.84375 v -19.52625 h -4.34673 c -3.34625,0 -4.4309,-0.0842 -4.71242,-0.36571 -0.28091,-0.28091 -0.35327,-1.1961 -0.31212,-3.94766 0.0295,-1.97009 0.13301,-3.71052 0.23012,-3.86766 0.26545,-0.42949 27.97252,-0.39846 28.40281,0.0319 0.44166,0.44164 0.44166,7.39 0,7.83167 -0.22247,0.22246 -1.68745,0.3175 -4.89479,0.3175 h -4.57729 v 19.52625 c 0,14.83428 -0.0763,19.60253 -0.3175,19.84375 -0.44507,0.44505 -8.70951,0.44505 -9.15458,0 z m 23.81486,-0.14293 c -0.33841,-0.68297 -0.23917,-47.08652 0.10143,-47.42712 0.18044,-0.18045 4.40706,-0.24881 12.5592,-0.20315 l 12.28722,0.0688 0.0735,3.94859 c 0.0555,2.98156 -0.009,4.00114 -0.26458,4.16314 -0.18594,0.118 -3.64442,0.21635 -7.68552,0.2186 l -7.34745,0.004 0.0714,5.62239 0.0714,5.6224 4.49791,0.13229 4.49792,0.13229 0.0735,3.94859 c 0.0555,2.98157 -0.009,4.00114 -0.26458,4.16314 -0.18594,0.11801 -2.27283,0.21635 -4.63755,0.2186 l -4.29948,0.004 v 5.68447 5.68449 l 7.60678,0.0702 7.60677,0.0702 v 4.10104 4.10105 l -12.35857,0.0687 c -11.57223,0.0644 -12.37324,0.0391 -12.58928,-0.39688 z m 30.16014,0.14293 c -0.24223,-0.24223 -0.31654,-5.87214 -0.31345,-23.74636 0.002,-12.88587 0.10034,-23.58059 0.21804,-23.76604 0.16297,-0.2568 1.3131,-0.31988 4.82459,-0.26458 l 4.61061,0.0726 0.13229,19.71146 0.13229,19.71146 7.2142,0.13229 7.21419,0.13229 -3.07328,4.16719 -3.07327,4.16719 h -8.78436 c -6.4795,0 -8.86766,-0.0833 -9.10185,-0.3175 z m 48.52405,-0.34346 c -0.53568,-0.36351 -1.29643,-0.96755 -1.69057,-1.34234 -0.89086,-0.84706 -2.8498,-2.23004 -3.15876,-2.23004 -0.12658,0 -0.3647,-0.13456 -0.52916,-0.29903 -0.22231,-0.2223 0.0252,-0.81626 0.96464,-2.3151 7.15086,-11.4087 11.13046,-17.62506 11.32477,-17.68983 0.12875,-0.0429 1.05071,1.0551 2.04882,2.44004 0.99809,1.38496 1.96461,2.51809 2.14779,2.51809 0.18319,0 0.88601,-1.01441 1.56186,-2.25425 0.67582,-1.23981 1.34257,-2.1839 1.48166,-2.09793 0.13907,0.086 0.546,0.73474 0.90427,1.44176 0.35827,0.707 0.79497,1.3742 0.97044,1.48265 0.20053,0.12393 0.77391,-0.31874 1.54363,-1.19179 1.34687,-1.52762 1.33586,-1.52937 2.35551,0.3706 0.31237,0.58209 0.8159,1.47505 1.11892,1.98438 0.30303,0.50932 1.26455,2.17619 2.1367,3.70416 0.87217,1.52797 1.7422,2.94238 1.93339,3.14315 0.45654,0.47934 1.48524,0.20981 1.92688,-0.50483 0.30326,-0.49075 0.22524,-0.76491 -0.66146,-2.32494 -0.5529,-0.97272 -1.08672,-1.96615 -1.18628,-2.20763 -0.26303,-0.63781 0.32993,-2.37575 0.77898,-2.2832 0.20381,0.042 1.44492,1.92188 2.75799,4.17745 1.31305,2.25558 3.32756,5.66696 4.47665,7.58085 1.14911,1.91391 2.08928,3.54478 2.08928,3.62418 0,0.0794 -0.95552,0.13806 -2.12334,0.13041 -2.58281,-0.0169 -4.12234,0.63953 -6.34333,2.70484 -3.04763,2.834 -5.10212,2.83183 -8.20208,-0.008 -1.92011,-1.75938 -1.8179,-1.68704 -3.1142,-2.20401 -0.70147,-0.27977 -1.8605,-0.45061 -3.05692,-0.45061 -2.34725,0 -3.83545,0.65876 -5.99972,2.65578 -0.80036,0.73853 -1.83832,1.51466 -2.30661,1.72474 -1.3381,0.60031 -3.02073,0.4872 -4.14975,-0.27898 z m 41.72318,0.39222 c -0.65627,-0.26419 -1.35954,-1.31088 -4.70815,-7.0073 -1.28315,-2.18282 -2.52021,-4.26641 -2.74905,-4.63021 -0.22884,-0.36381 -0.54499,-0.89959 -0.70258,-1.19063 -0.15756,-0.29104 -0.89053,-1.5412 -1.62882,-2.77812 -0.7383,-1.23693 -2.23743,-3.79677 -3.3314,-5.68854 -1.90302,-3.29081 -2.02607,-3.43959 -2.84483,-3.43959 -0.92445,0 -1.03341,0.12258 -1.83766,2.06746 -0.28969,0.70053 -0.63167,1.20882 -0.75996,1.12956 -0.1283,-0.0793 -2.16649,-3.53143 -4.52933,-7.67139 -4.33816,-7.60095 -5.01226,-8.6225 -5.68989,-8.6225 -0.41957,0 -2.01647,1.81917 -2.87626,3.27665 -2.18717,3.70766 -5.37337,8.61174 -5.59326,8.60896 -0.14552,-0.003 -1.16824,-1.33742 -2.27274,-2.96794 -1.77474,-2.61998 -2.09631,-2.96455 -2.76667,-2.96455 -0.79399,0 -0.59533,-0.22116 -4.87197,5.42396 -0.71659,0.94589 -2.0539,2.7369 -2.9718,3.98007 -0.91789,1.24315 -1.76737,2.25518 -1.88772,2.24896 -0.12035,-0.006 -0.20872,-6.26126 -0.19638,-13.90004 l 0.0224,-13.88872 1.78387,0.0689 c 7.0036,0.27059 13.20709,1.30132 18.18805,3.02207 10.9043,3.767 18.57222,8.50781 26.20616,16.20234 5.30379,5.34588 8.83248,10.25705 12.09855,16.83861 1.80176,3.63077 3.10258,6.75148 3.10258,7.44313 0,0.13017 -0.42179,0.41291 -0.93733,0.6283 -0.51555,0.21543 -1.65685,1.05312 -2.53625,1.86159 -2.24708,2.06578 -3.96375,2.65178 -5.7096,1.94897 z m -52.29316,-4.41039 c -0.0944,-0.0944 -0.16821,-2.50323 -0.1641,-5.353 l 0.007,-5.18141 4.32746,-5.82084 c 5.19505,-6.9878 5.54361,-7.41119 5.9133,-7.18272 0.15869,0.0981 0.96237,1.13998 1.78597,2.31534 1.55562,2.22004 1.69526,2.90208 0.80706,3.94134 -0.18656,0.21828 -2.57754,3.96875 -5.31329,8.33438 -2.73576,4.36562 -5.16345,8.13138 -5.39488,8.3684 -0.46946,0.48074 -1.70404,0.84346 -1.969,0.57851 z"
       id="path817"
       inkscape:connector-curvature="0" />
  </g>
</svg>
