<?xml version="1.0" encoding="UTF-8" standalone="no"?>
<!-- Created with Inkscape (http://www.inkscape.org/) -->

<svg
   xmlns:dc="http://purl.org/dc/elements/1.1/"
   xmlns:cc="http://creativecommons.org/ns#"
   xmlns:rdf="http://www.w3.org/1999/02/22-rdf-syntax-ns#"
   xmlns:svg="http://www.w3.org/2000/svg"
   xmlns="http://www.w3.org/2000/svg"
   xmlns:xlink="http://www.w3.org/1999/xlink"
   xmlns:sodipodi="http://sodipodi.sourceforge.net/DTD/sodipodi-0.dtd"
   xmlns:inkscape="http://www.inkscape.org/namespaces/inkscape"
   version="1.1"
   id="svg2"
   width="2765.5779"
   height="1194.1552"
   viewBox="0 0 2765.5779 1194.1552"
   sodipodi:docname="carrtelc.svg"
   inkscape:version="0.92.3 (2405546, 2018-03-11)">
  <metadata
     id="metadata8">
    <rdf:RDF>
      <cc:Work
         rdf:about="">
        <dc:format>image/svg+xml</dc:format>
        <dc:type
           rdf:resource="http://purl.org/dc/dcmitype/StillImage" />
        <dc:title />
      </cc:Work>
    </rdf:RDF>
  </metadata>
  <defs
     id="defs6">
    <linearGradient
       inkscape:collect="always"
       id="linearGradient1182">
      <stop
         style="stop-color:#2a4c96;stop-opacity:1"
         offset="0"
         id="stop1178" />
      <stop
         style="stop-color:#339de0;stop-opacity:1"
         offset="1"
         id="stop1180" />
    </linearGradient>
    <linearGradient
       inkscape:collect="always"
       id="linearGradient1174">
      <stop
         style="stop-color:#73b33b;stop-opacity:1"
         offset="0"
         id="stop1170" />
      <stop
         style="stop-color:#2c9940;stop-opacity:1"
         offset="1"
         id="stop1172" />
    </linearGradient>
    <linearGradient
       inkscape:collect="always"
       id="linearGradient1166">
      <stop
         style="stop-color:#73b338;stop-opacity:1"
         offset="0"
         id="stop1162" />
      <stop
         style="stop-color:#266aaf;stop-opacity:1"
         offset="1"
         id="stop1164" />
    </linearGradient>
    <radialGradient
       inkscape:collect="always"
       xlink:href="#linearGradient1166"
       id="radialGradient1168"
       cx="984.35052"
       cy="253.86755"
       fx="984.35052"
       fy="253.86755"
       r="989.0365"
       gradientTransform="matrix(-0.95379283,0.00376993,-8.9474609e-4,-0.22637098,1988.3959,284.43413)"
       gradientUnits="userSpaceOnUse" />
    <radialGradient
       inkscape:collect="always"
       xlink:href="#linearGradient1174"
       id="radialGradient1176"
       cx="2315.4609"
       cy="348.13727"
       fx="2315.4609"
       fy="348.13727"
       r="209.77454"
       gradientTransform="matrix(-1.2975256,0.03554864,-0.01693369,-0.61807986,5390.6777,467.94278)"
       gradientUnits="userSpaceOnUse" />
    <radialGradient
       inkscape:collect="always"
       xlink:href="#linearGradient1182"
       id="radialGradient1184"
       cx="2360.2041"
       cy="610.32965"
       fx="2360.2041"
       fy="610.32965"
       r="297.8587"
       gradientTransform="matrix(1.1892121,-1.0389954,1.3157971,1.506034,-1184.6974,2155.2437)"
       gradientUnits="userSpaceOnUse" />
  </defs>
  <sodipodi:namedview
     pagecolor="#ffffff"
     bordercolor="#666666"
     borderopacity="1"
     objecttolerance="10"
     gridtolerance="10"
     guidetolerance="10"
     inkscape:pageopacity="0"
     inkscape:pageshadow="2"
     inkscape:window-width="1859"
     inkscape:window-height="1025"
     id="namedview4"
     showgrid="false"
     inkscape:zoom="0.26819714"
     inkscape:cx="1648.317"
     inkscape:cy="505.95963"
     inkscape:window-x="61"
     inkscape:window-y="27"
     inkscape:window-maximized="1"
     inkscape:current-layer="svg2" />
  <path
     style="fill:url(#radialGradient1184);fill-opacity:1"
     d="M 2169.8604,932.49836 V 670.84154 h 205.75 c 193.8873,-10e-4 205.9506,-0.1024 209.2301,-1.75 4.5773,-2.2993 8.0199,-7.557 8.0199,-12.248 0,-4.691 -3.4426,-9.9487 -8.0199,-12.2485 -3.2795,-1.6476 -15.3428,-1.7485 -209.2301,-1.75 h -205.75 v -100.9408 -100.9374 l 6.729,-3.3126 c 6.3278,-3.1152 7.3574,-3.3127 17.271,-3.3127 9.8709,0 10.962,0.2067 17.1382,3.2473 4.5356,2.2329 10.1518,6.553 17.9789,13.8299 22.4632,20.8841 35.641,26.8745 58.8829,26.7673 22.7648,-0.105 35.8018,-6.1938 58.4211,-27.2847 5.4565,-5.0879 11.5906,-10.3046 13.6311,-11.5927 6.2742,-3.9608 14.2735,-5.7533 23.511,-5.2684 11.6363,0.6107 18.0121,3.9551 31.443,16.4934 13.1129,12.2414 16.8392,15.1688 24.9938,19.6349 10.3098,5.6465 20.46,8.0477 34,8.0432 23.3779,-0.01 36.5041,-6.2047 60.9155,-28.7586 6.1073,-5.6426 12.7254,-10.7521 16,-12.3529 5.0495,-2.4685 6.6384,-2.7304 16.5845,-2.7336 15.6525,-0.01 19.0142,1.7195 37.9816,19.4854 19.5563,18.3175 33.3439,24.3671 55.5184,24.3597 12.7966,0 20.5814,-1.6108 30.7296,-6.3418 8.8547,-4.128 13.2633,-7.3803 27.6381,-20.3892 12.1865,-11.0285 20.2181,-16.3958 22.9602,-15.3436 1.3936,0.5348 1.5209,0.9791 7.5078,26.2044 23.7361,100.0111 20.8138,205.9879 -8.4159,305.2015 -6.8692,23.316 -13.639,42.0176 -23.8183,65.7985 l -8.1329,19 -180.0284,0.5 c -171.361,0.4759 -180.161,0.5869 -182.7821,2.3043 -8.6239,5.6509 -8.6239,17.74042 0,23.39142 2.6197,1.7165 11.1568,1.8286 175.4603,2.3043 l 172.7067,0.5 -8.0138,14 c -56.2516,98.2701 -141.9942,180.23204 -243.3113,232.58274 -78.6179,40.6221 -164.7108,62.9701 -252.75,65.6089 l -20.75,0.6219 z m 104.1282,192.77694 c 3.0915,-1.5987 6.8279,-8.1291 6.8279,-11.9337 0,-3.8046 -3.7364,-10.335 -6.8279,-11.9337 -11.9837,-6.197 -24.2761,5.8904 -18.4582,18.1506 3.1317,6.5996 11.6496,9.2377 18.4582,5.7168 z m 62.0091,0 c 6.2406,-3.2272 8.3853,-13.6495 4.1415,-20.1263 -5.1669,-7.8857 -18.4805,-6.7195 -22.6088,1.9804 -2.093,4.4106 -2.0965,6.6104 -0.019,11.8034 2.8582,7.1433 11.3219,10.0472 18.486,6.3425 z m -131.1771,-105.0645 c 8.4353,-4.9829 7.9154,-19.2748 -0.8663,-23.81604 -9.6948,-5.0133 -19.9219,2.483 -18.8339,13.80514 0.4018,4.182 1.0873,5.5766 4.0966,8.3344 2.9984,2.7478 4.3994,3.312 8.2244,3.312 2.5357,0 5.8564,-0.736 7.3792,-1.6355 z m 62,0 c 8.4353,-4.9829 7.9154,-19.2748 -0.8663,-23.81604 -9.6948,-5.0133 -19.9219,2.483 -18.8339,13.80514 0.4018,4.182 1.0873,5.5766 4.0966,8.3344 2.9984,2.7478 4.3994,3.312 8.2244,3.312 2.5357,0 5.8564,-0.736 7.3792,-1.6355 z m 287.1337,0.087 c 6.4768,-3.3493 8.8521,-12.5667 4.8903,-18.9771 -4.2615,-6.89524 3.9917,-6.47444 -126.9842,-6.47444 -106.4745,0 -118.5335,0.1593 -121.5831,1.6065 -9.2589,4.39354 -9.9117,18.07244 -1.1184,23.43404 3.128,1.9072 5.942,1.9521 122.5012,1.9558 105.7554,0 119.6396,-0.1721 122.2942,-1.5448 z m -76.041,-74.00224 c 10.3398,-9.9061 1.4779,-27.0928 -12.0865,-23.4403 -5.6959,1.5338 -9.9664,7.3594 -9.9664,13.5959 0,4.0316 3.6167,9.9529 7.1924,11.7753 4.7668,2.4296 11.1787,1.5965 14.8605,-1.9309 z m 49.4573,2.1109 c 5.1386,-2.147 7.6896,-6.8634 7.2114,-13.3323 -0.4676,-6.3241 -3.9951,-10.6859 -9.9356,-12.2855 -5.0511,-1.3601 -11.9321,1.5057 -14.215,5.9203 -3.4284,6.6298 -1.2307,15.5448 4.7275,19.1778 3.8086,2.3222 7.5197,2.4801 12.2117,0.5197 z m -236.9043,-69.4688 c 3.0544,-1.3871 4.655,-2.9988 6.25,-6.2937 2.6432,-5.46022 2.6481,-6.12512 0.084,-11.42192 -1.4957,-3.0897 -3.226,-4.82 -6.3157,-6.3157 -4.0794,-1.9748 -5.9094,-2.06 -44.1899,-2.0585 -44.5301,0 -44.5614,0.01 -49.1644,6.8963 -4.4263,6.6258 -1.7675,15.57362 5.75,19.35052 3.142,1.5786 7.3667,1.7465 43.4801,1.7281 36.8715,-0.019 40.3211,-0.1663 44.1059,-1.8851 z m -46.0817,-103.51532 c 5.9903,-3.925 7.9453,-13.7312 3.8536,-19.33 -2.9893,-4.0904 -8.684,-6.5988 -13.1002,-5.7704 -7.0715,1.3267 -12.6344,9.982 -10.8879,16.9406 0.7658,3.0515 5.2803,8.4866 8.0287,9.666 2.8466,1.2215 9.1372,0.4389 12.1058,-1.5062 z m 143.8046,1.0598 c 1.7955,-0.7502 4.4811,-2.8097 5.9679,-4.5767 5.5931,-6.6471 2.5709,-17.1274 -5.9679,-20.6952 -4.7599,-1.9888 -80.8977,-1.9888 -85.6576,0 -11.4887,4.8003 -11.624,20.2624 -0.2208,25.2294 4.5026,1.9612 81.1955,1.9992 85.8784,0.043 z m 60.3881,-0.3059 c 6.6634,-3.162 9.186,-11.5177 5.6969,-18.8703 -2.1605,-4.5531 -5.9765,-6.8398 -11.4138,-6.8398 -7.9956,0 -13.0035,5.233 -12.9963,13.5804 0.01,10.378 9.4748,16.5136 18.7132,12.1297 z m 231.9017,0.047 c 7.164,-3.3996 9.7594,-10.4732 6.5252,-17.7845 -1.6303,-3.6856 -2.9489,-5.0559 -6.3507,-6.5998 -4.1521,-1.8845 -7.2468,-1.9492 -94.2274,-1.9704 -88.7879,-0.022 -89.9885,0 -94.1899,2.0381 -10.2461,4.9601 -10.3959,19.2339 -0.2543,24.23 3.0752,1.5149 11.5338,1.6664 94.2274,1.6871 81.7797,0.02 91.1903,-0.1393 94.2697,-1.6005 z m -23.9193,-107.9153 c 1.3683,-0.8965 3.3967,-3.6847 4.5075,-6.196 1.7681,-3.9971 1.8692,-5.0767 0.8114,-8.6656 -1.5053,-5.1075 -4.3062,-8.2097 -8.7304,-9.6698 -6.4228,-2.1197 -12.62,0.8529 -16.1656,7.7543 -2.992,5.8236 0.2879,14.1988 6.8977,17.6136 3.943,2.037 8.7811,1.7178 12.6794,-0.8365 z m 59.5828,1.1766 c 12.4065,-5.2511 10.2818,-23.7532 -3.0142,-26.2475 -7.1437,-1.3449 -15.2679,5.8968 -15.2679,13.6048 0,4.691 3.4426,9.9487 8.0199,12.2484 4.1926,2.1064 6.0402,2.1766 10.2622,0.3896 z m -425.4386,-108.3013 c 1.289,-0.8307 3.2324,-3.5196 4.3187,-5.9754 3.0479,-6.8904 0.9788,-13.4803 -5.4665,-17.4103 -11.6496,-7.1032 -25.0936,7.6681 -17.4258,19.1461 4.3743,6.5478 12.2151,8.3375 18.5736,4.2396 z m 62,0 c 1.289,-0.8307 3.2324,-3.5196 4.3187,-5.9754 3.0479,-6.8904 0.9788,-13.4803 -5.4665,-17.4103 -11.6124,-7.0805 -25.0691,7.7048 -17.4258,19.1461 4.3743,6.5478 12.2151,8.3375 18.5736,4.2396 z m 298.4386,1.2872 c 5.3944,-2.2985 7.9972,-5.9512 8.4919,-11.9174 0.3865,-4.661 0.1094,-5.6966 -2.2862,-8.5436 -5.5644,-6.613 4.046,-6.168 -133.1881,-6.1663 -139.2799,0 -129.073,-0.5235 -134.0298,6.8963 -4.9775,7.4508 -0.6569,18.1442 8.2301,20.3693 1.1,0.2754 57.702,0.553 125.7821,0.6168 102.8195,0.096 124.3271,-0.1162 127,-1.2551 z m 0.2179,-119.2919 c -1.1,-0.2975 -4.06,-1.4172 -6.5778,-2.4881 l -4.5779,-1.9471 -41.8955,-70.7009 c -23.0425,-38.8855 -51.9379,-88.0259 -64.2119,-109.2009 -12.2741,-21.175 -23.6557,-39.7375 -25.2925,-41.25 -2.322,-2.1457 -3.9579,-2.75 -7.4444,-2.75 -6.904,0 -9.6639,3.1583 -16.4716,18.8497 -3.166,7.2976 -6.1364,13.3543 -6.6009,13.4593 -0.8759,0.1981 -11.1527,-17.4972 -48.6734,-83.809 -32.9851,-58.2958 -39.1663,-67.499997 -45.3308,-67.499997 -1.4957,0 -3.9615,1.5381 -6.4415,4.0182 -4.5884,4.588397 -28.8041,40.967097 -53.4069,80.231797 -9.2186,14.7125 -17.0567,26.7318 -17.418,26.7096 -0.3613,-0.022 -8.9726,-12.2294 -19.1361,-27.1272 -10.1636,-14.8977 -19.5105,-27.7624 -20.771,-28.5883 -3.1004,-2.0315 -9.3488,-2.0645 -12.3997,-0.066 -1.3729,0.8996 -20.6884,26.1799 -42.9232,56.1783 -22.2348,29.9984 -40.7644,54.5652 -41.1769,54.5929 -0.4125,0.028 -0.75,-58.2339 -0.75,-129.47 V 2.8006432 l 9.25,0.5027 c 5.0875,0.2765 15.55,0.7494 23.25,1.0508 81.8314,3.2039 173.1786,28.4932998 247.7273,68.5829998 128.5981,69.155697 225.5363,179.529597 277.4128,315.861897 2.3979,6.302 4.3599,11.9567 4.3599,12.566 0,0.6094 -2.4974,2.1431 -5.5497,3.4082 -8.7556,3.629 -19.0447,10.9702 -30.9503,22.0826 -14.3089,13.3558 -20.1798,16.3156 -33,16.6373 -4.95,0.1243 -9.9,-0.018 -11,-0.3151 z"
     id="path4520-7-3"
     inkscape:connector-curvature="0"
     inkscape:export-filename="/home/jamesrunnalls/git/datalakes/website/datalakes-react-app/datalakes/src/components/footer/img/carrtel.png"
     inkscape:export-xdpi="96"
     inkscape:export-ydpi="96"
     sodipodi:nodetypes="ccccsccccccsccscccccccccscccccsccsccscccccccscccccccccccccscccccscccsccccccsccsccccsscccccccssccccscccccccccscccccccccccccccccccsccccsccccscccccccsccccccsccsccssccccccscscccscsccccc" />
  <path
     style="fill:url(#radialGradient1176);fill-opacity:1"
     d="m 2274.3604,442.10334 c -6.6625,-2.3997 -11.8207,-6.1818 -25.2338,-18.5015 -11.8156,-10.8524 -18.3864,-15.3924 -27.964,-19.3212 -3.5107,-1.4401 -5.7527,-2.9521 -5.6769,-3.8284 0.2085,-2.4081 113.7704,-181.645 114.8617,-181.2881 0.5571,0.1822 8.438,10.743 17.513,23.4684 9.075,12.7255 17.0678,23.3663 17.7618,23.6463 3.4239,1.3812 6.1654,-2.1161 17.257,-22.0147 6.261,-11.2324 11.6307,-20.4151 11.9325,-20.406 0.3018,0.01 3.2487,5.2639 6.5487,11.6774 5.6416,10.9643 10.6655,18.306 12.5269,18.306 1.671,0 7.4019,-5.6168 15.2279,-14.9247 4.428,-5.2664 8.4256,-9.5753 8.8835,-9.5753 0.4579,0 13.1204,21.3405 28.1389,47.4233 15.7343,27.3259 28.4,48.2398 29.887,49.35 4.9108,3.6664 13.6394,1.7278 17.2873,-3.8396 3.418,-5.2165 2.4452,-8.3027 -8.8684,-28.138 -7.5803,-13.2899 -10.436,-19.1837 -9.9845,-20.6064 1.288,-4.0581 8.4597,-18.9643 8.9083,-18.5157 1.2837,1.2837 86.3758,146.277 86.0416,146.6112 -0.2144,0.2145 -3.0131,-0.1878 -6.2192,-0.8939 -8.312,-1.8306 -25.4411,-1.5905 -33.3293,0.4671 -14.7507,3.8477 -24.4925,9.9846 -42.8694,27.0055 -6.1791,5.7231 -12.6447,10.7129 -16,12.3479 -5.0865,2.4786 -6.6952,2.7459 -16.6481,2.7661 -10.3993,0.021 -11.3813,-0.157 -17.5,-3.1769 -4.4102,-2.1766 -10.1143,-6.5843 -17.8433,-13.788 -22.42,-20.896 -35.1371,-26.7681 -58.1392,-26.8454 -12.805,-0.043 -20.5003,1.5356 -30.7296,6.3044 -8.9757,4.1844 -14.2213,8.0532 -28.0571,20.6928 -15.6773,14.3218 -19.9325,16.5141 -33.0422,17.0229 -7.5159,0.2918 -10.7854,-0.026 -14.6711,-1.4255 z m -104.4613,-88.4034 0.039,-49.3584 44.7114,-60.2069 c 24.5912,-33.1138 45.1613,-60.077 45.7113,-59.9182 0.55,0.1589 8.075,10.5424 16.7223,23.0745 12.2115,17.6978 15.5136,23.1503 14.7878,24.4182 -0.5139,0.8978 -24.5261,38.9764 -53.3605,84.6191 l -52.426,82.9868 -5.3618,1.1272 c -2.949,0.6199 -6.5993,1.4622 -8.1118,1.8716 l -2.75,0.7445 0.039,-49.3584 z"
     id="path4520-7-5"
     inkscape:connector-curvature="0"
     inkscape:export-filename="/home/jamesrunnalls/git/datalakes/website/datalakes-react-app/datalakes/src/components/footer/img/carrtel.png"
     inkscape:export-xdpi="96"
     inkscape:export-ydpi="96"
     sodipodi:nodetypes="cccccccsccscssccccscsccsccccccccccccccccccccc" />
  <path
     style="fill:url(#radialGradient1168);fill-opacity:1;fill-rule:evenodd"
     d="m 161.3039,445.90656 c -40.9568,-7.2138 -73.051799,-32.3756 -87.457699,-68.5651 -1.7515,-4.4 -4.3613,-12.725 -5.7995,-18.5 l -2.6149,-10.5 -0.3471,-118.5 c -0.3678,-125.5051 -0.2698,-128.8175 4.3173,-145.957897 5.1589,-19.2772 12.8731,-33.1393 26.2166,-47.1101 C 118.0825,13.253363 144.8437,1.9525632 182.2303,0.19896325 216.537,-1.4102368 246.6259,6.7596632 270.1146,24.061763 c 8.0435,5.925 21.9652,20.5922 21.0409,22.1677 -0.3588,0.6116 -15.0845,20.6118 -32.7237,44.4448 l -32.0714,43.332897 -0.5898,-13.8329 c -0.4462,-10.4656 -1.1061,-15.2579 -2.711,-19.6874 -3.4833,-9.613597 -9.3907,-16.268497 -18.1992,-20.501997 -4.8166,-2.315 -6.7424,-2.6434 -15.5,-2.6434 -8.5881,0 -10.7022,0.3456 -14.9739,2.4476 -6.0706,2.9873 -12.6288,9.3763 -15.6097,15.2072 -5.0147,9.809097 -4.8926,6.581097 -4.8926,129.345197 0,122.6758 -0.1179,119.5446 4.8652,129.2915 7.7789,15.2156 26.374,21.7678 44.3724,15.6351 5.5794,-1.9011 13.8001,-8.969 17.2208,-14.8059 3.7649,-6.4243 5.4865,-15.6333 5.5031,-29.4364 0.01,-6.7737 0.4552,-13.1389 0.9936,-14.1449 1.8909,-3.5331 5.5547,-3.6925 45.3035,-1.9708 34.3261,1.4869 39.0084,1.8845 40.75,3.4607 1.704,1.5421 1.9676,3.1048 1.9676,11.6651 0,28.4714 -6.7278,53.534 -19.5902,72.9773 -5.9808,9.041 -20.7531,24.0718 -29.2796,29.7921 -14.7923,9.924 -34.6592,17.3343 -53.4973,19.9544 -12.0528,1.6764 -39.4171,1.2204 -51.1894,-0.8531 z m 180.373,-5.5686 c -0.9684,-2.1255 5.832,-34.6267 45.0385,-215.25 25.3986,-117.0106 46.8278,-214.185097 47.6206,-215.9433968 1.9246,-4.2685 4.5836,-4.6808 25.8435,-4.0074 11.9733,0.3793 19.7767,1.1492 25.7447,2.54 26.7891,6.2430998 44.8747,18.8710998 53.9423,37.6642998 3.6053,7.4723 6.6007,20.6957 45.4072,200.455597 38.4895,178.2909 41.4367,192.6244 40.044,194.75 l -1.5034,2.2944 h -42.3219 c -39.0493,0 -42.4419,-0.1353 -43.8725,-1.75 -1.0307,-1.1633 -3.3101,-12.4785 -6.7989,-33.75 -3.7355,-22.7757 -5.6944,-32.3603 -6.7956,-33.25 -1.1788,-0.9523 -10.8626,-1.25 -40.665,-1.25 -29.7768,0 -39.4986,0.2985 -40.7128,1.25 -1.1342,0.8888 -3.3311,10.626 -7.6032,33.6992 -4.6775,25.2625 -6.4022,32.7372 -7.7872,33.75 -1.3924,1.0181 -10.7618,1.3008 -43.1093,1.3008 h -41.3303 z m 171.1835,-138.1951 c 0,-4.1852 -26.1674,-161.8689 -27.0002,-162.7016 -0.5789,-0.579 -1.1192,-0.3953 -1.4207,0.483 -0.591,1.7219 -29.5791,161.3022 -29.5791,162.834 0,0.7527 8.8486,1.0832 29,1.0832 26.6184,0 29,-0.1395 29,-1.6986 z m 156,138.6986 c -1.9876,-1.9876 -2,-3.3333 -2,-217 0,-214.9226968 8e-4,-215.0006968 2.0357,-217.0356968 2.0172,-2.0171 2.7251,-2.0329 77.75,-1.7348 l 75.7143,0.3009 10,2.7296 c 5.5,1.5012 14.95,5.1891998 21,8.1954998 33.5073,16.6499 55.1436,47.7818 63.2749,91.044497 2.6276,13.98 2.3058,47.6437 -0.584,61.1041 -6.9564,32.4016 -22.0887,57.2695 -45.3357,74.5033 -3.7703,2.795 -6.8552,5.3132 -6.8552,5.5958 0,0.2826 13.05,42.3589 29,93.5028 15.95,51.144 29,93.8747 29,94.9573 0,1.0825 -0.4658,2.8386 -1.0352,3.9024 -0.9985,1.8658 -2.5397,1.9343 -43.5,1.9343 -40.748,0 -42.5435,-0.079 -44.412,-1.9472 -1.071,-1.071 -2.4152,-3.6585 -2.9871,-5.75 -18.5709,-67.9166 -48.2248,-171.7885 -49.2239,-172.4217 -1.5288,-0.969 -20.8557,-1.1967 -23.26,-0.2741 -1.4257,0.5471 -1.5818,9.2589 -1.5818,88.3114 0,86.8808 -0.019,87.725 -2.0389,89.893 -2.0326,2.1818 -2.1647,2.1886 -42.5,2.1886 -39.1277,0 -40.527,-0.066 -42.4611,-2 z m 130.1447,-250.0046 c 13.8104,-4.3561 23.7119,-15.8471 28.4929,-33.0668 2.4715,-8.9017 2.4577,-31.7723 -0.025,-40.8486 -4.0187,-14.694 -12.6493,-26.018097 -24.113,-31.638397 l -6,-2.9416 h -20.5 -20.5 l -0.2598,53.999997 c -0.1429,29.7 -0.044,54.5625 0.2186,55.25 0.3582,0.9357 4.9855,1.25 18.4045,1.25 15.1595,0 18.9069,-0.3094 24.2814,-2.0046 z m 163.9279,249.3697 -2.0726,-2.6348 V 223.84146 10.111163 l 2.1006,-2.6703998 2.1005,-2.6705 75.6495,0.3008 75.6494,0.3008 10,2.7269 c 40.6048,11.0723998 70.4962,42.6959998 81.5187,86.2426998 8.5576,33.808497 6.2252,72.886697 -6.0753,101.792597 -7.9158,18.6018 -21.8289,36.1024 -37.7125,47.4367 -4.4223,3.1557 -6.1445,4.98 -5.7885,6.1315 0.2788,0.9016 13.3422,42.8142 29.0299,93.1392 15.6876,50.325 28.524,92.8725 28.5253,94.55 0,1.6775 -0.5376,3.59 -1.1976,4.25 -1.5363,1.5363 -83.9314,1.7352 -86.7822,0.2095 -2.4205,-1.2954 -1.3547,2.2682 -28.1156,-94.0095 -12.7652,-45.925 -23.6453,-84.0625 -24.1782,-84.75 -1.3206,-1.7038 -22.8264,-1.7476 -24.524,-0.05 -0.915,0.915 -1.2,21.9333 -1.2,88.5 0,85.9667 -0.031,87.3306 -2,89.3 -1.934,1.934 -3.3333,2 -42.4274,2 h -40.4274 z m 133.9274,-250.5174 c 11.2256,-5.2503 19.1784,-14.8001 23.8205,-28.6038 2.3809,-7.0796 2.602,-9.1165 2.5783,-23.7439 -0.024,-14.4871 -0.2698,-16.7322 -2.6043,-23.7439 -4.5727,-13.734597 -12.569,-23.415497 -23.6194,-28.595697 -5.5664,-2.6095 -6.0676,-2.6604 -26.1751,-2.6604 h -20.5 l -0.2599,53.999997 c -0.1429,29.7 -0.029,54.6025 0.2528,55.3389 0.4115,1.075 4.5017,1.2642 20.7598,0.96 19.2489,-0.3602 20.5185,-0.5057 25.7473,-2.9512 z m 233.405,251.0474 c -1.8563,-2.0511 -1.9116,-6.6668 -2.1632,-180.5 l -0.2581,-178.395097 h -40.0373 -40.0373 l -2.4546,-2.4546 -2.4545,-2.4545 V 42.959463 8.9866632 l 2.6349,-2.0726 c 2.634,-2.0719 2.6755,-2.0726 128.8651,-2.0726 126.1896,0 126.2311,7e-4 128.8651,2.0726 l 2.6349,2.0726 v 33.9727998 33.9729 l -2.4545,2.4545 -2.4546,2.4546 h -41.4288 -41.4288 l -0.603,2.25 c -0.3317,1.2375 -0.6091,81.717797 -0.6166,178.844997 -0.013,169.8028 -0.084,176.6587 -1.8424,178.25 -1.6384,1.4827 -6.0476,1.655 -42.3451,1.655 -39.9194,0 -40.5443,-0.031 -42.4212,-2.1049 z m 219.595,0.1049 c -1.9876,-1.9876 -2,-3.3333 -2,-216.9274 V 8.9866632 l 2.6349,-2.0726 c 2.6293,-2.0682 2.866,-2.0726 112.5454,-2.0726 h 109.9106 l 2.4546,2.4545 2.4545,2.4546 V 43.185263 c 0,31.4269 -0.1148,33.5764 -1.9112,35.7954 l -1.9113,2.3608 -68.3387,0.5 -68.3388,0.5 -0.2593,50.935297 c -0.204,40.0854 0.01,51.1055 1,51.7346 0.6926,0.4397 18.9218,0.8064 40.5093,0.8148 37.9059,0.015 39.3185,0.084 41.25,2.0153 1.9211,1.9211 2,3.3333 2,35.8089 0,27.6119 -0.26,34.1646 -1.4187,35.75 -1.3534,1.8519 -3.2956,1.9641 -42.25,2.4411 l -40.8313,0.5 v 52 52 l 68.1829,0.2569 68.1828,0.2569 2.0672,2.628 c 1.9938,2.5348 2.0671,3.7878 2.0671,35.3582 0,31.5982 -0.072,32.8214 -2.0726,35.3651 l -2.0726,2.6349 h -110.9274 c -109.5941,0 -110.9514,-0.024 -112.9274,-2 z m 273.0658,-0.6435 -2.0794,-2.6435 0.2568,-214.4449 0.2568,-214.4448968 2.3608,-1.9116 c 2.2348,-1.8096 4.4558,-1.9116 41.6151,-1.9116 38.1984,0 39.3253,0.056 41.8892,2.0726 l 2.6349,2.0726 V 186.79156 c 0,147.6351 0.228,177.9942 1.3437,178.9202 0.9508,0.7891 20.4166,1.1903 66.5822,1.3724 l 65.2386,0.2573 -27.8322,37.7034 -27.8323,37.7034 -81.1774,0.047 -81.1774,0.047 -2.0794,-2.6435 z"
     id="path4520-3"
     inkscape:connector-curvature="0"
     inkscape:export-filename="/home/jamesrunnalls/git/datalakes/website/datalakes-react-app/datalakes/src/components/footer/img/carrtel.png"
     inkscape:export-xdpi="96"
     inkscape:export-ydpi="96"
     sodipodi:nodetypes="csscccccccsccccsccscscccccscccccsccccsccscscscccsccsccssscscsccccccssscsccccscsccccccccscscccccccccccscccccscccsscscccccccsccccccsccccccccscccccccccscscssccscccsccccccccscsccccccsccsscccccsccscsccccccc" />
  <path
     style="fill:#03a1a5;fill-opacity:1;stroke-width:2.41512346"
     d="m 900.29148,1032.7043 c -33.81,-3.2743 -59.9243,-15.8678 -84.4805,-40.73976 -15.4987,-15.6981 -15.7991,-15.8639 -24.7407,-13.6526 -4.9783,1.2312 -9.0475,3.4061 -9.0426,4.833 0.01,1.427 3.226,10.7505 7.1581,20.71846 10.9541,27.7695 11.8047,26.5818 -19.036,26.5818 h -26.3513 l -3.8389,-10.2703 c -2.1113,-5.6485 -5.8342,-16.251 -8.273,-23.56096 l -4.4341,-13.2909 -52.0924,-0.6512 -52.0924,-0.6512 -1.7164,5.4838 c -0.9441,3.016 -4.9116,13.88776 -8.8168,24.15926 l -7.1004,18.6757 h -54.7496 -54.7497 l -5.2437,-10.2239 c -2.8841,-5.6256 -14.7005,-28.44056 -26.2585,-50.70286 l -21.0148,-40.4767 h -21.3839 -21.3839 l -0.1239,6.6455 c -0.069,3.6549 -0.3395,26.2192 -0.6034,50.1428 l -0.4797,43.49726 -25.9679,0.6859 -25.9679,0.6859 0.6238,-134.80286 0.6238,-134.8029 h 61.55 c 59.463,0 62.1135,0.2027 78.165,5.9978 20.146,7.2728 37.3711,22.4258 45.3739,39.916 4.6512,10.1651 5.4971,15.9177 5.33,36.2478 -0.1407,17.1226 -1.3912,26.8537 -4.291,33.3903 -4.9314,11.1161 -20.7081,28.7107 -32.0211,35.7104 l -8.2343,5.095 13.7648,25.7318 c 7.5706,14.1524 20.4618,38.5564 28.6471,54.2309 l 14.8823,28.49906 13.8045,-36.95686 c 7.5924,-20.3264 15.3558,-40.7632 17.252,-45.4149 1.8961,-4.6518 9.4877,-24.7694 16.8701,-44.7057 7.3825,-19.9362 19.5102,-52.5593 26.9506,-72.4956 7.4404,-19.9362 15.9614,-42.7723 18.9355,-50.7469 l 5.4073,-14.4991 h 23.5583 23.5582 l 5.9671,15.7073 c 3.282,8.6391 10.0039,26.5818 14.9376,39.8727 48.0888,129.5448 43.3184,118.1494 49.8271,119.0273 9.7278,1.3122 11.1457,-2.2742 8.4813,-21.4521 -9.5352,-68.6355 35.4175,-135.17 103.5105,-153.2065 17.3511,-4.5957 46.0248,-4.522 64.06,0.1644 29.8432,7.7558 56.62632,23.7355 56.62632,33.7856 0,8.3913 -22.32972,50.78 -37.51742,71.2192 -25.6206,34.4799 -56.8898,62.071 -92.1591,81.3186 -10.986,5.9954 -19.9745,11.8059 -19.9745,12.9124 0,4.5459 21.6123,17.4742 37.0962,22.1905 53.1393,16.1853 106.5686,-20.5335 113.44102,-77.9617 1.4055,-11.7449 11.0625,-33.3462 17.18,-38.4293 2.0116,-1.6711 3.6573,-3.9175 3.6573,-4.9916 0,-3.764 10.8897,-19.0004 13.6521,-19.1016 5.0862,-0.1864 10.9656,22.4408 12.2357,47.0902 1.0195,19.7882 0.3347,27.5486 -3.7341,42.2891 -6.7263,24.3712 -17.7898,43.8913 -34.1725,60.2929 -31.19492,31.23086 -68.72732,45.07506 -111.08122,40.97326 z m -190.6845,-97.33436 c 0,-1.7862 -5.4525,-18.9132 -12.1168,-38.0602 -17.8818,-51.3757 -22.2156,-62.8675 -23.2999,-61.7818 -1.7701,1.7721 -34.5638,97.8307 -34.5753,101.2771 0,0.9969 15.7435,1.8124 34.993,1.8124 27.6938,0 34.999,-0.6777 34.999,-3.2475 z m 128.9139,-22.1895 c 17.9945,-7.5272 44.0606,-26.5232 64.1645,-46.7601 18.6603,-18.7841 41.0531,-48.1282 41.0531,-53.7971 0,-8.1353 -41.2497,-9.4781 -61.2308,-1.9934 -38.5488,14.4397 -65.5715,59.5516 -58.447,97.5721 1.8452,9.8473 2.3803,10.0317 14.4602,4.9785 z m -370.2866,-33.8234 c 10.2199,-5.9137 19.3098,-22.6684 19.3098,-35.5926 0,-13.6642 -7.9884,-27.4406 -19.2461,-33.1905 -7.9769,-4.0742 -14.2253,-4.8654 -38.4173,-4.8654 h -28.8909 l -0.8025,38.0602 c -0.4414,20.9331 -0.3869,38.9838 0.1209,40.1131 0.508,1.1289 14.0982,1.6726 30.2007,1.2082 23.9649,-0.6914 30.8102,-1.7316 37.7253,-5.733 z M 1.5803812,1028.8338 c -2.01039999,-2.0127 -2.15059999,-259.98176 -0.1448,-265.21676 1.2061,-3.1462 5.9027,-3.8223 26.5509998,-3.8223 h 25.0858 v 135.3251 135.32506 h -24.9417 c -13.718,0 -25.6658998,-0.7253 -26.5509998,-1.6111 z M 94.106481,895.20154 v -135.4068 h 25.313999 25.3139 l 6.3196,10.2702 c 3.4758,5.6486 8.7455,14.0761 11.71,18.728 2.9648,4.6518 10.0833,16.0699 15.8191,25.3734 5.7358,9.3037 15.5316,25.0714 21.7684,35.0396 6.2369,9.9682 20.3397,32.5645 31.3396,50.2144 10.9999,17.6494 20.9564,32.6821 22.1255,33.4054 1.2102,0.7489 2.0753,-34.9228 2.0088,-82.8373 -0.064,-46.2839 -0.09,-85.5487 -0.059,-87.255 0.045,-2.3723 6.1471,-2.9409 25.936,-2.4166 l 25.8773,0.6859 -0.2091,134.117 -0.2092,134.11676 -25.2748,0.6814 -25.2747,0.6823 -8.8414,-13.3315 c -4.8627,-7.3322 -8.8413,-13.8435 -8.8413,-14.4694 0,-0.6266 -2.4439,-4.78026 -5.4309,-9.23176 -2.987,-4.4514 -11.4049,-17.6819 -18.7064,-29.401 -7.3015,-11.7192 -17.1866,-27.4274 -21.9669,-34.9069 -4.7803,-7.4799 -16.9998,-27.1767 -27.1545,-43.7707 -10.1545,-16.5943 -18.5241,-29.0998 -18.5987,-27.79 -0.075,1.3095 -0.3464,40.4414 -0.6034,86.9594 l -0.4678,84.57816 -25.9476,0.686 -25.947499,0.6858 z"
     id="path817-6-3"
     inkscape:connector-curvature="0"
     sodipodi:nodetypes="cccccscccccccccccccccccccccccscccccccccccccscccssccccsccscccscccsccssccssccsccccssscsccccccscccscccccccccscccccccccccscccccccccc" />
  <g
     id="g2180"
     transform="translate(-1843.0961,2041.1717)">
    <g
       style="fill:#ee3f55;fill-opacity:1"
       id="g2092-3-6-1"
       transform="translate(1929.14,-1440.0454)">
      <path
         style="fill:#ee3f55;fill-opacity:1;stroke-width:2.41512346"
         d="m 1156.3934,240.69877 c -3.2052,-1.9161 -4.2241,-5.7311 -4.2241,-15.8164 v -13.2914 l 13.8791,0.7252 13.8788,0.7252 v 14.4991 14.4992 l -9.6549,0.5927 c -5.3102,0.3261 -11.5556,-0.5434 -13.8789,-1.9325 z m 40.2099,-0.78 c -0.7017,-1.8303 -0.9391,-8.6268 -0.5274,-15.1033 l 0.7481,-11.7755 h 14.4823 14.4823 l -0.6231,12.0827 c -0.4104,7.9561 -2.0106,13.1142 -4.6854,15.1032 -5.5498,4.127 -22.259,3.9121 -23.8761,-0.3069 z m -44.434,-56.9651 v -14.6197 h 14.6028 14.6029 l -0.7244,13.895 -0.7234,13.8951 -13.8788,0.7251 -13.8791,0.7243 z m 45.1616,12.8728 c -0.9429,-0.9438 -1.7144,-7.5678 -1.7144,-14.7197 v -13.0035 l 15.0858,0.7196 15.0857,0.7198 v 13.2909 13.2908 l -13.3713,0.7097 c -7.3542,0.39 -14.1428,-0.064 -15.0858,-1.0071 z"
         id="path817-6-2-2"
         inkscape:connector-curvature="0"
         sodipodi:nodetypes="cscccccccccccccccccccccccccccscccccccc" />
    </g>
    <g
       style="fill:#3f377e;fill-opacity:1"
       id="g2092-3-6-7"
       transform="translate(1929.14,-1440.0454)">
      <path
         style="fill:#3f377e;fill-opacity:1;stroke-width:2.41512346"
         d="m 1128.2062,444.38953 c -18.5187,-9.3474 -42.1249,-32.147 -52.4824,-50.68936 -16.825,-30.1207 -17.6897,-37.4293 -17.6897,-149.4881 0,-54.8059 0.6595,-101.3675 1.4649,-103.4697 1.2212,-3.1858 6.146,-3.8163 29.5684,-3.7854 15.4567,0.027 29.5557,0.9588 31.3313,2.0857 1.7755,1.1266 2.8618,4.6443 2.4137,7.8167 -0.7901,5.5952 -1.5504,5.7886 -25.3879,6.4548 l -24.5733,0.6868 -0.063,87.5162 c -0.037,48.134 0.7024,91.5477 1.6428,96.4751 l 1.7101,8.959 17.8379,-23.8944 c 9.8107,-13.142 21.1045,-27.4753 25.0971,-31.8516 l 7.2594,-7.9574 10.0032,11.3809 10.0031,11.381 18.7346,-25.3401 c 20.7251,-28.0329 25.6485,-30.66 34.1648,-18.2322 2.6551,3.8746 11.163,15.3171 18.9065,25.4279 l 14.079,18.3831 7.1659,-9.9038 c 5.2105,-7.201 8.5937,-9.6975 12.3975,-9.148 4.7036,0.6796 19.9659,18.6198 40.3795,47.4654 3.319,4.6896 7.1207,8.604 8.4482,8.6984 1.561,0.1114 2.6368,-33.3018 3.045,-94.5886 l 0.6312,-94.7605 -23.3055,-0.6923 c -18.6188,-0.5526 -23.8145,-1.5016 -25.8355,-4.7183 -1.833,-2.917 -1.6557,-5.0809 0.643,-7.8536 4.4368,-5.3524 58.4149,-5.6431 62.8122,-0.3389 2.1797,2.6294 2.6673,28.968 1.9794,106.9311 -0.8694,98.5437 -1.1621,104.1943 -6.1813,119.3239 -6.5133,19.6324 -20.0649,40.76266 -36.2328,56.49706 -13.6327,13.267 -39.7788,28.4237 -45.3442,26.2856 -1.9713,-0.7572 -7.0048,-6.4113 -11.1855,-12.5648 -4.1807,-6.1532 -8.2231,-11.7313 -8.9829,-12.3958 -1.4069,-1.2302 -14.6826,-19.1502 -20.4662,-27.62576 -2.9482,-4.3202 -4.5633,-2.7872 -21.6398,20.54036 -21.7907,29.7677 -24.9771,33.6777 -27.4091,33.6346 -1.0087,-0.027 -7.7295,-3.0083 -14.9353,-6.6455 z m 34.6892,-44.6731 c 15.7758,-21.29446 22.3454,-28.37196 26.2747,-28.30526 3.8496,0.064 10.9089,7.7575 26.6118,28.99826 11.755,15.9001 22.702,28.9095 24.327,28.9095 9.019,0 39.0471,-26.5035 36.7671,-32.45136 -1.0431,-2.7215 -13.563,-19.8629 -59.536,-81.5117 -12.6117,-16.9121 -24.0973,-32.6551 -25.5235,-34.9849 -2.2716,-3.7104 -3.9009,-2.4535 -13.1348,10.1307 -5.798,7.9016 -26.1797,35.4197 -45.2927,61.1518 l -34.751,46.7852 8.0593,8.44716 c 10.2686,10.7623 31.5415,25.3276 33.5946,23.0015 0.8622,-0.9773 11.0342,-14.5541 22.6035,-30.1709 z m 304.6094,10.2773 c -26.4215,-8.216 -31.6264,-47.96136 -8.1806,-62.46846 24.1235,-14.9264 53.5111,2.0041 53.0797,30.5796 -0.344,22.80336 -22.8081,38.75806 -44.8991,31.88886 z m 26.3168,-18.02136 c 17.1659,-17.1858 -4.424,-46.4173 -25.817,-34.9547 -7.4742,4.0047 -12.2368,17.424 -9.1081,25.6629 4.2627,11.2245 9.4136,15.2234 19.6098,15.2234 6.7519,0 11.0555,-1.6667 15.3153,-5.9316 z m 484.9296,17.03146 c -25.4293,-11.08906 -28.6569,-46.26556 -5.5832,-60.84836 11.0436,-6.9794 25.9754,-7.6768 36.1056,-1.6857 7.7698,4.595 8.7862,8.2857 3.4931,12.6836 -2.7862,2.315 -4.6529,2.1255 -8.9852,-0.9124 -8.5372,-5.987 -18.2945,-4.7891 -26.3032,3.2289 -18.8614,18.8835 2.7374,45.07546 27.7586,33.6619 4.7079,-2.1475 6.9215,-2.0696 9.8294,0.3461 3.3845,2.8124 3.356,3.55736 -0.2901,7.59126 -3.9154,4.3313 -17.6501,9.3908 -25.0432,9.225 -1.9914,-0.046 -6.933,-1.5254 -10.9815,-3.2908 z m -613.6385,-32.24446 0.6713,-33.2271 6.3808,-0.7398 c 5.5106,-0.6394 7.5913,1.2556 15.2604,13.895 4.884,8.0492 9.8653,14.6349 11.0698,14.6349 1.2045,0 4.3474,-4.0779 6.9844,-9.062 8.1587,-15.421 13.2158,-20.4614 19.6199,-19.5559 5.8358,0.8247 5.8576,0.9388 6.5269,34.0551 l 0.6715,33.22706 h -7.3093 -7.3093 v -22.33986 -22.3401 l -8.8001,13.8823 c -4.84,7.6351 -9.6851,13.8821 -10.7667,13.8821 -1.0819,0 -5.5398,-5.4725 -9.9065,-12.1612 l -7.9395,-12.161 -0.6979,20.6189 -0.6969,20.61886 h -7.2153 -7.2154 z m 161.1844,-0.6037 c 0,-33.7049 0.019,-33.8313 5.5593,-33.8313 4.1702,0 9.402,5.1617 20.9401,20.6598 8.4596,11.3629 16.3464,21.2571 17.5263,21.9871 1.2037,0.7444 1.9135,-8.0564 1.6175,-20.0556 l -0.5274,-21.3831 6.4071,-0.7645 6.4069,-0.7644 v 33.9917 c 0,33.84256 -0.028,33.99196 -5.5426,33.99196 -5.1019,0 -13.4757,-9.1381 -36.5382,-39.87256 -3.3144,-4.4169 -3.6331,-2.9083 -3.7034,17.5198 -0.072,22.21136 -0.1148,22.35276 -6.111,22.35276 h -6.0344 z m 89.1947,32.01866 c -0.063,-0.9969 -0.3338,-13.23026 -0.6039,-27.18566 l -0.4899,-25.3735 h -9.082 c -6.7184,0 -9.4506,-1.164 -10.4981,-4.4723 -2.4192,-7.6398 2.272,-9.0194 28.2375,-8.3033 24.8339,0.685 25.1348,0.7635 25.1348,6.578 0,5.2289 -1.0766,5.9023 -9.6549,6.0413 l -9.6549,0.1571 -0.6824,27.1858 c -0.6805,27.10626 -0.6997,27.18586 -6.6378,27.18586 -3.2754,0 -6.0061,-0.8157 -6.0684,-1.8125 z m 72.5251,-29.60216 c 0,-17.2781 -0.2721,-32.2304 -0.6032,-33.2272 -1.087,-3.2647 35.2418,-3.236 41.5892,0.036 9.2736,4.7756 12.4788,13.1486 8.5955,22.4536 -2.875,6.8886 -2.7331,8.0963 1.3628,11.6075 7.0094,6.0085 6.0755,19.3466 -1.788,25.53946 -5.3479,4.2115 -9.765,5.0086 -27.758,5.0086 h -21.398 z m 40.5972,12.6905 c 0.9134,-6.4389 -8.245,-10.9337 -19.9447,-9.7881 -6.405,0.6275 -7.478,1.7737 -8.1428,8.7015 l -0.7653,7.979 14.0411,-0.7297 c 12.4583,-0.6475 14.1281,-1.3421 14.8121,-6.1628 z m -4.2235,-23.7676 c 5.4042,-6.519 -0.2363,-11.8799 -12.4997,-11.8799 -10.1932,0 -10.6276,0.3005 -11.355,7.8537 -0.7508,7.7953 -0.6768,7.8537 9.9628,7.8537 6.8357,0 11.8687,-1.3866 13.8919,-3.8275 z m 31.2105,8.6606 v -33.8313 h 6.0343 6.0344 v 27.79 27.7899 h 16.896 c 16.4134,0 16.8961,0.1719 16.8961,6.04116 0,6.0201 -0.082,6.0413 -22.9304,6.0413 h -22.9304 z m 54.4131,28.39386 c 1.4287,-4.7478 6.8048,-17.60076 22.2366,-53.16326 4.9244,-11.3477 13.2089,-12.4376 18.3717,-2.4165 4.0494,7.86 25.665,58.32306 25.665,59.91676 0,0.6047 -3.0205,1.1002 -6.712,1.1002 -5.2411,0 -7.3109,-1.5886 -9.4452,-7.2495 -2.6503,-7.02906 -3.2095,-7.24946 -18.396,-7.24946 -15.233,0 -15.7321,0.1981 -18.1871,7.24946 -1.9384,5.5667 -3.9919,7.2495 -8.8468,7.2495 -5.4323,0 -6.0922,-0.7653 -4.6862,-5.4372 z m 42.1362,-22.44906 c 0,-0.7178 -2.3407,-5.8827 -5.2014,-11.4784 l -5.2014,-10.1739 -4.2744,9.6662 c -5.8674,13.2671 -5.8584,13.2909 5.0219,13.2909 5.3105,0 9.6553,-0.5873 9.6553,-1.3048 z m 34.3263,-5.1735 c 0.6468,-32.1129 0.872,-33.4229 5.8755,-34.1367 3.6915,-0.527 7.1929,1.9298 12.0548,8.4578 3.7686,5.0599 7.4626,9.7438 8.2087,10.4085 0.7461,0.6649 5.3246,6.4724 10.1747,12.9065 l 8.8183,11.6987 0.7008,-21.3648 c 0.6705,-20.4558 0.9358,-21.3644 6.232,-21.3644 5.4813,0 5.5336,0.2968 5.7726,32.6231 l 0.2414,32.62286 -5.7727,0.6512 c -4.7818,0.5398 -8.4657,-3.0768 -21.4618,-21.06876 -8.6291,-11.9461 -16.3385,-21.7546 -17.1322,-21.7961 -0.7936,-0.036 -1.4504,9.4394 -1.4596,21.069 -0.024,21.11256 -0.027,21.14536 -6.4708,21.91576 l -6.4542,0.7709 0.6722,-33.39406 z m -513.765,-64.6651 c -9.7049,-4.2284 -12.031,-8.1528 -7.5132,-12.6761 3.1991,-3.2026 4.444,-3.1766 11.0275,0.232 9.5036,4.9203 18.2644,4.8968 22.3731,-0.064 2.7729,-3.345 2.4326,-4.5518 -2.3855,-8.4578 -3.0911,-2.5057 -7.7261,-4.5559 -10.2998,-4.5559 -14.7332,0 -26.3202,-14.5358 -21.2863,-26.703 5.352,-12.9359 28.9256,-17.4006 40.8263,-7.7324 4.6617,3.7869 4.843,4.7243 1.7356,8.9706 -2.6069,3.5624 -4.2854,4.0938 -6.7484,2.1367 -5.2874,-4.2016 -16.2145,-5.2432 -20.6839,-1.9714 -5.703,4.1753 -0.7454,9.9503 11.3372,13.2077 18.0961,4.8785 25.6343,16.0815 20.2582,30.1074 -3.7643,9.821 -24.2079,13.7902 -38.6408,7.502 z m 46.7914,2.0845 c -1.3229,-1.3245 3.5528,-13.1925 20.4475,-49.7719 6.9217,-14.9863 12.7845,-20.4767 17.9426,-16.8025 2.1401,1.5244 26.3235,56.4149 27.7916,63.0801 0.4753,2.1572 -1.3459,3.8934 -4.6066,4.392 -4.1786,0.6393 -6.3163,-1.1157 -9.4984,-7.7965 -4.048,-8.4986 -4.3158,-8.6206 -18.9013,-8.6206 -14.5324,0 -14.8667,0.1498 -18.8238,8.4578 -3.6843,7.7348 -10.3856,11.0321 -14.3516,7.0616 z m 41.5221,-30.6227 c -0.054,-1.6614 -2.0551,-6.6921 -4.4434,-11.1793 l -4.3424,-8.1586 -4.0045,10.0198 c -2.2025,5.5109 -4.0046,10.5416 -4.0046,11.1794 0,0.6375 3.8017,1.1593 8.4482,1.1593 5.2032,0 8.4091,-1.1601 8.3467,-3.0206 z m 48.3757,31.1849 c 0,-0.4584 -5.9739,-15.4057 -13.2753,-33.216 -7.3017,-17.8102 -13.2756,-32.659 -13.2756,-32.9973 0,-0.3389 3.1464,-0.6156 6.9918,-0.6156 6.5996,0 7.4906,1.289 15.885,22.9785 8.0609,20.8279 13.3291,27.1624 13.3291,16.0264 0,-2.3139 0.9173,-5.2401 2.0387,-6.5027 1.1213,-1.2626 4.5123,-9.0922 7.5354,-17.3989 5.0056,-13.7537 6.1176,-15.1033 12.4438,-15.1033 3.8208,0 6.9468,0.4174 6.9468,0.9272 0,0.9742 -16.6877,42.1386 -23.3801,57.6735 -2.9249,6.7888 -5.3256,9.0618 -9.5718,9.0618 -3.1172,0 -5.6678,-0.3753 -5.6678,-0.8338 z m 58.6642,-3.8927 c -16.1967,-9.8871 -21.1181,-26.5563 -13.1587,-44.5703 4.1068,-9.2949 7.002,-12.1935 16.286,-16.305 31.2865,-13.8556 60.1017,16.5825 45.2873,47.8375 -7.5659,15.962 -32.5864,22.7001 -48.4146,13.0378 z m 28.0575,-10.8912 c 7.7522,-4.0136 9.8276,-8.0429 9.8276,-19.0816 0,-16.1455 -13.4648,-25.807 -27.6792,-19.8609 -15.1722,6.3468 -18.2196,23.4797 -6.2988,35.4141 7.8629,7.8721 14.0221,8.7717 24.1504,3.5284 z m 38.4165,13.9438 c -0.457,-1.073 -0.499,-16.3592 -0.094,-33.9695 l 0.7381,-32.0189 h 5.9682 5.9683 l -0.6715,33.2267 c -0.6459,31.9426 -0.873,33.2557 -5.8747,33.9696 -2.8617,0.4082 -5.5772,-0.1351 -6.0343,-1.2083 z m 28.615,0.1426 c -0.9286,-0.9297 -1.6883,-16.1896 -1.6883,-33.9106 v -32.2203 h 25.344 25.3442 v 6.0414 c 0,5.9068 -0.4024,6.0412 -18.1029,6.0412 h -18.103 v 7.1391 c 0,7.1321 0.019,7.1399 16.2926,7.8538 14.8038,0.6493 16.3633,1.2113 17.064,6.1517 0.7372,5.1987 0.019,5.4372 -16.2926,5.4372 h -17.064 v 8.4577 8.4579 h 19.4778 c 18.8185,0 19.4516,0.1836 18.7064,5.4372 -0.7337,5.173 -1.9498,5.4702 -25.0306,6.1202 -13.3427,0.3763 -25.0191,-0.073 -25.9476,-1.0066 z m -281.1692,-95.4407 c -13.2208,-3.8172 -17.388,-13.7268 -17.3985,-41.374 -0.01,-23.5234 7e-4,-23.5611 6.0253,-23.5611 5.9782,0 6.0342,0.1982 6.0342,21.211 0,25.7563 3.1344,31.9524 16.1635,31.9524 12.7553,0 15.0485,-4.6675 15.1383,-30.8106 l 0.072,-22.3528 h 7.515 7.5149 l -0.931,25.1791 c -1.0299,27.8534 -3.3749,32.8908 -18.2454,39.1922 -8.7841,3.7221 -10.7764,3.7734 -21.8929,0.5635 z m 372.4093,0.4228 c -15.6897,-3.6608 -21.738,-10.0053 -15.4959,-16.255 1.867,-1.8689 5.9861,-1.1809 14.5093,2.4243 11.2615,4.7635 12.1259,4.8103 16.0584,0.8731 6.06,-6.0671 1.6643,-11.2984 -13.7108,-16.3163 -7.068,-2.3068 -13.7793,-5.6607 -14.9137,-7.4528 -3.8239,-6.0408 -2.3745,-20.4175 2.5036,-24.8372 6.6821,-6.0541 21.5868,-7.4211 32.2556,-2.9583 9.4302,3.9447 10.2951,5.3992 6.6462,11.1754 -1.8753,2.969 -3.5858,3.0683 -10.3925,0.6046 -11.0843,-4.0126 -18.529,-3.705 -20.2702,0.8376 -2.049,5.3461 2.0952,8.6509 17.8971,14.272 10.4267,3.7091 14.3051,6.4281 15.9801,11.2037 6.0454,17.2363 -10.423,31.246 -31.0672,26.4292 z m -317.866,-1.9246 c -0.4105,-0.9968 -0.4124,-15.6773 0,-32.6231 l 0.7417,-30.8106 6.4998,0.055 c 5.0371,0.046 8.5534,2.8952 15.6259,12.6867 5.0196,6.9489 12.0796,16.2093 15.6893,20.5783 l 6.5629,7.9441 -0.7808,-20.6308 -0.7809,-20.6305 h 7.4184 7.4185 v 32.623 32.623 h -5.9258 c -4.5695,0 -9.2653,-4.392 -20.5167,-19.1895 -8.0249,-10.5545 -15.6771,-19.8617 -17.0046,-20.683 -1.5373,-0.9512 -2.4136,6.0166 -2.4136,19.1895 0,20.3174 -0.104,20.683 -5.8919,20.683 -3.2405,0 -6.2275,-0.8156 -6.6378,-1.8124 z m 72.8727,-30.6502 v -32.7835 h 7.3114 7.3111 l -0.6733,32.0189 -0.6733,32.0189 -6.6376,0.7645 -6.6379,0.7645 z m 49.198,28.3954 c -0.8046,-2.4149 -5.0539,-13.0901 -9.4427,-23.7228 -4.3889,-10.6327 -9.643,-23.4101 -11.6757,-28.3942 l -3.6959,-9.0619 h 7.0051 c 7.6066,0 11.2899,6.0509 20.4028,33.5188 2.341,7.056 5.0374,11.9159 5.9923,10.7997 0.9551,-1.1162 5.3354,-11.5444 9.7345,-23.1739 7.4815,-19.7792 8.4432,-21.1446 14.8937,-21.1446 3.7928,0 6.8959,0.3252 6.8959,0.7225 0,0.3973 -5.8021,14.8057 -12.8934,32.0189 -11.6177,28.1995 -13.5297,31.372 -19.3235,32.0621 -4.5103,0.537 -6.867,-0.5453 -7.8931,-3.6247 z m 49.7648,-28.5559 c 0,-24.4092 0.76,-32.6599 3.0173,-32.7696 1.6594,-0.082 13.0647,-0.3526 25.3449,-0.6038 21.6812,-0.4447 22.3276,-0.3005 22.3269,4.9797 -7e-4,5.1552 -0.9397,5.4372 -18.1038,5.4372 h -18.1029 v 8.4579 8.4578 h 15.2869 c 17.0679,0 18.5156,0.6466 16.7316,7.4767 -1.0371,3.9707 -3.1396,4.7156 -12.4097,4.3961 -19.0608,-0.6567 -19.6088,-0.4485 -19.6088,7.4593 v 7.2496 h 18.1029 c 17.7008,0 18.1029,0.1351 18.1029,6.0412 v 6.0414 h -25.3439 -25.3443 z m 62.757,0 v -32.623 h 21.8332 c 19.9628,0 22.3409,0.5078 27.7579,5.9314 8.7749,8.7849 8.0984,20.8059 -1.6323,29.0032 l -7.5569,6.3661 7.5569,9.4143 c 9.2864,11.5691 9.4738,14.5325 0.9192,14.5257 -5.1713,0 -8.2376,-2.3949 -13.8788,-10.8211 -5.6142,-8.3856 -8.7329,-10.8279 -13.8792,-10.8693 -6.2656,-0.055 -6.6376,0.5562 -6.6376,10.8214 0,10.4715 -0.2683,10.8744 -7.2413,10.8744 h -7.2411 z m 36.3646,-3.7098 c 2.6491,-1.4195 4.6687,-5.0414 4.6687,-8.3727 0,-7.0875 -6.249,-10.8744 -17.9443,-10.8744 -8.5912,0 -8.6066,0.027 -8.6066,10.8744 0,10.8549 0.019,10.8743 8.6066,10.8743 4.7337,0 10.7077,-1.1259 13.2756,-2.5016 z m 91.5629,3.7098 v -32.623 h 7.2411 7.2413 v 32.623 32.6231 h -7.2413 -7.2411 z m 45.3363,5.4372 -0.6822,-27.1859 -10.2584,-0.7434 c -8.2933,-0.601 -10.2582,-1.6423 -10.2582,-5.4372 0,-2.7434 1.7551,-4.8207 4.2238,-4.9988 3.2603,-0.2347 38.9987,-0.055 49.4815,0.2521 0.9957,0.027 1.8103,2.1649 1.8103,4.7467 0,3.7949 -1.965,4.8365 -10.2583,5.4373 l -10.2584,0.7434 -0.6823,27.1858 c -0.6778,27.0051 -0.7217,27.1859 -6.5589,27.1859 -5.837,0 -5.8805,-0.1808 -6.5586,-27.1859 z m 45.5807,25.5748 c -0.8848,-0.886 -1.6091,-15.4805 -1.6091,-32.4321 v -30.8211 l 17.4996,-0.7955 c 26.5511,-1.2063 33.1888,-0.1262 33.1888,5.3992 0,4.213 -1.8067,4.6801 -18.1031,4.6801 h -18.1027 v 8.4578 8.4578 h 15.6891 c 15.2439,0 15.6892,0.1762 15.6892,6.2165 0,5.9367 -0.5704,6.1994 -12.6719,5.8352 -21.1552,-0.6366 -21.1205,-0.6485 -21.1205,7.1788 v 7.1478 l 18.7066,0.706 c 17.3118,0.653 18.7638,1.1112 19.4776,6.1431 0.7553,5.3242 0.2763,5.4371 -23.1315,5.4371 -13.1466,0 -24.627,-0.7252 -25.5121,-1.6111 z m -751.8505,-66.7441 c -3.2051,-3.8662 -10.9543,-51.544099 -9.145,-56.264599 0.7288,-1.9008 3.6184,-3.4559 6.422,-3.4559 3.6907,0 6.1258,2.621 8.8237,9.497299 4.2,10.7044 13.1685,15.8757 23.1731,13.3619 7.5596,-1.8997 11.0508,-5.7451 13.4833,-14.851099 1.3496,-5.0521 3.2997,-6.7998 7.5868,-6.7998 4.4743,0 6.291,1.8174 8.0884,8.091999 1.6089,5.6162 4.7752,9.2651 10.3487,11.926 7.3675,3.5174 8.7206,3.5046 16.3883,-0.1571 5.973,-2.8515 8.9439,-6.2546 10.4118,-11.926 1.6141,-6.236099 3.3138,-7.935899 7.9349,-7.935899 4.4328,0 6.0942,1.4876 6.7471,6.0413 0.9479,6.612199 -3.4108,35.254899 -7.2628,47.726299 l -2.4258,7.8537 h -48.9987 c -36.9965,0 -49.63,-0.7617 -51.5758,-3.1089 z m 88.8802,-17.1522 c 0,-2.4071 -3.2346,-3.2967 -11.5329,-3.1714 -7.1726,0.1087 -14.3996,-1.521 -19.115,-4.3097 -7.3878,-4.3691 -7.757,-4.3686 -14.4146,0.027 -4.3803,2.887 -11.38,4.5506 -19.5024,4.6346 -12.1855,0.1261 -14.53,1.0928 -11.0653,4.5617 0.8851,0.886 18.2641,1.6109 38.6198,1.6109 29.916,2e-4 37.0104,-0.6412 37.0104,-3.3455 z m 683.0848,13.5495 c 0,-4.3846 7.8722,-12.6204 12.0629,-12.6204 7.2402,0 8.5473,5.1842 2.5361,10.0573 -5.5098,4.4668 -14.599,6.0624 -14.599,2.5631 z"
         id="path817-6-2-0"
         inkscape:connector-curvature="0"
         sodipodi:nodetypes="cssccccccccccccccccccccccscccccscccccccccccccsccccccccccscccccscccccccccccccccccscccccccccsccccccccsccccccssccscccccsccscccsccccccccsccccccccccscscccccccssscccccsscscscscccsscccccccscccccccccccccccscccccccccccccccscccsccsscccsscsccsscsccccccccscccccccccccccscccsscsccscccsccccccsssccccscccccccccccccccccccccccccccccccsccsscccccccccccccccscccssccccscccscccsccscsscccsccscccccccsscccssssccccccccccccssccscccscccsccsscccsscscccsccccscccscsccscccsccsccccccsssscs" />
    </g>
  </g>
</svg>
