<?xml version="1.0" encoding="UTF-8" standalone="no"?>
<!-- Created with Inkscape (http://www.inkscape.org/) -->

<svg
   xmlns:dc="http://purl.org/dc/elements/1.1/"
   xmlns:cc="http://creativecommons.org/ns#"
   xmlns:rdf="http://www.w3.org/1999/02/22-rdf-syntax-ns#"
   xmlns:svg="http://www.w3.org/2000/svg"
   xmlns="http://www.w3.org/2000/svg"
   xmlns:sodipodi="http://sodipodi.sourceforge.net/DTD/sodipodi-0.dtd"
   xmlns:inkscape="http://www.inkscape.org/namespaces/inkscape"
   width="22.225mm"
   height="25.399998mm"
   viewBox="0 0 22.225 25.399998"
   version="1.1"
   id="svg253"
   inkscape:version="0.92.3 (2405546, 2018-03-11)"
   sodipodi:docname="pause.svg">
  <defs
     id="defs247" />
  <sodipodi:namedview
     id="base"
     pagecolor="#ffffff"
     bordercolor="#666666"
     borderopacity="1.0"
     inkscape:pageopacity="0.0"
     inkscape:pageshadow="2"
     inkscape:zoom="0.35"
     inkscape:cx="-345.14285"
     inkscape:cy="-237.71429"
     inkscape:document-units="mm"
     inkscape:current-layer="layer1"
     showgrid="false"
     inkscape:window-width="1853"
     inkscape:window-height="1145"
     inkscape:window-x="67"
     inkscape:window-y="27"
     inkscape:window-maximized="1" />
  <metadata
     id="metadata250">
    <rdf:RDF>
      <cc:Work
         rdf:about="">
        <dc:format>image/svg+xml</dc:format>
        <dc:type
           rdf:resource="http://purl.org/dc/dcmitype/StillImage" />
        <dc:title></dc:title>
      </cc:Work>
    </rdf:RDF>
  </metadata>
  <g
     inkscape:label="Layer 1"
     inkscape:groupmode="layer"
     id="layer1"
     transform="translate(-65.994641,-60.538096)">
    <path
       style="fill:#515151;fill-opacity:1;stroke-width:0.26458332"
       d="m 66.432521,85.454243 c -0.39365,-0.43498 -0.43788,-1.67362 -0.43788,-12.26212 0,-11.074571 0.0289,-11.804424 0.48385,-12.216145 0.39579,-0.358181 1.08445,-0.437882 3.78355,-0.437882 2.21364,0 3.40418,0.1045 3.61718,0.3175 0.45704,0.457033 0.45704,24.307967 0,24.764997 -0.21346,0.21347 -1.41375,0.3175 -3.66316,0.3175 -2.9052,0 -3.4033,-0.0637 -3.78354,-0.48385 z m 13.90254,0.16635 c -0.45704,-0.45703 -0.45704,-24.307964 0,-24.764997 0.21368,-0.213686 1.41867,-0.3175 3.68526,-0.3175 2.70883,0 3.44912,0.08135 3.78355,0.415774 0.36559,0.365594 0.41577,1.845492 0.41577,12.262113 0,11.14053 -0.0288,11.87244 -0.48385,12.28423 -0.39579,0.35818 -1.08445,0.43788 -3.78355,0.43788 -2.21364,0 -3.40418,-0.1045 -3.61718,-0.3175 z"
       id="path102"
       inkscape:connector-curvature="0" />
  </g>
</svg>
