<?xml version="1.0" encoding="UTF-8" standalone="no"?>
<!-- Generator: Adobe Illustrator 19.0.0, SVG Export Plug-In . SVG Version: 6.00 Build 0)  -->

<svg
   xmlns:dc="http://purl.org/dc/elements/1.1/"
   xmlns:cc="http://creativecommons.org/ns#"
   xmlns:rdf="http://www.w3.org/1999/02/22-rdf-syntax-ns#"
   xmlns:svg="http://www.w3.org/2000/svg"
   xmlns="http://www.w3.org/2000/svg"
   xmlns:sodipodi="http://sodipodi.sourceforge.net/DTD/sodipodi-0.dtd"
   xmlns:inkscape="http://www.inkscape.org/namespaces/inkscape"
   version="1.1"
   id="Capa_1"
   x="0px"
   y="0px"
   viewBox="0 0 360 360"
   xml:space="preserve"
   sodipodi:docname="menu.svg"
   width="360"
   height="360"
   inkscape:version="0.92.3 (2405546, 2018-03-11)"><metadata
   id="metadata961"><rdf:RDF><cc:Work
       rdf:about=""><dc:format>image/svg+xml</dc:format><dc:type
         rdf:resource="http://purl.org/dc/dcmitype/StillImage" /><dc:title></dc:title></cc:Work></rdf:RDF></metadata><defs
   id="defs959" /><sodipodi:namedview
   pagecolor="#ffffff"
   bordercolor="#666666"
   borderopacity="1"
   objecttolerance="10"
   gridtolerance="10"
   guidetolerance="10"
   inkscape:pageopacity="0"
   inkscape:pageshadow="2"
   inkscape:window-width="1859"
   inkscape:window-height="1025"
   id="namedview957"
   showgrid="false"
   inkscape:zoom="0.58281067"
   inkscape:cx="154.17617"
   inkscape:cy="401.49017"
   inkscape:window-x="61"
   inkscape:window-y="27"
   inkscape:window-maximized="1"
   inkscape:current-layer="Capa_1" />


<g
   id="g972"
   transform="matrix(0.703125,0,0,1,0,-76)"><g
     id="g912">
	<g
   id="g910">
		<path
   id="path908"
   d="M 492,236 H 20 c -11.046,0 -20,8.954 -20,20 0,11.046 8.954,20 20,20 h 472 c 11.046,0 20,-8.954 20,-20 0,-11.046 -8.954,-20 -20,-20 z"
   inkscape:connector-curvature="0" />
	</g>
</g><g
     id="g918">
	<g
   id="g916">
		<path
   id="path914"
   d="M 492,76 H 20 C 8.954,76 0,84.954 0,96 c 0,11.046 8.954,20 20,20 h 472 c 11.046,0 20,-8.954 20,-20 0,-11.046 -8.954,-20 -20,-20 z"
   inkscape:connector-curvature="0" />
	</g>
</g><g
     id="g924">
	<g
   id="g922">
		<path
   id="path920"
   d="M 492,396 H 20 c -11.046,0 -20,8.954 -20,20 0,11.046 8.954,20 20,20 h 472 c 11.046,0 20,-8.954 20,-20 0,-11.046 -8.954,-20 -20,-20 z"
   inkscape:connector-curvature="0" />
	</g>
</g></g>
<g
   id="g926"
   transform="translate(-35.184834,-35.962085)">
</g>
<g
   id="g928"
   transform="translate(-35.184834,-35.962085)">
</g>
<g
   id="g930"
   transform="translate(-35.184834,-35.962085)">
</g>
<g
   id="g932"
   transform="translate(-35.184834,-35.962085)">
</g>
<g
   id="g934"
   transform="translate(-35.184834,-35.962085)">
</g>
<g
   id="g936"
   transform="translate(-35.184834,-35.962085)">
</g>
<g
   id="g938"
   transform="translate(-35.184834,-35.962085)">
</g>
<g
   id="g940"
   transform="translate(-35.184834,-35.962085)">
</g>
<g
   id="g942"
   transform="translate(-35.184834,-35.962085)">
</g>
<g
   id="g944"
   transform="translate(-35.184834,-35.962085)">
</g>
<g
   id="g946"
   transform="translate(-35.184834,-35.962085)">
</g>
<g
   id="g948"
   transform="translate(-35.184834,-35.962085)">
</g>
<g
   id="g950"
   transform="translate(-35.184834,-35.962085)">
</g>
<g
   id="g952"
   transform="translate(-35.184834,-35.962085)">
</g>
<g
   id="g954"
   transform="translate(-35.184834,-35.962085)">
</g>
</svg>